<svg id="Layer_1" data-name="Layer 1" xmlns="http://www.w3.org/2000/svg" xmlns:xlink="http://www.w3.org/1999/xlink" viewBox="0 0 1152 648"><defs><style>.cls-1{fill:none;}.cls-2{clip-path:url(#clip-path);}.cls-3{fill:#447099;}.cls-4{clip-path:url(#clip-path-2);}.cls-5{fill:#22384c;}.cls-6{fill:#d0dbe5;}</style><clipPath id="clip-path"><rect class="cls-1" x="-1210.66" y="-757.33" width="1152" height="648"/></clipPath><clipPath id="clip-path-2"><rect class="cls-1" y="-757.33" width="1152" height="648"/></clipPath></defs><g class="cls-2"><path class="cls-3" d="M182.65-1.49A6.9,6.9,0,0,1,176,5.33c-3.75,0-7.22-3.41-7.13-7a7.52,7.52,0,0,1,6.88-6.87A7,7,0,0,1,182.65-1.49Z"/><path class="cls-3" d="M87-1.17a6.2,6.2,0,0,1-6.38,6.44,6.38,6.38,0,0,1-5.93-6.49,6.1,6.1,0,0,1,6-6.37A6.1,6.1,0,0,1,87-1.17Z"/><path class="cls-3" d="M138.09-7.7A6.57,6.57,0,0,1,144.28-1c-.14,3.26-2.93,5.57-6.66,5.51s-6.18-2.52-6.11-6A6.25,6.25,0,0,1,138.09-7.7Z"/><path class="cls-3" d="M334.21-1.6c0,3.67-2.29,6-6,6.07-4,.08-6.78-2.38-6.81-6,0-3.25,3.31-6.34,6.74-6.27A6,6,0,0,1,334.21-1.6Z"/><path class="cls-3" d="M239.14-1.62a6,6,0,0,1-6.31,6,6.21,6.21,0,0,1-6.14-6.2,6.37,6.37,0,0,1,6.08-5.85A6.5,6.5,0,0,1,239.14-1.62Z"/><path class="cls-3" d="M505.07-1.69A6,6,0,0,1,499,4.42a5.69,5.69,0,0,1-6-5.6,6.1,6.1,0,0,1,5.77-6.49A6.28,6.28,0,0,1,505.07-1.69Z"/><path class="cls-3" d="M403.78,4.37c-3.32-.06-6.16-2.65-6.19-5.64s3-6.05,6.37-6.12A6.43,6.43,0,0,1,410-1.07,5.85,5.85,0,0,1,403.78,4.37Z"/><path class="cls-3" d="M366,4.36c-3.78,0-5.88-1.9-6-5.43s2.41-6.35,5.77-6.35a6.55,6.55,0,0,1,6.23,6.2A5.75,5.75,0,0,1,366,4.36Z"/><path class="cls-3" d="M195,4.36A5.57,5.57,0,0,1,189-1.31a5.82,5.82,0,0,1,5.89-6.26c2.9.06,6.07,3,6.19,5.84A6,6,0,0,1,195,4.36Z"/><path class="cls-3" d="M5,4.36a6.09,6.09,0,0,1-6.24-6c.06-2.87,3.05-5.81,6-5.93a6.11,6.11,0,0,1,6,6.16A5.65,5.65,0,0,1,5,4.36Z"/><path class="cls-3" d="M480.12,4.36A5.91,5.91,0,0,1,473.73-1c-.23-3.19,2.72-6.17,6.15-6.21a5.77,5.77,0,0,1,6,5.71A5.57,5.57,0,0,1,480.12,4.36Z"/><path class="cls-3" d="M390.83-1.2c-.06,3.37-2.43,5.58-6,5.57a5.83,5.83,0,0,1-6.06-6.06c.14-3.19,2.72-5.33,6.31-5.24S390.89-4.7,390.83-1.2Z"/><path class="cls-3" d="M518,4.34c-2.92,0-6.13-2.95-6.19-5.71,0-3.08,2.58-5.51,6-5.56,3.83-.06,5.9,1.83,5.92,5.4A5.75,5.75,0,0,1,518,4.34Z"/><path class="cls-3" d="M290-6.93c3.37,0,5.72,2.2,5.71,5.27a6.37,6.37,0,0,1-6,5.83A5.88,5.88,0,0,1,284.11-2C284.26-5.26,286.29-7,290-6.93Z"/><path class="cls-3" d="M162.28-1.6a5.56,5.56,0,0,1-5.36,5.73,5.88,5.88,0,0,1-5.73-5.5c-.13-3,2.27-5.38,5.54-5.45C160.31-6.9,162.26-5.06,162.28-1.6Z"/><path class="cls-3" d="M276.49-1.65a6,6,0,0,1-5.44,5.88,5.79,5.79,0,0,1-5.75-6c.1-3.07,2.16-5,5.41-5.08C274.19-6.9,276.48-4.85,276.49-1.65Z"/><path class="cls-3" d="M341.56-1.39a5.11,5.11,0,0,1,5.58-5.32,5.38,5.38,0,0,1,5.29,5.28A5.72,5.72,0,0,1,347,4.26,5.47,5.47,0,0,1,341.56-1.39Z"/><path class="cls-3" d="M441.84-6.72a5.28,5.28,0,0,1,5.6,5.43,5.7,5.7,0,0,1-5.17,5.54A5.92,5.92,0,0,1,436.33-1,5.74,5.74,0,0,1,441.84-6.72Z"/><path class="cls-3" d="M460.94-6.8a5.22,5.22,0,0,1,5.5,5,5.91,5.91,0,0,1-5.38,5.87c-2.73.08-5.84-2.85-5.85-5.51A5.5,5.5,0,0,1,460.94-6.8Z"/><path class="cls-3" d="M542.29-1.37a5.46,5.46,0,0,1-5.44,5.62,5.84,5.84,0,0,1-5.56-5.67,5.54,5.54,0,0,1,5.33-5.31A5.36,5.36,0,0,1,542.29-1.37Z"/><path class="cls-3" d="M417.64-1.7c.06-3.24,1.91-5.08,5.16-5.11a5.55,5.55,0,0,1,5.78,5.28,6.29,6.29,0,0,1-5.7,5.63A5.51,5.51,0,0,1,417.64-1.7Z"/><path class="cls-3" d="M208.64-1.71c.1-3.49,2.1-5.3,5.64-5.1a5.09,5.09,0,0,1,5.08,5.39A5.48,5.48,0,0,1,214,3.85,5.09,5.09,0,0,1,208.64-1.71Z"/><path class="cls-3" d="M119,2.32a3.94,3.94,0,0,1-4-4,4.11,4.11,0,0,1,3.83-3.82,4.42,4.42,0,0,1,4.11,4.08A4.05,4.05,0,0,1,119,2.32Z"/><path class="cls-3" d="M255.83-1.48a3.76,3.76,0,0,1-3.75,3.79,3.94,3.94,0,0,1-4.18-3.87,4.74,4.74,0,0,1,3.83-4A4.18,4.18,0,0,1,255.83-1.48Z"/><path class="cls-3" d="M65.88-1.63a3.87,3.87,0,0,1-4,4.12,4,4,0,0,1-4-4.17,4,4,0,0,1,3.71-4A4.22,4.22,0,0,1,65.88-1.63Z"/><path class="cls-3" d="M305.31-1.25c-.08-2.3,1.33-4.11,3.28-4.2a4.13,4.13,0,0,1,4.21,4A4.09,4.09,0,0,1,309,2.39C306.77,2.55,305.4,1.2,305.31-1.25Z"/><path class="cls-3" d="M26-1.47C25.72,0,25,.65,23.72.59a1.81,1.81,0,0,1-1.86-2.16C22-3,22.75-3.92,24.27-3.7,25.59-3.51,25.72-2.3,26-1.47Z"/><path class="cls-3" d="M182.65,16a6.91,6.91,0,0,1-6.7,6.83c-3.75,0-7.22-3.42-7.13-7a7.51,7.51,0,0,1,6.88-6.86A7,7,0,0,1,182.65,16Z"/><path class="cls-3" d="M87,16.31a6.19,6.19,0,0,1-6.38,6.43,6.36,6.36,0,0,1-5.93-6.48,6.16,6.16,0,1,1,12.31,0Z"/><path class="cls-3" d="M138.09,9.78a6.57,6.57,0,0,1,6.19,6.65c-.14,3.27-2.93,5.57-6.66,5.51s-6.18-2.52-6.11-6A6.25,6.25,0,0,1,138.09,9.78Z"/><path class="cls-3" d="M334.21,15.88c0,3.67-2.29,6-6,6.06-4,.08-6.78-2.38-6.81-6,0-3.25,3.31-6.34,6.74-6.26A6,6,0,0,1,334.21,15.88Z"/><path class="cls-3" d="M239.14,15.86a6,6,0,0,1-6.31,6,6.2,6.2,0,0,1-6.14-6.19,6.37,6.37,0,0,1,6.08-5.86A6.51,6.51,0,0,1,239.14,15.86Z"/><path class="cls-3" d="M505.07,15.79a5.94,5.94,0,0,1-6.1,6.1,5.67,5.67,0,0,1-6-5.59,6.09,6.09,0,0,1,5.77-6.49A6.26,6.26,0,0,1,505.07,15.79Z"/><path class="cls-3" d="M403.78,21.85c-3.32-.06-6.16-2.65-6.19-5.65s3-6,6.37-6.12A6.43,6.43,0,0,1,410,16.4,5.86,5.86,0,0,1,403.78,21.85Z"/><path class="cls-3" d="M366,21.83c-3.78,0-5.88-1.89-6-5.43s2.41-6.35,5.77-6.35a6.56,6.56,0,0,1,6.23,6.2A5.74,5.74,0,0,1,366,21.83Z"/><path class="cls-3" d="M195,21.84A5.58,5.58,0,0,1,189,16.17a5.81,5.81,0,0,1,5.89-6.26c2.9.05,6.07,3,6.19,5.83A6,6,0,0,1,195,21.84Z"/><path class="cls-3" d="M5,21.84a6.09,6.09,0,0,1-6.24-6c.06-2.87,3.05-5.8,6-5.93a6.12,6.12,0,0,1,6,6.16A5.67,5.67,0,0,1,5,21.84Z"/><path class="cls-3" d="M480.12,21.83a5.9,5.9,0,0,1-6.39-5.36c-.23-3.19,2.72-6.17,6.15-6.21a5.76,5.76,0,0,1,6,5.71A5.56,5.56,0,0,1,480.12,21.83Z"/><path class="cls-3" d="M390.83,16.28c-.06,3.36-2.43,5.57-6,5.56a5.82,5.82,0,0,1-6.06-6.06c.14-3.18,2.72-5.33,6.31-5.24S390.89,12.78,390.83,16.28Z"/><path class="cls-3" d="M518,21.81c-2.92,0-6.13-2.94-6.19-5.7,0-3.08,2.58-5.51,6-5.56,3.83-.06,5.9,1.82,5.92,5.4A5.74,5.74,0,0,1,518,21.81Z"/><path class="cls-3" d="M290,10.54c3.37,0,5.72,2.21,5.71,5.27a6.39,6.39,0,0,1-6,5.84,5.88,5.88,0,0,1-5.54-6.14C284.26,12.22,286.29,10.5,290,10.54Z"/><path class="cls-3" d="M162.28,15.87a5.57,5.57,0,0,1-5.36,5.74,5.89,5.89,0,0,1-5.73-5.51c-.13-3,2.27-5.37,5.54-5.45C160.31,10.58,162.26,12.41,162.28,15.87Z"/><path class="cls-3" d="M276.49,15.83a6,6,0,0,1-5.44,5.88,5.8,5.8,0,0,1-5.75-6c.1-3.06,2.16-5,5.41-5.08C274.19,10.57,276.48,12.62,276.49,15.83Z"/><path class="cls-3" d="M341.56,16.09a5.12,5.12,0,0,1,5.58-5.33,5.39,5.39,0,0,1,5.29,5.29A5.71,5.71,0,0,1,347,21.73,5.45,5.45,0,0,1,341.56,16.09Z"/><path class="cls-3" d="M441.84,10.76a5.27,5.27,0,0,1,5.6,5.42,5.71,5.71,0,0,1-5.17,5.55,5.93,5.93,0,0,1-5.94-5.3A5.73,5.73,0,0,1,441.84,10.76Z"/><path class="cls-3" d="M460.94,10.67a5.22,5.22,0,0,1,5.5,5,5.92,5.92,0,0,1-5.38,5.88c-2.73.08-5.84-2.85-5.85-5.51A5.51,5.51,0,0,1,460.94,10.67Z"/><path class="cls-3" d="M542.29,16.11a5.47,5.47,0,0,1-5.44,5.62,5.86,5.86,0,0,1-5.56-5.68,5.54,5.54,0,0,1,5.33-5.3A5.35,5.35,0,0,1,542.29,16.11Z"/><path class="cls-3" d="M560.46-1.37A5.46,5.46,0,0,1,555,4.25a5.84,5.84,0,0,1-5.56-5.67,5.55,5.55,0,0,1,5.34-5.31A5.35,5.35,0,0,1,560.46-1.37Z"/><path class="cls-3" d="M560.46,16.11A5.46,5.46,0,0,1,555,21.73a5.86,5.86,0,0,1-5.56-5.68,5.54,5.54,0,0,1,5.34-5.3A5.34,5.34,0,0,1,560.46,16.11Z"/><path class="cls-3" d="M417.64,15.78c.06-3.25,1.91-5.08,5.16-5.11a5.54,5.54,0,0,1,5.78,5.27c0,2.73-3,5.66-5.7,5.64A5.52,5.52,0,0,1,417.64,15.78Z"/><path class="cls-3" d="M208.64,15.77c.1-3.49,2.1-5.31,5.64-5.11a5.09,5.09,0,0,1,5.08,5.4A5.49,5.49,0,0,1,214,21.33,5.1,5.1,0,0,1,208.64,15.77Z"/><path class="cls-3" d="M119,19.79a3.93,3.93,0,0,1-4-4A4.12,4.12,0,0,1,118.74,12a4.43,4.43,0,0,1,4.11,4.09A4,4,0,0,1,119,19.79Z"/><path class="cls-3" d="M255.83,16a3.76,3.76,0,0,1-3.75,3.78,3.94,3.94,0,0,1-4.18-3.86,4.76,4.76,0,0,1,3.83-4A4.19,4.19,0,0,1,255.83,16Z"/><path class="cls-3" d="M65.88,15.84a3.88,3.88,0,0,1-4,4.13,4.08,4.08,0,0,1-.26-8.14A4.23,4.23,0,0,1,65.88,15.84Z"/><path class="cls-3" d="M305.31,16.22c-.08-2.3,1.33-4.1,3.28-4.19a4.12,4.12,0,0,1,4.21,4A4.09,4.09,0,0,1,309,19.86C306.77,20,305.4,18.68,305.31,16.22Z"/><path class="cls-3" d="M26,16c-.29,1.44-1,2.12-2.29,2a1.81,1.81,0,0,1-1.86-2.16c.09-1.45.89-2.34,2.41-2.13C25.59,14,25.72,15.17,26,16Z"/></g><g class="cls-4"><path class="cls-3" d="M990.21,421.23a51.93,51.93,0,0,1,3.12-5.68c2.34-3.26,2.61-6.46.48-9.48a4.86,4.86,0,0,0-7-1.41c-.5.32-.95.72-1.44,1-3.55,2.44-6.36,2.43-9.87,0-3.83-2.68-4.52-2.67-8.49.08-3.67,2.54-8.07,2.16-10.91-.95a8,8,0,0,1-.29-10.59c2.9-3.36,7.37-4.14,11-1.41,3.2,2.41,5.88,2.33,9-.06s6.37-2,9.51.19c3.5,2.5,5.4,2.69,7.55.74a7.27,7.27,0,0,0,1.23-9.34c-.46-.76-1.08-1.42-1.61-2.13a8.12,8.12,0,0,1,0-10.3c3.73-4.84,3.73-6.94,0-11.85a8.3,8.3,0,0,1-.37-10,8.18,8.18,0,0,1,9.33-2.84,7.76,7.76,0,0,1,5.27,8.36,9.89,9.89,0,0,1-2,4.55c-3.12,4-3.2,7.88.07,11.68a7.83,7.83,0,0,1,.63,9.84c-.46.68-1,1.28-1.5,1.94-2.25,3.1-2.28,5.9-.1,9,4.15,6,4.15,7.54,0,13.26-2.18,3-2,6.37.28,9.48a14.06,14.06,0,0,1,2.39,4.19,7.38,7.38,0,0,1-2.59,8.2,7.58,7.58,0,0,1-8.74,1.06C992.2,427.41,990.69,424.91,990.21,421.23Z"/><path class="cls-3" d="M1099,268.51a50.16,50.16,0,0,1-3.1,5.68c-2.35,3.24-2.65,6.52-.54,9.49a4.94,4.94,0,0,0,7.21,1.33c5.6-3.73,6.81-3.76,12.39,0a4.89,4.89,0,0,0,5.64.13c.77-.44,1.44-1.06,2.2-1.53a8,8,0,0,1,10.2,1.16,8.09,8.09,0,0,1,.68,10.43c-2.37,3.15-6.94,4.59-10.12,2.33-4-2.86-7.24-2.95-11.21,0-2.65,2-5.82,1.21-8.53-.75-3.37-2.44-5.4-2.61-7.56-.66a7.34,7.34,0,0,0-1.34,9,31.93,31.93,0,0,0,2,2.69,8,8,0,0,1,.13,9.57c-4.22,6.12-4.23,6.69-.07,12.75a8.34,8.34,0,0,1-.13,9.79,8.23,8.23,0,0,1-9.46,2.5,7.83,7.83,0,0,1-5-8.37,10.87,10.87,0,0,1,2.24-4.68c2.75-3.49,2.89-7.57.06-11-3.24-4-3.27-7.41-.11-11.43s3.14-6.65.11-10.64c-3.3-4.36-3.26-7.58.16-11.85,2.82-3.52,2.71-6.88-.36-10.68-3.3-4.1-2.79-9.32,1.21-12.15a7.67,7.67,0,0,1,8.42-.63,7.58,7.58,0,0,1,4.3,7.23Z"/><path class="cls-3" d="M1016.76,187.37c-4.39,0-7.83-3.66-8-8.43a20.45,20.45,0,0,0-.67-5.49c-1.63-4.9-5.32-7.54-10.31-8.41a8.48,8.48,0,0,1-5.93-3.55,8,8,0,0,1,4-12.08c1.24-.46,2.58-.66,3.87-1a11.78,11.78,0,0,0,9-11.78,11.9,11.9,0,0,1,2.75-8c2.69-3.24,2.67-6.41.18-9.76-3.86-5.17-3.88-7.47-.15-12.51,2.76-3.72,2.63-6.47-.49-10.48s-3-7.88,0-11.1A8.09,8.09,0,0,1,1024,94.3a27.82,27.82,0,0,1-1.84,2.51,7.43,7.43,0,0,0,0,9.29c4.05,5.4,4.05,7.35,0,12.83-2.46,3.35-2.36,6.44.47,9.95,2.06,2.53,3.12,5.23,2,8.45a7.75,7.75,0,0,1-6.47,5.42c-5.44.89-9.52,3.62-10.88,9.15-1.09,4.43-1.26,9,1.21,13.19,2.19,3.69,5.63,5.49,9.82,6.21a7.91,7.91,0,0,1,6.73,8.61A8.17,8.17,0,0,1,1016.76,187.37Z"/><path class="cls-3" d="M1071.9,565.44c-2.22.69-3.46-.25-4.07-2.53a8.39,8.39,0,0,0-1.74-2.55c-4.1-5.36-1.67-12,4.94-13.36.8-.17,1.62-.28,2.4-.51a12,12,0,0,0,8.89-10.8,25.6,25.6,0,0,0-.27-7.53c-1.3-5.46-5.08-8.52-10.57-9.52-4.65-.85-7.35-3.88-7.31-8.15s2.8-7.3,7.17-8.06c4.71-.82,9,3.41,9.07,8.9.06,6.75,3.39,11.44,9.31,13.05,1,.27,2,.38,3,.65a8,8,0,0,1,5.94,7,7.92,7.92,0,0,1-4.4,7.86c-1,.51-2.27.69-3.37,1.11a31.37,31.37,0,0,0-5.48,2.34,10.44,10.44,0,0,0-5,9.39,11.82,11.82,0,0,1-3.06,8.79,3.07,3.07,0,0,0-.83,1.3C1076.13,565.69,1074.22,565.85,1071.9,565.44Z"/><path class="cls-3" d="M990.9,466.22a8.64,8.64,0,0,1,7.35-8.51,3.62,3.62,0,0,1,1.91.37c1.79.89,3.57,1.82,5.28,2.86a4.5,4.5,0,0,0,5.38-.2c5.52-3.79,7.15-3.77,12.6-.05,2.39,1.64,3.84,1.51,6.64-.59,3.5-2.63,6.93-2.83,10-.59a8,8,0,0,1,2.33,10.35c-1.91,3.62-5.45,5-9.43,3.49a23.33,23.33,0,0,1-3.73-2,5.23,5.23,0,0,0-6.4.27c-4.49,3.31-7,3.26-11.48,0-2.76-2-4.1-2-7,.16-2.39,1.79-4.91,2.73-7.9,1.83A7.53,7.53,0,0,1,990.9,466.22Z"/><path class="cls-3" d="M1098.25,223.66a8.35,8.35,0,0,1-7.2,8.33,3.83,3.83,0,0,1-2.12-.31,52,52,0,0,1-5.07-2.78,4.51,4.51,0,0,0-5.55.16c-5.36,3.79-7.11,3.75-12.58,0-2.47-1.69-3.67-1.63-6.6.62s-6,2.95-9.3,1.06a8,8,0,0,1-3.28-10.41c1.85-4,5.6-5.5,9.85-3.82a30.05,30.05,0,0,1,3.91,2.1,4.84,4.84,0,0,0,5.63-.24c5.35-3.63,6.84-3.61,12.22,0,2.39,1.62,3.76,1.39,6.53-.26a13.93,13.93,0,0,1,5.86-2.19C1095,215.68,1098.25,219.21,1098.25,223.66Z"/><path class="cls-3" d="M1127.11,343a7.86,7.86,0,0,1-7.07-11.77c2.87-5.13,3-9.84-.08-14.88a7.64,7.64,0,0,1,2.09-10,8.12,8.12,0,0,1,10.28.09,7.93,7.93,0,0,1,1.9,10.08c-3,4.89-2.94,9.48-.08,14.45A8,8,0,0,1,1127.11,343Z"/><path class="cls-3" d="M1027.13,421.6a36.68,36.68,0,0,1,1.56-4.57c2.31-4.69,2.92-9.14-.23-13.86-1.92-2.87-1.54-6.19.76-8.92a7.79,7.79,0,0,1,8.41-2.67,7.55,7.55,0,0,1,6,6.69,9.3,9.3,0,0,1-1.28,5.25c-2.78,4.81-2.69,9.35.16,14.07a7.88,7.88,0,0,1-.9,9.34,8.05,8.05,0,0,1-8.91,2.31A8.89,8.89,0,0,1,1027.13,421.6Z"/><path class="cls-3" d="M988.43,488.88a17.38,17.38,0,0,1-1.23,3.67,13,13,0,0,0,.17,13.93,7.59,7.59,0,0,1-.88,9.46,7.93,7.93,0,0,1-9.12,2.16,8.11,8.11,0,0,1-5.13-7.66,9.37,9.37,0,0,1,1.38-4.18c2.74-4.7,2.65-9.21-.17-13.87a7.81,7.81,0,0,1,1.22-9.83,8.08,8.08,0,0,1,9.46-1.45C987.11,482.5,988.26,485,988.43,488.88Z"/><path class="cls-3" d="M1137.34,532.56a15.52,15.52,0,0,1,1.19-3.52c3.07-4.91,3-9.66.07-14.65a7.73,7.73,0,0,1,1.87-10.05,8.17,8.17,0,0,1,10.27-.16c2.9,2.24,4.15,6.57,2.19,9.82-3.2,5.3-3.06,10.23,0,15.48,1.68,2.82.75,6.71-1.54,9.06a8,8,0,0,1-8.82,1.79A8.71,8.71,0,0,1,1137.34,532.56Z"/><path class="cls-3" d="M943.5,187.29c-6.12,0-10.21-6.28-7.18-11.62s3-10,0-15.13a7.81,7.81,0,0,1,2.24-10,8.13,8.13,0,0,1,10.11.17,7.81,7.81,0,0,1,1.94,10.07c-3,5-2.87,9.63,0,14.69A7.91,7.91,0,0,1,943.5,187.29Z"/><path class="cls-3" d="M1054.61,298.44c-6.69,0-10.9-5.44-8.41-10.43,3-6,3.4-11.32-.06-17.21-1.76-3-.16-7,2.65-9.11a8.07,8.07,0,0,1,12.67,8.5,32.67,32.67,0,0,1-1.79,4.54,10.87,10.87,0,0,0,.71,11.18A7.77,7.77,0,0,1,1061,294,7.59,7.59,0,0,1,1054.61,298.44Z"/><path class="cls-3" d="M1135.67,399.23a24.79,24.79,0,0,1-1.54,4.34,12.74,12.74,0,0,0,.09,13.89,7.55,7.55,0,0,1-.39,9c-2,2.73-4.87,3.59-8.27,3.15-3.74-.48-8.11-6.77-5.87-10.45.38-.62.54-1.38.91-2,2.63-4.52,2.53-8.91-.15-13.46a8.06,8.06,0,0,1,5.85-12.34A8.41,8.41,0,0,1,1135.67,399.23Z"/><path class="cls-3" d="M962,346.8c5-.11,10.82,5.37,7.21,11.72-3,5.21-3,10,.08,15.08a7.54,7.54,0,0,1-1.73,9.52,8.1,8.1,0,0,1-13.1-8.74,10,10,0,0,1,.88-1.8,11.72,11.72,0,0,0,0-13,8.43,8.43,0,0,1-.92-7.46A8.05,8.05,0,0,1,962,346.8Z"/><path class="cls-3" d="M1108.58,171.16c6.26-.31,9.93,6.45,7.59,11-.3.59-.52,1.23-.85,1.81-2.45,4.32-2.32,8.51.07,12.9a10.88,10.88,0,0,1,1.28,5.89,7.26,7.26,0,0,1-5.83,6.55,7.87,7.87,0,0,1-8.28-2.55,7.5,7.5,0,0,1-1-8.79c3.06-5.34,2.83-10.23-.18-15.53C1098.59,177.48,1102.81,171.15,1108.58,171.16Z"/><path class="cls-3" d="M1027,223.79a31.19,31.19,0,0,1,1.75-4.95,12.14,12.14,0,0,0-.31-13.17,7.88,7.88,0,0,1,1.72-10.44,8.34,8.34,0,0,1,10.13-.2,7.6,7.6,0,0,1,2.11,10.15c-2.94,5.09-3,9.85.07,14.89a7.41,7.41,0,0,1-1.07,9.08,8.33,8.33,0,0,1-9,2.15A8.54,8.54,0,0,1,1027,223.79Z"/><path class="cls-3" d="M943.8,343c-6.38,0-10.41-6.24-7.35-11.84,2.71-5,3-9.53,0-14.49a7.87,7.87,0,0,1,1.89-10.26,8.11,8.11,0,0,1,12,10.65c-2.74,4.62-2.6,9.05.06,13.67C953.57,336.23,949.88,343,943.8,343Z"/><path class="cls-3" d="M953.46,291.06c.49-1.71.59-3.13,1.26-4.21,3.12-5.08,3-10,0-15.09a7.68,7.68,0,0,1,2.14-10,7.81,7.81,0,0,1,10.06.08c2.56,2.29,4.57,6,1.84,10.54-1.43,2.41-2.55,5-2,7.81a29.67,29.67,0,0,0,2.3,6.4,8.25,8.25,0,0,1-2.78,10.62,8,8,0,0,1-10.63-1.69A21.47,21.47,0,0,1,953.46,291.06Z"/><path class="cls-3" d="M1049.72,477.25c-1-2.6-1.94-5.08-3-7.47-1.7-3.66-1-7.44,1.93-9.88a8.19,8.19,0,0,1,10.46-.08,8,8,0,0,1,2.48,8.67,10.77,10.77,0,0,1-1,2.44c-2.73,4.47-2.38,8.82.28,13.17a7.63,7.63,0,0,1-.11,8.62,8.1,8.1,0,0,1-11,2.55c-3.71-2.17-4.86-6.51-3-10.68C1047.78,482.26,1048.66,479.85,1049.72,477.25Z"/><path class="cls-3" d="M1145.5,346.9c6.3.05,10.27,6.16,7.24,11.7-2.75,5-3,9.66,0,14.69a7.85,7.85,0,0,1-2,10.22,8.05,8.05,0,0,1-10.27-.18,7.93,7.93,0,0,1-1.64-10.47c2.77-4.7,2.62-9.18-.07-13.87A7.88,7.88,0,0,1,1145.5,346.9Z"/><path class="cls-3" d="M943.68,563.11a7.41,7.41,0,0,1-7.07-4.2c-1.48-2.82-1.61-5.69.36-8.41.39-.54.82-1,1.24-1.58,2.6-3.32,2.59-6.34.19-9.79a17.24,17.24,0,0,1-2.48-4.65,7.55,7.55,0,0,1,3.53-8.62A8.1,8.1,0,0,1,951.14,536a13.61,13.61,0,0,1-1.42,2.26c-3.4,4.55-3.43,6.92,0,11.36a8.12,8.12,0,0,1,1.87,7A7.81,7.81,0,0,1,943.68,563.11Z"/><path class="cls-3" d="M1126.89,82.23c3.32,0,5.81,1.25,7.31,4.11s1.65,6-.49,8.59c-4,4.86-4.2,7.74,0,13A7.72,7.72,0,0,1,1132,119a8.05,8.05,0,0,1-10.43-.57c-2.8-2.59-3.63-7.42-1.1-10.35,4.06-4.69,3.88-8.83,0-13.44-2.12-2.48-1.81-5.53-.27-8.38A7.45,7.45,0,0,1,1126.89,82.23Z"/><path class="cls-3" d="M1145.81,165.08c-6.76-.22-10.88-7.23-7.22-12.06,3.86-5.1,4.21-9.25,0-14.22-2.53-3-1.34-7.78,1.77-10.39a8.13,8.13,0,0,1,12,10.66c-.2.31-.43.61-.65.9-3.66,4.66-3.67,6.86-.12,11.67,2.09,2.84,2.75,5.92,1.05,9.17A7.52,7.52,0,0,1,1145.81,165.08Z"/><path class="cls-3" d="M1108.86,37.72a7.61,7.61,0,0,1,7,4.29,7.93,7.93,0,0,1-.52,8.45c-.61.93-1.36,1.77-1.93,2.72-1.73,2.9-1.45,5.51.41,8.32,1.26,1.9,2.71,3.94,3.08,6.09.71,4.1-3.34,8.35-7.61,8.56a7.76,7.76,0,0,1-7.27-3.52,8,8,0,0,1-.44-8.47,9.07,9.07,0,0,1,.85-1.3c3.85-5.28,3.86-6.68-.09-12a8.13,8.13,0,0,1,6.48-13.12Z"/><path class="cls-3" d="M1109.7,165.06c-4.07,0-6.43-1.32-7.93-4a7.79,7.79,0,0,1,.14-8.45c.16-.25.33-.49.51-.73,3.87-5.13,3.88-6.95,0-12a8.11,8.11,0,0,1,11.91-11,8.36,8.36,0,0,1,.54,11.16c-3.55,4.53-3.59,6.93-.14,11.5,2.15,2.84,2.8,5.89,1.16,9.16A7.32,7.32,0,0,1,1109.7,165.06Z"/><path class="cls-3" d="M1035.5,480.24a7.66,7.66,0,0,1,7.07,4.12c1.49,2.68,1.73,5.76-.2,8-4.15,4.85-4.22,9.1,0,14,2.6,3.07,1.4,8.09-1.75,10.58A8.16,8.16,0,0,1,1029,505.7a18.17,18.17,0,0,0,2.86-5.61c.6-2.46-.86-4.52-2.42-6.44a7.8,7.8,0,0,1-1.14-8.95A7.69,7.69,0,0,1,1035.5,480.24Z"/><path class="cls-3" d="M972,554.78c.77-1.71,1.27-3.62,2.37-5.09,3.34-4.48,3.43-7,0-11.55-2.34-3-2.65-6.52-.85-9.56a8,8,0,0,1,8.17-3.79,8.12,8.12,0,0,1,5.79,12.09,13.87,13.87,0,0,1-.91,1.26c-3.52,4.62-3.54,7,0,11.53a8.15,8.15,0,0,1-6.85,13.46C975.18,562.52,972.41,559.38,972,554.78Z"/><path class="cls-3" d="M1045.16,201.21a32.16,32.16,0,0,1,2.47-5.07c3.45-4.81,3.55-6.81-.08-11.53a8.15,8.15,0,0,1-.93-9.37c1.58-3.05,4.3-4.17,7.6-4.05a8.05,8.05,0,0,1,6.47,12.1,18.5,18.5,0,0,1-1.49,1.94c-2.67,3.32-2.52,6.61,0,10.2a13.36,13.36,0,0,1,2.48,6c.41,4.54-3.46,8.2-8.07,8.17C1049.1,209.56,1045.56,205.93,1045.16,201.21Z"/><path class="cls-3" d="M1027.33,45.65a8,8,0,0,1,11.37-7.2,10.69,10.69,0,0,1,1.34.79c4.39,3,4.33,2.94,9,0a10,10,0,0,1,5-1.5,7.5,7.5,0,0,1,7.27,5.53c1,3.63,0,7-2.74,9a7.92,7.92,0,0,1-9.55.08,1.18,1.18,0,0,1-.18-.13c-4.21-3-4.5-3-8.59-.05a7.77,7.77,0,0,1-6.94,1.39A7.93,7.93,0,0,1,1027.33,45.65Z"/><path class="cls-3" d="M1043.06,157.53c.15,3-1.38,5.07-3.87,6.5a6.87,6.87,0,0,1-7.77-.18c-2.07-1.42-4.17-2.68-6.75-2.44a5.79,5.79,0,0,0-3,1.1c-4,3.2-7.34,3.33-10.44.22a8,8,0,0,1,10.7-11.94c.3.23.56.49.85.72,2.42,2,4.64,2.05,6.94-.13a7.82,7.82,0,0,1,6.73-2.13C1040.77,149.79,1042.93,152.51,1043.06,157.53Z"/><path class="cls-3" d="M1046.14,533c0-6.51,6.33-10.09,11.23-7.28a27.68,27.68,0,0,0,3.65,2.09c2.42.91,4.75,1.28,7-.87,2.82-2.69,5.85-2.83,8.71-.89a8.23,8.23,0,0,1,3.1,9.63c-1.21,3.27-4.44,5.55-7.81,5a13.42,13.42,0,0,1-5.4-2.26c-2.69-1.91-4.84-2.2-7.17,0-2.82,2.67-6,2.8-9.28,1.45S1046.28,535.27,1046.14,533Z"/><path class="cls-3" d="M1153.65,555.05a8,8,0,0,1-12.73,6.33c-4.08-3-4.58-3-8.75-.07a8.14,8.14,0,0,1-10.58-.78,7.93,7.93,0,0,1,10-12.13c.58.33,1.11.74,1.68,1.09,2.88,1.78,4.64,1.65,7.25-.56a7.27,7.27,0,0,1,8.31-1.09A7.85,7.85,0,0,1,1153.65,555.05Z"/><path class="cls-3" d="M943.76,126.45a25.63,25.63,0,0,1,4.54,2.07c4,2.86,4.54,2.93,8.6,0a7.92,7.92,0,0,1,12.79,7.15,8,8,0,0,1-6.05,6.71c-2.39.73-4.51,0-6.53-1.31-4.27-2.74-5-2.71-9.07.22A8,8,0,0,1,936,132.26,8.84,8.84,0,0,1,943.76,126.45Z"/><path class="cls-3" d="M1072.17,480.26a8.07,8.07,0,1,1,0,16.13,8.07,8.07,0,0,1,0-16.13Z"/><path class="cls-3" d="M962.33,502.4a8.08,8.08,0,0,1,7.78,8.36,8,8,0,0,1-8.24,7.87,8.16,8.16,0,0,1-8-8.21A8.31,8.31,0,0,1,962.33,502.4Z"/><path class="cls-3" d="M1137.33,68.35a8.44,8.44,0,0,1,8-8.52,8.21,8.21,0,0,1,8.22,8,8.07,8.07,0,0,1-7.61,8.32A8.23,8.23,0,0,1,1137.33,68.35Z"/><path class="cls-3" d="M988.23,67.94a8,8,0,0,1-7.86,8.26A8.23,8.23,0,0,1,972.1,68a8.33,8.33,0,0,1,8.07-8.19A8.07,8.07,0,0,1,988.23,67.94Z"/><path class="cls-3" d="M1027.41,555a8,8,0,0,1,8.09-8,7.89,7.89,0,0,1,8,8,8.07,8.07,0,0,1-8.16,8.22A8.24,8.24,0,0,1,1027.41,555Z"/><path class="cls-3" d="M961.82,524.72a8,8,0,0,1,8.29,7.83,8.16,8.16,0,0,1-7.74,8.44,8.4,8.4,0,0,1-8.48-8A8.16,8.16,0,0,1,961.82,524.72Z"/><path class="cls-3" d="M951.82,399.23a8.1,8.1,0,0,1-8,8.21,8,8,0,0,1-8.27-8.08,8.17,8.17,0,0,1,8-8.15A8.26,8.26,0,0,1,951.82,399.23Z"/><path class="cls-3" d="M1090.61,385.26a8.12,8.12,0,0,1-.15-16.23,8,8,0,0,1,8.23,8.13A8.15,8.15,0,0,1,1090.61,385.26Z"/><path class="cls-3" d="M1053.94,385.27a8.3,8.3,0,0,1-8.23-8,8.17,8.17,0,0,1,8.19-8.23,8.07,8.07,0,0,1,8.08,8.09A8.17,8.17,0,0,1,1053.94,385.27Z"/><path class="cls-3" d="M1090.62,480.26a8.07,8.07,0,0,1,.05,16.13,8.07,8.07,0,1,1-.05-16.13Z"/><path class="cls-3" d="M1017,231.83a8.12,8.12,0,1,1-.1-16.23,8.12,8.12,0,0,1,.1,16.23Z"/><path class="cls-3" d="M1017,320.73a8.21,8.21,0,0,1-8.27-7.94,8.31,8.31,0,0,1,8.22-8.26,8.2,8.2,0,0,1,8.11,8.1A8.05,8.05,0,0,1,1017,320.73Z"/><path class="cls-3" d="M1082.46,555.11a8.14,8.14,0,0,1,16.28-.25,8.14,8.14,0,1,1-16.28.25Z"/><path class="cls-3" d="M998.48,53.88a8.06,8.06,0,0,1-8-8.13,8.28,8.28,0,0,1,8.12-8.11,8.16,8.16,0,0,1,8.11,8.32A8,8,0,0,1,998.48,53.88Z"/><path class="cls-3" d="M1127.18,53.87a8,8,0,0,1-8.14-8,8.13,8.13,0,0,1,8.14-8.26,8.32,8.32,0,0,1,8.09,8.15A8.07,8.07,0,0,1,1127.18,53.87Z"/><path class="cls-3" d="M998.58,193.46a7.91,7.91,0,0,1,8.11,8.19,8.12,8.12,0,0,1-16.24-.23A7.94,7.94,0,0,1,998.58,193.46Z"/><path class="cls-3" d="M998.68,215.6a8.12,8.12,0,0,1-.09,16.23,8.12,8.12,0,1,1,.09-16.23Z"/><path class="cls-3" d="M943.36,385.26a8.07,8.07,0,0,1-7.74-8.39,8,8,0,0,1,8.3-7.83,8.12,8.12,0,1,1-.56,16.22Z"/><path class="cls-3" d="M1072.24,458.05a8.08,8.08,0,0,1,8.16,8,8.17,8.17,0,0,1-16.33,0A8.05,8.05,0,0,1,1072.24,458.05Z"/><path class="cls-3" d="M1135.42,377.4a8.15,8.15,0,0,1-8.3,7.87,8,8,0,0,1-7.83-8.51,7.9,7.9,0,0,1,8.14-7.72A8,8,0,0,1,1135.42,377.4Z"/><path class="cls-3" d="M1145.59,276.3a8.22,8.22,0,0,1-8.26-7.94,8.34,8.34,0,0,1,8.12-8.34,8.19,8.19,0,0,1,8.1,8.1A8,8,0,0,1,1145.59,276.3Z"/><path class="cls-3" d="M1006.81,555.06a8.16,8.16,0,0,1-8,8.15,8.37,8.37,0,0,1-8.19-8.08,8.25,8.25,0,0,1,8.24-8.21A8,8,0,0,1,1006.81,555.06Z"/><path class="cls-3" d="M998.84,518.63a8.16,8.16,0,0,1-8.24-8.18,8.34,8.34,0,0,1,8.2-8.05,8.05,8.05,0,0,1,8,8.14A7.83,7.83,0,0,1,998.84,518.63Z"/><path class="cls-3" d="M998.55,320.73a8,8,0,0,1-8.1-8,8.12,8.12,0,1,1,16.24,0A8.06,8.06,0,0,1,998.55,320.73Z"/><path class="cls-3" d="M1153.55,90.37a8.22,8.22,0,0,1-8.12,8.09,8.34,8.34,0,0,1-8.1-8.37,8,8,0,0,1,8.28-7.85A7.85,7.85,0,0,1,1153.55,90.37Z"/><path class="cls-3" d="M998.44,142.77a8,8,0,0,1-8-8.11,8.15,8.15,0,0,1,8.16-8,8.26,8.26,0,0,1,8.14,8.08A8,8,0,0,1,998.44,142.77Z"/><path class="cls-3" d="M1064,268.13a8.06,8.06,0,1,1,16.12,0,8.06,8.06,0,1,1-16.12,0Z"/><path class="cls-3" d="M1127.15,76.2a8.13,8.13,0,0,1-8.1-8.09,8.23,8.23,0,0,1,8-8.28,8.4,8.4,0,0,1,8.27,8.25A8.29,8.29,0,0,1,1127.15,76.2Z"/><path class="cls-3" d="M1127.19,165a7.83,7.83,0,0,1-8.14-7.91,8,8,0,0,1,8.14-8.22,8.24,8.24,0,0,1,8.08,8.12A8,8,0,0,1,1127.19,165Z"/><path class="cls-3" d="M1017,209.59a8.3,8.3,0,0,1-8.25-8.22,8.06,8.06,0,0,1,8.23-7.91,8,8,0,0,1,8.11,8A8.2,8.2,0,0,1,1017,209.59Z"/><path class="cls-3" d="M1153.55,112.55a8,8,0,0,1-8.06,8.08,8.11,8.11,0,1,1,.06-16.22A8,8,0,0,1,1153.55,112.55Z"/><path class="cls-3" d="M962,413.45a8.11,8.11,0,0,1,8.1,8.06,8,8,0,0,1-7.93,8.21,8.14,8.14,0,1,1-.17-16.27Z"/><path class="cls-3" d="M951.82,421.61a8.11,8.11,0,1,1-8.05-8.16A8.22,8.22,0,0,1,951.82,421.61Z"/><path class="cls-3" d="M1153.7,399.32a7.84,7.84,0,0,1-7.93,8.12,8.05,8.05,0,0,1-8.19-7.93,8.2,8.2,0,0,1,8.11-8.3A8,8,0,0,1,1153.7,399.32Z"/><path class="cls-3" d="M943.65,502.4a8.27,8.27,0,0,1,8.17,8,8.1,8.1,0,0,1-8.2,8.19,8,8,0,0,1-8-8.11A8.14,8.14,0,0,1,943.65,502.4Z"/><path class="cls-3" d="M1127.37,15.5a8.08,8.08,0,0,1,7.9,8.25,8.19,8.19,0,0,1-8.49,7.92,8.09,8.09,0,0,1,.59-16.17Z"/><path class="cls-3" d="M1127,276.31a8.12,8.12,0,0,1,.06-16.24,8.12,8.12,0,1,1-.06,16.24Z"/><path class="cls-3" d="M962.17,9.41a8.09,8.09,0,0,1-8.29-8.08,8.2,8.2,0,0,1,8.15-8,7.9,7.9,0,0,1,8.08,8A7.87,7.87,0,0,1,962.17,9.41Z"/><path class="cls-3" d="M1127.2,171.22a8,8,0,0,1,8.07,8.05,8.24,8.24,0,0,1-8.33,8.1,8.06,8.06,0,0,1-7.89-8.25A7.81,7.81,0,0,1,1127.2,171.22Z"/><path class="cls-3" d="M951.57,68.07a8.06,8.06,0,0,1-8.05,8.09,8,8,0,0,1-8.07-8,8.13,8.13,0,0,1,7.91-8.28A8.26,8.26,0,0,1,951.57,68.07Z"/><path class="cls-3" d="M988.23,223.72a7.94,7.94,0,0,1-8,8.11,8.12,8.12,0,1,1,0-16.23A7.89,7.89,0,0,1,988.23,223.72Z"/><path class="cls-3" d="M1064,68a8.08,8.08,0,1,1,16.15,0A8.08,8.08,0,1,1,1064,68Z"/><path class="cls-3" d="M1090.68,458.05a7.93,7.93,0,0,1,8,8.06,8.11,8.11,0,1,1-8-8.06Z"/><path class="cls-3" d="M1064,112.59a8.06,8.06,0,1,1,8.06,8A8,8,0,0,1,1064,112.59Z"/><path class="cls-3" d="M1043.45,112.63a8.2,8.2,0,0,1-8.2,8,8.11,8.11,0,1,1,8.2-8Z"/><path class="cls-3" d="M1108.81,31.69a8.16,8.16,0,0,1-8.19-8.22,8.05,8.05,0,0,1,8.16-8,7.86,7.86,0,0,1,8,8.05A8,8,0,0,1,1108.81,31.69Z"/><path class="cls-3" d="M1100.92,510.36a8,8,0,0,1,8.16-8,8.17,8.17,0,0,1,8,8.44,8,8,0,0,1-8.33,7.79A7.91,7.91,0,0,1,1100.92,510.36Z"/><path class="cls-3" d="M962.09,452a8.23,8.23,0,0,1-8.21-8,8.1,8.1,0,0,1,8.22-8.16,7.83,7.83,0,0,1,8,7.82A8,8,0,0,1,962.09,452Z"/><path class="cls-3" d="M1064.17,377.18a8,8,0,0,1,8-8.15,8.21,8.21,0,0,1,8.26,8.18,8.31,8.31,0,0,1-8.18,8.06A8.05,8.05,0,0,1,1064.17,377.18Z"/><path class="cls-3" d="M1100.62,112.48a8.14,8.14,0,0,1,8.1-8.07,8.12,8.12,0,0,1,.15,16.23A8.17,8.17,0,0,1,1100.62,112.48Z"/><path class="cls-3" d="M953.73,68.11a8.39,8.39,0,0,1,8.21-8.27,8.08,8.08,0,0,1,7.92,8.25,7.93,7.93,0,0,1-8,8.07A8.12,8.12,0,0,1,953.73,68.11Z"/><path class="cls-3" d="M969.86,223.83a7.93,7.93,0,0,1-8.1,8A8.12,8.12,0,1,1,962,215.6,7.9,7.9,0,0,1,969.86,223.83Z"/><path class="cls-3" d="M953.73,90.27a8,8,0,0,1,8.07-8,7.74,7.74,0,0,1,8.06,8A8,8,0,0,1,962,98.46,8.26,8.26,0,0,1,953.73,90.27Z"/><path class="cls-3" d="M1145.43,171.24a7.8,7.8,0,0,1,8.12,7.91,8.07,8.07,0,0,1-7.92,8.22,8.28,8.28,0,0,1-8.3-8.14A7.94,7.94,0,0,1,1145.43,171.24Z"/><path class="cls-3" d="M1127.05,209.59a8.12,8.12,0,0,1-8-8.15,7.88,7.88,0,0,1,8.29-8,8,8,0,0,1,7.94,8.16A8.22,8.22,0,0,1,1127.05,209.59Z"/><path class="cls-3" d="M962,480.26a8.07,8.07,0,0,1,.1,16.13,8.07,8.07,0,1,1-.1-16.13Z"/><path class="cls-3" d="M962,458.05a8.06,8.06,0,0,1,.27,16.12,8.06,8.06,0,1,1-.27-16.12Z"/><path class="cls-3" d="M943.66,9.41a7.9,7.9,0,0,1-8-8,8,8,0,0,1,8-8.08,8.1,8.1,0,0,1,8.18,8.19A8,8,0,0,1,943.66,9.41Z"/><path class="cls-3" d="M1064,90.32a8.06,8.06,0,0,1,16.12-.15,8.2,8.2,0,0,1-7.89,8.29A8.12,8.12,0,0,1,1064,90.32Z"/><path class="cls-3" d="M1145.54,282.32a8,8,0,0,1,8,8.12,8.13,8.13,0,0,1-8,8.14,8.32,8.32,0,0,1-8.19-8.05A8.2,8.2,0,0,1,1145.54,282.32Z"/><path class="cls-3" d="M1045.7,555.06a8.26,8.26,0,0,1,8.09-8.14,8.09,8.09,0,0,1,8.19,8,8.24,8.24,0,0,1-8.15,8.3A8.38,8.38,0,0,1,1045.7,555.06Z"/><path class="cls-3" d="M1127.13,215.6a8.12,8.12,0,1,1-.11,16.23,8.09,8.09,0,0,1-8-8.19A8,8,0,0,1,1127.13,215.6Z"/><path class="cls-3" d="M980.23,53.86a8,8,0,0,1-8.13-8,8.22,8.22,0,0,1,8-8.22,8,8,0,0,1,8.15,8.19A7.79,7.79,0,0,1,980.23,53.86Z"/><path class="cls-3" d="M1153.55,246.05a7.9,7.9,0,0,1-8.14,7.93,8.09,8.09,0,0,1-8.08-8.08,8.34,8.34,0,0,1,8.32-8.12A8.14,8.14,0,0,1,1153.55,246.05Z"/><path class="cls-3" d="M1090.26,31.69a8,8,0,0,1-7.92-8.2,7.89,7.89,0,0,1,8.09-8,8.11,8.11,0,0,1,8.13,8A8.25,8.25,0,0,1,1090.26,31.69Z"/><path class="cls-3" d="M1090.32,171.21a8,8,0,0,1,8.24,7.89,8.29,8.29,0,0,1-8.17,8.27,8.06,8.06,0,0,1-8.05-8.09A7.81,7.81,0,0,1,1090.32,171.21Z"/><path class="cls-3" d="M1145.48,31.69a8.25,8.25,0,0,1-8.15-8.06,8.09,8.09,0,0,1,8.24-8.13,8,8,0,0,1,8,8.13A8,8,0,0,1,1145.48,31.69Z"/><path class="cls-3" d="M1009.12,554.94a7.77,7.77,0,0,1,8.06-7.94,7.94,7.94,0,0,1,8.06,8,8.22,8.22,0,0,1-8,8.18A8.09,8.09,0,0,1,1009.12,554.94Z"/><path class="cls-3" d="M1064,45.71a8.06,8.06,0,1,1,16.12.3,8.06,8.06,0,0,1-16.12-.3Z"/><path class="cls-3" d="M1145.58,320.73a8.11,8.11,0,0,1-8.25-8.13,8.26,8.26,0,0,1,8.14-8.07,8,8,0,0,1,8.08,8.06A7.94,7.94,0,0,1,1145.58,320.73Z"/><path class="cls-3" d="M998.85,9.41a8.07,8.07,0,0,1-8.24-7.9,8.22,8.22,0,0,1,8.18-8.23,7.9,7.9,0,0,1,8,8.05A7.79,7.79,0,0,1,998.85,9.41Z"/><path class="cls-3" d="M1145.64,326.91a7.77,7.77,0,0,1,7.91,8.09,8,8,0,0,1-8.14,8,8.08,8.08,0,0,1-8.08-8.06A8,8,0,0,1,1145.64,326.91Z"/><path class="cls-3" d="M1090.18,142.77a7.89,7.89,0,0,1-7.84-8.19,8,8,0,0,1,8-7.94,8.25,8.25,0,0,1,8.26,8.16A8,8,0,0,1,1090.18,142.77Z"/><path class="cls-3" d="M1053.81,9.41a8.1,8.1,0,0,1-8.11-8A8.2,8.2,0,0,1,1054-6.72a8.1,8.1,0,0,1,8,8.19A8,8,0,0,1,1053.81,9.41Z"/><path class="cls-3" d="M953.73,112.49a8.13,8.13,0,0,1,8.08-8.08,8.11,8.11,0,0,1,0,16.22A8.15,8.15,0,0,1,953.73,112.49Z"/><path class="cls-3" d="M1090.28,53.86a7.86,7.86,0,0,1-7.94-8.12,8.13,8.13,0,0,1,8.08-8.1,8.33,8.33,0,0,1,8.13,8.11A8.12,8.12,0,0,1,1090.28,53.86Z"/><path class="cls-3" d="M1035.21,142.77a7.9,7.9,0,0,1-8-8.06,8.13,8.13,0,0,1,8.1-8.07,8.22,8.22,0,0,1,8.16,8.26A8,8,0,0,1,1035.21,142.77Z"/><path class="cls-3" d="M1108.88,326.87a7.79,7.79,0,0,1,7.93,8.11,7.91,7.91,0,0,1-8.1,8,8,8,0,1,1,.17-16.09Z"/><path class="cls-3" d="M1135.42,466.13a8,8,0,0,1-8.3,8,8.07,8.07,0,1,1,8.3-8Z"/><path class="cls-3" d="M972.46,1.2a7.78,7.78,0,0,1,8.09-7.92,8.19,8.19,0,0,1,8,8.15,8,8,0,0,1-8.38,8C975.57,9.34,972.42,6,972.46,1.2Z"/><path class="cls-3" d="M969.86,312.73a7.83,7.83,0,0,1-8,8,8.06,8.06,0,0,1-8.09-8.05,8.18,8.18,0,0,1,8-8.15A7.91,7.91,0,0,1,969.86,312.73Z"/><path class="cls-3" d="M951.57,290.39a8.18,8.18,0,0,1-8,8.18,8.13,8.13,0,1,1,8-8.18Z"/><path class="cls-3" d="M1035.47,9.41a7.93,7.93,0,0,1-8.06-8,8,8,0,0,1,8.22-8.12,7.89,7.89,0,0,1,7.9,8.16A7.79,7.79,0,0,1,1035.47,9.41Z"/><path class="cls-3" d="M943.64,451.88a8,8,0,0,1,0-16.07,8,8,0,1,1,0,16.07Z"/><path class="cls-3" d="M1035.32,31.69a8.13,8.13,0,0,1-8.12-8.06,8,8,0,0,1,8-8.13,8.1,8.1,0,1,1,.13,16.19Z"/><path class="cls-3" d="M1045.61,90.22a7.84,7.84,0,0,1,8.08-8,8,8,0,0,1,8.1,8,8.25,8.25,0,0,1-8.25,8.2A8.13,8.13,0,0,1,1045.61,90.22Z"/><path class="cls-3" d="M943.7,346.9a7.88,7.88,0,0,1,8.12,7.93,8.1,8.1,0,0,1-8.23,8.13,8,8,0,1,1,.11-16.06Z"/><path class="cls-3" d="M1035.41,326.86a8.05,8.05,0,1,1-8.21,7.89A8,8,0,0,1,1035.41,326.86Z"/><path class="cls-3" d="M1061.74,246a8.07,8.07,0,0,1-16.13,0,8.07,8.07,0,1,1,16.13,0Z"/><path class="cls-3" d="M962.11,15.5a7.86,7.86,0,0,1,7.75,8.29,7.94,7.94,0,0,1-8.18,7.9,8.2,8.2,0,0,1-7.95-8.45A8.07,8.07,0,0,1,962.11,15.5Z"/><path class="cls-3" d="M1009.12,421.53a8,8,0,0,1,8-8.08,8.17,8.17,0,0,1,8.08,8.11,8.08,8.08,0,0,1-8.22,8.16A7.91,7.91,0,0,1,1009.12,421.53Z"/><path class="cls-3" d="M1053.86,346.9a7.86,7.86,0,0,1,8.12,7.94,8,8,0,0,1-8.23,8.12,8.12,8.12,0,0,1-8-8.11A8,8,0,0,1,1053.86,346.9Z"/><path class="cls-3" d="M1053.69,142.77a7.82,7.82,0,0,1-8.08-8,8,8,0,0,1,7.93-8.18,8.13,8.13,0,0,1,8.25,8.13A8,8,0,0,1,1053.69,142.77Z"/><path class="cls-3" d="M1061.74,23.54a8.07,8.07,0,0,1-8,8.15,8,8,0,0,1-8.14-8.2,8.06,8.06,0,0,1,16.12.05Z"/><path class="cls-3" d="M1035.4,320.73a8,8,0,0,1-8.21-7.93,8.13,8.13,0,1,1,8.21,7.93Z"/><path class="cls-3" d="M1090.29,209.59a8.05,8.05,0,0,1-8-8.18,7.83,7.83,0,0,1,8.3-7.95,8,8,0,0,1,7.91,8A8.24,8.24,0,0,1,1090.29,209.59Z"/><path class="cls-3" d="M943.56,31.69a8,8,0,0,1-8.11-8,8.06,8.06,0,1,1,16.12-.13A8.09,8.09,0,0,1,943.56,31.69Z"/><path class="cls-3" d="M1145.65,9.41a8,8,0,0,1-8.07-8,8.05,8.05,0,0,1,8.22-8.12,7.92,7.92,0,0,1,7.9,8.16A7.78,7.78,0,0,1,1145.65,9.41Z"/><path class="cls-3" d="M1127,254a7.9,7.9,0,0,1-7.9-8.17,8.14,8.14,0,0,1,8.15-8,8.3,8.3,0,0,1,8.07,8.37A8.09,8.09,0,0,1,1127,254Z"/><path class="cls-3" d="M1100.62,245.91a8.23,8.23,0,0,1,8.29-8.13,8.12,8.12,0,0,1,7.89,8.27,7.84,7.84,0,0,1-8.12,7.93A8,8,0,0,1,1100.62,245.91Z"/><path class="cls-3" d="M972.46,443.67a7.67,7.67,0,0,1,8.09-7.86,8,8,0,1,1-.35,16.08C975.65,451.83,972.42,448.39,972.46,443.67Z"/><path class="cls-3" d="M1127.23,9.41a7.85,7.85,0,0,1-7.94-8.1,7.9,7.9,0,0,1,8-8,8.09,8.09,0,0,1,8.09,8.25A8,8,0,0,1,1127.23,9.41Z"/><path class="cls-3" d="M1009.12,488.38a7.85,7.85,0,0,1,7.91-8.12,8.07,8.07,0,1,1,.11,16.13A7.85,7.85,0,0,1,1009.12,488.38Z"/><path class="cls-3" d="M998.85,480.26a8.07,8.07,0,1,1-.28,16.13,8.07,8.07,0,1,1,.28-16.13Z"/><path class="cls-3" d="M1100.92,466.11a7.83,7.83,0,0,1,8-8.06,7.92,7.92,0,0,1,8.16,8.13,8,8,0,0,1-8.12,8A7.93,7.93,0,0,1,1100.92,466.11Z"/><path class="cls-3" d="M980.22,171.22a7.7,7.7,0,0,1,8,8,8,8,0,0,1-7.91,8.17,8.17,8.17,0,0,1-8.22-8.18A7.93,7.93,0,0,1,980.22,171.22Z"/><path class="cls-3" d="M972.46,354.93c0-4.74,3.23-8,7.9-8a8,8,0,1,1,0,16.06A7.74,7.74,0,0,1,972.46,354.93Z"/><path class="cls-3" d="M1064,201.53a8.06,8.06,0,1,1,16.12,0,8.06,8.06,0,0,1-16.12,0Z"/><path class="cls-3" d="M1043.53,443.73a7.82,7.82,0,0,1-7.86,8.15,8,8,0,1,1-.23-16.07A7.78,7.78,0,0,1,1043.53,443.73Z"/><path class="cls-3" d="M1072,142.77a7.82,7.82,0,0,1-8-8,8.06,8.06,0,1,1,16.12,0A7.85,7.85,0,0,1,1072,142.77Z"/><path class="cls-3" d="M1082.71,510.64a7.88,7.88,0,0,1,8-8.07,8,8,0,0,1,7.86,8.25,7.92,7.92,0,0,1-15.84-.18Z"/><path class="cls-3" d="M998.55,171.31a7.75,7.75,0,0,1,7.93,7.86,8,8,0,0,1-8,8.12,8.14,8.14,0,0,1-7.83-8.36A7.68,7.68,0,0,1,998.55,171.31Z"/></g><rect class="cls-5" x="372.5" width="779.5" height="648"/><rect class="cls-6" width="372.93" height="648"/></svg>