<svg id="Layer_1" data-name="Layer 1" xmlns="http://www.w3.org/2000/svg" xmlns:xlink="http://www.w3.org/1999/xlink" viewBox="0 0 1152 648"><defs><style>.cls-1{fill:none;}.cls-2{fill:#fff;}.cls-3{clip-path:url(#clip-path);}.cls-4{fill:#447099;}.cls-5{clip-path:url(#clip-path-2);}.cls-6{opacity:0.7;}.cls-7{fill:#2e7aa8;}</style><clipPath id="clip-path"><rect class="cls-1" width="1152" height="648"/></clipPath><clipPath id="clip-path-2"><rect class="cls-1" y="-668.44" width="1152" height="648"/></clipPath></defs><rect class="cls-2" width="1152" height="648"/><g class="cls-3"><path class="cls-4" d="M24.79,635.63a7,7,0,0,1,7.12,7.42,7.39,7.39,0,0,1-7.07,7.19c-3.58.15-7.63-3.79-7.59-7.38A7.51,7.51,0,0,1,24.79,635.63Z"/><path class="cls-4" d="M661.15,642.61a7.1,7.1,0,0,1,7.56-7,7.23,7.23,0,0,1,7,7.2c-.07,3.85-3.79,7.57-7.46,7.44A7.5,7.5,0,0,1,661.15,642.61Z"/><path class="cls-4" d="M88.57,642.89a6.9,6.9,0,0,1-13.78.16,6.9,6.9,0,1,1,13.78-.16Z"/><path class="cls-4" d="M656.44,642.61a7,7,0,0,1-7.28,6.81,6.89,6.89,0,0,1,.12-13.77A7.14,7.14,0,0,1,656.44,642.61Z"/><path class="cls-4" d="M675.21,473c.06,4.06-2.45,6.7-6.47,6.81a7,7,0,0,1-7.4-6.62c-.07-3.24,3.44-7,6.71-7.1A7,7,0,0,1,675.21,473Z"/><path class="cls-4" d="M846.24,586.17a6.55,6.55,0,0,1-6.64,6.77,7,7,0,0,1-7.22-6.82,7.26,7.26,0,0,1,6.75-6.91A7.09,7.09,0,0,1,846.24,586.17Z"/><path class="cls-4" d="M820.33,536.48c-4.13,0-6.81-2.86-6.7-7.09a6.91,6.91,0,0,1,6.88-6.65,6.87,6.87,0,1,1-.18,13.74Z"/><path class="cls-4" d="M50.52,548.62a7,7,0,0,1-6.79,6.78,6.87,6.87,0,0,1-6.95-7.09,7.35,7.35,0,0,1,7.3-6.82A6.92,6.92,0,0,1,50.52,548.62Z"/><path class="cls-4" d="M808.14,605.11a6.82,6.82,0,0,1-7,6.94,7.38,7.38,0,0,1-6.75-6.9,6.89,6.89,0,0,1,6.74-6.72C805.43,598.31,808.09,600.85,808.14,605.11Z"/><path class="cls-4" d="M183.45,529.76a6.48,6.48,0,0,1-7.07,6.73,6.87,6.87,0,0,1-6.61-6.87,7.21,7.21,0,0,1,7.22-6.84A6.75,6.75,0,0,1,183.45,529.76Z"/><path class="cls-4" d="M257.39,623.8c.11,3.52-3.43,7-7.12,7.05a6.71,6.71,0,0,1-6.54-6.89c0-4,2.53-6.82,6.38-7A7.13,7.13,0,0,1,257.39,623.8Z"/><path class="cls-4" d="M126.75,605.26a7.15,7.15,0,0,1-6.84,6.78,6.81,6.81,0,1,1-.35-13.61A7,7,0,0,1,126.75,605.26Z"/><path class="cls-4" d="M687.29,555.39a6.72,6.72,0,0,1-6.65-6.77,6.89,6.89,0,0,1,6.84-7.13,7.43,7.43,0,0,1,6.86,6.83A7.27,7.27,0,0,1,687.29,555.39Z"/><path class="cls-4" d="M763.34,598.43c4.11,0,6.65,2.4,6.76,6.45a6.84,6.84,0,0,1-6.25,7.18c-3.74.15-7.49-3.16-7.55-6.66A7,7,0,0,1,763.34,598.43Z"/><path class="cls-4" d="M195.84,593a6.42,6.42,0,0,1-6.88-6.44,6.92,6.92,0,0,1,6.66-7.29,7.67,7.67,0,0,1,7.16,7.09C202.79,589.75,199.53,592.87,195.84,593Z"/><path class="cls-4" d="M24.74,466.15c3.63.1,7.1,3.67,7,7.23a6.89,6.89,0,0,1-7.45,6.47,6.38,6.38,0,0,1-6.37-7C18.07,469.24,21.28,466.06,24.74,466.15Z"/><path class="cls-4" d="M157.83,612.06a6.84,6.84,0,0,1-6.91-6.69,6.58,6.58,0,0,1,6.51-6.94,6.89,6.89,0,0,1,7.27,6.76C164.73,608.6,161.32,612,157.83,612.06Z"/><path class="cls-4" d="M725.72,635.77c3.48.11,6.28,3.37,6.24,7.27s-2.71,6.58-6.78,6.48a6.68,6.68,0,0,1-6.76-6.77A7.49,7.49,0,0,1,725.72,635.77Z"/><path class="cls-4" d="M345.55,598.33c3.8.11,7,3.18,6.93,6.61A7.11,7.11,0,0,1,345,611.6c-4-.1-6.53-2.89-6.37-6.92S341.36,598.22,345.55,598.33Z"/><path class="cls-4" d="M782.64,554.82a6.69,6.69,0,0,1-6.91-6c-.24-3.39,3-6.91,6.47-7a7,7,0,0,1,6.93,6.54A6.7,6.7,0,0,1,782.64,554.82Z"/><path class="cls-4" d="M314.15,586.11a6.53,6.53,0,0,1-6.47,6.48c-3.75.12-7.07-2.87-7.09-6.38s3.27-6.53,7-6.47A6.74,6.74,0,0,1,314.15,586.11Z"/><path class="cls-4" d="M145.23,548.43a6.07,6.07,0,0,1-6.42,6.39c-3.91,0-6.49-2.43-6.51-6.22,0-4,2.71-6.84,6.58-6.79A6.65,6.65,0,0,1,145.23,548.43Z"/><path class="cls-4" d="M62.69,579.49a6.86,6.86,0,0,1,6.59,6.84,6.18,6.18,0,0,1-6.47,6.27c-3.83-.09-6.53-2.64-6.59-6.21A6.57,6.57,0,0,1,62.69,579.49Z"/><path class="cls-4" d="M706.81,592.64c-4,.12-6.59-2.19-6.75-6-.16-4,2.51-7.08,6.22-7.09a7.43,7.43,0,0,1,6.86,6.39C713.39,589.26,710.28,592.53,706.81,592.64Z"/><path class="cls-4" d="M554.24,649.2a6.55,6.55,0,0,1-6.22-6.7c.06-3.51,2.6-5.93,6.25-6,3.85,0,6.45,2.46,6.44,6.24A6.57,6.57,0,0,1,554.24,649.2Z"/><path class="cls-4" d="M611.23,611.22c-3.6-.1-6-2.59-5.94-6.3,0-3.95,2.59-6.55,6.33-6.37a6.84,6.84,0,0,1,6.29,6.31A6.71,6.71,0,0,1,611.23,611.22Z"/><path class="cls-4" d="M389.76,604.83a6.54,6.54,0,0,1-6.1,6.37,6.61,6.61,0,0,1-6.71-6.28,6.32,6.32,0,0,1,6.08-6.29A6.55,6.55,0,0,1,389.76,604.83Z"/><path class="cls-4" d="M389.77,548.46a6.67,6.67,0,0,1-6.29,6.23,6.35,6.35,0,1,1,6.29-6.23Z"/><path class="cls-4" d="M630.06,629.91a6.33,6.33,0,0,1-6-6.33c.06-3.25,3.48-6.56,6.63-6.4a7,7,0,0,1,6.13,6.46A6.7,6.7,0,0,1,630.06,629.91Z"/><path class="cls-4" d="M630.24,592a6.13,6.13,0,0,1-6.21-6.53,6.33,6.33,0,0,1,12.65.7A6,6,0,0,1,630.24,592Z"/><path class="cls-4" d="M801.27,580a6.59,6.59,0,0,1,6.48,6,6.36,6.36,0,0,1-6.3,6.57,6.27,6.27,0,1,1-.18-12.54Z"/><path class="cls-4" d="M858.37,649a6.2,6.2,0,0,1-6.4-6,6.41,6.41,0,1,1,12.81,0A6.36,6.36,0,0,1,858.37,649Z"/><path class="cls-4" d="M214.84,649a6.17,6.17,0,0,1-6.38-6.4,6,6,0,0,1,6.19-6.06c3.49,0,6.72,3.17,6.57,6.42A6.32,6.32,0,0,1,214.84,649Z"/><path class="cls-4" d="M31,568.16a6.46,6.46,0,0,1-7.16,5.6,6.62,6.62,0,0,1-5.42-6.92c.46-3.7,3.32-5.89,7.18-5.48A6.26,6.26,0,0,1,31,568.16Z"/><path class="cls-4" d="M668.38,573.59a6.13,6.13,0,1,1,.06-12.25,6.21,6.21,0,0,1,6.36,6C675,570.91,672.22,573.59,668.38,573.59Z"/><path class="cls-4" d="M164,586.33a6.24,6.24,0,0,1-6.24,6.15c-3.69.08-5.94-2.24-6-6.12S154,580,157.49,580A6.16,6.16,0,0,1,164,586.33Z"/><path class="cls-4" d="M617.68,642.7c-.06,3.73-2.73,6.15-6.62,6s-5.84-2.29-5.79-6.2,2.49-6.21,6.47-6A5.87,5.87,0,0,1,617.68,642.7Z"/><path class="cls-4" d="M807.53,491.72a6.43,6.43,0,0,1-6,6.45,6.72,6.72,0,0,1-6.33-6.2,6.32,6.32,0,0,1,5.87-6.08A6,6,0,0,1,807.53,491.72Z"/><path class="cls-4" d="M636.56,604.9a6.45,6.45,0,0,1-6.38,6.06,6.31,6.31,0,0,1-5.93-6c0-3.23,3-6.37,6.12-6.32A6.37,6.37,0,0,1,636.56,604.9Z"/><path class="cls-4" d="M100.34,573.35c-3-.06-5.92-3.3-5.8-6.54.12-3.47,2.71-5.67,6.51-5.55a5.85,5.85,0,0,1,5.88,6.25A6.61,6.61,0,0,1,100.34,573.35Z"/><path class="cls-4" d="M807.54,548.48a6.36,6.36,0,0,1-6.28,6.16,6.16,6.16,0,1,1,6.28-6.16Z"/><path class="cls-4" d="M151.78,492.17c-.1-3.52,2.09-6.08,5.39-6.29s6.59,2.49,6.74,5.62-2.87,6.55-5.83,6.68A6.1,6.1,0,0,1,151.78,492.17Z"/><path class="cls-4" d="M750.42,567.09a6.14,6.14,0,0,1-6.06,6.28c-3.37.06-6-2.67-6-6.3s2.05-5.7,5.73-5.8S750.39,563.5,750.42,567.09Z"/><path class="cls-4" d="M541.34,585.8c.07,3.7-2.25,6.14-5.9,6.21a5.86,5.86,0,0,1-6.22-6A6.17,6.17,0,0,1,535,580,5.87,5.87,0,0,1,541.34,585.8Z"/><path class="cls-4" d="M24.84,592.12c-4,.07-6-1.85-6-5.81a6.06,6.06,0,0,1,5.5-6.23c3.12-.16,6.62,3.29,6.56,6.46S28.32,592.06,24.84,592.12Z"/><path class="cls-4" d="M24.5,554.69a5.81,5.81,0,0,1-5.65-6.44,5.94,5.94,0,0,1,5.87-5.83c3.18.07,6.28,3.2,6.19,6.26A6.6,6.6,0,0,1,24.5,554.69Z"/><path class="cls-4" d="M151.81,548.56a5.91,5.91,0,0,1,5.53-6.18c3.25-.16,6.49,2.73,6.57,5.83a6.68,6.68,0,0,1-6.51,6.45C154.2,554.6,151.84,552,151.81,548.56Z"/><path class="cls-4" d="M687.44,636.58a6.4,6.4,0,0,1,6.12,6.25,5.83,5.83,0,0,1-5.88,5.85c-3.79.12-6.12-2.08-6.18-5.85A5.92,5.92,0,0,1,687.44,636.58Z"/><path class="cls-4" d="M674.32,548.89a5.88,5.88,0,0,1-5.88,5.81,6.14,6.14,0,1,1,0-12.28C671.58,542.48,674.41,545.62,674.32,548.89Z"/><path class="cls-4" d="M364.47,636.56a5.87,5.87,0,0,1,5.82,6.37,5.67,5.67,0,0,1-6.05,5.59,6,6,0,1,1,.23-12Z"/><path class="cls-4" d="M18.93,492.34c-.08-3.81,1.77-6,5.26-6.12s6.4,2.18,6.57,5.56c.16,3.08-2.86,6.25-6.06,6.39A5.69,5.69,0,0,1,18.93,492.34Z"/><path class="cls-4" d="M389.58,585.92a6.23,6.23,0,0,1-6.32,6.08c-3.36,0-5.67-2.44-5.69-6a5.71,5.71,0,0,1,5.6-6.09A6.2,6.2,0,0,1,389.58,585.92Z"/><path class="cls-4" d="M37.64,566.71a6.32,6.32,0,0,1,7-5.25,5.83,5.83,0,0,1,5,6.6,6.08,6.08,0,0,1-6.85,5.31A6.28,6.28,0,0,1,37.64,566.71Z"/><path class="cls-4" d="M573.42,636.55a5.91,5.91,0,1,1-6.09,6.1A6,6,0,0,1,573.42,636.55Z"/><path class="cls-4" d="M339.56,567.07c.06-3.56,2.25-5.73,5.79-5.73a6,6,0,0,1,6.13,5.6c.07,3.13-3.06,6.49-6,6.45A6,6,0,0,1,339.56,567.07Z"/><path class="cls-4" d="M43.85,648.7a5.93,5.93,0,0,1-6.24-6,6.49,6.49,0,0,1,6.2-6.18,5.94,5.94,0,0,1,5.88,5.86A5.7,5.7,0,0,1,43.85,648.7Z"/><path class="cls-4" d="M497.34,617.84c3.94,0,6,2,6,5.9a5.77,5.77,0,0,1-6.11,6,6.44,6.44,0,0,1-6-5.88A5.92,5.92,0,0,1,497.34,617.84Z"/><path class="cls-4" d="M706.47,629.91a6,6,0,0,1-6.17-5.59,6,6,0,0,1,6-6.28,5.71,5.71,0,0,1,6,5.59A5.77,5.77,0,0,1,706.47,629.91Z"/><path class="cls-4" d="M617.45,586.19a5.93,5.93,0,0,1-6.07,5.66,5.61,5.61,0,0,1-5.89-6.16A5.76,5.76,0,0,1,611.4,580,6.19,6.19,0,0,1,617.45,586.19Z"/><path class="cls-4" d="M611.49,523.35a6.23,6.23,0,0,1,6,6.34,6.13,6.13,0,0,1-6.13,5.65,6,6,0,0,1,.17-12Z"/><path class="cls-4" d="M125.64,623.93a5.75,5.75,0,0,1-5.57,6.07,6,6,0,1,1-.22-12A5.78,5.78,0,0,1,125.64,623.93Z"/><path class="cls-4" d="M402.32,648.72a5.72,5.72,0,0,1-6-5.58c-.08-3.14,2.88-6.41,5.91-6.5a6.34,6.34,0,0,1,6.21,6.13C408.5,646.32,406,648.73,402.32,648.72Z"/><path class="cls-4" d="M801.57,630c-3.21.08-6.19-2.48-6.35-5.46-.18-3.14,2.84-6.45,5.92-6.5a6.14,6.14,0,0,1,6.27,6A6.05,6.05,0,0,1,801.57,630Z"/><path class="cls-4" d="M750.38,623.64a6,6,0,0,1-6.18,6.1,5.65,5.65,0,0,1-5.68-5.55,5.57,5.57,0,0,1,5.37-6.23C747.57,617.76,750.25,620.11,750.38,623.64Z"/><path class="cls-4" d="M402.5,542.77a5.84,5.84,0,0,1,5.9,5.76,6.24,6.24,0,0,1-6.19,6.12,6.12,6.12,0,0,1-5.9-5.91A6,6,0,0,1,402.5,542.77Z"/><path class="cls-4" d="M320.23,623.89a6,6,0,0,1,6.29-5.93,5.68,5.68,0,0,1,5.75,5.85,6,6,0,0,1-5.64,6.06C323.52,630,320.21,626.9,320.23,623.89Z"/><path class="cls-4" d="M674.33,586.38c0,3.5-2.12,5.65-5.81,5.74a5.75,5.75,0,0,1-6.25-5.43,6.72,6.72,0,0,1,5.94-6.6C671.43,580,674.28,582.88,674.33,586.38Z"/><path class="cls-4" d="M182.64,548.66a6,6,0,0,1-6.22,6c-3-.14-5.89-3.18-5.84-6.06a6,6,0,0,1,5.89-5.82A5.71,5.71,0,0,1,182.64,548.66Z"/><path class="cls-4" d="M814.47,548.12a5.84,5.84,0,0,1,6.71-5.34,6,6,0,0,1,5.32,6.34,6.62,6.62,0,0,1-6.39,5.5A5.92,5.92,0,0,1,814.47,548.12Z"/><path class="cls-4" d="M157.87,630a5.76,5.76,0,0,1-6-5.6,5.87,5.87,0,0,1,5.79-6.35,6.32,6.32,0,0,1,6.19,6.12A6.13,6.13,0,0,1,157.87,630Z"/><path class="cls-4" d="M687.23,573.41a5.72,5.72,0,0,1-5.71-5.92,5.78,5.78,0,0,1,6-6.07c3,.07,6,3,6,5.88A6.64,6.64,0,0,1,687.23,573.41Z"/><path class="cls-4" d="M782.16,573.32a6,6,0,0,1-5.62-6.59,5.52,5.52,0,0,1,5.81-5.3c3.32,0,6.3,3.09,6.09,6.22C788.25,570.46,785,573.44,782.16,573.32Z"/><path class="cls-4" d="M636.24,566.77a6.23,6.23,0,0,1-6,6.36c-2.86,0-5.93-3.11-6-6a5.84,5.84,0,0,1,5.94-5.78C633.94,561.26,636.2,563.31,636.24,566.77Z"/><path class="cls-4" d="M106.81,624.08a6.23,6.23,0,0,1-6.22,5.66c-3.55,0-5.72-2.6-5.53-6.51.17-3.59,2.42-5.52,6.1-5.27A5.94,5.94,0,0,1,106.81,624.08Z"/><path class="cls-4" d="M769.08,624c0,3.62-2.13,6-5.54,6a6,6,0,1,1-.12-12C766.83,618,769,620.35,769.08,624Z"/><path class="cls-4" d="M415.31,604.89c.07-3.06,2.95-6.09,5.8-6.1s6.4,3.37,6.37,6.21-3.49,6.2-6.45,6A6.19,6.19,0,0,1,415.31,604.89Z"/><path class="cls-4" d="M674.24,492.08a6.26,6.26,0,0,1-5.81,6.09,6.52,6.52,0,0,1-6.13-6.35,5.81,5.81,0,0,1,6.13-5.61A5.65,5.65,0,0,1,674.24,492.08Z"/><path class="cls-4" d="M62.87,629.91A5.94,5.94,0,1,1,62.62,618c3.2-.06,6.37,3,6.32,6C68.88,627,65.83,629.89,62.87,629.91Z"/><path class="cls-4" d="M144.51,567.44a6.07,6.07,0,0,1-5.84,5.88c-2.86.06-5.94-3-6-5.88a6.28,6.28,0,0,1,6.27-6A5.69,5.69,0,0,1,144.51,567.44Z"/><path class="cls-4" d="M655.55,623.9a6.07,6.07,0,0,1-6.23,5.58c-3.6-.13-5.91-2.41-5.85-5.78.07-3.61,2.59-5.91,6.32-5.76A5.82,5.82,0,0,1,655.55,623.9Z"/><path class="cls-4" d="M383.5,504.7a5.89,5.89,0,0,1,0,11.78c-3.57,0-5.86-2.18-5.93-5.62A5.67,5.67,0,0,1,383.5,504.7Z"/><path class="cls-4" d="M807.17,510.87a5.73,5.73,0,0,1-5.85,5.89c-2.93,0-6.13-3.15-6.08-5.95s3.37-6,6.13-6A6,6,0,0,1,807.17,510.87Z"/><path class="cls-4" d="M649.56,459.55c-3.71.05-5.94-1.95-6.07-5.42-.13-3.71,2.18-6,6-5.95a5.87,5.87,0,0,1,6,5.68A5.75,5.75,0,0,1,649.56,459.55Z"/><path class="cls-4" d="M157.71,516.76a5.93,5.93,0,0,1-5.85-5.93,6.09,6.09,0,0,1,5.84-6c2.85,0,6,3.13,6,6A6.13,6.13,0,0,1,157.71,516.76Z"/><path class="cls-4" d="M214.65,599.44a5.65,5.65,0,0,1,5.83,5.76,6.05,6.05,0,0,1-5.54,5.71,6.13,6.13,0,0,1-6.09-5.69A5.69,5.69,0,0,1,214.65,599.44Z"/><path class="cls-4" d="M370.13,604.67a5.65,5.65,0,0,1-5.79,5.84c-2.88,0-5.78-2.71-5.93-5.42s2.86-6.1,5.73-6.26S370.11,601.62,370.13,604.67Z"/><path class="cls-4" d="M138.75,523.76a5.76,5.76,0,0,1,.13,11.51,6.31,6.31,0,0,1-6.12-5.7C132.71,526.6,135.61,523.79,138.75,523.76Z"/><path class="cls-4" d="M852.68,529.66a5.6,5.6,0,0,1,5.66-5.9,6,6,0,0,1,5.91,5.85c0,2.91-3,5.76-6.09,5.66A5.62,5.62,0,0,1,852.68,529.66Z"/><path class="cls-4" d="M301.64,567.15a5.65,5.65,0,0,1,5.95-5.62c3,.18,5.82,3.25,5.64,6.16a6.36,6.36,0,0,1-5.87,5.5C304.42,573.22,301.55,570.2,301.64,567.15Z"/><path class="cls-4" d="M548.81,566.65a5.5,5.5,0,0,1,6.34-5.11c2.82.36,5.36,3.38,5.12,6.09a6.05,6.05,0,0,1-6.34,5.38C550.63,572.75,548.5,570.12,548.81,566.65Z"/><path class="cls-4" d="M706.29,561.46a6.1,6.1,0,0,1,5.93,5.93,6.37,6.37,0,0,1-5.74,5.72,6.17,6.17,0,0,1-5.9-5.5A6.09,6.09,0,0,1,706.29,561.46Z"/><path class="cls-4" d="M57.07,567.51a5.75,5.75,0,0,1,5.66-6,5.83,5.83,0,0,1,0,11.65A5.68,5.68,0,0,1,57.07,567.51Z"/><path class="cls-4" d="M814.74,623.89a5.56,5.56,0,0,1,5.46-5.7c3,0,6.17,2.92,6.17,5.77,0,2.66-2.94,5.61-5.72,5.73A5.78,5.78,0,0,1,814.74,623.89Z"/><path class="cls-4" d="M220.49,529.49a5.83,5.83,0,0,1-5.93,5.8,6.06,6.06,0,0,1-5.63-5.69,5.78,5.78,0,0,1,11.56-.11Z"/><path class="cls-4" d="M256,642.8a5.27,5.27,0,0,1-5.5,5.53c-3.33-.07-5.75-2.27-5.86-5.33a6.22,6.22,0,0,1,5.61-6.23C253.29,636.65,256,639.49,256,642.8Z"/><path class="cls-4" d="M776.57,529.51a6,6,0,0,1,6.08-5.72,5.93,5.93,0,0,1,5.49,5.8,6,6,0,0,1-5.6,5.7A5.88,5.88,0,0,1,776.57,529.51Z"/><path class="cls-4" d="M649.19,561.42a6,6,0,0,1,6,5.76,5.81,5.81,0,0,1-11.57.32A5.71,5.71,0,0,1,649.19,561.42Z"/><path class="cls-4" d="M106.38,642.58a5.79,5.79,0,0,1-5.52,5.72,5.59,5.59,0,0,1-5.72-5.46c0-3.27,2.66-6.15,5.71-6.07A6,6,0,0,1,106.38,642.58Z"/><path class="cls-4" d="M541.12,624c-.08,3-2.57,5.22-5.83,5.2s-6-2.77-5.88-5.77c.15-2.68,3.13-5.35,6-5.37A5.89,5.89,0,0,1,541.12,624Z"/><path class="cls-4" d="M326.46,553.89c-3.38,0-5.81-2.09-6-5.14a6.07,6.07,0,0,1,5.78-6,5.84,5.84,0,0,1,5.89,5.78A5.42,5.42,0,0,1,326.46,553.89Z"/><path class="cls-4" d="M554.4,618.12a5.48,5.48,0,0,1,5.6,5.47c.13,3.7-1.78,5.61-5.63,5.62s-5.52-1.67-5.58-5.17A5.5,5.5,0,0,1,554.4,618.12Z"/><path class="cls-4" d="M744.39,553.87a5.55,5.55,0,0,1-5.6-5.54,5.29,5.29,0,0,1,5.47-5.57,5.73,5.73,0,0,1,6,5.67A5.94,5.94,0,0,1,744.39,553.87Z"/><path class="cls-4" d="M649.28,504.8a6.14,6.14,0,0,1,5.86,5.89,5.4,5.4,0,0,1-5.68,5.38,5.5,5.5,0,0,1-5.82-5.24A5.83,5.83,0,0,1,649.28,504.8Z"/><path class="cls-4" d="M195.46,610.58a5.17,5.17,0,0,1-5.37-5.54,5.3,5.3,0,0,1,5.85-5.58c2.91.14,5.64,2.85,5.64,5.61A5.78,5.78,0,0,1,195.46,610.58Z"/><path class="cls-4" d="M182.52,623.84a5.94,5.94,0,0,1-5.44,5.77,5.72,5.72,0,0,1-.58-11.41A5.85,5.85,0,0,1,182.52,623.84Z"/><path class="cls-4" d="M750.22,642.37c.15,2.7-2.73,5.81-5.47,5.91a6.08,6.08,0,0,1-6-5.31c-.23-2.75,2.45-6,5.12-6.2S750.06,639.53,750.22,642.37Z"/><path class="cls-4" d="M345.55,504.8c2.75.1,5.66,3,5.67,5.67a5.72,5.72,0,0,1-6,5.6,5.49,5.49,0,0,1-5.57-5.49A5.89,5.89,0,0,1,345.55,504.8Z"/><path class="cls-4" d="M586.73,605.13a5.65,5.65,0,1,1,11.29,0c0,3.11-2.92,6-5.88,5.88A5.84,5.84,0,0,1,586.73,605.13Z"/><path class="cls-4" d="M863.93,624.12c-.1,3.32-2.13,5.13-5.73,5.1s-5.53-2-5.47-5.32a5.6,5.6,0,1,1,11.2.22Z"/><path class="cls-4" d="M30.13,510.78a5.5,5.5,0,0,1-5.26,5.85,5.66,5.66,0,0,1-5.72-5.45,5.75,5.75,0,0,1,5.37-5.83A5.36,5.36,0,0,1,30.13,510.78Z"/><path class="cls-4" d="M668.59,505.35a5.92,5.92,0,0,1,5.45,5.82,5.73,5.73,0,0,1-5.76,5.46,5.58,5.58,0,0,1-5.31-5.85A5.28,5.28,0,0,1,668.59,505.35Z"/><path class="cls-4" d="M465.09,624c-.09,3.28-2.23,5.22-5.77,5.23s-5.53-1.83-5.51-5.34a5.5,5.5,0,0,1,5.89-5.7A5.63,5.63,0,0,1,465.09,624Z"/><path class="cls-4" d="M403.07,599.53A5.7,5.7,0,0,1,408,605.7a5.51,5.51,0,0,1-6.49,5,5.42,5.42,0,0,1-4.62-6.27A5.6,5.6,0,0,1,403.07,599.53Z"/><path class="cls-4" d="M839.34,599.45a5.78,5.78,0,0,1,5.79,5.93c-.09,3-2.64,5.24-5.91,5.22-3.52,0-5.33-1.94-5.27-5.55S836.06,599.42,839.34,599.45Z"/><path class="cls-4" d="M345.27,459.44a5.48,5.48,0,0,1-5.63-5.5,5.74,5.74,0,0,1,6.05-5.64c2.89.11,5.66,3,5.51,5.82A5.75,5.75,0,0,1,345.27,459.44Z"/><path class="cls-4" d="M106.37,548.75a5.64,5.64,0,0,1-6,5.12,5.5,5.5,0,0,1-5.18-6.32c.33-3.14,2.83-5.08,6.16-4.77A5.33,5.33,0,0,1,106.37,548.75Z"/><path class="cls-4" d="M426.91,624c-.05,3.35-2.2,5.29-5.72,5.15s-5.51-2.13-5.39-5.52a5.56,5.56,0,1,1,11.11.37Z"/><path class="cls-4" d="M616.69,567.14c0,3.5-1.91,5.48-5.3,5.45a5.67,5.67,0,0,1-5.76-5.34,5.83,5.83,0,0,1,5.85-5.82C614.63,561.46,616.67,563.71,616.69,567.14Z"/><path class="cls-4" d="M220.43,623.74c.1,3.1-2.23,5.37-5.61,5.47s-5.83-2.05-5.86-5.16a5.91,5.91,0,0,1,5.6-5.73A5.85,5.85,0,0,1,220.43,623.74Z"/><path class="cls-4" d="M326.28,599.45a5.77,5.77,0,0,1,5.8,5.36,5.57,5.57,0,0,1-5.81,5.74c-2.8-.07-5.76-2.92-5.77-5.56S323.48,599.46,326.28,599.45Z"/><path class="cls-4" d="M616.69,548.12c0,3.46-2,5.67-5.16,5.73a5.81,5.81,0,0,1-5.91-5.72,5.52,5.52,0,0,1,5.69-5.37C614.78,542.73,616.66,544.6,616.69,548.12Z"/><path class="cls-4" d="M858.21,610.68a5.62,5.62,0,0,1,0-11.24,5.62,5.62,0,1,1,0,11.24Z"/><path class="cls-4" d="M250.7,599.36a5.44,5.44,0,0,1,5.32,5.7,5.67,5.67,0,0,1-11.34-.15A5.65,5.65,0,0,1,250.7,599.36Z"/><path class="cls-4" d="M397,567.51a5.54,5.54,0,0,1,5.25-5.81,5.93,5.93,0,0,1,5.67,6,6,6,0,0,1-5.66,5.57C399.39,573.31,397.06,570.73,397,567.51Z"/><path class="cls-4" d="M195.46,618.41a5.3,5.3,0,0,1,5.75,5.28c.14,3.47-1.74,5.44-5.27,5.53s-5.75-1.82-5.82-5.08A5.39,5.39,0,0,1,195.46,618.41Z"/><path class="cls-4" d="M30.1,605.3a5.7,5.7,0,0,1-5.57,5.63c-2.76,0-5.42-3-5.31-5.95a5.7,5.7,0,0,1,5.37-5.33A5.62,5.62,0,0,1,30.1,605.3Z"/><path class="cls-4" d="M663.05,605.13a5.56,5.56,0,0,1,5.64-5.47,5.93,5.93,0,0,1,5.23,5.53c0,2.93-2.76,5.77-5.55,5.75A5.5,5.5,0,0,1,663.05,605.13Z"/><path class="cls-4" d="M350.85,548.76a5.42,5.42,0,0,1-6,5.1,5.66,5.66,0,0,1-5.14-6,5.56,5.56,0,0,1,6.06-5A5.33,5.33,0,0,1,350.85,548.76Z"/><path class="cls-4" d="M806.87,529.6a5.48,5.48,0,1,1-11,0,5.22,5.22,0,0,1,5.73-5.31A5.09,5.09,0,0,1,806.87,529.6Z"/><path class="cls-4" d="M157.72,524.31c3.43,0,5.39,2,5.33,5.53a5.39,5.39,0,0,1-5.17,5.45,5.78,5.78,0,0,1-5.8-5.47A5.52,5.52,0,0,1,157.72,524.31Z"/><path class="cls-4" d="M769,643.35a5.47,5.47,0,0,1-6.11,4.94,5.61,5.61,0,0,1-5.06-5.62,5.82,5.82,0,0,1,6-5.22A5.54,5.54,0,0,1,769,643.35Z"/><path class="cls-4" d="M839.11,629.21q-5.34-.12-5.08-5.6a5.16,5.16,0,0,1,5.22-5.28,5.94,5.94,0,0,1,5.86,5.86C845,627.17,842.46,629.28,839.11,629.21Z"/><path class="cls-4" d="M692.82,586.28a5.49,5.49,0,0,1-5.61,5.48,5.6,5.6,0,0,1-5.42-5.73,5.31,5.31,0,0,1,5.46-5.09A5.07,5.07,0,0,1,692.82,586.28Z"/><path class="cls-4" d="M138.61,610.51a5.44,5.44,0,0,1-5.4-5.71,5.54,5.54,0,0,1,5.39-5.28,5.84,5.84,0,0,1,5.72,6A5.6,5.6,0,0,1,138.61,610.51Z"/><path class="cls-4" d="M307.19,610.52a5.54,5.54,0,0,1-5.45-5.59,5.67,5.67,0,0,1,5.72-5.41,5.41,5.41,0,0,1,5.33,5.67A5.19,5.19,0,0,1,307.19,610.52Z"/><path class="cls-4" d="M559.9,605a5.55,5.55,0,0,1-11.08.39,5.8,5.8,0,0,1,5.87-5.85A5.55,5.55,0,0,1,559.9,605Z"/><path class="cls-4" d="M858.31,572.59a5.35,5.35,0,0,1-5.54-5.49,5.81,5.81,0,0,1,5.31-5.45,5.59,5.59,0,0,1,5.7,5.44A5.21,5.21,0,0,1,858.31,572.59Z"/><path class="cls-4" d="M787.77,605.28a5.21,5.21,0,0,1-5.33,5.23,5.5,5.5,0,1,1,0-11A5.56,5.56,0,0,1,787.77,605.28Z"/><path class="cls-4" d="M654.83,604.82a5.67,5.67,0,0,1-5.48,5.66,5.6,5.6,0,0,1-5.46-5.71,5.22,5.22,0,0,1,5.21-5.31A5.5,5.5,0,0,1,654.83,604.82Z"/><path class="cls-4" d="M119.87,648.33a5.76,5.76,0,0,1-5.78-5.4c-.12-2.79,2.64-5.47,5.66-5.48a5,5,0,0,1,5.27,5.13C125.13,645.91,123,648.24,119.87,648.33Z"/><path class="cls-4" d="M384.05,524a5.56,5.56,0,0,1,4.83,6.22c-.4,2.64-3.41,5-6,4.79-2.86-.3-5.42-3.4-5.09-6.16A5.68,5.68,0,0,1,384.05,524Z"/><path class="cls-4" d="M350.76,491.57a5.47,5.47,0,0,1-5.38,5.68,5.61,5.61,0,0,1-5.5-5.16,5.45,5.45,0,1,1,10.88-.52Z"/><path class="cls-4" d="M350.76,623.58a5.11,5.11,0,0,1-5.36,5.52,5.23,5.23,0,0,1-5.52-5.42,5.36,5.36,0,0,1,5.66-5.35A5.18,5.18,0,0,1,350.76,623.58Z"/><path class="cls-4" d="M214.71,572.59c-3.42,0-5.47-2-5.4-5.42a5.64,5.64,0,0,1,5.15-5.5,6,6,0,0,1,5.79,5.5A5.25,5.25,0,0,1,214.71,572.59Z"/><path class="cls-4" d="M176.77,572.7c-3.27.06-5.31-1.77-5.43-4.87s2.3-6,5.09-6,6,3,5.89,6C182.26,570.48,179.85,572.63,176.77,572.7Z"/><path class="cls-4" d="M43.54,580.94a5.4,5.4,0,0,1,5.75,5.28,5.49,5.49,0,0,1-11,.4A5.17,5.17,0,0,1,43.54,580.94Z"/><path class="cls-4" d="M62.77,610.51a5.61,5.61,0,0,1-5.59-5.06,5.87,5.87,0,0,1,5.33-5.9,5.71,5.71,0,0,1,5.57,5.61A5.58,5.58,0,0,1,62.77,610.51Z"/><path class="cls-4" d="M611.47,629.11c-3.29-.08-5.77-2.41-5.7-5.34a5.82,5.82,0,0,1,5.74-5.45c3.19,0,5.16,2.26,5.08,5.76S614.75,629.2,611.47,629.11Z"/><path class="cls-4" d="M825.84,567.6c0,3.06-2.1,5.06-5.34,5.1a5.3,5.3,0,0,1-5.68-5.36c.1-2.66,2.87-5.47,5.4-5.47C822.92,561.87,825.84,564.85,825.84,567.6Z"/><path class="cls-4" d="M711.46,604.92c.09,3.35-1.7,5.43-4.82,5.57a5.39,5.39,0,0,1-5.58-5.51,5.58,5.58,0,0,1,5.23-5.45A5.26,5.26,0,0,1,711.46,604.92Z"/><path class="cls-4" d="M825.67,642.68a5.55,5.55,0,0,1-5.12,5.49c-2.71,0-5.51-2.58-5.56-5.17a6,6,0,0,1,5.26-5.5A5.57,5.57,0,0,1,825.67,642.68Z"/><path class="cls-4" d="M497.33,647.71a5.46,5.46,0,0,1-5.28-5.3,5.52,5.52,0,0,1,5.55-5,5.42,5.42,0,0,1,5.24,5.33A5.21,5.21,0,0,1,497.33,647.71Z"/><path class="cls-4" d="M644.32,529.61c-.1-3.34,1.72-5.32,4.91-5.34a5.38,5.38,0,0,1,5.5,5,5.75,5.75,0,0,1-5.16,5.54A5.18,5.18,0,0,1,644.32,529.61Z"/><path class="cls-4" d="M176.73,647.82a5,5,0,0,1-5.31-5.15,5.51,5.51,0,0,1,5.5-5.16c2.59.09,5.32,3,5.18,5.63A5.13,5.13,0,0,1,176.73,647.82Z"/><path class="cls-4" d="M100.52,590.87a4.91,4.91,0,0,1-5-5,5.19,5.19,0,0,1,5.19-4.89,4.75,4.75,0,0,1,4.74,5.16C105.43,589.3,103.68,591,100.52,590.87Z"/><path class="cls-4" d="M744.61,590.88a4.74,4.74,0,0,1-5.25-4.66,4.94,4.94,0,0,1,4.73-5.25,5.23,5.23,0,0,1,5.28,4.79A4.65,4.65,0,0,1,744.61,590.88Z"/><path class="cls-4" d="M388.61,642.43c.1,2.44-2.44,5.06-5,5.16a4.9,4.9,0,1,1-.45-9.78C385.72,637.59,388.52,640,388.61,642.43Z"/><path class="cls-4" d="M782.13,638.28c2.52-.07,5.06,2,5.14,4.25s-2.61,5-5.09,5a5,5,0,0,1-4.49-4.93A4.36,4.36,0,0,1,782.13,638.28Z"/><path class="cls-4" d="M360,623.18a4.19,4.19,0,0,1,4.63-4,4.68,4.68,0,0,1,4.37,5,4.32,4.32,0,0,1-4.78,4C361.45,628,359.81,626.05,360,623.18Z"/><path class="cls-4" d="M143.48,642.75a5.3,5.3,0,0,1-4.83,4.75,4.76,4.76,0,0,1-4.5-4.93,4.26,4.26,0,0,1,4.48-4.29A4.53,4.53,0,0,1,143.48,642.75Z"/><path class="cls-4" d="M558.92,586.3a4.59,4.59,0,0,1-4.73,4.53,5,5,0,0,1-4.47-4.91,4.51,4.51,0,0,1,4.6-4.15A4.3,4.3,0,0,1,558.92,586.3Z"/><path class="cls-4" d="M858.31,553a5.07,5.07,0,0,1-4.55-4.9,4.61,4.61,0,0,1,4.73-4.15,4.24,4.24,0,0,1,4.38,4.32A4.53,4.53,0,0,1,858.31,553Z"/><path class="cls-4" d="M210.39,548.48a4.06,4.06,0,0,1,4.06-4.53,4.75,4.75,0,0,1,4.89,4.47,4.86,4.86,0,0,1-4.77,4.6A4.31,4.31,0,0,1,210.39,548.48Z"/><path class="cls-4" d="M345.11,533.71a4.31,4.31,0,0,1-4.43-4.27,4.72,4.72,0,0,1,4.76-4.55,4.47,4.47,0,0,1,4.34,4.88C349.59,532.28,347.78,533.8,345.11,533.71Z"/><path class="cls-4" d="M649.36,581.69c2.68,0,4.38,1.63,4.41,4.2a4.53,4.53,0,0,1-4.47,4.79,5.17,5.17,0,0,1-4.6-4.89A4.41,4.41,0,0,1,649.36,581.69Z"/><path class="cls-4" d="M157.82,647.34a4.9,4.9,0,0,1-4.5-4.42,4.65,4.65,0,0,1,4.2-4.15,4.27,4.27,0,0,1,4.39,4.29C161.85,645.07,159.71,647.31,157.82,647.34Z"/><path class="cls-4" d="M801.35,647.32c-1.86,0-4.13-2.15-4.28-4.09a4.58,4.58,0,0,1,4.29-4.46,4.41,4.41,0,0,1,4.25,4A4.61,4.61,0,0,1,801.35,647.32Z"/><path class="cls-4" d="M67,643a4.72,4.72,0,0,1-4.27,4.15,4.57,4.57,0,0,1-4.27-4.58,4.51,4.51,0,0,1,4.45-3.9A4.75,4.75,0,0,1,67,643Z"/><path class="cls-4" d="M706.17,638.64a4.89,4.89,0,0,1,4.59,3.86c.2,2-2.32,4.65-4.33,4.62a4.54,4.54,0,0,1-4.19-4.18A4.1,4.1,0,0,1,706.17,638.64Z"/><path class="cls-4" d="M214.84,590.17a4,4,0,0,1-.49-8.08,3.94,3.94,0,0,1,4.46,4.06A3.67,3.67,0,0,1,214.84,590.17Z"/><path class="cls-4" d="M596.64,624.25a4.21,4.21,0,0,1-4.46,3.72,4.14,4.14,0,0,1-4.07-4.12,4.06,4.06,0,0,1,4.15-4C594.61,619.94,596.78,622.11,596.64,624.25Z"/><path class="cls-4" d="M43.76,619.82A4.08,4.08,0,0,1,43.6,628a4.08,4.08,0,0,1,.16-8.15Z"/><path class="cls-4" d="M858.28,590.17c-2.63,0-3.9-1.38-3.82-4.11a3.78,3.78,0,0,1,4.11-4,4.21,4.21,0,0,1,4.08,4.21A4.11,4.11,0,0,1,858.28,590.17Z"/><path class="cls-4" d="M349.52,473a4.41,4.41,0,0,1-4.4,3.86,4.61,4.61,0,0,1-4-4.35c.09-1.93,2.39-3.88,4.48-3.8A4.19,4.19,0,0,1,349.52,473Z"/><path class="cls-4" d="M157.86,563.3a4.24,4.24,0,0,1,4,4.27,4.09,4.09,0,0,1-4.2,4,4.22,4.22,0,0,1-4-4.25A4.32,4.32,0,0,1,157.86,563.3Z"/><path class="cls-4" d="M653.53,472.56a4.45,4.45,0,0,1-3.95,4.31,4,4,0,0,1-4.22-3.88,4.09,4.09,0,0,1,8.17-.43Z"/><path class="cls-4" d="M330.39,642.85a4,4,0,0,1-4.23,3.92,4.16,4.16,0,0,1-4.06-4.17,4.53,4.53,0,0,1,4.36-4A4,4,0,0,1,330.39,642.85Z"/><path class="cls-4" d="M535.15,563.19a4.06,4.06,0,1,1,.35,8.11,4.32,4.32,0,0,1-4.3-3.88A4.27,4.27,0,0,1,535.15,563.19Z"/><path class="cls-4" d="M687.28,628a3.89,3.89,0,0,1-3.85-4.19,3.75,3.75,0,0,1,4.06-4A3.88,3.88,0,0,1,691.4,624,4,4,0,0,1,687.28,628Z"/><path class="cls-4" d="M645.42,491.67a4.08,4.08,0,0,1,3.89-4.24,4.43,4.43,0,0,1,4.2,4.06,4,4,0,0,1-4,4.13A3.91,3.91,0,0,1,645.42,491.67Z"/><path class="cls-4" d="M100.67,608.76a3.84,3.84,0,0,1-4.08-4,4.37,4.37,0,0,1,4.44-3.89,4.3,4.3,0,0,1,3.83,4A3.86,3.86,0,0,1,100.67,608.76Z"/><path class="cls-4" d="M801.22,571.54a4.12,4.12,0,1,1,.2-8.23,4.12,4.12,0,0,1-.2,8.23Z"/><path class="cls-4" d="M748.47,604.62a3.94,3.94,0,0,1-4,4.15,3.86,3.86,0,0,1-4.14-4,4,4,0,0,1,4.26-4A3.88,3.88,0,0,1,748.47,604.62Z"/><path class="cls-4" d="M816.42,605.06a3.82,3.82,0,0,1,4.24-3.81,4.06,4.06,0,0,1,4,3.7c.06,2.15-2.39,4.35-4.62,4.16A3.9,3.9,0,0,1,816.42,605.06Z"/><path class="cls-4" d="M786.3,585.91a4.11,4.11,0,0,1-3.55,4.14,3.88,3.88,0,0,1-4.25-3.35,4.15,4.15,0,0,1,3.71-4.45A4.25,4.25,0,0,1,786.3,585.91Z"/><path class="cls-4" d="M402.55,620a4.34,4.34,0,0,1,3.77,4.52,3.63,3.63,0,0,1-3.8,3.34,4,4,0,0,1-4-4.14A4.28,4.28,0,0,1,402.55,620Z"/><path class="cls-4" d="M786.29,624a4.42,4.42,0,0,1-4,3.75,4.13,4.13,0,0,1-3.74-4.42,4,4,0,0,1,4.21-3.44A4.05,4.05,0,0,1,786.29,624Z"/><path class="cls-4" d="M180.74,605.18c0,2.23-1.42,3.6-3.81,3.68a3.8,3.8,0,0,1-4.19-3.88,3.71,3.71,0,0,1,3.85-3.72A3.81,3.81,0,0,1,180.74,605.18Z"/><path class="cls-4" d="M142.5,586.14a4,4,0,0,1-4.12,3.93c-2.06-.11-3.41-1.79-3.31-4.11a3.62,3.62,0,0,1,3.74-3.71A3.86,3.86,0,0,1,142.5,586.14Z"/><path class="cls-4" d="M138.79,627.77a3.64,3.64,0,0,1-3.71-3.35,3.85,3.85,0,0,1,3.55-4.49,3.9,3.9,0,0,1,3.87,3.78A4.25,4.25,0,0,1,138.79,627.77Z"/><path class="cls-4" d="M387.08,623.89a3.75,3.75,0,1,1-3.65-4A3.87,3.87,0,0,1,387.08,623.89Z"/><path class="cls-4" d="M630.35,646.36a3.44,3.44,0,0,1-3.53-3.42,3.88,3.88,0,0,1,3.25-4.29,4.31,4.31,0,0,1,4.21,4A4,4,0,0,1,630.35,646.36Z"/><path class="cls-4" d="M595.78,642.75c-.35,2-1.36,3.1-3.44,3.09s-3.23-1.17-3.22-3.13,1.31-3.11,3.29-3.14S595.28,641.07,595.78,642.75Z"/><path class="cls-4" d="M326.12,583.87a2.23,2.23,0,0,1,2.26,2.31,1.8,1.8,0,0,1-1.9,2.05,2.07,2.07,0,0,1-2.34-2.19C324.11,584.86,324.93,584.15,326.12,583.87Z"/><path class="cls-4" d="M613.56,510.77a2.16,2.16,0,0,1-2.19,2,1.91,1.91,0,0,1-2.1-2,2.12,2.12,0,0,1,2.41-2.19C613,508.7,613.49,509.59,613.56,510.77Z"/><path class="cls-4" d="M364.33,583.7c1.42.31,2.18,1.08,2.14,2.22a2.13,2.13,0,0,1-2.42,2.1,1.92,1.92,0,0,1-1.88-2.12A2.32,2.32,0,0,1,364.33,583.7Z"/><path class="cls-4" d="M6.77,579.49a6.86,6.86,0,0,1,6.59,6.84,6.18,6.18,0,0,1-6.47,6.27C3.06,592.51.36,590,.3,586.39A6.57,6.57,0,0,1,6.77,579.49Z"/><path class="cls-4" d="M7,629.91A5.94,5.94,0,1,1,6.7,618c3.2-.06,6.37,3,6.32,6C13,627,9.91,629.89,7,629.91Z"/><path class="cls-4" d="M1.15,567.51a5.75,5.75,0,0,1,5.66-6,5.83,5.83,0,0,1,0,11.65A5.68,5.68,0,0,1,1.15,567.51Z"/><path class="cls-4" d="M6.85,610.51a5.59,5.59,0,0,1-5.58-5.06,5.85,5.85,0,0,1,5.32-5.9,5.71,5.71,0,0,1,5.57,5.61A5.57,5.57,0,0,1,6.85,610.51Z"/><path class="cls-4" d="M11.1,643a4.72,4.72,0,0,1-4.27,4.15,4.57,4.57,0,0,1-4.27-4.58A4.52,4.52,0,0,1,7,638.64,4.75,4.75,0,0,1,11.1,643Z"/><path class="cls-4" d="M876.55,649a6.19,6.19,0,0,1-6.4-6,6.4,6.4,0,1,1,12.8,0A6.35,6.35,0,0,1,876.55,649Z"/><path class="cls-4" d="M882.1,624.12c-.1,3.32-2.13,5.13-5.73,5.1s-5.52-2-5.46-5.32a5.6,5.6,0,1,1,11.19.22Z"/><path class="cls-4" d="M876.39,610.68a5.62,5.62,0,0,1,0-11.24,5.62,5.62,0,1,1,0,11.24Z"/><path class="cls-4" d="M876.45,590.17c-2.62,0-3.89-1.38-3.81-4.11a3.78,3.78,0,0,1,4.11-4,4.23,4.23,0,0,1,4.08,4.21A4.13,4.13,0,0,1,876.45,590.17Z"/><path class="cls-4" d="M914,635.63a7,7,0,0,1,7.12,7.42,7.37,7.37,0,0,1-7.07,7.19c-3.57.15-7.62-3.79-7.58-7.38A7.5,7.5,0,0,1,914,635.63Z"/><path class="cls-4" d="M977.74,642.89a6.89,6.89,0,0,1-13.77.16,6.89,6.89,0,1,1,13.77-.16Z"/><path class="cls-4" d="M939.7,548.62a7,7,0,0,1-6.79,6.78,6.88,6.88,0,0,1-7-7.09,7.35,7.35,0,0,1,7.3-6.82A6.94,6.94,0,0,1,939.7,548.62Z"/><path class="cls-4" d="M1072.62,529.76a6.47,6.47,0,0,1-7.07,6.73,6.88,6.88,0,0,1-6.61-6.87,7.22,7.22,0,0,1,7.22-6.84A6.74,6.74,0,0,1,1072.62,529.76Z"/><path class="cls-4" d="M1146.57,623.8c.11,3.52-3.44,7-7.13,7.05a6.72,6.72,0,0,1-6.54-6.89c0-4,2.53-6.82,6.38-7A7.15,7.15,0,0,1,1146.57,623.8Z"/><path class="cls-4" d="M1015.93,605.26a7.15,7.15,0,0,1-6.85,6.78,6.81,6.81,0,1,1-.34-13.61A7,7,0,0,1,1015.93,605.26Z"/><path class="cls-4" d="M1085,593a6.43,6.43,0,0,1-6.89-6.44,6.93,6.93,0,0,1,6.66-7.29,7.68,7.68,0,0,1,7.17,7.09C1092,589.75,1088.71,592.87,1085,593Z"/><path class="cls-4" d="M913.92,466.15c3.62.1,7.09,3.67,7,7.23a6.88,6.88,0,0,1-7.45,6.47,6.38,6.38,0,0,1-6.37-7C907.25,469.24,910.46,466.06,913.92,466.15Z"/><path class="cls-4" d="M1047,612.06a6.83,6.83,0,0,1-6.91-6.69,6.57,6.57,0,0,1,6.51-6.94,6.88,6.88,0,0,1,7.26,6.76C1053.91,608.6,1050.5,612,1047,612.06Z"/><path class="cls-4" d="M1034.41,548.43a6.08,6.08,0,0,1-6.42,6.39c-3.91,0-6.49-2.43-6.51-6.22,0-4,2.71-6.84,6.57-6.79A6.66,6.66,0,0,1,1034.41,548.43Z"/><path class="cls-4" d="M951.86,579.49a6.87,6.87,0,0,1,6.6,6.84A6.19,6.19,0,0,1,952,592.6c-3.84-.09-6.54-2.64-6.59-6.21A6.56,6.56,0,0,1,951.86,579.49Z"/><path class="cls-4" d="M1104,649a6.17,6.17,0,0,1-6.38-6.4,6,6,0,0,1,6.19-6.06c3.5,0,6.73,3.17,6.58,6.42A6.33,6.33,0,0,1,1104,649Z"/><path class="cls-4" d="M920.19,568.16a6.45,6.45,0,0,1-7.15,5.6,6.64,6.64,0,0,1-5.43-6.92c.46-3.7,3.32-5.89,7.19-5.48A6.24,6.24,0,0,1,920.19,568.16Z"/><path class="cls-4" d="M1053.12,586.33a6.24,6.24,0,0,1-6.24,6.15c-3.68.08-5.93-2.24-6-6.12s2.23-6.34,5.75-6.41A6.15,6.15,0,0,1,1053.12,586.33Z"/><path class="cls-4" d="M989.52,573.35c-3-.06-5.93-3.3-5.81-6.54.13-3.47,2.71-5.67,6.52-5.55a5.84,5.84,0,0,1,5.87,6.25A6.6,6.6,0,0,1,989.52,573.35Z"/><path class="cls-4" d="M1041,492.17c-.11-3.52,2.08-6.08,5.38-6.29s6.6,2.49,6.75,5.62-2.87,6.55-5.84,6.68A6.09,6.09,0,0,1,1041,492.17Z"/><path class="cls-4" d="M914,592.12c-4,.07-6-1.85-6-5.81a6,6,0,0,1,5.5-6.23c3.12-.16,6.62,3.29,6.56,6.46S917.49,592.06,914,592.12Z"/><path class="cls-4" d="M913.68,554.69a5.8,5.8,0,0,1-5.65-6.44,5.94,5.94,0,0,1,5.87-5.83c3.18.07,6.27,3.2,6.18,6.26A6.59,6.59,0,0,1,913.68,554.69Z"/><path class="cls-4" d="M1041,548.56a5.9,5.9,0,0,1,5.53-6.18c3.24-.16,6.49,2.73,6.56,5.83a6.68,6.68,0,0,1-6.5,6.45C1043.38,554.6,1041,552,1041,548.56Z"/><path class="cls-4" d="M908.11,492.34c-.09-3.81,1.76-6,5.25-6.12s6.41,2.18,6.58,5.56c.15,3.08-2.86,6.25-6.06,6.39A5.69,5.69,0,0,1,908.11,492.34Z"/><path class="cls-4" d="M926.82,566.71a6.31,6.31,0,0,1,7-5.25,5.82,5.82,0,0,1,5,6.6,6.08,6.08,0,0,1-6.85,5.31A6.26,6.26,0,0,1,926.82,566.71Z"/><path class="cls-4" d="M933,648.7a5.93,5.93,0,0,1-6.25-6,6.49,6.49,0,0,1,6.2-6.18,6,6,0,0,1,5.89,5.86A5.71,5.71,0,0,1,933,648.7Z"/><path class="cls-4" d="M1014.82,623.93a5.76,5.76,0,0,1-5.58,6.07,6,6,0,1,1-.21-12A5.78,5.78,0,0,1,1014.82,623.93Z"/><path class="cls-4" d="M1071.81,548.66a6,6,0,0,1-6.21,6c-3-.14-5.89-3.18-5.84-6.06a6,6,0,0,1,5.89-5.82A5.71,5.71,0,0,1,1071.81,548.66Z"/><path class="cls-4" d="M1047,630a5.75,5.75,0,0,1-6-5.6,5.87,5.87,0,0,1,5.79-6.35,6.33,6.33,0,0,1,6.19,6.12A6.14,6.14,0,0,1,1047,630Z"/><path class="cls-4" d="M996,624.08a6.23,6.23,0,0,1-6.23,5.66c-3.55,0-5.72-2.6-5.53-6.51.18-3.59,2.42-5.52,6.11-5.27A5.94,5.94,0,0,1,996,624.08Z"/><path class="cls-4" d="M952,629.91A5.94,5.94,0,1,1,951.8,618c3.19-.06,6.37,3,6.31,6C958.06,627,955,629.89,952,629.91Z"/><path class="cls-4" d="M1033.69,567.44a6.09,6.09,0,0,1-5.84,5.88c-2.86.06-5.95-3-6-5.88a6.26,6.26,0,0,1,6.26-6A5.69,5.69,0,0,1,1033.69,567.44Z"/><path class="cls-4" d="M1046.89,516.76a6,6,0,0,1-5.86-5.93,6.11,6.11,0,0,1,5.84-6c2.85,0,6,3.13,6,6A6.12,6.12,0,0,1,1046.89,516.76Z"/><path class="cls-4" d="M1103.82,599.44a5.64,5.64,0,0,1,5.83,5.76,6,6,0,0,1-5.54,5.71,6.12,6.12,0,0,1-6.08-5.69A5.68,5.68,0,0,1,1103.82,599.44Z"/><path class="cls-4" d="M1027.92,523.76a5.76,5.76,0,0,1,.14,11.51,6.3,6.3,0,0,1-6.12-5.7C1021.88,526.6,1024.78,523.79,1027.92,523.76Z"/><path class="cls-4" d="M946.25,567.51a5.75,5.75,0,0,1,5.65-6,5.83,5.83,0,0,1,0,11.65A5.67,5.67,0,0,1,946.25,567.51Z"/><path class="cls-4" d="M1109.66,529.49a5.82,5.82,0,0,1-5.93,5.8,6.05,6.05,0,0,1-5.62-5.69,5.78,5.78,0,0,1,11.55-.11Z"/><path class="cls-4" d="M1145.2,642.8a5.26,5.26,0,0,1-5.5,5.53c-3.33-.07-5.75-2.27-5.85-5.33a6.21,6.21,0,0,1,5.6-6.23C1142.47,636.65,1145.17,639.49,1145.2,642.8Z"/><path class="cls-4" d="M995.55,642.58A5.78,5.78,0,0,1,990,648.3a5.59,5.59,0,0,1-5.72-5.46c-.05-3.27,2.66-6.15,5.71-6.07A6,6,0,0,1,995.55,642.58Z"/><path class="cls-4" d="M1084.63,610.58a5.16,5.16,0,0,1-5.36-5.54,5.3,5.3,0,0,1,5.84-5.58c2.92.14,5.65,2.85,5.64,5.61A5.77,5.77,0,0,1,1084.63,610.58Z"/><path class="cls-4" d="M1071.69,623.84a5.94,5.94,0,0,1-5.44,5.77,5.71,5.71,0,0,1-.57-11.41A5.83,5.83,0,0,1,1071.69,623.84Z"/><path class="cls-4" d="M919.31,510.78a5.52,5.52,0,0,1-5.26,5.85,5.67,5.67,0,0,1-5.73-5.45,5.76,5.76,0,0,1,5.37-5.83A5.37,5.37,0,0,1,919.31,510.78Z"/><path class="cls-4" d="M995.55,548.75a5.65,5.65,0,0,1-6,5.12,5.49,5.49,0,0,1-5.18-6.32c.33-3.14,2.83-5.08,6.15-4.77A5.34,5.34,0,0,1,995.55,548.75Z"/><path class="cls-4" d="M1109.61,623.74c.09,3.1-2.24,5.37-5.61,5.47s-5.84-2.05-5.87-5.16a5.91,5.91,0,0,1,5.61-5.73A5.85,5.85,0,0,1,1109.61,623.74Z"/><path class="cls-4" d="M1139.88,599.36a5.45,5.45,0,0,1,5.32,5.7,5.68,5.68,0,0,1-11.35-.15A5.66,5.66,0,0,1,1139.88,599.36Z"/><path class="cls-4" d="M1084.64,618.41a5.3,5.3,0,0,1,5.74,5.28c.14,3.47-1.74,5.44-5.27,5.53s-5.74-1.82-5.82-5.08A5.4,5.4,0,0,1,1084.64,618.41Z"/><path class="cls-4" d="M919.28,605.3a5.72,5.72,0,0,1-5.57,5.63c-2.76,0-5.42-3-5.32-5.95a5.7,5.7,0,0,1,5.38-5.33A5.63,5.63,0,0,1,919.28,605.3Z"/><path class="cls-4" d="M1046.89,524.31c3.44,0,5.4,2,5.34,5.53a5.4,5.4,0,0,1-5.18,5.45,5.77,5.77,0,0,1-5.79-5.47A5.51,5.51,0,0,1,1046.89,524.31Z"/><path class="cls-4" d="M1027.78,610.51a5.43,5.43,0,0,1-5.39-5.71,5.54,5.54,0,0,1,5.38-5.28,5.82,5.82,0,0,1,5.72,6A5.59,5.59,0,0,1,1027.78,610.51Z"/><path class="cls-4" d="M1009,648.33a5.75,5.75,0,0,1-5.77-5.4c-.12-2.79,2.64-5.47,5.66-5.48a5,5,0,0,1,5.27,5.13C1014.31,645.91,1012.21,648.24,1009,648.33Z"/><path class="cls-4" d="M1103.88,572.59c-3.42,0-5.46-2-5.4-5.42a5.64,5.64,0,0,1,5.16-5.5,6,6,0,0,1,5.78,5.5A5.23,5.23,0,0,1,1103.88,572.59Z"/><path class="cls-4" d="M1066,572.7c-3.27.06-5.32-1.77-5.43-4.87s2.29-6,5.08-6,6,3,5.9,6C1071.44,570.48,1069,572.63,1066,572.7Z"/><path class="cls-4" d="M932.72,580.94a5.4,5.4,0,0,1,5.74,5.28,5.49,5.49,0,0,1-11,.4A5.17,5.17,0,0,1,932.72,580.94Z"/><path class="cls-4" d="M952,610.51a5.6,5.6,0,0,1-5.59-5.06,5.85,5.85,0,0,1,5.33-5.9,5.73,5.73,0,0,1,5.57,5.61A5.58,5.58,0,0,1,952,610.51Z"/><path class="cls-4" d="M1065.9,647.82a5,5,0,0,1-5.31-5.15,5.52,5.52,0,0,1,5.51-5.16c2.58.09,5.31,3,5.17,5.63A5.13,5.13,0,0,1,1065.9,647.82Z"/><path class="cls-4" d="M989.69,590.87a4.93,4.93,0,0,1-5-5,5.21,5.21,0,0,1,5.19-4.89,4.75,4.75,0,0,1,4.75,5.16C994.61,589.3,992.85,591,989.69,590.87Z"/><path class="cls-4" d="M1032.66,642.75a5.3,5.3,0,0,1-4.84,4.75,4.78,4.78,0,0,1-4.5-4.93,4.27,4.27,0,0,1,4.49-4.29A4.54,4.54,0,0,1,1032.66,642.75Z"/><path class="cls-4" d="M1099.56,548.48c-.06-2.66,1.53-4.44,4.07-4.53a4.75,4.75,0,0,1,4.89,4.47,4.87,4.87,0,0,1-4.77,4.6A4.33,4.33,0,0,1,1099.56,548.48Z"/><path class="cls-4" d="M1047,647.34a4.9,4.9,0,0,1-4.49-4.42,4.65,4.65,0,0,1,4.2-4.15,4.28,4.28,0,0,1,4.39,4.29C1051,645.07,1048.89,647.31,1047,647.34Z"/><path class="cls-4" d="M956.19,643a4.71,4.71,0,0,1-4.27,4.15,4.57,4.57,0,0,1-4.26-4.58,4.51,4.51,0,0,1,4.44-3.9A4.75,4.75,0,0,1,956.19,643Z"/><path class="cls-4" d="M1104,590.17a4,4,0,0,1-.5-8.08,4,4,0,0,1,4.47,4.06A3.68,3.68,0,0,1,1104,590.17Z"/><path class="cls-4" d="M932.94,619.82a4.08,4.08,0,1,1-.17,8.15,4.08,4.08,0,0,1,.17-8.15Z"/><path class="cls-4" d="M1047,563.3a4.24,4.24,0,0,1,4,4.27,4.08,4.08,0,0,1-4.2,4,4.21,4.21,0,0,1-4-4.25A4.3,4.3,0,0,1,1047,563.3Z"/><path class="cls-4" d="M989.84,608.76a3.82,3.82,0,0,1-4.07-4,4.37,4.37,0,0,1,4.43-3.89,4.31,4.31,0,0,1,3.84,4A3.87,3.87,0,0,1,989.84,608.76Z"/><path class="cls-4" d="M1069.92,605.18c0,2.23-1.42,3.6-3.82,3.68a3.79,3.79,0,0,1-4.18-3.88,3.7,3.7,0,0,1,3.84-3.72A3.82,3.82,0,0,1,1069.92,605.18Z"/><path class="cls-4" d="M1031.67,586.14a4,4,0,0,1-4.12,3.93c-2-.11-3.41-1.79-3.31-4.11a3.63,3.63,0,0,1,3.75-3.71A3.85,3.85,0,0,1,1031.67,586.14Z"/><path class="cls-4" d="M1028,627.77a3.63,3.63,0,0,1-3.71-3.35,3.84,3.84,0,0,1,3.54-4.49,3.89,3.89,0,0,1,3.87,3.78A4.25,4.25,0,0,1,1028,627.77Z"/><path class="cls-4" d="M895.94,579.49a6.86,6.86,0,0,1,6.6,6.84,6.19,6.19,0,0,1-6.47,6.27c-3.84-.09-6.53-2.64-6.59-6.21A6.56,6.56,0,0,1,895.94,579.49Z"/><path class="cls-4" d="M896.12,629.91a5.94,5.94,0,1,1-.24-11.87c3.19-.06,6.37,3,6.31,6C902.14,627,899.08,629.89,896.12,629.91Z"/><path class="cls-4" d="M890.33,567.51a5.75,5.75,0,0,1,5.65-6,5.83,5.83,0,0,1,0,11.65A5.67,5.67,0,0,1,890.33,567.51Z"/><path class="cls-4" d="M896,610.51a5.6,5.6,0,0,1-5.59-5.06,5.85,5.85,0,0,1,5.33-5.9,5.72,5.72,0,0,1,5.57,5.61A5.58,5.58,0,0,1,896,610.51Z"/><path class="cls-4" d="M900.27,643a4.71,4.71,0,0,1-4.27,4.15,4.57,4.57,0,0,1-4.26-4.58,4.51,4.51,0,0,1,4.45-3.9A4.75,4.75,0,0,1,900.27,643Z"/></g><g class="cls-5"><g class="cls-6"><path class="cls-7" d="M687.38,75.5a6.41,6.41,0,0,1-6.75-6.66,6.55,6.55,0,0,1,6.82-7.09,7,7,0,0,1,6.95,6.69A6.9,6.9,0,0,1,687.38,75.5Z"/><path class="cls-7" d="M428.32,68.41a6.75,6.75,0,0,1-6.95,7,7,7,0,0,1-7-7,6.92,6.92,0,0,1,7.26-6.77A6.69,6.69,0,0,1,428.32,68.41Z"/><path class="cls-7" d="M50.52,68.69a6.7,6.7,0,0,1-6.65,6.82,6.89,6.89,0,0,1-7.09-7,7,7,0,0,1,7.27-6.8C47.89,61.83,50.53,64.65,50.52,68.69Z"/><path class="cls-7" d="M44,24a6.92,6.92,0,0,1,6.53,7c-.06,4.22-2.84,6.83-7.11,6.69a6.66,6.66,0,0,1-6.63-6.82A6.94,6.94,0,0,1,44,24Z"/><path class="cls-7" d="M62.47,61.75a7.1,7.1,0,0,1,7.26,6.89A6.72,6.72,0,0,1,63,75.44a6.85,6.85,0,0,1-.54-13.69Z"/><path class="cls-7" d="M402.27.26a7.05,7.05,0,0,1-6.85-7.21,6.88,6.88,0,0,1,7-6.44,6.88,6.88,0,0,1,6.84,7.12A7,7,0,0,1,402.27.26Z"/><path class="cls-7" d="M827.34,12.11A7.13,7.13,0,0,1,820.58,19a7,7,0,0,1-7-7,6.66,6.66,0,0,1,6.69-6.71A6.85,6.85,0,0,1,827.34,12.11Z"/><path class="cls-7" d="M176.83,5.2a6.42,6.42,0,0,1,6.62,6.71,7,7,0,0,1-6.92,7,7.17,7.17,0,0,1-6.78-6.83A6.93,6.93,0,0,1,176.83,5.2Z"/><path class="cls-7" d="M164.68,12.82a7.13,7.13,0,0,1-7.9,6.12,6.83,6.83,0,0,1-5.87-7.53,7,7,0,0,1,7.77-6.16A7.22,7.22,0,0,1,164.68,12.82Z"/><path class="cls-7" d="M808.12,12.38A6.5,6.5,0,0,1,800.86,19a6.85,6.85,0,0,1-6.43-7.1,7,7,0,0,1,6.93-6.66A6.76,6.76,0,0,1,808.12,12.38Z"/><path class="cls-7" d="M630.16,61.66c4.19-.08,6.81,2.57,6.82,6.9a6.52,6.52,0,0,1-6.49,6.86,6.88,6.88,0,0,1-.33-13.76Z"/><path class="cls-7" d="M706.28,75.43a6.85,6.85,0,1,1,.14-13.69,6.93,6.93,0,0,1,6.81,7.2A6.63,6.63,0,0,1,706.28,75.43Z"/><path class="cls-7" d="M504.13,87.4a6.9,6.9,0,0,1-6.69,6.82c-3.75,0-7.22-3.42-7.13-7a7.51,7.51,0,0,1,6.88-6.87A7,7,0,0,1,504.13,87.4Z"/><path class="cls-7" d="M231.57,80.33a7.07,7.07,0,0,1,6.64,7.43,6.94,6.94,0,0,1-7.1,6.41,6.84,6.84,0,0,1-6.67-6.83A7.26,7.26,0,0,1,231.57,80.33Z"/><path class="cls-7" d="M326.24,5.12a6.75,6.75,0,0,1,6.85,7.05,6.74,6.74,0,0,1-6.78,6.65,6.94,6.94,0,0,1-6.95-6.6A7,7,0,0,1,326.24,5.12Z"/><path class="cls-7" d="M352.48,11.9c0,3.35-3.46,6.8-7,6.88A6.75,6.75,0,0,1,338.68,12c-.13-4,2.45-6.81,6.46-6.89A7.18,7.18,0,0,1,352.48,11.9Z"/><path class="cls-7" d="M687.64,24a7.33,7.33,0,0,1,6.72,7.41,6.76,6.76,0,0,1-7.15,6.25c-4.2-.13-6.77-2.93-6.57-7.17A6.83,6.83,0,0,1,687.64,24Z"/><path class="cls-7" d="M782.19,56.25c-4.05-.08-6.63-2.69-6.6-6.66a7.11,7.11,0,0,1,7.07-7c3.25.13,6.71,3.75,6.7,7C789.36,53.59,786.4,56.34,782.19,56.25Z"/><path class="cls-7" d="M195.59.08a6.75,6.75,0,0,1-6.65-6.88c.05-4.06,2.69-6.7,6.68-6.69A7,7,0,0,1,202.78-7C202.9-3.51,199.27.08,195.59.08Z"/><path class="cls-7" d="M846.23-6.74a7.12,7.12,0,0,1-6.8,6.88c-3.56.08-7.22-3.68-7-7.23a6.87,6.87,0,0,1,7.15-6.4A6.5,6.5,0,0,1,846.23-6.74Z"/><path class="cls-7" d="M100.75,42.54a7,7,0,0,1,6.64,6.92c.07,4.19-2.34,6.73-6.43,6.8-4.4.06-7-2.49-6.89-6.83A7,7,0,0,1,100.75,42.54Z"/><path class="cls-7" d="M145.49,49.41c.08,4.08-2.39,6.68-6.5,6.84A6.49,6.49,0,0,1,131.87,50c-.17-3.7,3.31-7.44,6.85-7.39A6.89,6.89,0,0,1,145.49,49.41Z"/><path class="cls-7" d="M751.27,49.65a6.48,6.48,0,0,1-6.81,6.61c-3.69,0-7-3.11-7.05-6.54,0-3.61,3.69-7.28,7.19-7.14A7.37,7.37,0,0,1,751.27,49.65Z"/><path class="cls-7" d="M427.78,31a6.35,6.35,0,0,1-6.34,6.08,6.13,6.13,0,0,1-6.37-6,6,6,0,0,1,6.26-6.5A6.14,6.14,0,0,1,427.78,31Z"/><path class="cls-7" d="M145.2,12A6.11,6.11,0,0,1,139,18.1a6,6,0,0,1-6.5-5.74c-.17-3.59,2.72-6.85,6.07-6.86A6.81,6.81,0,0,1,145.2,12Z"/><path class="cls-7" d="M858.37,56.15A6.66,6.66,0,0,1,852,49.54a6.4,6.4,0,0,1,12.79.09A6.42,6.42,0,0,1,858.37,56.15Z"/><path class="cls-7" d="M288.52,74.72a5.92,5.92,0,0,1-6.38-5.84,6.33,6.33,0,0,1,6.1-6.74,6.55,6.55,0,0,1,6.5,6A6.33,6.33,0,0,1,288.52,74.72Z"/><path class="cls-7" d="M503.79,50a6.56,6.56,0,0,1-6.54,5.91,6.31,6.31,0,0,1-6.19-6.67c.19-3.1,3.47-6.14,6.48-6A6.84,6.84,0,0,1,503.79,50Z"/><path class="cls-7" d="M408.53,87.72a6.2,6.2,0,0,1-6.38,6.44,6.38,6.38,0,0,1-5.93-6.49,6.16,6.16,0,1,1,12.31,0Z"/><path class="cls-7" d="M630.47,24.59a6.11,6.11,0,0,1,6.29,6.46c-.11,3.39-2.79,5.78-6.47,5.76S624,34.33,624,30.91A6.2,6.2,0,0,1,630.47,24.59Z"/><path class="cls-7" d="M522.7,49.65a6.28,6.28,0,1,1-12.55.18,6.47,6.47,0,0,1,6.4-6.49A6.68,6.68,0,0,1,522.7,49.65Z"/><path class="cls-7" d="M668.49,56.12a6.29,6.29,0,0,1-6.35-6,6.65,6.65,0,0,1,6.13-6.76,6.73,6.73,0,0,1,6.46,6A6.68,6.68,0,0,1,668.49,56.12Z"/><path class="cls-7" d="M214.68,56.14a6.3,6.3,0,0,1-6.2-6.14,6.52,6.52,0,0,1,6.33-6.52,6.92,6.92,0,0,1,6.37,6.65C221.07,53.21,217.92,56.13,214.68,56.14Z"/><path class="cls-7" d="M389.75,30.76a6,6,0,0,1-6.15,6.06c-3.78,0-6.78-2.7-6.64-6.1a6.12,6.12,0,0,1,6.19-6.13A6.21,6.21,0,0,1,389.75,30.76Z"/><path class="cls-7" d="M459.58,81.19a6.58,6.58,0,0,1,6.19,6.66c-.14,3.26-2.93,5.57-6.66,5.5s-6.18-2.51-6.11-6A6.25,6.25,0,0,1,459.58,81.19Z"/><path class="cls-7" d="M655.7,87.29c0,3.67-2.29,6-6,6.07-4,.08-6.77-2.39-6.8-6,0-3.25,3.31-6.35,6.73-6.27A6,6,0,0,1,655.7,87.29Z"/><path class="cls-7" d="M370.47,68.81c-.09,3.63-2.52,5.94-6.2,5.91a5.92,5.92,0,0,1-6.18-6.45,6.15,6.15,0,0,1,6.77-5.92C368.47,62.56,370.57,65,370.47,68.81Z"/><path class="cls-7" d="M31,49.72a6.86,6.86,0,0,1-6.15,6.42,6.49,6.49,0,0,1-6.41-6.55,6.42,6.42,0,0,1,6.31-6.18A6.84,6.84,0,0,1,31,49.72Z"/><path class="cls-7" d="M408.51,49.74a6.15,6.15,0,1,1-12.29.07,6.41,6.41,0,0,1,6.13-6.28A6.21,6.21,0,0,1,408.51,49.74Z"/><path class="cls-7" d="M782.15,18.1c-3.61-.06-5.88-2.56-5.76-6.34.1-3.46,3-6.35,6.14-6.18a6.51,6.51,0,0,1,6.12,6.79C788.49,15.83,785.84,18.17,782.15,18.1Z"/><path class="cls-7" d="M560.63,30.66a5.85,5.85,0,0,1-6.12,6.06,6,6,0,1,1-.2-12.07A6.23,6.23,0,0,1,560.63,30.66Z"/><path class="cls-7" d="M579.48,30.83a5.74,5.74,0,0,1-6.17,6c-3.68-.05-6.08-2.42-6.09-6,0-3.85,2.53-6.3,6.4-6.19A5.76,5.76,0,0,1,579.48,30.83Z"/><path class="cls-7" d="M864.52,31c-.12,3.55-2.72,5.91-6.4,5.8a5.87,5.87,0,0,1-6-6.26,6.38,6.38,0,0,1,6.72-5.69A6.1,6.1,0,0,1,864.52,31Z"/><path class="cls-7" d="M731.54,49.59a6,6,0,0,1-6.23,6.06A6.31,6.31,0,0,1,719.06,50c-.21-3.12,3.21-6.47,6.59-6.45C728.58,43.55,731.47,46.52,731.54,49.59Z"/><path class="cls-7" d="M579.37,11.72a5.85,5.85,0,0,1-6.06,6.16,6,6,0,0,1-6-6.29,6.55,6.55,0,0,1,5.88-6.09C576.34,5.37,579.35,8.4,579.37,11.72Z"/><path class="cls-7" d="M864.56,68.64a6,6,0,0,1-6.25,6.06,6.27,6.27,0,0,1-6.19-6.18,6.38,6.38,0,0,1,6.09-5.85A6,6,0,0,1,864.56,68.64Z"/><path class="cls-7" d="M176.48,93.33a6,6,0,0,1-5.94-6.3,6.29,6.29,0,0,1,6.1-5.82,6.61,6.61,0,0,1,6.29,6.21C183,90.63,179.93,93.4,176.48,93.33Z"/><path class="cls-7" d="M649.54,62.54a6,6,0,0,1,6,6.26A6.27,6.27,0,0,1,649,74.62c-3.38-.15-5.6-2.58-5.58-6.1C643.45,64.76,645.78,62.49,649.54,62.54Z"/><path class="cls-7" d="M250.39,55.63a5.77,5.77,0,0,1-6-5.74,6.15,6.15,0,0,1,6.08-6.27,6.61,6.61,0,0,1,6.18,5.85C256.79,52.68,253.83,55.6,250.39,55.63Z"/><path class="cls-7" d="M845.31,68.72a5.74,5.74,0,0,1-6.25,5.9,6.24,6.24,0,0,1-5.92-6,6.16,6.16,0,0,1,6.22-6.08A5.66,5.66,0,0,1,845.31,68.72Z"/><path class="cls-7" d="M220.65,68.49a5.65,5.65,0,0,1-5.89,6.21,5.9,5.9,0,0,1-6.21-6,6.08,6.08,0,0,1,6.27-6A5.67,5.67,0,0,1,220.65,68.49Z"/><path class="cls-7" d="M214.6,24.84a5.68,5.68,0,0,1,6.05,6.06,5.56,5.56,0,0,1-5.7,5.9c-3.64.15-6.33-2.26-6.39-5.73A6,6,0,0,1,214.6,24.84Z"/><path class="cls-7" d="M24.52,37.06c-3.52,0-5.78-2.61-5.65-6.42a5.72,5.72,0,0,1,5.82-5.83A6.63,6.63,0,0,1,30.91,31,6.48,6.48,0,0,1,24.52,37.06Z"/><path class="cls-7" d="M560.63,87.27a6,6,0,0,1-6.31,6,6.2,6.2,0,0,1-6.14-6.2,6.35,6.35,0,0,1,6.08-5.85A6.5,6.5,0,0,1,560.63,87.27Z"/><path class="cls-7" d="M674.35,68.58a5.77,5.77,0,0,1-5.55,6.11,6,6,0,1,1-.67-12A5.85,5.85,0,0,1,674.35,68.58Z"/><path class="cls-7" d="M826.56,87.2a6,6,0,0,1-6.1,6.11,5.69,5.69,0,0,1-6-5.6,6.09,6.09,0,0,1,5.76-6.49A6.28,6.28,0,0,1,826.56,87.2Z"/><path class="cls-7" d="M288.15,93.28a6,6,0,0,1-6-6.26c.15-2.79,3.33-5.74,6.23-5.8a6.64,6.64,0,0,1,6.2,6.26A6,6,0,0,1,288.15,93.28Z"/><path class="cls-7" d="M845.23,12.1a5.54,5.54,0,0,1-5.71,5.9,6,6,0,0,1-6.27-6,6.28,6.28,0,0,1,6.36-6A5.83,5.83,0,0,1,845.23,12.1Z"/><path class="cls-7" d="M24.45,74.69c-3.51-.09-5.77-2.69-5.58-6.44a5.57,5.57,0,0,1,6-5.6,6.42,6.42,0,0,1,6.08,6.25A6.09,6.09,0,0,1,24.45,74.69Z"/><path class="cls-7" d="M138.82,74.61a6.39,6.39,0,0,1-6.19-6.14,5.92,5.92,0,0,1,5.81-5.9A6.74,6.74,0,0,1,145,68.4C145.21,71.33,142.05,74.49,138.82,74.61Z"/><path class="cls-7" d="M294.53,49.44c.14,3.45-2.37,5.9-6.13,6-3.52.06-5.95-2.09-6.13-5.42a6.33,6.33,0,0,1,6.36-6.45A6.23,6.23,0,0,1,294.53,49.44Z"/><path class="cls-7" d="M195.68,74.63c-3.53,0-6-2.55-5.89-6.23s2.18-5.74,5.74-5.85a6,6,0,0,1,6.36,5.87A6.56,6.56,0,0,1,195.68,74.63Z"/><path class="cls-7" d="M383.42,5.68c3.08.08,6.31,3.36,6.2,6.3a6.71,6.71,0,0,1-6.48,6c-3.42-.1-5.7-2.76-5.57-6.5A5.9,5.9,0,0,1,383.42,5.68Z"/><path class="cls-7" d="M725.27,93.26c-3.32-.06-6.16-2.65-6.19-5.64s3-6.05,6.36-6.12a6.42,6.42,0,0,1,6.08,6.32A5.84,5.84,0,0,1,725.27,93.26Z"/><path class="cls-7" d="M788.54,68.82a6.32,6.32,0,0,1-6.11,5.79,6,6,0,0,1-6-6.32,5.72,5.72,0,0,1,6-5.73A6.23,6.23,0,0,1,788.54,68.82Z"/><path class="cls-7" d="M269.64,62.65a5.86,5.86,0,0,1,5.76,6,5.94,5.94,0,0,1-6.28,6,6,6,0,1,1,.52-12Z"/><path class="cls-7" d="M807.41,30.64c.12,3.81-2.07,6.13-5.85,6.17-3.48,0-6.12-2.19-6.36-5.37a6.3,6.3,0,0,1,6-6.36C804.69,25.06,807.3,27.41,807.41,30.64Z"/><path class="cls-7" d="M592.29,55.35a5.77,5.77,0,0,1-6-6.1A6.56,6.56,0,0,1,592,43.53a6.41,6.41,0,0,1,6.49,5.92C598.59,53,596.07,55.37,592.29,55.35Z"/><path class="cls-7" d="M744.24,74.6a5.86,5.86,0,0,1-5.73-6,5.75,5.75,0,0,1,6.06-6.06,6,6,0,0,1-.33,12Z"/><path class="cls-7" d="M712.31,12.07A5.75,5.75,0,0,1,706.09,18a5.88,5.88,0,0,1-5.76-6,6.11,6.11,0,0,1,6.31-6A5.86,5.86,0,0,1,712.31,12.07Z"/><path class="cls-7" d="M687.5,93.25c-3.78,0-5.88-1.9-6-5.43s2.42-6.35,5.78-6.36a6.57,6.57,0,0,1,6.23,6.2A5.75,5.75,0,0,1,687.5,93.25Z"/><path class="cls-7" d="M649.61,36.71a5.83,5.83,0,0,1-6.13-5.56,5.84,5.84,0,0,1,5.75-6.41,6.21,6.21,0,0,1,6.31,6A6.19,6.19,0,0,1,649.61,36.71Z"/><path class="cls-7" d="M674.33,30.85c0,3.65-2.3,5.93-6.06,6a5.75,5.75,0,0,1-6-5.6c-.11-3.21,2.82-6.38,5.93-6.4A6,6,0,0,1,674.33,30.85Z"/><path class="cls-7" d="M176.89,36.79a6,6,0,0,1-6.33-5.86c0-2.93,2.86-5.82,5.93-5.92a5.65,5.65,0,0,1,6.14,5.48A5.7,5.7,0,0,1,176.89,36.79Z"/><path class="cls-7" d="M62.74,18a5.83,5.83,0,0,1-6-5.74,6,6,0,0,1,6-6.24c3.05,0,6.32,3.38,6.17,6.3A6.16,6.16,0,0,1,62.74,18Z"/><path class="cls-7" d="M195.63,18a6,6,0,0,1-5.93-6.28A6.15,6.15,0,0,1,195.81,6c3.17.08,6.21,3.29,6,6.37A6,6,0,0,1,195.63,18Z"/><path class="cls-7" d="M516.45,93.25a5.57,5.57,0,0,1-5.92-5.67,5.82,5.82,0,0,1,5.89-6.26c2.9.05,6.07,3,6.19,5.83A6,6,0,0,1,516.45,93.25Z"/><path class="cls-7" d="M605.41,11.62a6,6,0,0,1,5.92-5.84A6.23,6.23,0,0,1,617.47,12a6.48,6.48,0,0,1-6,5.87A6,6,0,0,1,605.41,11.62Z"/><path class="cls-7" d="M326.45,93.25a6.09,6.09,0,0,1-6.24-6c.06-2.86,3-5.8,6-5.92a6.11,6.11,0,0,1,6,6.16A5.66,5.66,0,0,1,326.45,93.25Z"/><path class="cls-7" d="M478.28,55.36c-3.63-.06-5.7-2.13-5.73-5.74s2.61-6.39,5.92-6.27a6.7,6.7,0,0,1,6,6.49A5.83,5.83,0,0,1,478.28,55.36Z"/><path class="cls-7" d="M37.63,87.32a6.44,6.44,0,0,1,6-5.84,5.88,5.88,0,0,1,6,6.67c-.24,3.28-2.74,5.28-6.34,5.1A5.6,5.6,0,0,1,37.63,87.32Z"/><path class="cls-7" d="M87.64,88a5.62,5.62,0,0,1-6.36,5.24,5.84,5.84,0,0,1-5.65-6.09,6.25,6.25,0,0,1,6.23-5.67A6,6,0,0,1,87.64,88Z"/><path class="cls-7" d="M157.86,93.25c-3.58,0-5.92-2.11-6-5.54a5.63,5.63,0,0,1,6-6.1,6.26,6.26,0,0,1,6,5.93A5.73,5.73,0,0,1,157.86,93.25Z"/><path class="cls-7" d="M100.76,74.62A5.67,5.67,0,0,1,95,68.78c-.08-3.83,2.15-6.24,5.76-6.22a6.39,6.39,0,0,1,6,5.79A6.41,6.41,0,0,1,100.76,74.62Z"/><path class="cls-7" d="M801.61,93.25c-3.46.09-6.17-2.18-6.4-5.37s2.73-6.17,6.16-6.21a5.77,5.77,0,0,1,6,5.71A5.57,5.57,0,0,1,801.61,93.25Z"/><path class="cls-7" d="M820.47,25.09a6,6,0,0,1,6,6.17,5.9,5.9,0,0,1-6.14,5.53,5.7,5.7,0,0,1-5.9-6.15A5.63,5.63,0,0,1,820.47,25.09Z"/><path class="cls-7" d="M62.72,82c3.52,0,6.09,2.26,6.21,5.48s-2.77,5.9-6.41,5.81a5.7,5.7,0,0,1-5.87-5.82C56.7,84,59,82,62.72,82Z"/><path class="cls-7" d="M81.68,55.41c-3.58,0-6-2.17-6.06-5.52a6.58,6.58,0,0,1,6-6.37,6.31,6.31,0,0,1,6,6.32C87.62,53.2,85.23,55.42,81.68,55.41Z"/><path class="cls-7" d="M307.47,55.33c-3.54,0-5.9-2.16-6-5.56a6.3,6.3,0,0,1,6.09-6.23,6.41,6.41,0,0,1,5.84,6.09A5.65,5.65,0,0,1,307.47,55.33Z"/><path class="cls-7" d="M157.79,36.82c-3.65,0-5.88-2.06-6-5.57-.08-3.73,1.86-5.76,5.59-5.84s6.49,2.32,6.41,5.71A5.76,5.76,0,0,1,157.79,36.82Z"/><path class="cls-7" d="M712.31,87.69c-.06,3.37-2.42,5.58-6,5.57a5.83,5.83,0,0,1-6.06-6.06C700.42,84,703,81.87,706.6,82S712.38,84.19,712.31,87.69Z"/><path class="cls-7" d="M402.26,25.35c3.48,0,6,2.23,6.14,5.49.12,3.47-2.47,6-6.15,6a5.81,5.81,0,0,1-5.94-5.75C396.24,27.83,398.79,25.4,402.26,25.35Z"/><path class="cls-7" d="M195.73,93.23a5.89,5.89,0,0,1-5.82-6.29c.16-3.3,2.14-5,5.84-5,3.5,0,6.12,2.4,6,5.51A6.16,6.16,0,0,1,195.73,93.23Z"/><path class="cls-7" d="M839.46,93.23c-2.92,0-6.14-3-6.19-5.71,0-3.08,2.58-5.51,6-5.56,3.83-.06,5.9,1.83,5.92,5.4A5.75,5.75,0,0,1,839.46,93.23Z"/><path class="cls-7" d="M351.13,30.58a6.21,6.21,0,0,1-5.83,6.05A5.8,5.8,0,0,1,339.65,31a5.69,5.69,0,0,1,5.74-6A5.79,5.79,0,0,1,351.13,30.58Z"/><path class="cls-7" d="M370.08,31.12a5.69,5.69,0,0,1-5.81,5.34c-3-.19-6-3.35-5.77-6.1a6.24,6.24,0,0,1,6.07-5.23A5.42,5.42,0,0,1,370.08,31.12Z"/><path class="cls-7" d="M465.1,12a5.6,5.6,0,0,1-6,5.68c-3.11-.07-5.32-2.51-5.28-5.84a5.8,5.8,0,0,1,5.43-5.81A6.13,6.13,0,0,1,465.1,12Z"/><path class="cls-7" d="M681.65,12.06a5.85,5.85,0,0,1,5.43-5.8A5.64,5.64,0,0,1,692.92,12a5.61,5.61,0,0,1-5.36,5.81A5.75,5.75,0,0,1,681.65,12.06Z"/><path class="cls-7" d="M465.1,68.26a6,6,0,0,1-5.72,6.1,5.6,5.6,0,0,1-5.57-5.59c-.11-3.31,2-5.81,5.1-6A5.73,5.73,0,0,1,465.1,68.26Z"/><path class="cls-7" d="M231.59,62.76a5.61,5.61,0,0,1,5.52,6.08c-.17,3.08-2.62,5.16-6,5a5.82,5.82,0,0,1-5.69-5.49A6.06,6.06,0,0,1,231.59,62.76Z"/><path class="cls-7" d="M49.41,11.85a6,6,0,0,1-5.79,6,6.28,6.28,0,0,1-5.78-5.6c-.08-2.89,2.93-5.92,5.94-6A5.75,5.75,0,0,1,49.41,11.85Z"/><path class="cls-7" d="M769,11.92a5.46,5.46,0,0,1-5.81,5.78,5.65,5.65,0,0,1,.23-11.3A5.55,5.55,0,0,1,769,11.92Z"/><path class="cls-7" d="M611.46,82c3.37,0,5.72,2.2,5.71,5.26a6.37,6.37,0,0,1-6,5.84,5.88,5.88,0,0,1-5.54-6.14C605.75,83.63,607.78,81.91,611.46,82Z"/><path class="cls-7" d="M535.37,44a5.55,5.55,0,1,1-.06,11.1,5.56,5.56,0,1,1,.06-11.1Z"/><path class="cls-7" d="M516.28,36.63a5.73,5.73,0,0,1-5.66-6c.19-3.4,2.58-5.35,6.34-5.16a5.37,5.37,0,0,1,5.26,5.8A6.09,6.09,0,0,1,516.28,36.63Z"/><path class="cls-7" d="M119.56,36.7a6,6,0,0,1-5.68-5.62,5.75,5.75,0,0,1,6-5.64,5.4,5.4,0,0,1,5.57,5.49A5.7,5.7,0,0,1,119.56,36.7Z"/><path class="cls-7" d="M402.21,74.61a6,6,0,0,1-5.48-5.74A5.84,5.84,0,0,1,402.55,63,6.05,6.05,0,0,1,408,68.77,5.81,5.81,0,0,1,402.21,74.61Z"/><path class="cls-7" d="M560,12c-.11,3.4-2.18,5.42-5.54,5.39-3.6,0-5.77-2.24-5.66-5.76A5.64,5.64,0,0,1,554.34,6,5.76,5.76,0,0,1,560,12Z"/><path class="cls-7" d="M332.08,49.9c-.09,3.08-2.48,5.24-5.79,5.21s-5.66-2.18-5.66-5.32a6,6,0,0,1,6.05-5.66A5.74,5.74,0,0,1,332.08,49.9Z"/><path class="cls-7" d="M630.53,55.11a5.88,5.88,0,0,1-6-5.2c-.15-3,2.81-5.85,6-5.81a5.5,5.5,0,0,1,5.62,5.49A5.33,5.33,0,0,1,630.53,55.11Z"/><path class="cls-7" d="M769.05,31.12a5.58,5.58,0,0,1-5.52,5.59,5.69,5.69,0,0,1-5.8-5.81c0-3.38,2.5-5.61,6-5.46A5.24,5.24,0,0,1,769.05,31.12Z"/><path class="cls-7" d="M616.71,30.59c0,3.27-2.17,5.71-5.21,5.74a6.14,6.14,0,0,1-5.87-5.41A5.6,5.6,0,0,1,611.29,25,5.34,5.34,0,0,1,616.71,30.59Z"/><path class="cls-7" d="M389,68.36a5.15,5.15,0,0,1-5.37,5.54,5.36,5.36,0,0,1-5.89-5.56,5.65,5.65,0,0,1,5.43-5.68A5.59,5.59,0,0,1,389,68.36Z"/><path class="cls-7" d="M119.84,6.42a6,6,0,0,1,5.62,5.64,5.93,5.93,0,0,1-5.59,5.65c-3,.07-6.05-2.91-5.93-5.84C114.05,9.18,117.09,6.38,119.84,6.42Z"/><path class="cls-7" d="M559.91,68.52c-.07,3.29-2.2,5.31-5.59,5.3-3.59,0-5.7-2.23-5.5-5.81a5.55,5.55,0,0,1,11.09.51Z"/><path class="cls-7" d="M307.28,82.07c3.43,0,5.67,2,5.75,5.27a6.07,6.07,0,0,1-5.57,5.78,5.87,5.87,0,0,1-5.74-5.55A5.33,5.33,0,0,1,307.28,82.07Z"/><path class="cls-7" d="M541,30.71a6,6,0,0,1-5.64,5.72c-2.76,0-5.77-3-5.78-5.72s2.8-5.52,5.78-5.61A5.68,5.68,0,0,1,541,30.71Z"/><path class="cls-7" d="M483.77,87.28A5.57,5.57,0,0,1,478.41,93a5.87,5.87,0,0,1-5.73-5.5c-.13-3,2.27-5.38,5.54-5.45C481.8,82,483.75,83.83,483.77,87.28Z"/><path class="cls-7" d="M598,87.24a6,6,0,0,1-5.44,5.88,5.79,5.79,0,0,1-5.75-6c.1-3.06,2.16-5,5.41-5.08C595.68,82,598,84,598,87.24Z"/><path class="cls-7" d="M598,68.33a5.28,5.28,0,0,1-5.46,5.48c-3.42.11-5.65-1.84-5.8-5.07A5.63,5.63,0,1,1,598,68.33Z"/><path class="cls-7" d="M663.05,87.5a5.12,5.12,0,0,1,5.58-5.33,5.4,5.4,0,0,1,5.29,5.29,5.72,5.72,0,0,1-5.48,5.69A5.47,5.47,0,0,1,663.05,87.5Z"/><path class="cls-7" d="M806.87,50a5.19,5.19,0,0,1-5.68,5.25A5.09,5.09,0,0,1,796,50a5.46,5.46,0,1,1,10.91,0Z"/><path class="cls-7" d="M763.33,82.17a5.28,5.28,0,0,1,5.6,5.43,5.71,5.71,0,0,1-5.17,5.54,5.94,5.94,0,0,1-6-5.29A5.76,5.76,0,0,1,763.33,82.17Z"/><path class="cls-7" d="M497.57,17.27a5.28,5.28,0,0,1-5.66-5.39,5.71,5.71,0,0,1,5.58-5.61,6,6,0,0,1,5.5,5.79A5.44,5.44,0,0,1,497.57,17.27Z"/><path class="cls-7" d="M478.21,73.81a5.6,5.6,0,0,1-5.45-5.68,5.69,5.69,0,0,1,5.43-5.27,5.63,5.63,0,0,1,5.57,5.55A5.18,5.18,0,0,1,478.21,73.81Z"/><path class="cls-7" d="M231.33,55c-2.93,0-5.72-2.81-5.6-5.6a5.9,5.9,0,0,1,5.47-5.28,5.59,5.59,0,0,1,5.71,5.43A5.32,5.32,0,0,1,231.33,55Z"/><path class="cls-7" d="M312.67,31.06A5.35,5.35,0,0,1,307,36.43a5.77,5.77,0,0,1-5.21-5.95,5.48,5.48,0,0,1,5.62-5C310.78,25.48,312.75,27.56,312.67,31.06Z"/><path class="cls-7" d="M782.43,82.08a5.23,5.23,0,0,1,5.5,5A5.91,5.91,0,0,1,782.55,93c-2.73.08-5.84-2.85-5.85-5.51A5.52,5.52,0,0,1,782.43,82.08Z"/><path class="cls-7" d="M24.57,82.16a5.31,5.31,0,0,1,5.54,5.45A5.54,5.54,0,0,1,25,93.14a5.74,5.74,0,0,1-5.84-5.31A5.41,5.41,0,0,1,24.57,82.16Z"/><path class="cls-7" d="M844.86,30.93a5.51,5.51,0,0,1-5.49,5.57A5.43,5.43,0,0,1,834,31.24c-.12-3.34,2-5.63,5.2-5.7A5.38,5.38,0,0,1,844.86,30.93Z"/><path class="cls-7" d="M101.08,82.08a5.46,5.46,0,0,1,5.23,5.38A6,6,0,0,1,100.59,93a5.76,5.76,0,0,1-5.38-5.83A5.25,5.25,0,0,1,101.08,82.08Z"/><path class="cls-7" d="M863.77,87.52a5.45,5.45,0,0,1-5.43,5.62,5.86,5.86,0,0,1-5.57-5.67,5.56,5.56,0,0,1,5.34-5.31A5.34,5.34,0,0,1,863.77,87.52Z"/><path class="cls-7" d="M133.22,87.25c.09-3.18,2.49-5.31,5.82-5.16a5.39,5.39,0,0,1,5.28,5.31A5.78,5.78,0,0,1,138.65,93,5.67,5.67,0,0,1,133.22,87.25Z"/><path class="cls-7" d="M250.48,82.12A5.6,5.6,0,0,1,256,87.29a6,6,0,0,1-5.48,5.81,5.79,5.79,0,0,1-5.63-5.56A5.39,5.39,0,0,1,250.48,82.12Z"/><path class="cls-7" d="M209.39,87.49A5.1,5.1,0,0,1,215,82.18a5.48,5.48,0,0,1,5.29,5.31,5.73,5.73,0,0,1-5.51,5.66A5.44,5.44,0,0,1,209.39,87.49Z"/><path class="cls-7" d="M820.1,55.11a5.18,5.18,0,0,1-5.29-5.19,5.91,5.91,0,0,1,5.51-5.69,5.84,5.84,0,0,1,5.49,5.65A5.29,5.29,0,0,1,820.1,55.11Z"/><path class="cls-7" d="M81.48,6.91c3.14-.07,5.9,2.31,6,5.15s-2.8,5.58-5.66,5.64a5.58,5.58,0,0,1-5.56-5.58A5.18,5.18,0,0,1,81.48,6.91Z"/><path class="cls-7" d="M201.12,30.9a5.45,5.45,0,0,1-10.89.39,5.33,5.33,0,0,1,5.24-5.74A5.39,5.39,0,0,1,201.12,30.9Z"/><path class="cls-7" d="M157.54,55.21a5.31,5.31,0,0,1-5.37-5.13,5.6,5.6,0,0,1,5.36-5.74A5.43,5.43,0,0,1,163,49.85C163,53.16,160.9,55.24,157.54,55.21Z"/><path class="cls-7" d="M176.38,55.1a4.87,4.87,0,0,1-5-5.29,5.77,5.77,0,0,1,5.55-5.58A6,6,0,0,1,182.33,50,5.52,5.52,0,0,1,176.38,55.1Z"/><path class="cls-7" d="M739.13,87.19c.06-3.24,1.91-5.08,5.16-5.11a5.55,5.55,0,0,1,5.78,5.28,6.29,6.29,0,0,1-5.7,5.63A5.52,5.52,0,0,1,739.13,87.19Z"/><path class="cls-7" d="M426.9,11.78a5.28,5.28,0,0,1-5,5.5c-3.38.25-5.81-1.73-6-4.89a5.76,5.76,0,0,1,5.71-5.94A5.53,5.53,0,0,1,426.9,11.78Z"/><path class="cls-7" d="M125,87.3a5.48,5.48,0,0,1-5.24,5.85,6.23,6.23,0,0,1-5.64-5.26c-.17-2.82,2.58-5.64,5.57-5.71A4.9,4.9,0,0,1,125,87.3Z"/><path class="cls-7" d="M521.83,68.91c-.12,3.15-2.54,5.16-5.92,5a5.37,5.37,0,0,1-5.18-5.35,6,6,0,0,1,5.82-5.42A5.59,5.59,0,0,1,521.83,68.91Z"/><path class="cls-7" d="M725.31,17.39c-3.28,0-5.33-1.85-5.46-5a5.37,5.37,0,0,1,5.57-5.49A5.44,5.44,0,0,1,730.93,12C731,15.22,728.76,17.36,725.31,17.39Z"/><path class="cls-7" d="M530.13,87.18c.1-3.49,2.1-5.3,5.64-5.1a5.1,5.1,0,0,1,5.08,5.39,5.48,5.48,0,0,1-5.35,5.27A5.09,5.09,0,0,1,530.13,87.18Z"/><path class="cls-7" d="M454.1,30.73a5.29,5.29,0,0,1,5.32-5.17,5.51,5.51,0,0,1,5.44,5.62c-.16,2.55-3.09,5.14-5.69,5A5.38,5.38,0,0,1,454.1,30.73Z"/><path class="cls-7" d="M340.15,49.79a5.19,5.19,0,1,1,10.37-.3A5.29,5.29,0,0,1,345.45,55,5.05,5.05,0,0,1,340.15,49.79Z"/><path class="cls-7" d="M654.74,11.88A5.48,5.48,0,0,1,649,17.17a5.1,5.1,0,0,1-5-5.47,5.34,5.34,0,0,1,10.68.18Z"/><path class="cls-7" d="M369.82,11.78a5.35,5.35,0,0,1-10.69.24,5.78,5.78,0,0,1,5.24-5.48C367,6.41,369.8,9.15,369.82,11.78Z"/><path class="cls-7" d="M312.6,68.65a5.2,5.2,0,0,1-5.38,5.1A5.25,5.25,0,0,1,302,68.43c0-2.88,2.33-5,5.45-5A4.87,4.87,0,0,1,312.6,68.65Z"/><path class="cls-7" d="M763.33,73.81A5.32,5.32,0,0,1,758,68.58a5.26,5.26,0,0,1,5.53-5,5.12,5.12,0,1,1-.22,10.22Z"/><path class="cls-7" d="M125,68.83c0,3-2.14,5-5.43,5-3,0-4.79-1.81-4.87-4.94-.08-3.28,1.82-5.27,5-5.27A5,5,0,0,1,125,68.83Z"/><path class="cls-7" d="M269.47,92.31c-3.09.07-5.09-1.75-5.13-4.66a5.17,5.17,0,0,1,4.9-5.15,4.91,4.91,0,0,1,5.1,4.86A4.6,4.6,0,0,1,269.47,92.31Z"/><path class="cls-7" d="M250.3,72.94a4.27,4.27,0,0,1-4.53-4.19A4.88,4.88,0,0,1,250.4,64a5,5,0,0,1,4.52,4.94C254.82,71.35,253,73,250.3,72.94Z"/><path class="cls-7" d="M311.8,12.07A4.21,4.21,0,0,1,307,16.36a4.27,4.27,0,0,1-4.2-4.49,4.73,4.73,0,0,1,4.47-4.41A4.26,4.26,0,0,1,311.8,12.07Z"/><path class="cls-7" d="M592.49,16.37a4.37,4.37,0,0,1-4.69-4.1,5,5,0,0,1,4.66-4.85A4.79,4.79,0,0,1,596.89,12,4.39,4.39,0,0,1,592.49,16.37Z"/><path class="cls-7" d="M62.63,26.74A4.91,4.91,0,0,1,67,30.85c.12,2.19-1.69,3.93-4.18,4A3.83,3.83,0,0,1,58.56,31,4.32,4.32,0,0,1,62.63,26.74Z"/><path class="cls-7" d="M744.51,8.07a3.83,3.83,0,0,1,4,4.11,4.11,4.11,0,0,1-8.22-.31A3.84,3.84,0,0,1,744.51,8.07Z"/><path class="cls-7" d="M81.67,64.51a4.12,4.12,0,1,1,.1,8.23,4.2,4.2,0,0,1-4.17-4A4.29,4.29,0,0,1,81.67,64.51Z"/><path class="cls-7" d="M535.39,72.54a4.29,4.29,0,0,1-4.25-4.05,4.11,4.11,0,0,1,4.18-4.06,3.91,3.91,0,0,1,4.18,3.95A4.2,4.2,0,0,1,535.39,72.54Z"/><path class="cls-7" d="M573.42,72.58a4.07,4.07,0,0,1-4.12-4.08,3.87,3.87,0,0,1,4.05-4.07,4,4,0,0,1,4.16,4A4.2,4.2,0,0,1,573.42,72.58Z"/><path class="cls-7" d="M501.37,31a3.9,3.9,0,0,1-4.3,3.7,4,4,0,0,1-3.85-4.22,4.42,4.42,0,0,1,4.41-3.82A4,4,0,0,1,501.37,31Z"/><path class="cls-7" d="M710.51,31.06a3.87,3.87,0,0,1-4.27,3.79,3.92,3.92,0,0,1-4-4.12,4.31,4.31,0,0,1,4.27-4A4.35,4.35,0,0,1,710.51,31.06Z"/><path class="cls-7" d="M444.58,68.6c0,2.19-1.91,3.76-4.45,3.71a3.6,3.6,0,0,1-3.75-3.8,3.91,3.91,0,0,1,4.08-4.07A4.22,4.22,0,0,1,444.58,68.6Z"/><path class="cls-7" d="M100.46,8.06c2.5,0,4.22,1.47,4.29,3.75a4.32,4.32,0,0,1-3.89,4.29,4.55,4.55,0,0,1-4.32-4.43A3.79,3.79,0,0,1,100.46,8.06Z"/><path class="cls-7" d="M729.73,68.5c.07,1.7-2.29,4.11-4.16,4.23a4.26,4.26,0,0,1-4.21-4,4.39,4.39,0,0,1,4-4.24C727.31,64.5,729.65,66.63,729.73,68.5Z"/><path class="cls-7" d="M440.45,91.21a3.94,3.94,0,0,1-4.05-4,4.1,4.1,0,0,1,3.83-3.82,4.42,4.42,0,0,1,4.11,4.08A4.05,4.05,0,0,1,440.45,91.21Z"/><path class="cls-7" d="M269.41,53.94a4.28,4.28,0,0,1-4.12-4.15,4.16,4.16,0,0,1,8.31,0A4.69,4.69,0,0,1,269.41,53.94Z"/><path class="cls-7" d="M577.32,87.41a3.78,3.78,0,0,1-3.75,3.79,3.94,3.94,0,0,1-4.18-3.87,4.74,4.74,0,0,1,3.83-4A4.18,4.18,0,0,1,577.32,87.41Z"/><path class="cls-7" d="M387.36,87.25a3.86,3.86,0,0,1-4,4.13,4.07,4.07,0,0,1-.26-8.13A4.2,4.2,0,0,1,387.36,87.25Z"/><path class="cls-7" d="M649.24,53.46a3.77,3.77,0,0,1-3.87-4.11c.08-2.2,1.54-3.53,3.91-3.54a3.85,3.85,0,1,1,0,7.65Z"/><path class="cls-7" d="M573.56,45.7a3.83,3.83,0,0,1,0,7.66,4,4,0,0,1-4.09-3.58A4.14,4.14,0,0,1,573.56,45.7Z"/><path class="cls-7" d="M119.89,46a3.83,3.83,0,1,1-.45,7.62,4,4,0,0,1-3.62-4.06A3.91,3.91,0,0,1,119.89,46Z"/><path class="cls-7" d="M626.8,87.64c-.08-2.3,1.33-4.11,3.28-4.2a3.92,3.92,0,1,1,.43,7.83C628.26,91.44,626.89,90.09,626.8,87.64Z"/><path class="cls-7" d="M330.19,30.82a3.78,3.78,0,0,1-3.82,3.83,4,4,0,0,1-4-3.77A4.41,4.41,0,0,1,326.35,27,4,4,0,0,1,330.19,30.82Z"/><path class="cls-7" d="M630.55,8.1A3.9,3.9,0,0,1,634.3,12a4.13,4.13,0,0,1-3.87,3.82,3.68,3.68,0,0,1-3.63-3.92A3.62,3.62,0,0,1,630.55,8.1Z"/><path class="cls-7" d="M360.85,49.33c.14-2.41,1.59-3.67,3.91-3.41a3.92,3.92,0,0,1,3.59,4,4.06,4.06,0,0,1-4.22,3.42C361.88,53.29,360.7,51.84,360.85,49.33Z"/><path class="cls-7" d="M763.34,53.46c-2.37,0-3.75-1.44-3.66-3.73A3.81,3.81,0,0,1,763.53,46a3.89,3.89,0,0,1,3.68,3.93C767.2,52.16,765.74,53.5,763.34,53.46Z"/><path class="cls-7" d="M613.55,68.25a2.18,2.18,0,1,1-4.35.32A2,2,0,0,1,611,66.24C612.53,65.93,613.14,67,613.55,68.25Z"/><path class="cls-7" d="M252.7,30.88a2.35,2.35,0,0,1-2.32,2.32,1.77,1.77,0,0,1-1.89-2c0-1.14.51-2.21,1.66-2.35C251.52,28.64,252.32,29.6,252.7,30.88Z"/><path class="cls-7" d="M440.6,47.18c1.29.42,2.17,1.22,1.85,2.66a2,2,0,0,1-2.33,1.66,1.84,1.84,0,0,1-1.9-2.08A2.26,2.26,0,0,1,440.6,47.18Z"/><path class="cls-7" d="M231.4,32.9a2.11,2.11,0,0,1-2.15-2.09,2.06,2.06,0,0,1,2.41-2.14,1.83,1.83,0,0,1,1.76,2.22A2.12,2.12,0,0,1,231.4,32.9Z"/><path class="cls-7" d="M347.5,87.42c-.29,1.45-1,2.12-2.29,2a1.8,1.8,0,0,1-1.86-2.15c.09-1.46.89-2.35,2.4-2.13C347.08,85.37,347.21,86.59,347.5,87.42Z"/><path class="cls-7" d="M504.13,104.87a6.89,6.89,0,0,1-6.69,6.82c-3.75,0-7.22-3.41-7.13-7a7.5,7.5,0,0,1,6.88-6.86A7,7,0,0,1,504.13,104.87Z"/><path class="cls-7" d="M231.57,97.81a7.07,7.07,0,0,1,6.64,7.43,6.94,6.94,0,0,1-7.1,6.41,6.85,6.85,0,0,1-6.67-6.84A7.25,7.25,0,0,1,231.57,97.81Z"/><path class="cls-7" d="M408.53,105.2a6.19,6.19,0,0,1-6.38,6.43,6.37,6.37,0,0,1-5.93-6.49,6.16,6.16,0,1,1,12.31.06Z"/><path class="cls-7" d="M459.58,98.66a6.6,6.6,0,0,1,6.19,6.66c-.14,3.27-2.93,5.57-6.66,5.51s-6.18-2.52-6.11-6A6.26,6.26,0,0,1,459.58,98.66Z"/><path class="cls-7" d="M655.7,104.76c0,3.67-2.29,6-6,6.07-4,.08-6.77-2.38-6.8-6,0-3.25,3.31-6.34,6.73-6.26A6,6,0,0,1,655.7,104.76Z"/><path class="cls-7" d="M176.48,110.81a6,6,0,0,1-5.94-6.3,6.29,6.29,0,0,1,6.1-5.82,6.6,6.6,0,0,1,6.29,6.21C183,108.11,179.93,110.87,176.48,110.81Z"/><path class="cls-7" d="M560.63,104.74a6,6,0,0,1-6.31,6,6.19,6.19,0,0,1-6.14-6.19,6.37,6.37,0,0,1,6.08-5.86A6.51,6.51,0,0,1,560.63,104.74Z"/><path class="cls-7" d="M826.56,104.68a5.94,5.94,0,0,1-6.1,6.1,5.67,5.67,0,0,1-6-5.59,6.08,6.08,0,0,1,5.76-6.49A6.27,6.27,0,0,1,826.56,104.68Z"/><path class="cls-7" d="M288.15,110.75a6,6,0,0,1-6-6.26c.15-2.78,3.33-5.74,6.23-5.79a6.63,6.63,0,0,1,6.2,6.25A6,6,0,0,1,288.15,110.75Z"/><path class="cls-7" d="M725.27,110.74c-3.32-.07-6.16-2.65-6.19-5.65s3-6,6.36-6.12a6.43,6.43,0,0,1,6.08,6.32A5.85,5.85,0,0,1,725.27,110.74Z"/><path class="cls-7" d="M687.5,110.72c-3.78,0-5.88-1.89-6-5.43s2.42-6.35,5.78-6.35a6.57,6.57,0,0,1,6.23,6.2A5.74,5.74,0,0,1,687.5,110.72Z"/><path class="cls-7" d="M516.45,110.72a5.56,5.56,0,0,1-5.92-5.66,5.82,5.82,0,0,1,5.89-6.27c2.9.06,6.07,3,6.19,5.84A6,6,0,0,1,516.45,110.72Z"/><path class="cls-7" d="M326.45,110.72a6.08,6.08,0,0,1-6.24-6c.06-2.87,3-5.81,6-5.93a6.11,6.11,0,0,1,6,6.16A5.66,5.66,0,0,1,326.45,110.72Z"/><path class="cls-7" d="M37.63,104.79a6.42,6.42,0,0,1,6-5.83,5.88,5.88,0,0,1,6,6.66c-.24,3.28-2.74,5.29-6.34,5.1A5.6,5.6,0,0,1,37.63,104.79Z"/><path class="cls-7" d="M87.64,105.49a5.63,5.63,0,0,1-6.36,5.25,5.85,5.85,0,0,1-5.65-6.1A6.25,6.25,0,0,1,81.86,99,6,6,0,0,1,87.64,105.49Z"/><path class="cls-7" d="M157.86,110.73c-3.58,0-5.92-2.12-6-5.54a5.64,5.64,0,0,1,6-6.11,6.26,6.26,0,0,1,6,5.93A5.75,5.75,0,0,1,157.86,110.73Z"/><path class="cls-7" d="M801.61,110.72a5.91,5.91,0,0,1-6.4-5.37c-.23-3.18,2.73-6.16,6.16-6.21a5.77,5.77,0,0,1,6,5.71A5.57,5.57,0,0,1,801.61,110.72Z"/><path class="cls-7" d="M62.72,99.43c3.52,0,6.09,2.27,6.21,5.48s-2.77,5.91-6.41,5.81a5.7,5.7,0,0,1-5.87-5.82C56.7,101.47,59,99.43,62.72,99.43Z"/><path class="cls-7" d="M6.55,61.75a7.1,7.1,0,0,1,7.26,6.89,6.72,6.72,0,0,1-6.72,6.8A6.53,6.53,0,0,1,0,68.65,6.6,6.6,0,0,1,6.55,61.75Z"/><path class="cls-7" d="M6.82,18a5.81,5.81,0,0,1-6-5.74A6,6,0,0,1,6.82,6c3,0,6.32,3.38,6.17,6.3A6.15,6.15,0,0,1,6.82,18Z"/><path class="cls-7" d="M6.8,82c3.52,0,6.09,2.26,6.21,5.48s-2.77,5.9-6.41,5.81A5.7,5.7,0,0,1,.73,87.43C.78,84,3,82,6.8,82Z"/><path class="cls-7" d="M6.71,26.74a4.9,4.9,0,0,1,4.36,4.11c.12,2.19-1.69,3.93-4.18,4A3.83,3.83,0,0,1,2.64,31,4.32,4.32,0,0,1,6.71,26.74Z"/><path class="cls-7" d="M6.8,99.43c3.52,0,6.09,2.27,6.21,5.48s-2.77,5.91-6.41,5.81A5.7,5.7,0,0,1,.73,104.9C.78,101.47,3,99.43,6.8,99.43Z"/><path class="cls-7" d="M712.31,105.17c-.06,3.36-2.42,5.57-6,5.56a5.83,5.83,0,0,1-6.06-6.06c.13-3.18,2.72-5.33,6.31-5.24S712.38,101.66,712.31,105.17Z"/><path class="cls-7" d="M195.73,110.71a5.89,5.89,0,0,1-5.82-6.29c.16-3.3,2.14-5,5.84-5,3.5,0,6.12,2.41,6,5.52A6.17,6.17,0,0,1,195.73,110.71Z"/><path class="cls-7" d="M839.46,110.7c-2.92,0-6.14-2.94-6.19-5.7,0-3.09,2.58-5.51,6-5.57,3.83-.05,5.9,1.83,5.92,5.41A5.75,5.75,0,0,1,839.46,110.7Z"/><path class="cls-7" d="M611.46,99.43c3.37,0,5.72,2.21,5.71,5.27a6.39,6.39,0,0,1-6,5.84,5.88,5.88,0,0,1-5.54-6.15C605.75,101.11,607.78,99.39,611.46,99.43Z"/><path class="cls-7" d="M307.28,99.55c3.43,0,5.67,2,5.75,5.26a6.09,6.09,0,0,1-5.57,5.79,5.88,5.88,0,0,1-5.74-5.55A5.31,5.31,0,0,1,307.28,99.55Z"/><path class="cls-7" d="M483.77,104.76a5.58,5.58,0,0,1-5.36,5.74,5.88,5.88,0,0,1-5.73-5.51c-.13-3,2.27-5.38,5.54-5.45C481.8,99.46,483.75,101.3,483.77,104.76Z"/><path class="cls-7" d="M598,104.72a6,6,0,0,1-5.44,5.88,5.8,5.8,0,0,1-5.75-6c.1-3.06,2.16-5,5.41-5.08C595.68,99.46,598,101.51,598,104.72Z"/><path class="cls-7" d="M663.05,105a5.11,5.11,0,0,1,5.58-5.33,5.38,5.38,0,0,1,5.29,5.29,5.71,5.71,0,0,1-5.48,5.68A5.46,5.46,0,0,1,663.05,105Z"/><path class="cls-7" d="M763.33,99.65a5.27,5.27,0,0,1,5.6,5.42,5.72,5.72,0,0,1-5.17,5.55,6,6,0,0,1-6-5.3A5.75,5.75,0,0,1,763.33,99.65Z"/><path class="cls-7" d="M782.43,99.56a5.22,5.22,0,0,1,5.5,5,5.92,5.92,0,0,1-5.38,5.88c-2.73.08-5.84-2.85-5.85-5.52A5.51,5.51,0,0,1,782.43,99.56Z"/><path class="cls-7" d="M24.57,99.64a5.31,5.31,0,0,1,5.54,5.45A5.55,5.55,0,0,1,25,110.62a5.75,5.75,0,0,1-5.84-5.32A5.41,5.41,0,0,1,24.57,99.64Z"/><path class="cls-7" d="M101.08,99.56a5.46,5.46,0,0,1,5.23,5.38,5.94,5.94,0,0,1-5.72,5.55,5.75,5.75,0,0,1-5.38-5.82A5.24,5.24,0,0,1,101.08,99.56Z"/><path class="cls-7" d="M863.77,105a5.45,5.45,0,0,1-5.43,5.62,5.87,5.87,0,0,1-5.57-5.68,5.56,5.56,0,0,1,5.34-5.3A5.34,5.34,0,0,1,863.77,105Z"/><path class="cls-7" d="M876.55,56.15a6.66,6.66,0,0,1-6.4-6.61,6.41,6.41,0,0,1,12.8.09A6.43,6.43,0,0,1,876.55,56.15Z"/><path class="cls-7" d="M882.7,31a6.21,6.21,0,0,1-12.4-.46A6.4,6.4,0,0,1,877,24.86,6.1,6.1,0,0,1,882.7,31Z"/><path class="cls-7" d="M882.73,68.64a6,6,0,0,1-6.24,6.06,6.27,6.27,0,0,1-6.2-6.18,6.39,6.39,0,0,1,6.09-5.85A6,6,0,0,1,882.73,68.64Z"/><path class="cls-7" d="M882,87.52a5.46,5.46,0,0,1-5.44,5.62A5.85,5.85,0,0,1,871,87.47a5.55,5.55,0,0,1,5.34-5.31A5.35,5.35,0,0,1,882,87.52Z"/><path class="cls-7" d="M882,105a5.47,5.47,0,0,1-5.44,5.62,5.86,5.86,0,0,1-5.56-5.68,5.54,5.54,0,0,1,5.34-5.3A5.34,5.34,0,0,1,882,105Z"/><path class="cls-7" d="M133.22,104.73A5.2,5.2,0,0,1,139,99.57a5.38,5.38,0,0,1,5.28,5.3,5.8,5.8,0,0,1-5.67,5.58A5.68,5.68,0,0,1,133.22,104.73Z"/><path class="cls-7" d="M250.48,99.59a5.61,5.61,0,0,1,5.47,5.18,6,6,0,0,1-5.48,5.81,5.8,5.8,0,0,1-5.63-5.57A5.39,5.39,0,0,1,250.48,99.59Z"/><path class="cls-7" d="M209.39,105A5.11,5.11,0,0,1,215,99.65a5.48,5.48,0,0,1,5.29,5.31,5.73,5.73,0,0,1-5.51,5.66A5.44,5.44,0,0,1,209.39,105Z"/><path class="cls-7" d="M739.13,104.67c.06-3.25,1.91-5.08,5.16-5.11a5.54,5.54,0,0,1,5.78,5.27,6.31,6.31,0,0,1-5.7,5.64A5.52,5.52,0,0,1,739.13,104.67Z"/><path class="cls-7" d="M125,104.77a5.49,5.49,0,0,1-5.24,5.86,6.23,6.23,0,0,1-5.64-5.26c-.17-2.82,2.58-5.64,5.57-5.72A4.91,4.91,0,0,1,125,104.77Z"/><path class="cls-7" d="M530.13,104.66c.1-3.49,2.1-5.31,5.64-5.11a5.1,5.1,0,0,1,5.08,5.4,5.49,5.49,0,0,1-5.35,5.27A5.1,5.1,0,0,1,530.13,104.66Z"/><path class="cls-7" d="M269.47,109.79c-3.09.06-5.09-1.76-5.13-4.66a5.18,5.18,0,0,1,4.9-5.16,4.92,4.92,0,0,1,5.1,4.86A4.61,4.61,0,0,1,269.47,109.79Z"/><path class="cls-7" d="M440.45,108.68a3.93,3.93,0,0,1-4.05-4,4.11,4.11,0,0,1,3.83-3.83,4.42,4.42,0,0,1,4.11,4.09A4.05,4.05,0,0,1,440.45,108.68Z"/><path class="cls-7" d="M577.32,104.89a3.76,3.76,0,0,1-3.75,3.78,3.94,3.94,0,0,1-4.18-3.86,4.75,4.75,0,0,1,3.83-4A4.19,4.19,0,0,1,577.32,104.89Z"/><path class="cls-7" d="M387.36,104.73a3.86,3.86,0,0,1-4,4.13,4.08,4.08,0,0,1-.26-8.14A4.21,4.21,0,0,1,387.36,104.73Z"/><path class="cls-7" d="M626.8,105.11c-.08-2.3,1.33-4.1,3.28-4.19a3.92,3.92,0,1,1,.43,7.83C628.26,108.91,626.89,107.56,626.8,105.11Z"/><path class="cls-7" d="M347.5,104.9c-.29,1.44-1,2.11-2.29,2a1.81,1.81,0,0,1-1.86-2.16c.09-1.45.89-2.34,2.4-2.13C347.08,102.85,347.21,104.06,347.5,104.9Z"/></g><g class="cls-6"><path class="cls-7" d="M939.7,68.69A6.71,6.71,0,0,1,933,75.51a6.89,6.89,0,0,1-7.09-7,7,7,0,0,1,7.28-6.8C937.07,61.83,939.71,64.65,939.7,68.69Z"/><path class="cls-7" d="M933.16,24a6.93,6.93,0,0,1,6.54,7c-.07,4.22-2.84,6.83-7.12,6.69A6.67,6.67,0,0,1,926,30.82,7,7,0,0,1,933.16,24Z"/><path class="cls-7" d="M951.65,61.75a7.09,7.09,0,0,1,7.25,6.89,6.72,6.72,0,0,1-6.72,6.8,6.85,6.85,0,0,1-.53-13.69Z"/><path class="cls-7" d="M1066,5.2a6.42,6.42,0,0,1,6.62,6.71,7,7,0,0,1-6.92,7,7.16,7.16,0,0,1-6.78-6.83A6.93,6.93,0,0,1,1066,5.2Z"/><path class="cls-7" d="M1053.86,12.82a7.14,7.14,0,0,1-7.9,6.12,6.85,6.85,0,0,1-5.88-7.53,7,7,0,0,1,7.78-6.16A7.22,7.22,0,0,1,1053.86,12.82Z"/><path class="cls-7" d="M1120.74,80.33a7.07,7.07,0,0,1,6.64,7.43,6.94,6.94,0,0,1-7.1,6.41,6.84,6.84,0,0,1-6.66-6.83A7.25,7.25,0,0,1,1120.74,80.33Z"/><path class="cls-7" d="M1084.76.08a6.75,6.75,0,0,1-6.64-6.88c.05-4.06,2.69-6.7,6.68-6.69A7,7,0,0,1,1092-7C1092.07-3.51,1088.44.08,1084.76.08Z"/><path class="cls-7" d="M989.93,42.54a7,7,0,0,1,6.63,6.92c.08,4.19-2.33,6.73-6.43,6.8-4.39.06-7-2.49-6.89-6.83A7,7,0,0,1,989.93,42.54Z"/><path class="cls-7" d="M1034.66,49.41c.09,4.08-2.38,6.68-6.49,6.84s-7-2.46-7.13-6.28,3.31-7.44,6.85-7.39A6.89,6.89,0,0,1,1034.66,49.41Z"/><path class="cls-7" d="M1034.37,12a6.11,6.11,0,0,1-6.19,6.15,5.94,5.94,0,0,1-6.49-5.74c-.17-3.59,2.71-6.85,6.07-6.86A6.8,6.8,0,0,1,1034.37,12Z"/><path class="cls-7" d="M1103.86,56.14a6.3,6.3,0,0,1-6.2-6.14,6.52,6.52,0,0,1,6.32-6.52c3.35.11,6.5,3.39,6.38,6.65C1110.24,53.21,1107.1,56.13,1103.86,56.14Z"/><path class="cls-7" d="M920.21,49.72a6.86,6.86,0,0,1-6.14,6.42,6.5,6.5,0,0,1-6.42-6.55A6.43,6.43,0,0,1,914,43.41,6.82,6.82,0,0,1,920.21,49.72Z"/><path class="cls-7" d="M1065.66,93.33a6,6,0,0,1-6-6.3,6.3,6.3,0,0,1,6.11-5.82,6.6,6.6,0,0,1,6.28,6.21A6.24,6.24,0,0,1,1065.66,93.33Z"/><path class="cls-7" d="M1139.57,55.63a5.76,5.76,0,0,1-6-5.74,6.14,6.14,0,0,1,6.07-6.27,6.6,6.6,0,0,1,6.18,5.85C1146,52.68,1143,55.6,1139.57,55.63Z"/><path class="cls-7" d="M1109.82,68.49a5.64,5.64,0,0,1-5.89,6.21,5.9,5.9,0,0,1-6.2-6,6.07,6.07,0,0,1,6.26-6A5.66,5.66,0,0,1,1109.82,68.49Z"/><path class="cls-7" d="M1103.78,24.84a5.68,5.68,0,0,1,6,6.06,5.56,5.56,0,0,1-5.7,5.9c-3.64.15-6.33-2.26-6.39-5.73A6,6,0,0,1,1103.78,24.84Z"/><path class="cls-7" d="M913.7,37.06c-3.52,0-5.79-2.61-5.66-6.42a5.72,5.72,0,0,1,5.83-5.83A6.62,6.62,0,0,1,920.08,31,6.47,6.47,0,0,1,913.7,37.06Z"/><path class="cls-7" d="M913.62,74.69c-3.5-.09-5.76-2.69-5.58-6.44a5.57,5.57,0,0,1,6-5.6,6.42,6.42,0,0,1,6.08,6.25A6.09,6.09,0,0,1,913.62,74.69Z"/><path class="cls-7" d="M1028,74.61a6.39,6.39,0,0,1-6.18-6.14,5.91,5.91,0,0,1,5.81-5.9,6.75,6.75,0,0,1,6.59,5.83C1034.39,71.33,1031.22,74.49,1028,74.61Z"/><path class="cls-7" d="M1084.85,74.63c-3.53,0-5.95-2.55-5.88-6.23s2.18-5.74,5.74-5.85a6,6,0,0,1,6.36,5.87A6.56,6.56,0,0,1,1084.85,74.63Z"/><path class="cls-7" d="M1066.06,36.79a6,6,0,0,1-6.32-5.86c0-2.93,2.86-5.82,5.93-5.92a5.64,5.64,0,0,1,6.13,5.48A5.69,5.69,0,0,1,1066.06,36.79Z"/><path class="cls-7" d="M951.92,18a5.82,5.82,0,0,1-6-5.74,6,6,0,0,1,6-6.24c3.05,0,6.32,3.38,6.17,6.3A6.16,6.16,0,0,1,951.92,18Z"/><path class="cls-7" d="M1084.8,18a6,6,0,0,1-5.93-6.28A6.15,6.15,0,0,1,1085,6c3.17.08,6.22,3.29,6,6.37A6,6,0,0,1,1084.8,18Z"/><path class="cls-7" d="M926.8,87.32a6.46,6.46,0,0,1,6-5.84c3.67,0,6.22,2.86,5.94,6.67-.24,3.28-2.73,5.28-6.34,5.1A5.61,5.61,0,0,1,926.8,87.32Z"/><path class="cls-7" d="M976.82,88a5.63,5.63,0,0,1-6.37,5.24,5.85,5.85,0,0,1-5.65-6.09A6.26,6.26,0,0,1,971,81.5,6,6,0,0,1,976.82,88Z"/><path class="cls-7" d="M1047,93.25c-3.57,0-5.91-2.11-6-5.54a5.63,5.63,0,0,1,6-6.1,6.26,6.26,0,0,1,6,5.93A5.74,5.74,0,0,1,1047,93.25Z"/><path class="cls-7" d="M989.93,74.62a5.65,5.65,0,0,1-5.74-5.84c-.08-3.83,2.15-6.24,5.75-6.22a6.4,6.4,0,0,1,6,5.79A6.43,6.43,0,0,1,989.93,74.62Z"/><path class="cls-7" d="M951.89,82c3.52,0,6.09,2.26,6.21,5.48s-2.76,5.9-6.41,5.81a5.7,5.7,0,0,1-5.87-5.82C945.87,84,948.13,82,951.89,82Z"/><path class="cls-7" d="M970.86,55.41c-3.59,0-6-2.17-6.07-5.52a6.58,6.58,0,0,1,6-6.37,6.31,6.31,0,0,1,6,6.32C976.79,53.2,974.41,55.42,970.86,55.41Z"/><path class="cls-7" d="M1047,36.82c-3.66,0-5.88-2.06-6-5.57-.08-3.73,1.85-5.76,5.59-5.84s6.49,2.32,6.4,5.71A5.75,5.75,0,0,1,1047,36.82Z"/><path class="cls-7" d="M1084.91,93.23a5.91,5.91,0,0,1-5.83-6.29c.16-3.3,2.14-5,5.84-5,3.51,0,6.13,2.4,6,5.51A6.15,6.15,0,0,1,1084.91,93.23Z"/><path class="cls-7" d="M1120.76,62.76a5.6,5.6,0,0,1,5.52,6.08c-.17,3.08-2.62,5.16-5.94,5a5.8,5.8,0,0,1-5.69-5.49A6.05,6.05,0,0,1,1120.76,62.76Z"/><path class="cls-7" d="M938.59,11.85a6,6,0,0,1-5.8,6,6.29,6.29,0,0,1-5.78-5.6c-.08-2.89,2.94-5.92,6-6A5.75,5.75,0,0,1,938.59,11.85Z"/><path class="cls-7" d="M1008.73,36.7a6,6,0,0,1-5.67-5.62,5.75,5.75,0,0,1,6-5.64,5.39,5.39,0,0,1,5.57,5.49A5.69,5.69,0,0,1,1008.73,36.7Z"/><path class="cls-7" d="M1009,6.42a6,6,0,0,1,5.63,5.64,5.93,5.93,0,0,1-5.6,5.65c-3,.07-6-2.91-5.93-5.84C1003.23,9.18,1006.26,6.38,1009,6.42Z"/><path class="cls-7" d="M1120.51,55c-2.94,0-5.73-2.81-5.6-5.6a5.89,5.89,0,0,1,5.46-5.28,5.6,5.6,0,0,1,5.72,5.43A5.32,5.32,0,0,1,1120.51,55Z"/><path class="cls-7" d="M913.75,82.16a5.3,5.3,0,0,1,5.53,5.45,5.53,5.53,0,0,1-5.06,5.53,5.73,5.73,0,0,1-5.84-5.31A5.41,5.41,0,0,1,913.75,82.16Z"/><path class="cls-7" d="M990.26,82.08a5.47,5.47,0,0,1,5.23,5.38A6,6,0,0,1,989.77,93a5.77,5.77,0,0,1-5.39-5.83A5.25,5.25,0,0,1,990.26,82.08Z"/><path class="cls-7" d="M1022.39,87.25a5.22,5.22,0,0,1,5.82-5.16,5.39,5.39,0,0,1,5.29,5.31,5.78,5.78,0,0,1-5.68,5.57A5.68,5.68,0,0,1,1022.39,87.25Z"/><path class="cls-7" d="M1139.66,82.12a5.59,5.59,0,0,1,5.46,5.17,6,6,0,0,1-5.47,5.81,5.79,5.79,0,0,1-5.63-5.56A5.38,5.38,0,0,1,1139.66,82.12Z"/><path class="cls-7" d="M1098.57,87.49a5.1,5.1,0,0,1,5.58-5.31,5.47,5.47,0,0,1,5.28,5.31,5.73,5.73,0,0,1-5.51,5.66A5.43,5.43,0,0,1,1098.57,87.49Z"/><path class="cls-7" d="M970.65,6.91c3.15-.07,5.91,2.31,6,5.15s-2.81,5.58-5.67,5.64a5.58,5.58,0,0,1-5.55-5.58A5.17,5.17,0,0,1,970.65,6.91Z"/><path class="cls-7" d="M1090.29,30.9a5.45,5.45,0,0,1-10.89.39,5.45,5.45,0,1,1,10.89-.39Z"/><path class="cls-7" d="M1046.72,55.21a5.3,5.3,0,0,1-5.37-5.13,5.58,5.58,0,0,1,5.35-5.74,5.44,5.44,0,0,1,5.52,5.51C1052.21,53.16,1050.08,55.24,1046.72,55.21Z"/><path class="cls-7" d="M1065.55,55.1a4.88,4.88,0,0,1-5-5.29,5.77,5.77,0,0,1,5.55-5.58,6,6,0,0,1,5.45,5.77A5.53,5.53,0,0,1,1065.55,55.1Z"/><path class="cls-7" d="M1014.2,87.3a5.49,5.49,0,0,1-5.25,5.85,6.22,6.22,0,0,1-5.63-5.26c-.17-2.82,2.58-5.64,5.57-5.71A4.9,4.9,0,0,1,1014.2,87.3Z"/><path class="cls-7" d="M1014.13,68.83c0,3-2.14,5-5.42,5-3,0-4.8-1.81-4.87-4.94-.09-3.28,1.82-5.27,5-5.27A5,5,0,0,1,1014.13,68.83Z"/><path class="cls-7" d="M1139.47,72.94a4.27,4.27,0,0,1-4.52-4.19,4.88,4.88,0,0,1,4.62-4.8,5,5,0,0,1,4.53,4.94C1144,71.35,1142.14,73,1139.47,72.94Z"/><path class="cls-7" d="M951.81,26.74a4.88,4.88,0,0,1,4.35,4.11c.12,2.19-1.69,3.93-4.18,4A3.83,3.83,0,0,1,947.73,31,4.33,4.33,0,0,1,951.81,26.74Z"/><path class="cls-7" d="M970.85,64.51a4.12,4.12,0,1,1,.09,8.23,4.2,4.2,0,0,1-4.17-4A4.3,4.3,0,0,1,970.85,64.51Z"/><path class="cls-7" d="M989.64,8.06c2.5,0,4.22,1.47,4.29,3.75A4.33,4.33,0,0,1,990,16.1a4.53,4.53,0,0,1-4.31-4.43A3.78,3.78,0,0,1,989.64,8.06Z"/><path class="cls-7" d="M1009.06,46a3.82,3.82,0,1,1-4.07,3.56A3.92,3.92,0,0,1,1009.06,46Z"/><path class="cls-7" d="M1141.87,30.88a2.35,2.35,0,0,1-2.32,2.32,1.76,1.76,0,0,1-1.88-2c0-1.14.5-2.21,1.66-2.35C1140.69,28.64,1141.49,29.6,1141.87,30.88Z"/><path class="cls-7" d="M1120.58,32.9a2.11,2.11,0,0,1-2.16-2.09,2.06,2.06,0,0,1,2.42-2.14,1.83,1.83,0,0,1,1.76,2.22A2.12,2.12,0,0,1,1120.58,32.9Z"/><path class="cls-7" d="M1120.74,97.81a7.07,7.07,0,0,1,6.64,7.43,6.94,6.94,0,0,1-7.1,6.41,6.85,6.85,0,0,1-6.66-6.84A7.23,7.23,0,0,1,1120.74,97.81Z"/><path class="cls-7" d="M1065.66,110.81a6,6,0,0,1-6-6.3,6.3,6.3,0,0,1,6.11-5.82,6.59,6.59,0,0,1,6.28,6.21C1072.12,108.11,1069.11,110.87,1065.66,110.81Z"/><path class="cls-7" d="M926.8,104.79a6.44,6.44,0,0,1,6-5.83,5.87,5.87,0,0,1,5.94,6.66c-.24,3.28-2.73,5.29-6.34,5.1A5.61,5.61,0,0,1,926.8,104.79Z"/><path class="cls-7" d="M976.82,105.49a5.64,5.64,0,0,1-6.37,5.25,5.86,5.86,0,0,1-5.65-6.1A6.26,6.26,0,0,1,971,99,6,6,0,0,1,976.82,105.49Z"/><path class="cls-7" d="M1047,110.73c-3.57,0-5.91-2.12-6-5.54a5.64,5.64,0,0,1,6-6.11,6.26,6.26,0,0,1,6,5.93A5.75,5.75,0,0,1,1047,110.73Z"/><path class="cls-7" d="M951.89,99.43c3.52,0,6.09,2.27,6.21,5.48s-2.76,5.91-6.41,5.81a5.7,5.7,0,0,1-5.87-5.82C945.87,101.47,948.13,99.43,951.89,99.43Z"/><path class="cls-7" d="M895.73,61.75A7.09,7.09,0,0,1,903,68.64a6.71,6.71,0,0,1-6.72,6.8,6.85,6.85,0,0,1-.53-13.69Z"/><path class="cls-7" d="M896,18a5.82,5.82,0,0,1-6-5.74A6,6,0,0,1,896,6c3,0,6.32,3.38,6.17,6.3A6.16,6.16,0,0,1,896,18Z"/><path class="cls-7" d="M896,82c3.53,0,6.09,2.26,6.21,5.48s-2.76,5.9-6.41,5.81a5.71,5.71,0,0,1-5.87-5.82C890,84,892.21,82,896,82Z"/><path class="cls-7" d="M895.89,26.74a4.88,4.88,0,0,1,4.35,4.11c.12,2.19-1.69,3.93-4.18,4A3.83,3.83,0,0,1,891.81,31,4.33,4.33,0,0,1,895.89,26.74Z"/><path class="cls-7" d="M896,99.43c3.53,0,6.09,2.27,6.21,5.48s-2.76,5.91-6.41,5.81a5.7,5.7,0,0,1-5.87-5.82C890,101.47,892.21,99.43,896,99.43Z"/><path class="cls-7" d="M1084.91,110.71a5.91,5.91,0,0,1-5.83-6.29c.16-3.3,2.14-5,5.84-5,3.51,0,6.13,2.41,6,5.52A6.16,6.16,0,0,1,1084.91,110.71Z"/><path class="cls-7" d="M913.75,99.64a5.3,5.3,0,0,1,5.53,5.45,5.54,5.54,0,0,1-5.06,5.53,5.74,5.74,0,0,1-5.84-5.32A5.41,5.41,0,0,1,913.75,99.64Z"/><path class="cls-7" d="M990.26,99.56a5.47,5.47,0,0,1,5.23,5.38,6,6,0,0,1-5.72,5.55,5.76,5.76,0,0,1-5.39-5.82A5.24,5.24,0,0,1,990.26,99.56Z"/><path class="cls-7" d="M1022.39,104.73a5.21,5.21,0,0,1,5.82-5.16,5.38,5.38,0,0,1,5.29,5.3,5.8,5.8,0,0,1-5.68,5.58A5.69,5.69,0,0,1,1022.39,104.73Z"/><path class="cls-7" d="M1139.66,99.59a5.59,5.59,0,0,1,5.46,5.18,6,6,0,0,1-5.47,5.81A5.8,5.8,0,0,1,1134,105,5.38,5.38,0,0,1,1139.66,99.59Z"/><path class="cls-7" d="M1098.57,105a5.11,5.11,0,0,1,5.58-5.31,5.47,5.47,0,0,1,5.28,5.31,5.72,5.72,0,0,1-5.51,5.66A5.43,5.43,0,0,1,1098.57,105Z"/><path class="cls-7" d="M1014.2,104.77a5.5,5.5,0,0,1-5.25,5.86,6.22,6.22,0,0,1-5.63-5.26c-.17-2.82,2.58-5.64,5.57-5.72A4.91,4.91,0,0,1,1014.2,104.77Z"/></g></g></svg>