<svg id="Layer_1" data-name="Layer 1" xmlns="http://www.w3.org/2000/svg" xmlns:xlink="http://www.w3.org/1999/xlink" viewBox="0 0 1152 648"><defs><style>.cls-1{fill:none;}.cls-2{clip-path:url(#clip-path);}.cls-3{opacity:0.7;}.cls-4{fill:#2e7aa8;}.cls-5{clip-path:url(#clip-path-2);}.cls-6{fill:#447099;}.cls-7{fill:#22384c;}.cls-8{clip-path:url(#clip-path-3);}.cls-9{fill:#a1b7cb;}</style><clipPath id="clip-path"><rect class="cls-1" x="-1210.66" width="1152" height="648"/></clipPath><clipPath id="clip-path-2"><rect class="cls-1" y="668.44" width="1152" height="648"/></clipPath><clipPath id="clip-path-3"><rect class="cls-1" width="1152" height="648"/></clipPath></defs><g class="cls-2"><g class="cls-3"><path class="cls-4" d="M339.66,642.61a7.1,7.1,0,0,1,7.57-7,7.22,7.22,0,0,1,7,7.2c-.07,3.85-3.79,7.57-7.46,7.44A7.5,7.5,0,0,1,339.66,642.61Z"/><path class="cls-4" d="M335,642.61a7,7,0,0,1-7.28,6.81,6.89,6.89,0,0,1,.12-13.77A7.14,7.14,0,0,1,335,642.61Z"/><path class="cls-4" d="M353.72,473c.06,4.06-2.45,6.7-6.47,6.81a7,7,0,0,1-7.4-6.62c-.07-3.24,3.44-7,6.71-7.1A7,7,0,0,1,353.72,473Z"/><path class="cls-4" d="M524.75,586.17a6.54,6.54,0,0,1-6.64,6.77,7,7,0,0,1-7.22-6.82,7.26,7.26,0,0,1,6.75-6.91A7.09,7.09,0,0,1,524.75,586.17Z"/><path class="cls-4" d="M498.85,536.48c-4.14,0-6.82-2.86-6.71-7.09a6.91,6.91,0,0,1,6.88-6.65,6.87,6.87,0,1,1-.17,13.74Z"/><path class="cls-4" d="M486.65,605.11a6.82,6.82,0,0,1-7,6.94,7.38,7.38,0,0,1-6.75-6.9,6.89,6.89,0,0,1,6.74-6.72C483.94,598.31,486.6,600.85,486.65,605.11Z"/><path class="cls-4" d="M365.8,555.39a6.72,6.72,0,0,1-6.65-6.77,6.89,6.89,0,0,1,6.84-7.13,7.43,7.43,0,0,1,6.86,6.83A7.27,7.27,0,0,1,365.8,555.39Z"/><path class="cls-4" d="M441.85,598.43c4.11,0,6.65,2.4,6.76,6.45a6.84,6.84,0,0,1-6.25,7.18c-3.74.15-7.49-3.16-7.55-6.66A7,7,0,0,1,441.85,598.43Z"/><path class="cls-4" d="M404.24,635.77c3.47.11,6.27,3.37,6.23,7.27s-2.71,6.58-6.78,6.48a6.68,6.68,0,0,1-6.76-6.77A7.49,7.49,0,0,1,404.24,635.77Z"/><path class="cls-4" d="M24.06,598.33c3.8.11,7,3.18,6.93,6.61a7.11,7.11,0,0,1-7.44,6.66c-4-.1-6.53-2.89-6.37-6.92S19.87,598.22,24.06,598.33Z"/><path class="cls-4" d="M461.16,554.82a6.69,6.69,0,0,1-6.92-6c-.24-3.39,3-6.91,6.47-7a7,7,0,0,1,6.94,6.54A6.72,6.72,0,0,1,461.16,554.82Z"/><path class="cls-4" d="M385.32,592.64c-4,.12-6.59-2.19-6.74-6-.17-4,2.5-7.08,6.21-7.09a7.43,7.43,0,0,1,6.86,6.39C391.9,589.26,388.8,592.53,385.32,592.64Z"/><path class="cls-4" d="M232.75,649.2a6.55,6.55,0,0,1-6.22-6.7,6,6,0,0,1,6.25-6c3.86,0,6.45,2.46,6.44,6.24A6.57,6.57,0,0,1,232.75,649.2Z"/><path class="cls-4" d="M289.74,611.22c-3.6-.1-5.95-2.59-5.94-6.3,0-3.95,2.59-6.55,6.33-6.37a6.84,6.84,0,0,1,6.29,6.31A6.71,6.71,0,0,1,289.74,611.22Z"/><path class="cls-4" d="M68.27,604.83a6.54,6.54,0,0,1-6.1,6.37,6.62,6.62,0,0,1-6.71-6.28,6.32,6.32,0,0,1,6.08-6.29A6.54,6.54,0,0,1,68.27,604.83Z"/><path class="cls-4" d="M68.28,548.46A6.67,6.67,0,0,1,62,554.69a6.35,6.35,0,1,1,6.29-6.23Z"/><path class="cls-4" d="M308.58,629.91a6.33,6.33,0,0,1-6-6.33c.06-3.25,3.48-6.56,6.63-6.4a7,7,0,0,1,6.13,6.46A6.7,6.7,0,0,1,308.58,629.91Z"/><path class="cls-4" d="M308.75,592a6.13,6.13,0,0,1-6.21-6.53,6.33,6.33,0,0,1,12.65.7A6,6,0,0,1,308.75,592Z"/><path class="cls-4" d="M479.79,580a6.59,6.59,0,0,1,6.47,6,6.36,6.36,0,0,1-6.3,6.57,6.27,6.27,0,1,1-.17-12.54Z"/><path class="cls-4" d="M536.88,649a6.18,6.18,0,0,1-6.39-6,6.4,6.4,0,1,1,12.8,0A6.36,6.36,0,0,1,536.88,649Z"/><path class="cls-4" d="M346.89,573.59a6.13,6.13,0,1,1,.06-12.25,6.21,6.21,0,0,1,6.36,6C353.46,570.91,350.73,573.59,346.89,573.59Z"/><path class="cls-4" d="M296.19,642.7c-.06,3.73-2.73,6.15-6.62,6s-5.84-2.29-5.79-6.2,2.5-6.21,6.48-6A5.87,5.87,0,0,1,296.19,642.7Z"/><path class="cls-4" d="M486,491.72a6.43,6.43,0,0,1-6,6.45,6.72,6.72,0,0,1-6.34-6.2,6.32,6.32,0,0,1,5.87-6.08A6,6,0,0,1,486,491.72Z"/><path class="cls-4" d="M315.07,604.9a6.44,6.44,0,0,1-6.38,6.06,6.32,6.32,0,0,1-5.93-6c0-3.23,3-6.37,6.12-6.32A6.37,6.37,0,0,1,315.07,604.9Z"/><path class="cls-4" d="M486.05,548.48a6.35,6.35,0,0,1-6.28,6.16,6.16,6.16,0,1,1,6.28-6.16Z"/><path class="cls-4" d="M428.93,567.09a6.14,6.14,0,0,1-6.06,6.28c-3.37.06-6-2.67-6-6.3s2.06-5.7,5.73-5.8S428.9,563.5,428.93,567.09Z"/><path class="cls-4" d="M219.85,585.8c.07,3.7-2.25,6.14-5.9,6.21a5.86,5.86,0,0,1-6.22-6,6.18,6.18,0,0,1,5.78-6.07A5.87,5.87,0,0,1,219.85,585.8Z"/><path class="cls-4" d="M366,636.58a6.4,6.4,0,0,1,6.12,6.25,5.82,5.82,0,0,1-5.87,5.85c-3.8.12-6.12-2.08-6.19-5.85A5.93,5.93,0,0,1,366,636.58Z"/><path class="cls-4" d="M352.83,548.89A5.87,5.87,0,0,1,347,554.7a6.14,6.14,0,1,1,0-12.28C350.09,542.48,352.93,545.62,352.83,548.89Z"/><path class="cls-4" d="M43,636.56a5.87,5.87,0,0,1,5.81,6.37,5.67,5.67,0,0,1-6,5.59,6,6,0,1,1,.24-12Z"/><path class="cls-4" d="M68.09,585.92A6.23,6.23,0,0,1,61.77,592c-3.36,0-5.67-2.44-5.69-6a5.71,5.71,0,0,1,5.6-6.09A6.2,6.2,0,0,1,68.09,585.92Z"/><path class="cls-4" d="M251.93,636.55a5.91,5.91,0,1,1-6.09,6.1A6,6,0,0,1,251.93,636.55Z"/><path class="cls-4" d="M18.07,567.07c.06-3.56,2.26-5.73,5.8-5.73a6,6,0,0,1,6.13,5.6c.07,3.13-3.07,6.49-6,6.45A6,6,0,0,1,18.07,567.07Z"/><path class="cls-4" d="M175.85,617.84c3.94,0,6,2,6,5.9a5.77,5.77,0,0,1-6.11,6,6.44,6.44,0,0,1-6-5.88A5.92,5.92,0,0,1,175.85,617.84Z"/><path class="cls-4" d="M385,629.91a6,6,0,0,1-6.18-5.59,6,6,0,0,1,6-6.28,5.94,5.94,0,1,1,.22,11.87Z"/><path class="cls-4" d="M296,586.19a5.93,5.93,0,0,1-6.07,5.66,5.61,5.61,0,0,1-5.89-6.16,5.76,5.76,0,0,1,5.91-5.74A6.19,6.19,0,0,1,296,586.19Z"/><path class="cls-4" d="M290,523.35a6.24,6.24,0,0,1,6,6.34,6.15,6.15,0,0,1-6.14,5.65,6,6,0,0,1,.17-12Z"/><path class="cls-4" d="M80.83,648.72a5.72,5.72,0,0,1-6-5.58c-.08-3.14,2.88-6.41,5.91-6.5a6.34,6.34,0,0,1,6.21,6.13C87,646.32,84.55,648.73,80.83,648.72Z"/><path class="cls-4" d="M480.08,630c-3.21.08-6.18-2.48-6.35-5.46-.18-3.14,2.84-6.45,5.92-6.5a6.16,6.16,0,0,1,6.28,6A6.07,6.07,0,0,1,480.08,630Z"/><path class="cls-4" d="M428.89,623.64a6,6,0,0,1-6.18,6.1,5.65,5.65,0,0,1-5.68-5.55A5.57,5.57,0,0,1,422.4,618C426.08,617.76,428.76,620.11,428.89,623.64Z"/><path class="cls-4" d="M81,542.77a5.84,5.84,0,0,1,5.9,5.76,6.24,6.24,0,0,1-6.19,6.12,6.13,6.13,0,0,1-5.9-5.91A6,6,0,0,1,81,542.77Z"/><path class="cls-4" d="M-1.26,623.89A6,6,0,0,1,5,618a5.68,5.68,0,0,1,5.75,5.85,6,6,0,0,1-5.64,6.06C2,630-1.28,626.9-1.26,623.89Z"/><path class="cls-4" d="M352.84,586.38c.05,3.5-2.12,5.65-5.81,5.74a5.75,5.75,0,0,1-6.25-5.43,6.72,6.72,0,0,1,5.94-6.6C349.94,580,352.79,582.88,352.84,586.38Z"/><path class="cls-4" d="M493,548.12a5.84,5.84,0,0,1,6.71-5.34,6,6,0,0,1,5.32,6.34,6.62,6.62,0,0,1-6.39,5.5A5.92,5.92,0,0,1,493,548.12Z"/><path class="cls-4" d="M365.74,573.41a5.71,5.71,0,0,1-5.7-5.92,5.77,5.77,0,0,1,6-6.07c3,.07,6,3,6,5.88A6.66,6.66,0,0,1,365.74,573.41Z"/><path class="cls-4" d="M460.67,573.32a6,6,0,0,1-5.62-6.59,5.52,5.52,0,0,1,5.81-5.3c3.33,0,6.31,3.09,6.09,6.22C466.76,570.46,463.46,573.44,460.67,573.32Z"/><path class="cls-4" d="M314.75,566.77a6.23,6.23,0,0,1-6,6.36c-2.86,0-5.93-3.11-6-6a5.84,5.84,0,0,1,5.94-5.78C312.45,561.26,314.71,563.31,314.75,566.77Z"/><path class="cls-4" d="M447.59,624c.05,3.62-2.13,6-5.54,6a6,6,0,1,1-.12-12C445.34,618,447.55,620.35,447.59,624Z"/><path class="cls-4" d="M93.83,604.89c.06-3.06,2.94-6.09,5.79-6.1S106,602.16,106,605s-3.49,6.2-6.45,6A6.19,6.19,0,0,1,93.83,604.89Z"/><path class="cls-4" d="M352.75,492.08a6.25,6.25,0,0,1-5.81,6.09,6.52,6.52,0,0,1-6.13-6.35,5.81,5.81,0,0,1,6.13-5.61A5.65,5.65,0,0,1,352.75,492.08Z"/><path class="cls-4" d="M334.06,623.9a6.07,6.07,0,0,1-6.23,5.58c-3.6-.13-5.91-2.41-5.85-5.78.07-3.61,2.59-5.91,6.33-5.76A5.81,5.81,0,0,1,334.06,623.9Z"/><path class="cls-4" d="M62,504.7a5.89,5.89,0,0,1,0,11.78c-3.57,0-5.85-2.18-5.93-5.62A5.67,5.67,0,0,1,62,504.7Z"/><path class="cls-4" d="M485.68,510.87a5.73,5.73,0,0,1-5.85,5.89c-2.93,0-6.13-3.15-6.07-5.95s3.36-6,6.13-6A6,6,0,0,1,485.68,510.87Z"/><path class="cls-4" d="M328.07,459.55c-3.7.05-5.94-1.95-6.07-5.42-.13-3.71,2.19-6,6-5.95a5.87,5.87,0,0,1,6,5.68A5.75,5.75,0,0,1,328.07,459.55Z"/><path class="cls-4" d="M48.64,604.67a5.65,5.65,0,0,1-5.79,5.84c-2.88,0-5.78-2.71-5.93-5.42s2.86-6.1,5.73-6.26S48.62,601.62,48.64,604.67Z"/><path class="cls-4" d="M531.19,529.66a5.6,5.6,0,0,1,5.66-5.9,6,6,0,0,1,5.91,5.85c0,2.91-3,5.76-6.08,5.66A5.62,5.62,0,0,1,531.19,529.66Z"/><path class="cls-4" d="M227.32,566.65a5.51,5.51,0,0,1,6.35-5.11c2.81.36,5.35,3.38,5.11,6.09a6,6,0,0,1-6.33,5.38C229.14,572.75,227,570.12,227.32,566.65Z"/><path class="cls-4" d="M384.8,561.46a6.1,6.1,0,0,1,5.93,5.93,6.37,6.37,0,0,1-5.74,5.72,6.18,6.18,0,0,1-5.9-5.5A6.09,6.09,0,0,1,384.8,561.46Z"/><path class="cls-4" d="M493.25,623.89a5.56,5.56,0,0,1,5.46-5.7c3,0,6.17,2.92,6.17,5.77,0,2.66-2.94,5.61-5.72,5.73A5.79,5.79,0,0,1,493.25,623.89Z"/><path class="cls-4" d="M455.09,529.51a6,6,0,0,1,6.07-5.72,5.93,5.93,0,0,1,5.49,5.8,6,6,0,0,1-5.6,5.7A5.87,5.87,0,0,1,455.09,529.51Z"/><path class="cls-4" d="M327.7,561.42a6,6,0,0,1,6,5.76,5.81,5.81,0,0,1-11.57.32A5.72,5.72,0,0,1,327.7,561.42Z"/><path class="cls-4" d="M219.63,624c-.07,3-2.57,5.22-5.83,5.2s-6-2.77-5.87-5.77c.15-2.68,3.12-5.35,6-5.37A5.89,5.89,0,0,1,219.63,624Z"/><path class="cls-4" d="M5,553.89c-3.38,0-5.81-2.09-5.95-5.14a6.05,6.05,0,0,1,5.77-6,5.84,5.84,0,0,1,5.89,5.78A5.42,5.42,0,0,1,5,553.89Z"/><path class="cls-4" d="M232.92,618.12a5.48,5.48,0,0,1,5.59,5.47c.14,3.7-1.78,5.61-5.63,5.62s-5.52-1.67-5.58-5.17A5.51,5.51,0,0,1,232.92,618.12Z"/><path class="cls-4" d="M422.9,553.87a5.53,5.53,0,0,1-5.59-5.54,5.28,5.28,0,0,1,5.46-5.57,5.74,5.74,0,0,1,6,5.67A5.94,5.94,0,0,1,422.9,553.87Z"/><path class="cls-4" d="M327.79,504.8a6.14,6.14,0,0,1,5.86,5.89,5.4,5.4,0,0,1-5.68,5.38,5.5,5.5,0,0,1-5.81-5.24A5.81,5.81,0,0,1,327.79,504.8Z"/><path class="cls-4" d="M428.73,642.37c.15,2.7-2.73,5.81-5.47,5.91a6.08,6.08,0,0,1-6-5.31c-.22-2.75,2.45-6,5.12-6.2S428.57,639.53,428.73,642.37Z"/><path class="cls-4" d="M24.06,504.8c2.75.1,5.66,3,5.67,5.67a5.72,5.72,0,0,1-6,5.6,5.49,5.49,0,0,1-5.57-5.49A5.89,5.89,0,0,1,24.06,504.8Z"/><path class="cls-4" d="M265.25,605.13a5.64,5.64,0,1,1,11.28,0c0,3.11-2.92,6-5.88,5.88A5.83,5.83,0,0,1,265.25,605.13Z"/><path class="cls-4" d="M542.44,624.12c-.1,3.32-2.13,5.13-5.73,5.1s-5.53-2-5.46-5.32a5.6,5.6,0,1,1,11.19.22Z"/><path class="cls-4" d="M347.1,505.35a5.92,5.92,0,0,1,5.45,5.82,5.73,5.73,0,0,1-5.76,5.46,5.58,5.58,0,0,1-5.31-5.85A5.28,5.28,0,0,1,347.1,505.35Z"/><path class="cls-4" d="M143.6,624c-.09,3.28-2.23,5.22-5.77,5.23s-5.53-1.83-5.51-5.34a5.5,5.5,0,0,1,5.89-5.7A5.63,5.63,0,0,1,143.6,624Z"/><path class="cls-4" d="M81.58,599.53a5.69,5.69,0,0,1,4.92,6.17,5.51,5.51,0,0,1-6.49,5,5.42,5.42,0,0,1-4.62-6.27A5.6,5.6,0,0,1,81.58,599.53Z"/><path class="cls-4" d="M517.85,599.45a5.79,5.79,0,0,1,5.8,5.93,5.57,5.57,0,0,1-5.92,5.22c-3.52,0-5.33-1.94-5.27-5.55S514.58,599.42,517.85,599.45Z"/><path class="cls-4" d="M23.78,459.44a5.49,5.49,0,0,1-5.63-5.5,5.74,5.74,0,0,1,6.05-5.64c2.89.11,5.66,3,5.51,5.82A5.74,5.74,0,0,1,23.78,459.44Z"/><path class="cls-4" d="M105.42,624c0,3.35-2.2,5.29-5.72,5.15s-5.51-2.13-5.39-5.52a5.56,5.56,0,1,1,11.11.37Z"/><path class="cls-4" d="M295.2,567.14c0,3.5-1.91,5.48-5.3,5.45a5.67,5.67,0,0,1-5.76-5.34,5.83,5.83,0,0,1,5.86-5.82C293.14,561.46,295.18,563.71,295.2,567.14Z"/><path class="cls-4" d="M4.79,599.45a5.77,5.77,0,0,1,5.8,5.36,5.57,5.57,0,0,1-5.81,5.74C2,610.48-1,607.63-1,605S2,599.46,4.79,599.45Z"/><path class="cls-4" d="M295.21,548.12c0,3.46-2,5.67-5.16,5.73a5.81,5.81,0,0,1-5.92-5.72,5.52,5.52,0,0,1,5.69-5.37C293.29,542.73,295.17,544.6,295.21,548.12Z"/><path class="cls-4" d="M536.72,610.68a5.62,5.62,0,0,1,0-11.24,5.62,5.62,0,1,1,0,11.24Z"/><path class="cls-4" d="M75.52,567.51a5.55,5.55,0,0,1,5.26-5.81,5.93,5.93,0,0,1,5.66,6,6,6,0,0,1-5.65,5.57C77.9,573.31,75.57,570.73,75.52,567.51Z"/><path class="cls-4" d="M341.56,605.13a5.57,5.57,0,0,1,5.64-5.47,5.92,5.92,0,0,1,5.23,5.53c0,2.93-2.76,5.77-5.55,5.75A5.5,5.5,0,0,1,341.56,605.13Z"/><path class="cls-4" d="M29.36,548.76a5.42,5.42,0,0,1-6,5.1,5.66,5.66,0,0,1-5.14-6,5.56,5.56,0,0,1,6.06-5A5.32,5.32,0,0,1,29.36,548.76Z"/><path class="cls-4" d="M485.39,529.6a5.49,5.49,0,1,1-11,0,5.22,5.22,0,0,1,5.73-5.31A5.11,5.11,0,0,1,485.39,529.6Z"/><path class="cls-4" d="M447.47,643.35a5.46,5.46,0,0,1-6.11,4.94,5.62,5.62,0,0,1-5.06-5.62,5.82,5.82,0,0,1,6-5.22A5.54,5.54,0,0,1,447.47,643.35Z"/><path class="cls-4" d="M517.62,629.21q-5.34-.12-5.08-5.6a5.16,5.16,0,0,1,5.22-5.28,5.93,5.93,0,0,1,5.86,5.86C523.49,627.17,521,629.28,517.62,629.21Z"/><path class="cls-4" d="M371.33,586.28a5.48,5.48,0,0,1-5.61,5.48A5.61,5.61,0,0,1,360.3,586a5.31,5.31,0,0,1,5.46-5.09A5.07,5.07,0,0,1,371.33,586.28Z"/><path class="cls-4" d="M238.41,605a5.55,5.55,0,0,1-11.08.39,5.8,5.8,0,0,1,5.87-5.85A5.55,5.55,0,0,1,238.41,605Z"/><path class="cls-4" d="M536.82,572.59a5.35,5.35,0,0,1-5.54-5.49,5.81,5.81,0,0,1,5.31-5.45,5.58,5.58,0,0,1,5.7,5.44A5.21,5.21,0,0,1,536.82,572.59Z"/><path class="cls-4" d="M466.28,605.28a5.21,5.21,0,0,1-5.32,5.23,5.5,5.5,0,1,1,0-11A5.56,5.56,0,0,1,466.28,605.28Z"/><path class="cls-4" d="M333.34,604.82a5.66,5.66,0,0,1-5.48,5.66,5.6,5.6,0,0,1-5.46-5.71,5.22,5.22,0,0,1,5.21-5.31A5.5,5.5,0,0,1,333.34,604.82Z"/><path class="cls-4" d="M62.57,524a5.56,5.56,0,0,1,4.82,6.22c-.4,2.64-3.41,5-6,4.79-2.86-.3-5.43-3.4-5.1-6.16A5.69,5.69,0,0,1,62.57,524Z"/><path class="cls-4" d="M29.27,491.57a5.47,5.47,0,0,1-5.38,5.68,5.61,5.61,0,0,1-5.5-5.16,5.45,5.45,0,1,1,10.88-.52Z"/><path class="cls-4" d="M29.27,623.58a5.11,5.11,0,0,1-5.36,5.52,5.23,5.23,0,0,1-5.52-5.42,5.37,5.37,0,0,1,5.66-5.35A5.18,5.18,0,0,1,29.27,623.58Z"/><path class="cls-4" d="M290,629.11c-3.28-.08-5.77-2.41-5.7-5.34a5.82,5.82,0,0,1,5.74-5.45c3.19,0,5.16,2.26,5.08,5.76S293.26,629.2,290,629.11Z"/><path class="cls-4" d="M504.35,567.6c0,3.06-2.1,5.06-5.34,5.1a5.29,5.29,0,0,1-5.67-5.36c.09-2.66,2.86-5.47,5.39-5.47C501.43,561.87,504.35,564.85,504.35,567.6Z"/><path class="cls-4" d="M390,604.92c.1,3.35-1.7,5.43-4.82,5.57a5.39,5.39,0,0,1-5.58-5.51,5.58,5.58,0,0,1,5.23-5.45A5.25,5.25,0,0,1,390,604.92Z"/><path class="cls-4" d="M504.19,642.68a5.56,5.56,0,0,1-5.13,5.49c-2.71,0-5.51-2.58-5.56-5.17a6,6,0,0,1,5.26-5.5A5.59,5.59,0,0,1,504.19,642.68Z"/><path class="cls-4" d="M175.84,647.71a5.46,5.46,0,0,1-5.28-5.3,5.52,5.52,0,0,1,5.55-5,5.43,5.43,0,0,1,5.25,5.33A5.22,5.22,0,0,1,175.84,647.71Z"/><path class="cls-4" d="M322.83,529.61c-.1-3.34,1.72-5.32,4.91-5.34a5.38,5.38,0,0,1,5.5,5,5.75,5.75,0,0,1-5.15,5.54A5.18,5.18,0,0,1,322.83,529.61Z"/><path class="cls-4" d="M423.12,590.88a4.74,4.74,0,0,1-5.25-4.66A4.94,4.94,0,0,1,422.6,581a5.23,5.23,0,0,1,5.28,4.79A4.65,4.65,0,0,1,423.12,590.88Z"/><path class="cls-4" d="M67.12,642.43c.1,2.44-2.44,5.06-5,5.16a4.9,4.9,0,1,1-.46-9.78C64.23,637.59,67,640,67.12,642.43Z"/><path class="cls-4" d="M460.64,638.28c2.52-.07,5.06,2,5.15,4.25s-2.62,5-5.09,5a5,5,0,0,1-4.5-4.93A4.37,4.37,0,0,1,460.64,638.28Z"/><path class="cls-4" d="M38.54,623.18a4.19,4.19,0,0,1,4.63-4,4.68,4.68,0,0,1,4.37,5,4.32,4.32,0,0,1-4.78,4C40,628,38.32,626.05,38.54,623.18Z"/><path class="cls-4" d="M237.43,586.3a4.59,4.59,0,0,1-4.73,4.53,5,5,0,0,1-4.47-4.91,4.51,4.51,0,0,1,4.6-4.15A4.29,4.29,0,0,1,237.43,586.3Z"/><path class="cls-4" d="M536.82,553a5.07,5.07,0,0,1-4.55-4.9A4.61,4.61,0,0,1,537,544a4.23,4.23,0,0,1,4.38,4.32A4.53,4.53,0,0,1,536.82,553Z"/><path class="cls-4" d="M23.62,533.71a4.31,4.31,0,0,1-4.43-4.27A4.72,4.72,0,0,1,24,524.89a4.46,4.46,0,0,1,4.34,4.88C28.1,532.28,26.3,533.8,23.62,533.71Z"/><path class="cls-4" d="M327.88,581.69a4.05,4.05,0,0,1,4.41,4.2,4.54,4.54,0,0,1-4.48,4.79,5.17,5.17,0,0,1-4.6-4.89A4.42,4.42,0,0,1,327.88,581.69Z"/><path class="cls-4" d="M479.87,647.32c-1.87,0-4.14-2.15-4.29-4.09a4.59,4.59,0,0,1,4.29-4.46,4.41,4.41,0,0,1,4.25,4A4.61,4.61,0,0,1,479.87,647.32Z"/><path class="cls-4" d="M384.68,638.64a4.89,4.89,0,0,1,4.59,3.86c.2,2-2.32,4.65-4.33,4.62a4.55,4.55,0,0,1-4.19-4.18A4.11,4.11,0,0,1,384.68,638.64Z"/><path class="cls-4" d="M275.15,624.25a4.21,4.21,0,0,1-4.46,3.72,4.14,4.14,0,0,1-4.07-4.12,4.06,4.06,0,0,1,4.15-4C273.12,619.94,275.29,622.11,275.15,624.25Z"/><path class="cls-4" d="M536.79,590.17c-2.63,0-3.89-1.38-3.82-4.11a3.79,3.79,0,0,1,4.12-4,4.21,4.21,0,0,1,4.07,4.21A4.11,4.11,0,0,1,536.79,590.17Z"/><path class="cls-4" d="M28,473a4.41,4.41,0,0,1-4.39,3.86,4.61,4.61,0,0,1-4-4.35c.09-1.93,2.39-3.88,4.49-3.8A4.17,4.17,0,0,1,28,473Z"/><path class="cls-4" d="M332,472.56a4.45,4.45,0,0,1-4,4.31,4,4,0,0,1-4.22-3.88,4.09,4.09,0,0,1,8.17-.43Z"/><path class="cls-4" d="M8.9,642.85a4,4,0,0,1-4.23,3.92A4.16,4.16,0,0,1,.61,642.6a4.53,4.53,0,0,1,4.36-4A4,4,0,0,1,8.9,642.85Z"/><path class="cls-4" d="M213.66,563.19a4.06,4.06,0,1,1,.35,8.11,4.33,4.33,0,0,1-4.3-3.88A4.27,4.27,0,0,1,213.66,563.19Z"/><path class="cls-4" d="M365.79,628a3.89,3.89,0,0,1-3.85-4.19,3.75,3.75,0,0,1,4.06-4,3.89,3.89,0,0,1,3.92,4.16A4,4,0,0,1,365.79,628Z"/><path class="cls-4" d="M323.93,491.67a4.09,4.09,0,0,1,3.89-4.24,4.43,4.43,0,0,1,4.2,4.06,4,4,0,0,1-4,4.13A3.91,3.91,0,0,1,323.93,491.67Z"/><path class="cls-4" d="M479.73,571.54a4.12,4.12,0,1,1,.2-8.23,4.12,4.12,0,0,1-.2,8.23Z"/><path class="cls-4" d="M427,604.62a4,4,0,0,1-4,4.15,3.84,3.84,0,0,1-4.13-4,4,4,0,0,1,4.25-4A3.9,3.9,0,0,1,427,604.62Z"/><path class="cls-4" d="M494.93,605.06a3.82,3.82,0,0,1,4.24-3.81,4,4,0,0,1,4,3.7c.06,2.15-2.39,4.35-4.62,4.16A3.91,3.91,0,0,1,494.93,605.06Z"/><path class="cls-4" d="M464.81,585.91a4.11,4.11,0,0,1-3.55,4.14A3.89,3.89,0,0,1,457,586.7a4.15,4.15,0,0,1,3.71-4.45A4.25,4.25,0,0,1,464.81,585.91Z"/><path class="cls-4" d="M81.06,620a4.34,4.34,0,0,1,3.77,4.52,3.63,3.63,0,0,1-3.8,3.34,4,4,0,0,1-4-4.14A4.28,4.28,0,0,1,81.06,620Z"/><path class="cls-4" d="M464.8,624a4.42,4.42,0,0,1-4.05,3.75,4.14,4.14,0,0,1-3.74-4.42,4,4,0,0,1,4.21-3.44A4.05,4.05,0,0,1,464.8,624Z"/><path class="cls-4" d="M65.59,623.89a3.75,3.75,0,1,1-3.65-4A3.87,3.87,0,0,1,65.59,623.89Z"/><path class="cls-4" d="M308.86,646.36a3.44,3.44,0,0,1-3.53-3.42,3.88,3.88,0,0,1,3.25-4.29,4.31,4.31,0,0,1,4.21,4A4,4,0,0,1,308.86,646.36Z"/><path class="cls-4" d="M274.3,642.75c-.36,2-1.37,3.1-3.45,3.09s-3.23-1.17-3.22-3.13,1.31-3.11,3.29-3.14S273.79,641.07,274.3,642.75Z"/><path class="cls-4" d="M4.63,583.87a2.23,2.23,0,0,1,2.26,2.31A1.8,1.8,0,0,1,5,588.23,2.07,2.07,0,0,1,2.65,586C2.62,584.86,3.44,584.15,4.63,583.87Z"/><path class="cls-4" d="M292.07,510.77a2.16,2.16,0,0,1-2.19,2,1.91,1.91,0,0,1-2.1-2,2.13,2.13,0,0,1,2.42-2.19C291.47,508.7,292,509.59,292.07,510.77Z"/><path class="cls-4" d="M42.84,583.7c1.42.31,2.18,1.08,2.14,2.22a2.13,2.13,0,0,1-2.42,2.1,1.92,1.92,0,0,1-1.88-2.12A2.32,2.32,0,0,1,42.84,583.7Z"/><path class="cls-4" d="M555.06,649a6.19,6.19,0,0,1-6.4-6,6.4,6.4,0,1,1,12.8,0A6.35,6.35,0,0,1,555.06,649Z"/><path class="cls-4" d="M560.61,624.12c-.09,3.32-2.13,5.13-5.72,5.1s-5.53-2-5.47-5.32a5.6,5.6,0,1,1,11.19.22Z"/><path class="cls-4" d="M554.9,610.68a5.62,5.62,0,0,1,0-11.24,5.62,5.62,0,1,1,0,11.24Z"/><path class="cls-4" d="M555,590.17c-2.62,0-3.89-1.38-3.81-4.11a3.78,3.78,0,0,1,4.11-4,4.22,4.22,0,0,1,4.08,4.21A4.13,4.13,0,0,1,555,590.17Z"/></g></g><g class="cls-5"><path class="cls-6" d="M1072.27,487.67c4.48-.06,7.92,3.69,8.19,8.55a20.53,20.53,0,0,0,1.33,6.9c1.73,4.05,5.23,6.11,9.5,6.91,4.6.86,7.31,3.7,7.46,7.83s-2.54,7.24-7,8.25c-3.18.71-6.11,1.8-8.37,4.29a11.14,11.14,0,0,0-3,8.15,11.44,11.44,0,0,1-2.77,8c-2.65,3.17-2.6,6.41-.07,9.75,3.81,5,3.81,7.46,0,12.51-2.63,3.52-2.57,6.44.32,10.12,1.77,2.25,3,4.62,2.23,7.59a8,8,0,0,1-7,6.31,7.76,7.76,0,0,1-7.83-3.66,8.08,8.08,0,0,1,.33-9.22c.38-.54.84-1,1.24-1.57a7.47,7.47,0,0,0-.13-9.64c-3.76-4.77-3.77-7.52-.06-12.31,2.68-3.46,2.67-6.56-.16-10.12-1.62-2-2.89-4.16-2.47-6.89a7.91,7.91,0,0,1,6.94-7.09c5.08-.88,9.16-3.32,10.56-8.38,1.54-5.53,1.82-11.19-2.47-16a13.86,13.86,0,0,0-8.17-4.16c-5-1-7.66-5-6.63-9.83A8.13,8.13,0,0,1,1072.27,487.67Z"/><path class="cls-6" d="M990.89,452c0-4.79,3.06-8.61,7.23-8.84a9.22,9.22,0,0,1,5.46,1.95c3.21,2.39,5.84,2.31,8.94-.27,2.92-2.42,6.38-2.14,9.5.06,4.3,3,4.32,3,8.75-.08a7.74,7.74,0,0,1,10.2.65,8.06,8.06,0,0,1,1.12,10.22,6.88,6.88,0,0,1-8.46,3.1,25.55,25.55,0,0,1-4.56-2.28,5.09,5.09,0,0,0-6,.28c-4.94,3.46-6.93,3.41-11.84,0-2.63-1.83-4.06-1.78-7,.48s-5.91,2.7-9.16,1A7.07,7.07,0,0,1,990.89,452Z"/><path class="cls-6" d="M980.59,503.88c-6,.44-10-6.27-7.6-11,.3-.6.52-1.23.85-1.81a11.86,11.86,0,0,0-.13-12.86,8.11,8.11,0,0,1-.82-7.66c1.89-4.51,6.52-6.27,11.09-4.25a7.79,7.79,0,0,1,3.59,10.77c-3,5.35-2.82,10.24.18,15.53C990.59,497.61,986.41,503.87,980.59,503.88Z"/><path class="cls-6" d="M1154,495.81a19.74,19.74,0,0,1-1.38,4.14c-2.9,4.75-2.68,9.29,0,14.1a8.08,8.08,0,1,1-14.25.5,29.64,29.64,0,0,0,2.16-4.87c.92-3.41,0-6.56-1.76-9.59a7.94,7.94,0,0,1,1.2-10,8.06,8.06,0,0,1,9.67-1.3A8.44,8.44,0,0,1,1154,495.81Z"/><path class="cls-6" d="M1062.18,451.54a30,30,0,0,1-1.76,4.73c-2.54,4.52-2.3,8.8.37,13.19a7.92,7.92,0,0,1-1.61,10.3,8.31,8.31,0,0,1-10.3.26,7.51,7.51,0,0,1-2.14-10c3-5.14,3.08-10,0-15.09a7.2,7.2,0,0,1,1.16-9,8,8,0,0,1,9.15-2A8.47,8.47,0,0,1,1062.18,451.54Z"/><path class="cls-6" d="M943.66,548.41a7.4,7.4,0,0,1-7-4.21c-1.47-2.85-1.6-5.69.36-8.41.18-.24.35-.49.53-.72,3.64-4.67,3.64-6.8,0-11.7a8.33,8.33,0,0,1-1.69-7.33,7.52,7.52,0,0,1,6.3-5.88c3.3-.58,6.24.31,8.16,3.3a7.81,7.81,0,0,1,.29,8.82c-.38.63-.86,1.2-1.3,1.8-2.89,4-2.91,6.59.19,10.47,2.06,2.58,3,5.3,1.82,8.49A7.7,7.7,0,0,1,943.66,548.41Z"/><path class="cls-6" d="M962,592.81a7.43,7.43,0,0,1-7.06-4.2,7.77,7.77,0,0,1,.48-8.43c.26-.37.56-.7.83-1,3.21-4.21,3.25-6.62,0-10.8-1.75-2.28-2.87-4.69-2.08-7.63a7.84,7.84,0,0,1,6.62-6.12,7.5,7.5,0,0,1,7.93,3.37c2,2.91,2.28,6.36,0,9-4.1,4.8-3.87,9,.1,13.64,2.12,2.5,1.72,5.57.12,8.38A7.37,7.37,0,0,1,962,592.81Z"/><path class="cls-6" d="M972,540.08c.77-1.71,1.28-3.61,2.37-5.09,3.36-4.57,3.46-6.88,0-11.54-2.15-2.86-2.76-5.94-1.07-9.17A7.68,7.68,0,0,1,981,510a8.11,8.11,0,0,1,6.6,11.93,11.89,11.89,0,0,1-.74,1.11c-3.93,5.33-3.94,7-.07,12.22a7.9,7.9,0,0,1,1.51,6.92,8.07,8.07,0,0,1-9,6.15C975.18,547.8,972.43,544.52,972,540.08Z"/><path class="cls-6" d="M1044,473.64a27.34,27.34,0,0,1-2.19,5c-3.83,5.48-3.9,6.7.11,12.24a7.93,7.93,0,0,1,.74,8.79c-1.5,3-4,4.24-7.25,4.25a7.35,7.35,0,0,1-7-4.26,7.66,7.66,0,0,1,.49-8.41c.63-.92,1.43-1.72,2-2.66,1.7-2.79,1.43-5.91-.8-8.7-1.52-1.9-2.71-3.88-2.67-6.42a8,8,0,0,1,8.22-7.92C1040.05,465.55,1043.51,469,1044,473.64Z"/><path class="cls-6" d="M988.91,607.27a29.58,29.58,0,0,1-2.27,4.94c-3.68,5.23-3.75,6.85,0,11.88A8.13,8.13,0,0,1,975,635.33a8.26,8.26,0,0,1-.8-11.29c3.56-4.73,3.54-6.33.39-11.36-1.54-2.47-3.09-5-1.85-8.25a8.24,8.24,0,0,1,8.7-5.48A8.82,8.82,0,0,1,988.91,607.27Z"/><path class="cls-6" d="M1061.82,629.43a7.93,7.93,0,0,1-11.54,7.08,11.43,11.43,0,0,1-1.68-1.08c-3.39-2.51-4.3-2.34-7.95,0a11.58,11.58,0,0,1-5.94,1.84,7.22,7.22,0,0,1-6.92-5.89c-.85-3.49.21-6.66,2.83-8.52a7.91,7.91,0,0,1,9.55-.07c.43.29.83.62,1.26.92,2.69,1.92,4,1.94,6.6-.09,2.21-1.69,4.51-2.82,7.4-2.15A7.9,7.9,0,0,1,1061.82,629.43Z"/><path class="cls-6" d="M1046.12,517.35c-.1-3.06,1.56-5,4.05-6.4s5-1.17,7.6.21a25.73,25.73,0,0,0,6.3,2.45,4.65,4.65,0,0,0,3.38-1.07c4-3.18,7.37-3.33,10.48-.22a8,8,0,0,1-10.31,12.23c-.43-.29-.81-.65-1.21-1-2.44-2-4.63-2.1-7,.09-2.83,2.66-6,2.85-9.28,1.48S1046.25,520.59,1046.12,517.35Z"/><path class="cls-6" d="M1153.65,540.45a7.73,7.73,0,0,1-4.42,6.93,7.55,7.55,0,0,1-8.21-.63c-4.43-3.21-4.43-3.21-8.91-.11a8.2,8.2,0,0,1-9.22.27,8,8,0,0,1-3.28-8.19c.71-3.2,3.4-6,6.77-6.15a11.9,11.9,0,0,1,6,1.7c3.85,2.2,5,2.3,8.57-.38a7.28,7.28,0,0,1,8.17-.63A7.84,7.84,0,0,1,1153.65,540.45Z"/><path class="cls-6" d="M1153.7,607.06a8.07,8.07,0,0,1-8,8.17,8.26,8.26,0,0,1-8.13-8.33,8.15,8.15,0,0,1,8.17-8A8,8,0,0,1,1153.7,607.06Z"/><path class="cls-6" d="M1135.42,607a8.26,8.26,0,0,1-8,8.21,8.12,8.12,0,0,1-8.11-8.3,8,8,0,0,1,7.87-8A8.14,8.14,0,0,1,1135.42,607Z"/><path class="cls-6" d="M1135.42,451.35a8.23,8.23,0,0,1-8,8.2,8.17,8.17,0,1,1,8-8.2Z"/><path class="cls-6" d="M1009.12,607.15a8,8,0,0,1,8.08-8.27,8.14,8.14,0,0,1,8,8.15,8.26,8.26,0,0,1-8,8.2A8.12,8.12,0,0,1,1009.12,607.15Z"/><path class="cls-6" d="M1098.69,451.37a8.12,8.12,0,1,1-8-8.15A8.2,8.2,0,0,1,1098.69,451.37Z"/><path class="cls-6" d="M1100.92,451.45a8,8,0,0,1,7.91-8.22,8.15,8.15,0,0,1,.15,16.3A8,8,0,0,1,1100.92,451.45Z"/><path class="cls-6" d="M1100.92,606.89a8.06,8.06,0,0,1,8.13-8,8.15,8.15,0,0,1,8,8.41,8.31,8.31,0,0,1-8.07,7.94A8.09,8.09,0,0,1,1100.92,606.89Z"/><path class="cls-6" d="M962,526.18a8.22,8.22,0,0,1-8.15-8,8.08,8.08,0,0,1,8.26-8.11,8.07,8.07,0,0,1-.11,16.13Z"/><path class="cls-6" d="M935.6,607a8.18,8.18,0,0,1,8.08-8.13,8.37,8.37,0,0,1,8.2,8.07,8.47,8.47,0,0,1-8.26,8.28A8.25,8.25,0,0,1,935.6,607Z"/><path class="cls-6" d="M970.11,607.12a8.2,8.2,0,0,1-8.1,8.11,8.41,8.41,0,0,1-8.13-8.16,8.31,8.31,0,0,1,8.29-8.19A8.1,8.1,0,0,1,970.11,607.12Z"/><path class="cls-6" d="M1053.79,570.63a8.1,8.1,0,0,1-8.09-8.07,8.28,8.28,0,0,1,8.33-8.14,8.19,8.19,0,0,1,7.94,8.26A8,8,0,0,1,1053.79,570.63Z"/><path class="cls-6" d="M970.11,629.32a8.08,8.08,0,0,1-8.05,8.09,8.29,8.29,0,0,1-8.17-8.28,8.19,8.19,0,0,1,8.25-8A8,8,0,0,1,970.11,629.32Z"/><path class="cls-6" d="M943.74,592.81a7.84,7.84,0,0,1-8.14-7.92,8.11,8.11,0,1,1,16.22-.09A8,8,0,0,1,943.74,592.81Z"/><path class="cls-6" d="M1090.57,621.18a8,8,0,0,1,8.12,8,8.11,8.11,0,1,1-8.12-8Z"/><path class="cls-6" d="M1135.42,584.75a7.86,7.86,0,0,1-8,8.06,7.76,7.76,0,0,1-8.14-8.11,8.1,8.1,0,0,1,8.06-8.1A8.26,8.26,0,0,1,1135.42,584.75Z"/><path class="cls-6" d="M962.17,659.55a8.09,8.09,0,0,1-8.29-8.08,8.21,8.21,0,0,1,8.15-8.06,8.07,8.07,0,0,1,.14,16.14Z"/><path class="cls-6" d="M962.12,459.55a8.17,8.17,0,1,1,0-16.33,8.17,8.17,0,0,1,0,16.33Z"/><path class="cls-6" d="M1098.69,473.67a8.12,8.12,0,0,1-16.23,0,8.21,8.21,0,0,1,8.26-8.16A8.13,8.13,0,0,1,1098.69,473.67Z"/><path class="cls-6" d="M998.94,621.18a7.9,7.9,0,0,1,7.87,8.21,8,8,0,0,1-8.11,8,8.12,8.12,0,1,1,.24-16.23Z"/><path class="cls-6" d="M1072.12,481.68a8,8,0,0,1-7.95-8.16,8.11,8.11,0,0,1,8.09-8.06,8.3,8.3,0,0,1,8.14,8.1A8.13,8.13,0,0,1,1072.12,481.68Z"/><path class="cls-6" d="M943.42,503.87a7.88,7.88,0,0,1-7.81-8.27,8.11,8.11,0,0,1,8.25-7.92,8.3,8.3,0,0,1,8,8.48A8,8,0,0,1,943.42,503.87Z"/><path class="cls-6" d="M1009.12,562.52a8,8,0,0,1,8-8.11,8.13,8.13,0,0,1,8.12,8.28,8,8,0,0,1-8.18,7.94A7.87,7.87,0,0,1,1009.12,562.52Z"/><path class="cls-6" d="M1009.12,629.1a7.91,7.91,0,0,1,8.14-7.92,8,8,0,0,1,8,8.16,8.18,8.18,0,0,1-8.11,8.07A8,8,0,0,1,1009.12,629.1Z"/><path class="cls-6" d="M1072.16,443.22a8.16,8.16,0,1,1-8.09,8.17A8.32,8.32,0,0,1,1072.16,443.22Z"/><path class="cls-6" d="M951.82,562.53a8.08,8.08,0,0,1-8,8.1,8,8,0,0,1-8.19-7.94,8.11,8.11,0,1,1,16.22-.16Z"/><path class="cls-6" d="M943.66,659.55a8.07,8.07,0,0,1,0-16.13,8.1,8.1,0,0,1,8.18,8.19A8,8,0,0,1,943.66,659.55Z"/><path class="cls-6" d="M961.9,503.87a8,8,0,0,1-8-8.12,8.3,8.3,0,0,1,8.4-8.07A8.1,8.1,0,0,1,970.1,496,7.83,7.83,0,0,1,961.9,503.87Z"/><path class="cls-6" d="M1100.92,629.25a7.92,7.92,0,0,1,8-8.07,8,8,0,0,1,8.12,8,8.14,8.14,0,0,1-8.17,8.23A8,8,0,0,1,1100.92,629.25Z"/><path class="cls-6" d="M1053.79,548.4a8.21,8.21,0,0,1-8.09-8.1,8.12,8.12,0,0,1,8.35-8,8,8,0,0,1,7.93,8.18A8.09,8.09,0,0,1,1053.79,548.4Z"/><path class="cls-6" d="M1090.53,548.4a8.07,8.07,0,1,1,8.21-7.95A8.11,8.11,0,0,1,1090.53,548.4Z"/><path class="cls-6" d="M998.81,503.87a8,8,0,0,1-8.2-7.94,8.35,8.35,0,0,1,8.22-8.25,8.05,8.05,0,0,1,8,8.16A7.75,7.75,0,0,1,998.81,503.87Z"/><path class="cls-6" d="M1027.41,584.76a8.25,8.25,0,0,1,8-8.14,8.07,8.07,0,0,1,8.07,8.29,7.73,7.73,0,0,1-8.1,7.9A7.9,7.9,0,0,1,1027.41,584.76Z"/><path class="cls-6" d="M972.46,562.59a7.86,7.86,0,0,1,7.88-8.17,8.27,8.27,0,0,1,8.24,8.21,8.13,8.13,0,0,1-8.16,8A7.75,7.75,0,0,1,972.46,562.59Z"/><path class="cls-6" d="M998.85,659.55a8.08,8.08,0,0,1-8.24-7.9,8.23,8.23,0,0,1,8.18-8.24,7.91,7.91,0,0,1,8,8.06A7.79,7.79,0,0,1,998.85,659.55Z"/><path class="cls-6" d="M1006.81,473.71a7.93,7.93,0,0,1-8.11,8,8.11,8.11,0,1,1,.23-16.22A8,8,0,0,1,1006.81,473.71Z"/><path class="cls-6" d="M1053.81,659.55a8.1,8.1,0,0,1-8.11-8,8.19,8.19,0,0,1,8.32-8.08,8.1,8.1,0,0,1,8,8.19A8,8,0,0,1,1053.81,659.55Z"/><path class="cls-6" d="M1035.57,548.4a8.07,8.07,0,1,1,0-16.13,8.07,8.07,0,0,1,0,16.13Z"/><path class="cls-6" d="M970.11,473.77a7.93,7.93,0,0,1-8.18,7.91,8.14,8.14,0,0,1-8-8.14,8.33,8.33,0,0,1,8.16-8.08A8.13,8.13,0,0,1,970.11,473.77Z"/><path class="cls-6" d="M972.46,651.34a7.78,7.78,0,0,1,8.09-7.92,8.19,8.19,0,0,1,8,8.15,8.05,8.05,0,0,1-8.38,8C975.57,659.48,972.42,656.14,972.46,651.34Z"/><path class="cls-6" d="M1035.47,659.55a7.93,7.93,0,0,1-8.06-8,8,8,0,0,1,8.22-8.12,7.9,7.9,0,0,1,7.9,8.17A7.8,7.8,0,0,1,1035.47,659.55Z"/><path class="cls-6" d="M1100.92,495.86a8.09,8.09,0,0,1,7.95-8.19,8.2,8.2,0,0,1,8.18,8.24,7.92,7.92,0,0,1-8.12,8A7.78,7.78,0,0,1,1100.92,495.86Z"/><path class="cls-6" d="M1009.12,473.57a8,8,0,0,1,8-8.1,8.17,8.17,0,0,1,8.12,8.06,8,8,0,0,1-8.19,8.17A7.88,7.88,0,0,1,1009.12,473.57Z"/><path class="cls-6" d="M1009.12,584.9a8.09,8.09,0,0,1,8.07-8.29,8.25,8.25,0,0,1,8,8.16,7.89,7.89,0,0,1-8,8A7.75,7.75,0,0,1,1009.12,584.9Z"/><path class="cls-6" d="M998.83,548.4a8.07,8.07,0,1,1,.19-16.13,8.07,8.07,0,0,1-.19,16.13Z"/><path class="cls-6" d="M1145.65,659.55a8,8,0,0,1-8.07-8,8.06,8.06,0,0,1,8.22-8.13,7.93,7.93,0,0,1,7.9,8.17A7.78,7.78,0,0,1,1145.65,659.55Z"/><path class="cls-6" d="M1009.12,540.22a7.84,7.84,0,0,1,8.08-7.94,8.06,8.06,0,1,1-.23,16.12A7.88,7.88,0,0,1,1009.12,540.22Z"/><path class="cls-6" d="M1135.42,562.56a8,8,0,0,1-8,8.07,7.85,7.85,0,0,1-8.09-8.19,8,8,0,0,1,8.09-8A8.19,8.19,0,0,1,1135.42,562.56Z"/><path class="cls-6" d="M1127.23,659.55a8.07,8.07,0,0,1,.1-16.14,8.1,8.1,0,0,1,8.09,8.26A8,8,0,0,1,1127.23,659.55Z"/><path class="cls-6" d="M1082.71,495.87a8,8,0,0,1,8-8.06,8.1,8.1,0,0,1,7.79,8.37,7.92,7.92,0,0,1-15.84-.31Z"/></g><rect class="cls-7" width="1152" height="648"/><g class="cls-8"><path class="cls-9" d="M144.43,581.16a51.08,51.08,0,0,1,5.68,3.13c3.26,2.33,6.47,2.61,9.48.47a4.86,4.86,0,0,0,1.41-7c-.32-.5-.71-1-1.05-1.44-2.44-3.55-2.43-6.35,0-9.86,2.67-3.84,2.66-4.52-.09-8.49-2.54-3.67-2.15-8.07,1-10.92a8,8,0,0,1,10.59-.29c3.37,2.9,4.14,7.37,1.42,11-2.42,3.21-2.33,5.88.06,9s2,6.38-.2,9.52c-2.5,3.49-2.69,5.39-.74,7.55a7.27,7.27,0,0,0,9.34,1.22,25.31,25.31,0,0,0,2.13-1.61,8.12,8.12,0,0,1,10.3,0c4.85,3.73,6.94,3.74,11.85,0a8.32,8.32,0,0,1,10-.37,8.2,8.2,0,0,1,2.85,9.34,7.78,7.78,0,0,1-8.37,5.26,9.83,9.83,0,0,1-4.55-2c-4-3.11-7.88-3.19-11.67.07a7.83,7.83,0,0,1-9.85.63c-.67-.45-1.28-1-1.94-1.49-3.09-2.26-5.9-2.29-9-.1-6,4.14-7.53,4.14-13.26,0-3-2.18-6.37-2-9.48.28a14.31,14.31,0,0,1-4.19,2.4,7.37,7.37,0,0,1-8.19-2.6,7.6,7.6,0,0,1-1.07-8.74C138.25,583.15,140.75,581.65,144.43,581.16Z"/><path class="cls-9" d="M378.29,607.72c0-4.4,3.66-7.84,8.44-8.05a20.32,20.32,0,0,0,5.48-.66c4.9-1.64,7.54-5.33,8.41-10.31a8.5,8.5,0,0,1,3.55-5.94,8,8,0,0,1,12.08,4c.46,1.25.66,2.59,1,3.87a11.77,11.77,0,0,0,11.79,9,11.91,11.91,0,0,1,8,2.75c3.23,2.7,6.41,2.67,9.75.18,5.17-3.85,7.48-3.88,12.52-.14,3.71,2.75,6.46,2.62,10.47-.49s7.89-3,11.11,0a8.09,8.09,0,0,1-9.56,12.94,27.82,27.82,0,0,1-2.51-1.84,7.43,7.43,0,0,0-9.28,0c-5.4,4-7.36,4.06-12.84,0-3.34-2.45-6.44-2.36-9.94.48-2.54,2-5.24,3.11-8.46,2a7.75,7.75,0,0,1-5.41-6.47c-.89-5.45-3.63-9.53-9.15-10.89-4.44-1.09-9-1.26-13.19,1.22-3.7,2.19-5.49,5.62-6.22,9.81a7.91,7.91,0,0,1-8.61,6.73A8.17,8.17,0,0,1,378.29,607.72Z"/><path class="cls-9" d="M99.45,581.85a8.66,8.66,0,0,1,8.5,7.35,3.53,3.53,0,0,1-.37,1.91c-.89,1.79-1.82,3.57-2.85,5.28a4.5,4.5,0,0,0,.19,5.38c3.79,5.53,3.77,7.15,0,12.6-1.64,2.39-1.51,3.84.6,6.64,2.63,3.5,2.83,6.93.58,10a8,8,0,0,1-10.34,2.33c-3.63-1.91-5-5.45-3.49-9.43a22.5,22.5,0,0,1,2-3.73,5.23,5.23,0,0,0-.27-6.4c-3.3-4.49-3.25-7,0-11.47,2-2.77,2-4.11-.16-7-1.78-2.39-2.72-4.91-1.83-7.9A7.55,7.55,0,0,1,99.45,581.85Z"/><path class="cls-9" d="M342,689.2a8.37,8.37,0,0,1-8.34-7.2,3.86,3.86,0,0,1,.31-2.12,54.16,54.16,0,0,1,2.78-5.07,4.51,4.51,0,0,0-.16-5.55c-3.79-5.35-3.74-7.11,0-12.57,1.7-2.48,1.63-3.68-.62-6.6s-3-6-1.06-9.31a8,8,0,0,1,10.41-3.27c4,1.85,5.5,5.59,3.82,9.84a29,29,0,0,1-2.1,3.92,4.83,4.83,0,0,0,.24,5.62c3.64,5.36,3.61,6.84,0,12.22-1.62,2.39-1.38,3.76.26,6.53a13.8,13.8,0,0,1,2.19,5.86C350,685.94,346.46,689.2,342,689.2Z"/><path class="cls-9" d="M763.77,581.85c4.79,0,8.61,3.06,8.84,7.22a9.2,9.2,0,0,1-2,5.46c-2.38,3.21-2.31,5.84.27,9,2.42,2.91,2.14,6.37-.06,9.5-3,4.29-3,4.32.08,8.74a7.72,7.72,0,0,1-.65,10.2,8.06,8.06,0,0,1-10.22,1.13,6.88,6.88,0,0,1-3.09-8.47,26.19,26.19,0,0,1,2.27-4.56,5.09,5.09,0,0,0-.27-6c-3.47-4.94-3.42-6.94,0-11.85,1.83-2.62,1.78-4-.48-7s-2.7-5.91-1-9.16A7.06,7.06,0,0,1,763.77,581.85Z"/><path class="cls-9" d="M144.06,618.08a35.16,35.16,0,0,1,4.57,1.57c4.69,2.3,9.14,2.91,13.86-.24,2.88-1.92,6.2-1.53,8.92.76a7.82,7.82,0,0,1,2.68,8.42,7.56,7.56,0,0,1-6.7,6,9.14,9.14,0,0,1-5.25-1.28c-4.8-2.78-9.34-2.69-14.07.17a7.9,7.9,0,0,1-9.34-.9,8.1,8.1,0,0,1-2.31-8.92A8.91,8.91,0,0,1,144.06,618.08Z"/><path class="cls-9" d="M76.78,579.39a17.7,17.7,0,0,1-3.67-1.24,13,13,0,0,0-13.92.17,7.6,7.6,0,0,1-9.47-.87,8,8,0,0,1-2.16-9.13,8.11,8.11,0,0,1,7.66-5.13,9.51,9.51,0,0,1,4.18,1.39c4.7,2.73,9.21,2.64,13.87-.18a7.83,7.83,0,0,1,9.84,1.23,8.09,8.09,0,0,1,1.45,9.46C83.17,578.06,80.67,579.21,76.78,579.39Z"/><path class="cls-9" d="M711.92,571.54c-.44-6,6.27-10,11-7.6.6.3,1.23.53,1.81.85a11.84,11.84,0,0,0,12.86-.12,8.05,8.05,0,0,1,7.66-.82c4.51,1.88,6.28,6.51,4.25,11.08a7.78,7.78,0,0,1-10.77,3.59c-5.35-3-10.24-2.82-15.53.19C718.19,581.54,711.93,577.36,711.92,571.54Z"/><path class="cls-9" d="M378.37,534.45c0-6.11,6.29-10.21,11.63-7.18s10,3,15.12,0a7.81,7.81,0,0,1,10,2.24,8.16,8.16,0,0,1-.16,10.12,7.82,7.82,0,0,1-10.07,1.94c-5-3-9.63-2.88-14.69,0A7.91,7.91,0,0,1,378.37,534.45Z"/><path class="cls-9" d="M267.22,645.56c0-6.68,5.44-10.9,10.44-8.41,6,3,11.31,3.41,17.21-.06,3-1.76,7-.16,9.11,2.65a8.08,8.08,0,0,1-8.5,12.68,32.72,32.72,0,0,1-4.54-1.8,10.86,10.86,0,0,0-11.19.72,7.78,7.78,0,0,1-8.05.58A7.57,7.57,0,0,1,267.22,645.56Z"/><path class="cls-9" d="M218.86,552.92c.12,5-5.37,10.82-11.71,7.22-5.22-3-10-3-15.09.08a7.55,7.55,0,0,1-9.52-1.74,8.1,8.1,0,0,1,8.75-13.09,10.2,10.2,0,0,1,1.79.87,11.74,11.74,0,0,0,13,0,8.37,8.37,0,0,1,7.46-.92A8,8,0,0,1,218.86,552.92Z"/><path class="cls-9" d="M341.87,617.92a30.25,30.25,0,0,1,4.95,1.76,12.14,12.14,0,0,0,13.17-.32,7.89,7.89,0,0,1,10.44,1.72,8.36,8.36,0,0,1,.2,10.14,7.6,7.6,0,0,1-10.15,2.1c-5.08-2.94-9.84-3-14.88.08a7.4,7.4,0,0,1-9.08-1.08,8.31,8.31,0,0,1-2.16-9A8.55,8.55,0,0,1,341.87,617.92Z"/><path class="cls-9" d="M764.26,653.13a31.43,31.43,0,0,1-4.73-1.75c-4.52-2.55-8.8-2.3-13.19.36a7.91,7.91,0,0,1-10.3-1.61,8.29,8.29,0,0,1-.25-10.3,7.5,7.5,0,0,1,10-2.14c5.15,2.95,10,3.09,15.09,0a7.22,7.22,0,0,1,9,1.16,8,8,0,0,1,2,9.15A8.47,8.47,0,0,1,764.26,653.13Z"/><path class="cls-9" d="M222.71,534.75c0-6.38,6.24-10.41,11.84-7.35,4.95,2.71,9.53,3,14.48,0a7.88,7.88,0,0,1,10.26,1.89,8.11,8.11,0,0,1-10.65,12c-4.62-2.73-9-2.59-13.67.06C229.43,544.52,222.71,540.83,222.71,534.75Z"/><path class="cls-9" d="M274.6,544.41c1.71.49,3.13.6,4.22,1.26,5.08,3.13,10,3,15.09,0a7.66,7.66,0,0,1,10,2.15,7.79,7.79,0,0,1-.08,10.06c-2.29,2.55-6,4.56-10.54,1.84-2.41-1.44-5-2.56-7.81-2a29.37,29.37,0,0,0-6.4,2.31,8.26,8.26,0,0,1-10.62-2.78,8.06,8.06,0,0,1,1.69-10.64A21.72,21.72,0,0,1,274.6,544.41Z"/><path class="cls-9" d="M88.41,640.67c2.6-1,5.09-1.94,7.47-3,3.66-1.7,7.44-1,9.88,1.93a8.18,8.18,0,0,1,.08,10.46,8,8,0,0,1-8.67,2.48,10.34,10.34,0,0,1-2.44-1c-4.46-2.73-8.81-2.37-13.17.29a7.61,7.61,0,0,1-8.61-.12,8.09,8.09,0,0,1-2.56-11c2.17-3.7,6.52-4.86,10.68-3C83.4,638.74,85.81,639.62,88.41,640.67Z"/><path class="cls-9" d="M2.55,534.63a7.43,7.43,0,0,1,4.2-7.07c2.83-1.48,5.69-1.6,8.41.36.54.39,1.05.83,1.58,1.24,3.32,2.6,6.34,2.6,9.8.19a17.1,17.1,0,0,1,4.65-2.48,7.54,7.54,0,0,1,8.61,3.53,8.1,8.1,0,0,1-10.13,11.69,12.9,12.9,0,0,1-2.25-1.42c-4.56-3.4-6.93-3.43-11.36,0a8.14,8.14,0,0,1-7,1.88A7.82,7.82,0,0,1,2.55,534.63Z"/><path class="cls-9" d="M667.39,534.61a7.4,7.4,0,0,1,4.21-7.05c2.85-1.47,5.69-1.59,8.41.37.24.17.49.34.72.52,4.68,3.65,6.8,3.64,11.7,0a8.37,8.37,0,0,1,7.33-1.69,7.52,7.52,0,0,1,5.88,6.3c.58,3.3-.31,6.25-3.29,8.16a7.81,7.81,0,0,1-8.83.3c-.63-.39-1.2-.87-1.8-1.3-4-2.9-6.59-2.91-10.47.19-2.58,2-5.3,3-8.49,1.81A7.69,7.69,0,0,1,667.39,534.61Z"/><path class="cls-9" d="M623,552.91a7.44,7.44,0,0,1,4.2-7.06,7.73,7.73,0,0,1,8.43.48c.37.25.7.55,1,.82,4.21,3.22,6.62,3.25,10.8.05,2.28-1.76,4.69-2.87,7.63-2.09a7.86,7.86,0,0,1,6.13,6.62,7.52,7.52,0,0,1-3.38,7.93c-2.91,2-6.36,2.29-9,.05-4.8-4.09-9-3.87-13.64.1-2.5,2.13-5.57,1.72-8.38.13A7.37,7.37,0,0,1,623,552.91Z"/><path class="cls-9" d="M675.72,563c1.71.78,3.61,1.29,5.09,2.37,4.57,3.37,6.88,3.46,11.54,0,2.86-2.14,5.94-2.76,9.17-1.07a7.68,7.68,0,0,1,4.25,7.71,8.1,8.1,0,0,1-11.93,6.6,8.92,8.92,0,0,1-1.11-.74c-5.33-3.93-7-3.93-12.22-.06a7.87,7.87,0,0,1-6.92,1.5,8.05,8.05,0,0,1-6.14-9C668,566.13,671.28,563.38,675.72,563Z"/><path class="cls-9" d="M742.16,634.93a27.31,27.31,0,0,1-5-2.18c-5.48-3.84-6.7-3.91-12.23.1a8,8,0,0,1-8.8.74c-3-1.5-4.24-4-4.25-7.25a7.33,7.33,0,0,1,4.26-7,7.66,7.66,0,0,1,8.41.48c.92.63,1.72,1.44,2.67,2,2.79,1.7,5.9,1.43,8.69-.8,1.9-1.52,3.88-2.71,6.43-2.67a8,8,0,0,1,7.91,8.22C750.25,631,746.77,634.46,742.16,634.93Z"/><path class="cls-9" d="M85.42,626.45a7.66,7.66,0,0,1-4.12,7.07c-2.67,1.49-5.76,1.73-8-.2-4.84-4.15-9.1-4.21-14-.05-3.07,2.61-8.09,1.41-10.58-1.75A8.16,8.16,0,0,1,60,619.91a18.22,18.22,0,0,0,5.62,2.86c2.45.6,4.51-.86,6.43-2.41A7.8,7.8,0,0,1,81,619.21,7.69,7.69,0,0,1,85.42,626.45Z"/><path class="cls-9" d="M10.88,563c1.71.77,3.63,1.28,5.09,2.37,4.49,3.35,7,3.44,11.55-.05,3.05-2.33,6.52-2.64,9.56-.85a8,8,0,0,1,3.79,8.17,8.11,8.11,0,0,1-12.08,5.79,12.65,12.65,0,0,1-1.27-.9c-4.61-3.52-7-3.55-11.52,0a8.16,8.16,0,0,1-13.47-6.85C3.15,566.14,6.28,563.37,10.88,563Z"/><path class="cls-9" d="M608.54,579.86a29.32,29.32,0,0,1-4.95-2.27c-5.23-3.67-6.85-3.74-11.88,0A8.12,8.12,0,0,1,580.48,566a8.23,8.23,0,0,1,11.28-.8c4.73,3.56,6.33,3.53,11.36.38,2.47-1.54,5-3.08,8.25-1.85a8.25,8.25,0,0,1,5.49,8.7A8.82,8.82,0,0,1,608.54,579.86Z"/><path class="cls-9" d="M364.46,636.12a32,32,0,0,1,5.06,2.47c4.81,3.45,6.81,3.54,11.53-.09a8.15,8.15,0,0,1,9.37-.92c3.06,1.58,4.18,4.29,4.05,7.59a8,8,0,0,1-12.1,6.47,19.61,19.61,0,0,1-1.94-1.49c-3.32-2.67-6.6-2.51-10.2,0a13.46,13.46,0,0,1-6,2.47c-4.55.42-8.21-3.46-8.18-8.06S359.74,636.51,364.46,636.12Z"/><path class="cls-9" d="M586.37,652.78a7.94,7.94,0,0,1-7.08-11.55,11.43,11.43,0,0,1,1.08-1.68c2.51-3.38,2.34-4.3,0-7.94a11.74,11.74,0,0,1-1.84-6,7.22,7.22,0,0,1,5.89-6.92c3.49-.85,6.66.21,8.52,2.83a7.93,7.93,0,0,1,.08,9.56c-.29.43-.63.83-.93,1.25-1.92,2.69-1.94,4,.09,6.6,1.69,2.21,2.82,4.51,2.15,7.4A7.91,7.91,0,0,1,586.37,652.78Z"/><path class="cls-9" d="M520,618.28a8,8,0,0,1,7.19,11.37,10,10,0,0,1-.79,1.34c-3,4.4-2.94,4.33,0,9a10.12,10.12,0,0,1,1.49,5,7.5,7.5,0,0,1-5.52,7.27c-3.64,1-7,0-9-2.73a7.92,7.92,0,0,1-.09-9.56l.13-.18c3-4.21,3-4.5,0-8.59a7.74,7.74,0,0,1-1.38-6.93A7.91,7.91,0,0,1,520,618.28Z"/><path class="cls-9" d="M408.13,634c-3,.14-5.06-1.39-6.5-3.88a6.85,6.85,0,0,1,.19-7.77c1.41-2.07,2.67-4.17,2.44-6.75a5.86,5.86,0,0,0-1.11-3c-3.2-4-3.33-7.35-.22-10.44a8,8,0,0,1,11.94,10.69c-.22.3-.48.57-.72.85-2,2.42-2,4.64.13,6.94a7.83,7.83,0,0,1,2.13,6.73C415.87,631.72,413.15,633.89,408.13,634Z"/><path class="cls-9" d="M698.45,637.07c3.06-.1,5,1.56,6.4,4s1.17,5-.21,7.61a25.66,25.66,0,0,0-2.45,6.29,4.69,4.69,0,0,0,1.07,3.39c3.18,4,3.33,7.36.22,10.47a8,8,0,0,1-12.23-10.31c.29-.43.65-.81,1-1.21,2-2.44,2.1-4.63-.09-7-2.66-2.83-2.85-6-1.48-9.28S695.21,637.2,698.45,637.07Z"/><path class="cls-9" d="M32.69,637.09c6.52,0,10.09,6.33,7.29,11.23A26.17,26.17,0,0,0,37.89,652c-.92,2.42-1.29,4.75.86,7,2.69,2.82,2.84,5.85.9,8.71a8.22,8.22,0,0,1-9.63,3.1c-3.28-1.2-5.56-4.44-5-7.81a13.4,13.4,0,0,1,2.27-5.39c1.91-2.69,2.19-4.85,0-7.17-2.68-2.82-2.81-6-1.46-9.28S30.4,637.23,32.69,637.09Z"/><path class="cls-9" d="M439.21,534.71a25,25,0,0,1-2.07,4.54c-2.85,4-2.92,4.54,0,8.61A7.91,7.91,0,0,1,430,560.65a8,8,0,0,1-6.71-6c-.73-2.4,0-4.52,1.31-6.54,2.74-4.26,2.71-5-.22-9.07a8,8,0,0,1,9.07-12.09A8.85,8.85,0,0,1,439.21,534.71Z"/><path class="cls-9" d="M63.26,553.28a8.07,8.07,0,0,1-8.36,7.78A8,8,0,0,1,47,552.82a8.15,8.15,0,0,1,8.2-8A8.3,8.3,0,0,1,63.26,553.28Z"/><path class="cls-9" d="M608.66,600.07a8,8,0,0,1,8.26,8.08,8.14,8.14,0,0,1-8.15,8,8.26,8.26,0,0,1-8.2-8A8.13,8.13,0,0,1,608.66,600.07Z"/><path class="cls-9" d="M497.72,579.18a8,8,0,0,1-8.26-7.86,8.23,8.23,0,0,1,8.17-8.27,8.35,8.35,0,0,1,8.2,8.07A8.08,8.08,0,0,1,497.72,579.18Z"/><path class="cls-9" d="M10.68,618.36a8,8,0,0,1,8,8.09,7.88,7.88,0,0,1-8,8,8.07,8.07,0,0,1-8.22-8.16A8.25,8.25,0,0,1,10.68,618.36Z"/><path class="cls-9" d="M40.94,552.78a8,8,0,0,1-7.83,8.28,8.15,8.15,0,0,1-8.43-7.74,8.38,8.38,0,0,1,8-8.48A8.15,8.15,0,0,1,40.94,552.78Z"/><path class="cls-9" d="M166.43,542.77a8.09,8.09,0,0,1-8.2-7.95,8,8,0,0,1,8.07-8.26,8.11,8.11,0,0,1,.13,16.21Z"/><path class="cls-9" d="M180.4,644.89a8.28,8.28,0,0,1,8-8.23,8.16,8.16,0,0,1,8.23,8.19,8.07,8.07,0,0,1-8.08,8.08A8.15,8.15,0,0,1,180.4,644.89Z"/><path class="cls-9" d="M333.84,608a8.12,8.12,0,1,1,16.23-.1,8.12,8.12,0,0,1-16.23.1Z"/><path class="cls-9" d="M244.93,608a8.23,8.23,0,0,1,7.95-8.27,8.32,8.32,0,0,1,8.25,8.22A8.2,8.2,0,0,1,253,616,8.05,8.05,0,0,1,244.93,608Z"/><path class="cls-9" d="M511.78,589.43a8.06,8.06,0,0,1,8.13-8,8.26,8.26,0,0,1,8.11,8.12,8.17,8.17,0,0,1-8.31,8.11A8,8,0,0,1,511.78,589.43Z"/><path class="cls-9" d="M372.2,589.53a7.9,7.9,0,0,1-8.19,8.11,8.12,8.12,0,0,1,.23-16.24A7.94,7.94,0,0,1,372.2,589.53Z"/><path class="cls-9" d="M689.62,553a8.23,8.23,0,0,1,8-8.16,8.08,8.08,0,0,1,8.1,8.26,8.07,8.07,0,0,1-16.13-.1Z"/><path class="cls-9" d="M608.8,526.56a8.17,8.17,0,0,1,8.12,8.08,8.37,8.37,0,0,1-8.07,8.2,8.48,8.48,0,0,1-8.28-8.27A8.24,8.24,0,0,1,608.8,526.56Z"/><path class="cls-9" d="M350.07,589.63a8.12,8.12,0,1,1-8.18-8.23A8.12,8.12,0,0,1,350.07,589.63Z"/><path class="cls-9" d="M180.4,534.32a8.12,8.12,0,1,1,8,8.45A8.21,8.21,0,0,1,180.4,534.32Z"/><path class="cls-9" d="M10.6,597.76a8.15,8.15,0,0,1-8.14-8,8.37,8.37,0,0,1,8.07-8.19,8.25,8.25,0,0,1,8.21,8.24A8,8,0,0,1,10.6,597.76Z"/><path class="cls-9" d="M47,589.79a8.18,8.18,0,0,1,8.19-8.24,8.35,8.35,0,0,1,8.05,8.21,8.05,8.05,0,0,1-8.14,8A7.84,7.84,0,0,1,47,589.79Z"/><path class="cls-9" d="M244.93,589.51a8,8,0,0,1,8-8.1,8.12,8.12,0,1,1-8,8.1Z"/><path class="cls-9" d="M608.68,561.06a8.19,8.19,0,0,1-8.11-8.09,8.41,8.41,0,0,1,8.16-8.14,8.31,8.31,0,0,1,8.19,8.3A8.1,8.1,0,0,1,608.68,561.06Z"/><path class="cls-9" d="M422.89,589.4a8,8,0,0,1,8.11-8,8.15,8.15,0,0,1,8,8.16,8.27,8.27,0,0,1-8.07,8.15A8.06,8.06,0,0,1,422.89,589.4Z"/><path class="cls-9" d="M645.17,644.75a8.09,8.09,0,0,1,8.08-8.09,8.14,8.14,0,1,1-.12,16.27A8,8,0,0,1,645.17,644.75Z"/><path class="cls-9" d="M586.48,561.06a8.07,8.07,0,0,1-8.09-8,8.3,8.3,0,0,1,8.29-8.17,8.2,8.2,0,0,1,7.94,8.25A8,8,0,0,1,586.48,561.06Z"/><path class="cls-9" d="M356.07,608a8.31,8.31,0,0,1,8.22-8.25,8.06,8.06,0,0,1,7.91,8.24,8,8,0,0,1-8,8.1A8.21,8.21,0,0,1,356.07,608Z"/><path class="cls-9" d="M152.22,553a8.12,8.12,0,0,1-8.07,8.1,8,8,0,0,1-8.21-7.92,8.14,8.14,0,1,1,16.28-.18Z"/><path class="cls-9" d="M144.05,542.77a8.11,8.11,0,0,1-.08-16.21,8.13,8.13,0,0,1,8.25,8.16A8.27,8.27,0,0,1,144.05,542.77Z"/><path class="cls-9" d="M623,534.69a7.84,7.84,0,0,1,7.93-8.14,8.11,8.11,0,1,1,.08,16.22A8,8,0,0,1,623,534.69Z"/><path class="cls-9" d="M63.27,534.6a8.28,8.28,0,0,1-8.05,8.17A8.09,8.09,0,0,1,47,534.58a8,8,0,0,1,8.1-8A8.15,8.15,0,0,1,63.27,534.6Z"/><path class="cls-9" d="M556.26,553.12a8.07,8.07,0,0,1,8.08-8.28,8.2,8.2,0,0,1,8,8.15,8.07,8.07,0,0,1-16.13.13Z"/><path class="cls-9" d="M756.25,553.08a8.17,8.17,0,1,1,16.33-.06,8.17,8.17,0,0,1-16.33.06Z"/><path class="cls-9" d="M497.59,542.52a8.07,8.07,0,0,1-8.09-8,8,8,0,0,1,8-8.06,8.13,8.13,0,0,1,8.28,7.9A8.26,8.26,0,0,1,497.59,542.52Z"/><path class="cls-9" d="M341.94,579.18a7.92,7.92,0,0,1-8.1-8,8.12,8.12,0,1,1,16.23,0A7.9,7.9,0,0,1,341.94,579.18Z"/><path class="cls-9" d="M453,634.4a8.2,8.2,0,0,1-8-8.19,8.11,8.11,0,1,1,8,8.19Z"/><path class="cls-9" d="M113.7,553a8.23,8.23,0,0,1,8-8.2,8.08,8.08,0,0,1,8.15,8.21,7.84,7.84,0,0,1-7.82,8A8,8,0,0,1,113.7,553Z"/><path class="cls-9" d="M594.62,589.9a7.9,7.9,0,0,1-8.21,7.86,8,8,0,0,1-8-8.1,8.12,8.12,0,1,1,16.23.24Z"/><path class="cls-9" d="M711.93,534.37a7.89,7.89,0,0,1,8.27-7.81,8.11,8.11,0,0,1,7.92,8.25,8.29,8.29,0,0,1-8.48,8A8,8,0,0,1,711.93,534.37Z"/><path class="cls-9" d="M497.55,544.68a8.41,8.41,0,0,1,8.28,8.21,8.09,8.09,0,0,1-8.25,7.92,7.93,7.93,0,0,1-8.08-8A8.13,8.13,0,0,1,497.55,544.68Z"/><path class="cls-9" d="M341.83,560.81a7.92,7.92,0,0,1-8-8.1,8.11,8.11,0,1,1,16.22.26A7.89,7.89,0,0,1,341.83,560.81Z"/><path class="cls-9" d="M653.28,600.07a8,8,0,0,1,8.11,8,8.13,8.13,0,0,1-8.28,8.11,8,8,0,0,1-7.94-8.18A7.87,7.87,0,0,1,653.28,600.07Z"/><path class="cls-9" d="M475.39,544.68a8,8,0,0,1,8,8.07,7.74,7.74,0,0,1-8,8.06,8,8,0,0,1-8.26-7.87A8.28,8.28,0,0,1,475.39,544.68Z"/><path class="cls-9" d="M586.71,600.07a7.91,7.91,0,0,1,7.91,8.15,8,8,0,0,1-8.16,8,8.16,8.16,0,0,1-8.06-8.11A8,8,0,0,1,586.71,600.07Z"/><path class="cls-9" d="M653.27,542.77a8.09,8.09,0,0,1-8.1-8,8,8,0,0,1,8-8.18,8.11,8.11,0,1,1,.15,16.21Z"/><path class="cls-9" d="M85.4,553a8.07,8.07,0,0,1-16.13.09A8.07,8.07,0,1,1,85.4,553Z"/><path class="cls-9" d="M107.62,552.91a8.07,8.07,0,0,1-16.13.27,8.07,8.07,0,1,1,16.13-.27Z"/><path class="cls-9" d="M556.26,534.61a8.07,8.07,0,0,1,16.13,0,8.12,8.12,0,0,1-8.19,8.18A8,8,0,0,1,556.26,534.61Z"/><path class="cls-9" d="M711.93,552.86a8,8,0,0,1,8.13-8,8.28,8.28,0,0,1,8.06,8.4,8.11,8.11,0,0,1-8.33,7.82A7.84,7.84,0,0,1,711.93,552.86Z"/><path class="cls-9" d="M10.6,636.66a8.26,8.26,0,0,1,8.15,8.08,8.11,8.11,0,0,1-8,8.19,8.24,8.24,0,0,1-8.3-8.15A8.38,8.38,0,0,1,10.6,636.66Z"/><path class="cls-9" d="M511.8,571.18a8,8,0,0,1,8-8.13,8.23,8.23,0,0,1,8.23,8,8,8,0,0,1-8.2,8.14A7.79,7.79,0,0,1,511.8,571.18Z"/><path class="cls-9" d="M667.4,644.74a8.21,8.21,0,0,1,8.1-8.08,8.11,8.11,0,0,1,8,8.34,8,8,0,0,1-8.18,7.94A8.09,8.09,0,0,1,667.4,644.74Z"/><path class="cls-9" d="M711.93,589.76a8.06,8.06,0,0,1,7.94-8.2,8.35,8.35,0,0,1,8.25,8.22,8,8,0,0,1-8.16,8A7.75,7.75,0,0,1,711.93,589.76Z"/><path class="cls-9" d="M631,618.36a8.25,8.25,0,0,1,8.14,8,8.07,8.07,0,0,1-8.29,8.08,7.75,7.75,0,0,1-7.9-8.11A7.91,7.91,0,0,1,631,618.36Z"/><path class="cls-9" d="M10.72,600.07a7.78,7.78,0,0,1,7.94,8.07,7.93,7.93,0,0,1-8,8.05,8.2,8.2,0,0,1-8.18-8A8.09,8.09,0,0,1,10.72,600.07Z"/><path class="cls-9" d="M653.21,563.41a7.86,7.86,0,0,1,8.17,7.88,8.26,8.26,0,0,1-8.21,8.24,8.12,8.12,0,0,1-8-8.16A7.76,7.76,0,0,1,653.21,563.41Z"/><path class="cls-9" d="M556.26,589.81a8.08,8.08,0,0,1,7.89-8.25,8.24,8.24,0,0,1,8.24,8.18,7.91,7.91,0,0,1-8.06,8A7.78,7.78,0,0,1,556.26,589.81Z"/><path class="cls-9" d="M742.09,597.76a7.92,7.92,0,0,1-8-8.11,8.11,8.11,0,1,1,16.22.23A8,8,0,0,1,742.09,597.76Z"/><path class="cls-9" d="M556.26,644.76a8.07,8.07,0,0,1,8-8.1,8.2,8.2,0,0,1,8.09,8.32,8.11,8.11,0,0,1-8.2,7.95A8,8,0,0,1,556.26,644.76Z"/><path class="cls-9" d="M453.18,544.69a8.13,8.13,0,0,1,8.08,8.08,8.12,8.12,0,0,1-16.23-.06A8.15,8.15,0,0,1,453.18,544.69Z"/><path class="cls-9" d="M422.89,626.17a7.92,7.92,0,0,1,8.06-8,8.13,8.13,0,1,1-.18,16.26A8,8,0,0,1,422.89,626.17Z"/><path class="cls-9" d="M667.4,626.52a8.07,8.07,0,1,1,16.13,0,8.07,8.07,0,0,1-16.13,0Z"/><path class="cls-9" d="M742,561.06a7.93,7.93,0,0,1-7.91-8.18,8.13,8.13,0,0,1,8.14-8,8.31,8.31,0,0,1,8.08,8.15A8.12,8.12,0,0,1,742,561.06Z"/><path class="cls-9" d="M564.46,563.41a7.79,7.79,0,0,1,7.93,8.09,8.19,8.19,0,0,1-8.16,8,8,8,0,0,1-8-8.37C556.32,566.52,559.66,563.37,564.46,563.41Z"/><path class="cls-9" d="M252.93,560.81a7.83,7.83,0,0,1-8-8,8.07,8.07,0,0,1,8-8.09,8.17,8.17,0,0,1,8.15,8A7.9,7.9,0,0,1,252.93,560.81Z"/><path class="cls-9" d="M275.27,542.52a8.18,8.18,0,0,1-8.18-8,8,8,0,0,1,8.24-8.12,8.06,8.06,0,0,1-.06,16.11Z"/><path class="cls-9" d="M556.26,626.43a7.92,7.92,0,0,1,8-8.07,8.05,8.05,0,0,1,8.12,8.22,7.91,7.91,0,0,1-8.17,7.91A7.79,7.79,0,0,1,556.26,626.43Z"/><path class="cls-9" d="M113.79,534.6a8,8,0,0,1,16.06,0,8,8,0,1,1-16.06,0Z"/><path class="cls-9" d="M534,626.27a8.12,8.12,0,0,1,8-8.12,8,8,0,0,1,8.14,8,8.1,8.1,0,1,1-16.19.13Z"/><path class="cls-9" d="M475.44,636.57a7.82,7.82,0,0,1,8,8.07,8,8,0,0,1-8,8.11,8.25,8.25,0,0,1-8.19-8.26A8.11,8.11,0,0,1,475.44,636.57Z"/><path class="cls-9" d="M218.77,534.66a7.89,7.89,0,0,1-7.94,8.11,8.09,8.09,0,0,1-8.13-8.23,8,8,0,1,1,16.07.12Z"/><path class="cls-9" d="M238.81,626.36a8.05,8.05,0,1,1-7.9-8.21A8,8,0,0,1,238.81,626.36Z"/><path class="cls-9" d="M742.23,600.07a8,8,0,0,1,8.1,8,8.16,8.16,0,0,1-8.06,8.11A8,8,0,0,1,734.1,608,7.88,7.88,0,0,1,742.23,600.07Z"/><path class="cls-9" d="M630.9,600.07a8.09,8.09,0,0,1,8.29,8.08A8.25,8.25,0,0,1,631,616.2a7.9,7.9,0,0,1-8-8A7.75,7.75,0,0,1,630.9,600.07Z"/><path class="cls-9" d="M319.69,652.69a7.93,7.93,0,0,1-8-8.06,7.84,7.84,0,0,1,8-8.06,8.06,8.06,0,1,1,0,16.12Z"/><path class="cls-9" d="M550.16,553.06a8.09,8.09,0,0,1-16.18-.43,8.17,8.17,0,0,1,8.44-7.94A8.06,8.06,0,0,1,550.16,553.06Z"/><path class="cls-9" d="M144.14,600.07a8,8,0,0,1,8.08,8,8.18,8.18,0,0,1-8.11,8.07A8.06,8.06,0,0,1,136,608,7.92,7.92,0,0,1,144.14,600.07Z"/><path class="cls-9" d="M218.77,644.81a7.86,7.86,0,0,1-7.94,8.12,8,8,0,0,1-8.13-8.23,8.12,8.12,0,0,1,8.12-8A8,8,0,0,1,218.77,644.81Z"/><path class="cls-9" d="M422.89,644.65a7.82,7.82,0,0,1,7.95-8.08,8,8,0,0,1,8.18,7.92,8.11,8.11,0,0,1-8.13,8.25A8,8,0,0,1,422.89,644.65Z"/><path class="cls-9" d="M667.4,589.78a8.07,8.07,0,1,1,16.13.2,8.07,8.07,0,0,1-16.13-.2Z"/><path class="cls-9" d="M542.12,652.69a8.08,8.08,0,0,1-8.15-8,8,8,0,0,1,8.2-8.14,8.06,8.06,0,0,1,0,16.12Z"/><path class="cls-9" d="M244.93,626.36a8.07,8.07,0,0,1,7.94-8.22,8.13,8.13,0,1,1-7.94,8.22Z"/><path class="cls-9" d="M534,534.52a8,8,0,0,1,8-8.11,8.06,8.06,0,1,1,.13,16.11A8.08,8.08,0,0,1,534,534.52Z"/><path class="cls-9" d="M675.58,600.07a7.85,7.85,0,0,1,7.95,8.09,8.07,8.07,0,1,1-16.13-.23A7.89,7.89,0,0,1,675.58,600.07Z"/><path class="cls-9" d="M122,563.41a7.67,7.67,0,0,1,7.86,8.1,8,8,0,1,1-16.08-.35C113.84,566.61,117.27,563.37,122,563.41Z"/><path class="cls-9" d="M77.28,600.07A7.85,7.85,0,0,1,85.4,608a8.07,8.07,0,1,1-16.13.12A7.86,7.86,0,0,1,77.28,600.07Z"/><path class="cls-9" d="M85.4,589.8a8.07,8.07,0,1,1-16.13-.28,8.07,8.07,0,1,1,16.13.28Z"/><path class="cls-9" d="M394.44,571.17a7.69,7.69,0,0,1-8,8,8,8,0,0,1-8.18-7.91,8.18,8.18,0,0,1,8.19-8.22A7.94,7.94,0,0,1,394.44,571.17Z"/><path class="cls-9" d="M210.73,563.41c4.75,0,8,3.23,8,7.9a8,8,0,0,1-8.09,8.22,8.1,8.1,0,0,1-8-8.17A7.75,7.75,0,0,1,210.73,563.41Z"/><path class="cls-9" d="M121.93,634.49a7.83,7.83,0,0,1-8.14-7.87,8,8,0,1,1,16.06-.23A7.79,7.79,0,0,1,121.93,634.49Z"/><path class="cls-9" d="M394.35,589.5a7.76,7.76,0,0,1-7.86,7.94,7.94,7.94,0,1,1,.24-15.87A7.69,7.69,0,0,1,394.35,589.5Z"/><path class="cls-9" d="M920.07,581.16a52,52,0,0,1,5.68,3.13c3.26,2.33,6.46,2.61,9.48.47a4.86,4.86,0,0,0,1.41-7c-.32-.5-.72-1-1-1.44-2.44-3.55-2.43-6.35,0-9.86,2.68-3.84,2.67-4.52-.08-8.49-2.54-3.67-2.16-8.07,1-10.92a8,8,0,0,1,10.59-.29c3.36,2.9,4.14,7.37,1.41,11-2.41,3.21-2.33,5.88.06,9s2.05,6.38-.19,9.52c-2.5,3.49-2.69,5.39-.74,7.55a7.27,7.27,0,0,0,9.34,1.22,25.31,25.31,0,0,0,2.13-1.61,8.12,8.12,0,0,1,10.3,0c4.84,3.73,6.94,3.74,11.85,0a8.32,8.32,0,0,1,10-.37,8.19,8.19,0,0,1,2.84,9.34,7.77,7.77,0,0,1-8.36,5.26,9.78,9.78,0,0,1-4.55-2c-4-3.11-7.88-3.19-11.68.07a7.82,7.82,0,0,1-9.84.63c-.68-.45-1.28-1-1.94-1.49-3.1-2.26-5.9-2.29-9-.1-6,4.14-7.54,4.14-13.26,0-3-2.18-6.37-2-9.48.28a14.31,14.31,0,0,1-4.19,2.4,7.39,7.39,0,0,1-8.2-2.6,7.58,7.58,0,0,1-1.06-8.74C913.89,583.15,916.39,581.65,920.07,581.16Z"/><path class="cls-9" d="M875.08,581.85a8.66,8.66,0,0,1,8.51,7.35,3.62,3.62,0,0,1-.37,1.91c-.89,1.79-1.82,3.57-2.86,5.28a4.5,4.5,0,0,0,.2,5.38c3.79,5.53,3.77,7.15.05,12.6-1.64,2.39-1.51,3.84.59,6.64,2.63,3.5,2.83,6.93.59,10a8,8,0,0,1-10.35,2.33c-3.62-1.91-5-5.45-3.48-9.43a22.5,22.5,0,0,1,2-3.73,5.23,5.23,0,0,0-.27-6.4c-3.31-4.49-3.26-7,0-11.47,2-2.77,2-4.11-.16-7-1.79-2.39-2.73-4.91-1.83-7.9A7.53,7.53,0,0,1,875.08,581.85Z"/><path class="cls-9" d="M1117.64,689.2a8.35,8.35,0,0,1-8.33-7.2,3.86,3.86,0,0,1,.31-2.12,52,52,0,0,1,2.78-5.07,4.51,4.51,0,0,0-.16-5.55c-3.79-5.35-3.75-7.11,0-12.57,1.69-2.48,1.63-3.68-.62-6.6s-2.95-6-1.06-9.31a8,8,0,0,1,10.41-3.27c4,1.85,5.5,5.59,3.82,9.84a30.17,30.17,0,0,1-2.1,3.92,4.83,4.83,0,0,0,.24,5.62c3.63,5.36,3.61,6.84,0,12.22-1.62,2.39-1.39,3.76.26,6.53a13.93,13.93,0,0,1,2.19,5.86C1125.62,685.94,1122.09,689.2,1117.64,689.2Z"/><path class="cls-9" d="M919.7,618.08a35.16,35.16,0,0,1,4.57,1.57c4.69,2.3,9.14,2.91,13.86-.24,2.87-1.92,6.19-1.53,8.92.76a7.8,7.8,0,0,1,2.67,8.42,7.55,7.55,0,0,1-6.69,6,9.14,9.14,0,0,1-5.25-1.28c-4.81-2.78-9.35-2.69-14.07.17a7.89,7.89,0,0,1-9.34-.9,8.07,8.07,0,0,1-2.31-8.92A8.91,8.91,0,0,1,919.7,618.08Z"/><path class="cls-9" d="M852.42,579.39a17.51,17.51,0,0,1-3.67-1.24,13,13,0,0,0-13.93.17,7.59,7.59,0,0,1-9.46-.87,8,8,0,0,1-2.16-9.13,8.11,8.11,0,0,1,7.66-5.13,9.51,9.51,0,0,1,4.18,1.39c4.7,2.73,9.21,2.64,13.87-.18a7.81,7.81,0,0,1,9.83,1.23,8.07,8.07,0,0,1,1.45,9.46C858.8,578.06,856.31,579.21,852.42,579.39Z"/><path class="cls-9" d="M1042.86,645.56c0-6.68,5.44-10.9,10.43-8.41,6,3,11.32,3.41,17.21-.06,3-1.76,7-.16,9.11,2.65a8.08,8.08,0,0,1-8.5,12.68,32.72,32.72,0,0,1-4.54-1.8,10.85,10.85,0,0,0-11.18.72,7.79,7.79,0,0,1-8.06.58A7.58,7.58,0,0,1,1042.86,645.56Z"/><path class="cls-9" d="M994.5,552.92c.11,5-5.37,10.82-11.72,7.22-5.21-3-10-3-15.08.08a7.55,7.55,0,0,1-9.52-1.74,8.1,8.1,0,0,1,8.74-13.09,10,10,0,0,1,1.8.87,11.74,11.74,0,0,0,13,0,8.37,8.37,0,0,1,7.46-.92A8,8,0,0,1,994.5,552.92Z"/><path class="cls-9" d="M1117.51,617.92a30.25,30.25,0,0,1,5,1.76,12.14,12.14,0,0,0,13.17-.32,7.89,7.89,0,0,1,10.44,1.72,8.36,8.36,0,0,1,.2,10.14,7.61,7.61,0,0,1-10.15,2.1c-5.09-2.94-9.85-3-14.89.08a7.41,7.41,0,0,1-9.08-1.08,8.33,8.33,0,0,1-2.15-9A8.54,8.54,0,0,1,1117.51,617.92Z"/><path class="cls-9" d="M998.34,534.75c0-6.38,6.24-10.41,11.84-7.35,5,2.71,9.53,3,14.49,0a7.88,7.88,0,0,1,10.26,1.89,8.11,8.11,0,0,1-10.65,12c-4.62-2.73-9-2.59-13.67.06C1005.07,544.52,998.35,540.83,998.34,534.75Z"/><path class="cls-9" d="M1050.24,544.41c1.71.49,3.13.6,4.21,1.26,5.08,3.13,10,3,15.09,0a7.67,7.67,0,0,1,10,2.15,7.81,7.81,0,0,1-.08,10.06c-2.29,2.55-6,4.56-10.54,1.84-2.41-1.44-5-2.56-7.81-2a29.18,29.18,0,0,0-6.4,2.31,8.26,8.26,0,0,1-10.62-2.78,8,8,0,0,1,1.69-10.64A21.47,21.47,0,0,1,1050.24,544.41Z"/><path class="cls-9" d="M864.05,640.67c2.6-1,5.08-1.94,7.47-3,3.66-1.7,7.44-1,9.88,1.93a8.19,8.19,0,0,1,.08,10.46,8,8,0,0,1-8.67,2.48,10.34,10.34,0,0,1-2.44-1c-4.47-2.73-8.82-2.37-13.17.29a7.63,7.63,0,0,1-8.62-.12,8.09,8.09,0,0,1-2.55-11c2.17-3.7,6.51-4.86,10.68-3C859,638.74,861.45,639.62,864.05,640.67Z"/><path class="cls-9" d="M778.19,534.63a7.42,7.42,0,0,1,4.2-7.07c2.82-1.48,5.69-1.6,8.41.36.54.39,1.05.83,1.58,1.24,3.32,2.6,6.34,2.6,9.79.19a17.24,17.24,0,0,1,4.65-2.48,7.55,7.55,0,0,1,8.62,3.53,8.1,8.1,0,0,1-10.13,11.69,13,13,0,0,1-2.26-1.42c-4.55-3.4-6.92-3.43-11.36,0a8.13,8.13,0,0,1-7.05,1.88A7.83,7.83,0,0,1,778.19,534.63Z"/><path class="cls-9" d="M861.06,626.45a7.66,7.66,0,0,1-4.12,7.07c-2.68,1.49-5.76,1.73-8-.2-4.85-4.15-9.1-4.21-14-.05-3.07,2.61-8.09,1.41-10.58-1.75a8.16,8.16,0,0,1,11.27-11.61,18.17,18.17,0,0,0,5.61,2.86c2.46.6,4.52-.86,6.44-2.41a7.8,7.8,0,0,1,9-1.15A7.69,7.69,0,0,1,861.06,626.45Z"/><path class="cls-9" d="M786.52,563c1.71.77,3.62,1.28,5.09,2.37,4.48,3.35,7,3.44,11.55-.05,3.05-2.33,6.52-2.64,9.56-.85a8,8,0,0,1,3.79,8.17,8.12,8.12,0,0,1-12.09,5.79,13.76,13.76,0,0,1-1.26-.9c-4.62-3.52-7-3.55-11.53,0a8.15,8.15,0,0,1-13.46-6.85C778.78,566.14,781.92,563.37,786.52,563Z"/><path class="cls-9" d="M1140.09,636.12a32.16,32.16,0,0,1,5.07,2.47c4.81,3.45,6.81,3.54,11.53-.09a8.15,8.15,0,0,1,9.37-.92c3,1.58,4.17,4.29,4,7.59a8,8,0,0,1-12.1,6.47,18.5,18.5,0,0,1-1.94-1.49c-3.32-2.67-6.61-2.51-10.2,0a13.45,13.45,0,0,1-6,2.47c-4.54.42-8.2-3.46-8.17-8.06S1135.37,636.51,1140.09,636.12Z"/><path class="cls-9" d="M808.33,637.09c6.51,0,10.09,6.33,7.28,11.23a28.34,28.34,0,0,0-2.09,3.65c-.91,2.42-1.28,4.75.87,7,2.69,2.82,2.83,5.85.89,8.71a8.22,8.22,0,0,1-9.63,3.1c-3.27-1.2-5.55-4.44-5-7.81a13.38,13.38,0,0,1,2.26-5.39c1.91-2.69,2.2-4.85,0-7.17-2.67-2.82-2.8-6-1.45-9.28S806,637.23,808.33,637.09Z"/><path class="cls-9" d="M838.9,553.28a8.07,8.07,0,0,1-8.36,7.78,8,8,0,0,1-7.87-8.24,8.17,8.17,0,0,1,8.21-8A8.3,8.3,0,0,1,838.9,553.28Z"/><path class="cls-9" d="M786.32,618.36a8,8,0,0,1,8,8.09,7.88,7.88,0,0,1-8,8,8.06,8.06,0,0,1-8.22-8.16A8.25,8.25,0,0,1,786.32,618.36Z"/><path class="cls-9" d="M816.58,552.78a8,8,0,0,1-7.83,8.28,8.16,8.16,0,0,1-8.44-7.74,8.4,8.4,0,0,1,8-8.48A8.16,8.16,0,0,1,816.58,552.78Z"/><path class="cls-9" d="M942.07,542.77a8.1,8.1,0,0,1-8.21-7.95,8,8,0,0,1,8.08-8.26,8.16,8.16,0,0,1,8.15,8A8.24,8.24,0,0,1,942.07,542.77Z"/><path class="cls-9" d="M956,644.89a8.3,8.3,0,0,1,8-8.23,8.17,8.17,0,0,1,8.23,8.19,8.07,8.07,0,0,1-8.09,8.08A8.16,8.16,0,0,1,956,644.89Z"/><path class="cls-9" d="M1109.47,608a8.12,8.12,0,1,1,16.23-.1,8.12,8.12,0,0,1-16.23.1Z"/><path class="cls-9" d="M1020.57,608a8.21,8.21,0,0,1,7.94-8.27,8.32,8.32,0,0,1,8.26,8.22,8.2,8.2,0,0,1-8.1,8.11A8.05,8.05,0,0,1,1020.57,608Z"/><path class="cls-9" d="M1147.84,589.53a7.9,7.9,0,0,1-8.19,8.11,8.12,8.12,0,0,1,.23-16.24A7.94,7.94,0,0,1,1147.84,589.53Z"/><path class="cls-9" d="M1125.7,589.63a8.12,8.12,0,0,1-16.23-.09,8.12,8.12,0,1,1,16.23.09Z"/><path class="cls-9" d="M956,534.32a8.08,8.08,0,0,1,8.39-7.75,8,8,0,0,1,7.83,8.31,8.11,8.11,0,0,1-8.27,7.89A8.2,8.2,0,0,1,956,534.32Z"/><path class="cls-9" d="M786.24,597.76a8.16,8.16,0,0,1-8.15-8,8.38,8.38,0,0,1,8.08-8.19,8.26,8.26,0,0,1,8.21,8.24A8,8,0,0,1,786.24,597.76Z"/><path class="cls-9" d="M822.67,589.79a8.17,8.17,0,0,1,8.18-8.24,8.34,8.34,0,0,1,8,8.21,8,8,0,0,1-8.14,8A7.83,7.83,0,0,1,822.67,589.79Z"/><path class="cls-9" d="M1020.57,589.51a8,8,0,0,1,8-8.1,8.12,8.12,0,1,1,0,16.23A8.06,8.06,0,0,1,1020.57,589.51Z"/><path class="cls-9" d="M1131.71,608a8.31,8.31,0,0,1,8.22-8.25,8.07,8.07,0,0,1,7.91,8.24,8,8,0,0,1-8,8.1A8.2,8.2,0,0,1,1131.71,608Z"/><path class="cls-9" d="M927.85,553a8.11,8.11,0,0,1-8.06,8.1,8,8,0,0,1-8.21-7.92,8.14,8.14,0,1,1,16.27-.18Z"/><path class="cls-9" d="M919.69,542.77a8.11,8.11,0,0,1-.08-16.21,8.12,8.12,0,0,1,8.24,8.16A8.26,8.26,0,0,1,919.69,542.77Z"/><path class="cls-9" d="M838.9,534.6a8.27,8.27,0,0,1-8,8.17,8.1,8.1,0,0,1-8.19-8.19,8,8,0,0,1,8.11-8A8.14,8.14,0,0,1,838.9,534.6Z"/><path class="cls-9" d="M1117.58,579.18a7.94,7.94,0,0,1-8.11-8,8.12,8.12,0,1,1,16.23,0A7.89,7.89,0,0,1,1117.58,579.18Z"/><path class="cls-9" d="M889.34,553a8.22,8.22,0,0,1,8-8.2,8.08,8.08,0,0,1,8.16,8.21,7.84,7.84,0,0,1-7.82,8A8,8,0,0,1,889.34,553Z"/><path class="cls-9" d="M1117.47,560.81a7.93,7.93,0,0,1-8-8.1,8.12,8.12,0,1,1,16.23.26A7.89,7.89,0,0,1,1117.47,560.81Z"/><path class="cls-9" d="M861,553a8.07,8.07,0,0,1-16.13.09A8.07,8.07,0,1,1,861,553Z"/><path class="cls-9" d="M883.25,552.91a8.06,8.06,0,0,1-16.12.27,8.06,8.06,0,1,1,16.12-.27Z"/><path class="cls-9" d="M786.24,636.66a8.25,8.25,0,0,1,8.14,8.08,8.09,8.09,0,0,1-8,8.19,8.23,8.23,0,0,1-8.3-8.15A8.37,8.37,0,0,1,786.24,636.66Z"/><path class="cls-9" d="M786.36,600.07a7.78,7.78,0,0,1,7.94,8.07,7.94,7.94,0,0,1-8,8.05,8.21,8.21,0,0,1-8.19-8A8.1,8.1,0,0,1,786.36,600.07Z"/><path class="cls-9" d="M1028.57,560.81a7.83,7.83,0,0,1-8-8,8.07,8.07,0,0,1,8-8.09,8.18,8.18,0,0,1,8.15,8A7.9,7.9,0,0,1,1028.57,560.81Z"/><path class="cls-9" d="M1050.91,542.52a8.17,8.17,0,0,1-8.18-8,8,8,0,0,1,8.23-8.12,8.06,8.06,0,0,1,0,16.11Z"/><path class="cls-9" d="M889.42,534.6a8,8,0,0,1,16.07,0,8,8,0,1,1-16.07,0Z"/><path class="cls-9" d="M994.4,534.66a7.88,7.88,0,0,1-7.93,8.11,8.09,8.09,0,0,1-8.13-8.23,8,8,0,1,1,16.06.12Z"/><path class="cls-9" d="M1014.45,626.36a8.06,8.06,0,1,1-7.9-8.21A8,8,0,0,1,1014.45,626.36Z"/><path class="cls-9" d="M1095.33,652.69a7.93,7.93,0,0,1-8-8.06,7.85,7.85,0,0,1,8-8.06,8.06,8.06,0,1,1,0,16.12Z"/><path class="cls-9" d="M919.78,600.07a8,8,0,0,1,8.07,8,8.17,8.17,0,0,1-8.11,8.07,8.07,8.07,0,0,1-8.16-8.22A7.93,7.93,0,0,1,919.78,600.07Z"/><path class="cls-9" d="M994.4,644.81a7.86,7.86,0,0,1-7.94,8.12,8,8,0,0,1-8.12-8.23,8.11,8.11,0,0,1,8.11-8A8,8,0,0,1,994.4,644.81Z"/><path class="cls-9" d="M1020.57,626.36a8.06,8.06,0,0,1,7.93-8.22,8.13,8.13,0,1,1,.19,16.26A8.09,8.09,0,0,1,1020.57,626.36Z"/><path class="cls-9" d="M897.63,563.41a7.67,7.67,0,0,1,7.86,8.1,8,8,0,1,1-16.08-.35C889.47,566.61,892.91,563.37,897.63,563.41Z"/><path class="cls-9" d="M852.92,600.07A7.86,7.86,0,0,1,861,608a8.07,8.07,0,1,1-16.13.12A7.86,7.86,0,0,1,852.92,600.07Z"/><path class="cls-9" d="M861,589.8a8.07,8.07,0,1,1-16.13-.28,8.07,8.07,0,1,1,16.13.28Z"/><path class="cls-9" d="M986.37,563.41c4.74,0,8,3.23,8,7.9a8,8,0,0,1-8.09,8.22,8.09,8.09,0,0,1-8-8.17A7.75,7.75,0,0,1,986.37,563.41Z"/><path class="cls-9" d="M897.57,634.49a7.84,7.84,0,0,1-8.15-7.87,8,8,0,1,1,16.07-.23A7.8,7.8,0,0,1,897.57,634.49Z"/></g></svg>