<svg id="Layer_1" data-name="Layer 1" xmlns="http://www.w3.org/2000/svg" xmlns:xlink="http://www.w3.org/1999/xlink" viewBox="0 0 1152 648"><defs><style>.cls-1{fill:none;}.cls-2{fill:#111c26;}.cls-3{clip-path:url(#clip-path);}.cls-4{opacity:0.7;}.cls-5{fill:#2e7aa8;}</style><clipPath id="clip-path"><rect class="cls-1" width="1152" height="648"/></clipPath></defs><rect class="cls-2" width="1152" height="648"/><g class="cls-3"><g class="cls-4"><path class="cls-5" d="M24.79,635.63a7,7,0,0,1,7.12,7.42,7.39,7.39,0,0,1-7.07,7.19c-3.58.15-7.63-3.79-7.59-7.38A7.51,7.51,0,0,1,24.79,635.63Z"/><path class="cls-5" d="M661.15,642.61a7.1,7.1,0,0,1,7.56-7,7.23,7.23,0,0,1,7,7.2c-.07,3.85-3.79,7.57-7.46,7.44A7.5,7.5,0,0,1,661.15,642.61Z"/><path class="cls-5" d="M88.57,642.89a6.9,6.9,0,0,1-13.78.16,6.9,6.9,0,1,1,13.78-.16Z"/><path class="cls-5" d="M656.44,642.61a7,7,0,0,1-7.28,6.81,6.89,6.89,0,0,1,.12-13.77A7.14,7.14,0,0,1,656.44,642.61Z"/><path class="cls-5" d="M675.21,473c.06,4.06-2.45,6.7-6.47,6.81a7,7,0,0,1-7.4-6.62c-.07-3.24,3.44-7,6.71-7.1A7,7,0,0,1,675.21,473Z"/><path class="cls-5" d="M846.24,586.17a6.55,6.55,0,0,1-6.64,6.77,7,7,0,0,1-7.22-6.82,7.26,7.26,0,0,1,6.75-6.91A7.09,7.09,0,0,1,846.24,586.17Z"/><path class="cls-5" d="M820.33,536.48c-4.13,0-6.81-2.86-6.7-7.09a6.91,6.91,0,0,1,6.88-6.65,6.87,6.87,0,1,1-.18,13.74Z"/><path class="cls-5" d="M50.52,548.62a7,7,0,0,1-6.79,6.78,6.87,6.87,0,0,1-6.95-7.09,7.35,7.35,0,0,1,7.3-6.82A6.92,6.92,0,0,1,50.52,548.62Z"/><path class="cls-5" d="M808.14,605.11a6.82,6.82,0,0,1-7,6.94,7.38,7.38,0,0,1-6.75-6.9,6.89,6.89,0,0,1,6.74-6.72C805.43,598.31,808.09,600.85,808.14,605.11Z"/><path class="cls-5" d="M183.45,529.76a6.48,6.48,0,0,1-7.07,6.73,6.87,6.87,0,0,1-6.61-6.87,7.21,7.21,0,0,1,7.22-6.84A6.75,6.75,0,0,1,183.45,529.76Z"/><path class="cls-5" d="M257.39,623.8c.11,3.52-3.43,7-7.12,7.05a6.71,6.71,0,0,1-6.54-6.89c0-4,2.53-6.82,6.38-7A7.13,7.13,0,0,1,257.39,623.8Z"/><path class="cls-5" d="M126.75,605.26a7.15,7.15,0,0,1-6.84,6.78,6.81,6.81,0,1,1-.35-13.61A7,7,0,0,1,126.75,605.26Z"/><path class="cls-5" d="M687.29,555.39a6.72,6.72,0,0,1-6.65-6.77,6.89,6.89,0,0,1,6.84-7.13,7.43,7.43,0,0,1,6.86,6.83A7.27,7.27,0,0,1,687.29,555.39Z"/><path class="cls-5" d="M763.34,598.43c4.11,0,6.65,2.4,6.76,6.45a6.84,6.84,0,0,1-6.25,7.18c-3.74.15-7.49-3.16-7.55-6.66A7,7,0,0,1,763.34,598.43Z"/><path class="cls-5" d="M195.84,593a6.42,6.42,0,0,1-6.88-6.44,6.92,6.92,0,0,1,6.66-7.29,7.67,7.67,0,0,1,7.16,7.09C202.79,589.75,199.53,592.87,195.84,593Z"/><path class="cls-5" d="M24.74,466.15c3.63.1,7.1,3.67,7,7.23a6.89,6.89,0,0,1-7.45,6.47,6.38,6.38,0,0,1-6.37-7C18.07,469.24,21.28,466.06,24.74,466.15Z"/><path class="cls-5" d="M157.83,612.06a6.84,6.84,0,0,1-6.91-6.69,6.58,6.58,0,0,1,6.51-6.94,6.89,6.89,0,0,1,7.27,6.76C164.73,608.6,161.32,612,157.83,612.06Z"/><path class="cls-5" d="M725.72,635.77c3.48.11,6.28,3.37,6.24,7.27s-2.71,6.58-6.78,6.48a6.68,6.68,0,0,1-6.76-6.77A7.49,7.49,0,0,1,725.72,635.77Z"/><path class="cls-5" d="M345.55,598.33c3.8.11,7,3.18,6.93,6.61A7.11,7.11,0,0,1,345,611.6c-4-.1-6.53-2.89-6.37-6.92S341.36,598.22,345.55,598.33Z"/><path class="cls-5" d="M782.64,554.82a6.69,6.69,0,0,1-6.91-6c-.24-3.39,3-6.91,6.47-7a7,7,0,0,1,6.93,6.54A6.7,6.7,0,0,1,782.64,554.82Z"/><path class="cls-5" d="M314.15,586.11a6.53,6.53,0,0,1-6.47,6.48c-3.75.12-7.07-2.87-7.09-6.38s3.27-6.53,7-6.47A6.74,6.74,0,0,1,314.15,586.11Z"/><path class="cls-5" d="M145.23,548.43a6.07,6.07,0,0,1-6.42,6.39c-3.91,0-6.49-2.43-6.51-6.22,0-4,2.71-6.84,6.58-6.79A6.65,6.65,0,0,1,145.23,548.43Z"/><path class="cls-5" d="M62.69,579.49a6.86,6.86,0,0,1,6.59,6.84,6.18,6.18,0,0,1-6.47,6.27c-3.83-.09-6.53-2.64-6.59-6.21A6.57,6.57,0,0,1,62.69,579.49Z"/><path class="cls-5" d="M706.81,592.64c-4,.12-6.59-2.19-6.75-6-.16-4,2.51-7.08,6.22-7.09a7.43,7.43,0,0,1,6.86,6.39C713.39,589.26,710.28,592.53,706.81,592.64Z"/><path class="cls-5" d="M554.24,649.2a6.55,6.55,0,0,1-6.22-6.7c.06-3.51,2.6-5.93,6.25-6,3.85,0,6.45,2.46,6.44,6.24A6.57,6.57,0,0,1,554.24,649.2Z"/><path class="cls-5" d="M611.23,611.22c-3.6-.1-6-2.59-5.94-6.3,0-3.95,2.59-6.55,6.33-6.37a6.84,6.84,0,0,1,6.29,6.31A6.71,6.71,0,0,1,611.23,611.22Z"/><path class="cls-5" d="M389.76,604.83a6.54,6.54,0,0,1-6.1,6.37,6.61,6.61,0,0,1-6.71-6.28,6.32,6.32,0,0,1,6.08-6.29A6.55,6.55,0,0,1,389.76,604.83Z"/><path class="cls-5" d="M389.77,548.46a6.67,6.67,0,0,1-6.29,6.23,6.35,6.35,0,1,1,6.29-6.23Z"/><path class="cls-5" d="M630.06,629.91a6.33,6.33,0,0,1-6-6.33c.06-3.25,3.48-6.56,6.63-6.4a7,7,0,0,1,6.13,6.46A6.7,6.7,0,0,1,630.06,629.91Z"/><path class="cls-5" d="M630.24,592a6.13,6.13,0,0,1-6.21-6.53,6.33,6.33,0,0,1,12.65.7A6,6,0,0,1,630.24,592Z"/><path class="cls-5" d="M801.27,580a6.59,6.59,0,0,1,6.48,6,6.36,6.36,0,0,1-6.3,6.57,6.27,6.27,0,1,1-.18-12.54Z"/><path class="cls-5" d="M858.37,649a6.2,6.2,0,0,1-6.4-6,6.41,6.41,0,1,1,12.81,0A6.36,6.36,0,0,1,858.37,649Z"/><path class="cls-5" d="M214.84,649a6.17,6.17,0,0,1-6.38-6.4,6,6,0,0,1,6.19-6.06c3.49,0,6.72,3.17,6.57,6.42A6.32,6.32,0,0,1,214.84,649Z"/><path class="cls-5" d="M31,568.16a6.46,6.46,0,0,1-7.16,5.6,6.62,6.62,0,0,1-5.42-6.92c.46-3.7,3.32-5.89,7.18-5.48A6.26,6.26,0,0,1,31,568.16Z"/><path class="cls-5" d="M668.38,573.59a6.13,6.13,0,1,1,.06-12.25,6.21,6.21,0,0,1,6.36,6C675,570.91,672.22,573.59,668.38,573.59Z"/><path class="cls-5" d="M164,586.33a6.24,6.24,0,0,1-6.24,6.15c-3.69.08-5.94-2.24-6-6.12S154,580,157.49,580A6.16,6.16,0,0,1,164,586.33Z"/><path class="cls-5" d="M617.68,642.7c-.06,3.73-2.73,6.15-6.62,6s-5.84-2.29-5.79-6.2,2.49-6.21,6.47-6A5.87,5.87,0,0,1,617.68,642.7Z"/><path class="cls-5" d="M807.53,491.72a6.43,6.43,0,0,1-6,6.45,6.72,6.72,0,0,1-6.33-6.2,6.32,6.32,0,0,1,5.87-6.08A6,6,0,0,1,807.53,491.72Z"/><path class="cls-5" d="M636.56,604.9a6.45,6.45,0,0,1-6.38,6.06,6.31,6.31,0,0,1-5.93-6c0-3.23,3-6.37,6.12-6.32A6.37,6.37,0,0,1,636.56,604.9Z"/><path class="cls-5" d="M100.34,573.35c-3-.06-5.92-3.3-5.8-6.54.12-3.47,2.71-5.67,6.51-5.55a5.85,5.85,0,0,1,5.88,6.25A6.61,6.61,0,0,1,100.34,573.35Z"/><path class="cls-5" d="M807.54,548.48a6.36,6.36,0,0,1-6.28,6.16,6.16,6.16,0,1,1,6.28-6.16Z"/><path class="cls-5" d="M151.78,492.17c-.1-3.52,2.09-6.08,5.39-6.29s6.59,2.49,6.74,5.62-2.87,6.55-5.83,6.68A6.1,6.1,0,0,1,151.78,492.17Z"/><path class="cls-5" d="M750.42,567.09a6.14,6.14,0,0,1-6.06,6.28c-3.37.06-6-2.67-6-6.3s2.05-5.7,5.73-5.8S750.39,563.5,750.42,567.09Z"/><path class="cls-5" d="M541.34,585.8c.07,3.7-2.25,6.14-5.9,6.21a5.86,5.86,0,0,1-6.22-6A6.17,6.17,0,0,1,535,580,5.87,5.87,0,0,1,541.34,585.8Z"/><path class="cls-5" d="M24.84,592.12c-4,.07-6-1.85-6-5.81a6.06,6.06,0,0,1,5.5-6.23c3.12-.16,6.62,3.29,6.56,6.46S28.32,592.06,24.84,592.12Z"/><path class="cls-5" d="M24.5,554.69a5.81,5.81,0,0,1-5.65-6.44,5.94,5.94,0,0,1,5.87-5.83c3.18.07,6.28,3.2,6.19,6.26A6.6,6.6,0,0,1,24.5,554.69Z"/><path class="cls-5" d="M151.81,548.56a5.91,5.91,0,0,1,5.53-6.18c3.25-.16,6.49,2.73,6.57,5.83a6.68,6.68,0,0,1-6.51,6.45C154.2,554.6,151.84,552,151.81,548.56Z"/><path class="cls-5" d="M687.44,636.58a6.4,6.4,0,0,1,6.12,6.25,5.83,5.83,0,0,1-5.88,5.85c-3.79.12-6.12-2.08-6.18-5.85A5.92,5.92,0,0,1,687.44,636.58Z"/><path class="cls-5" d="M674.32,548.89a5.88,5.88,0,0,1-5.88,5.81,6.14,6.14,0,1,1,0-12.28C671.58,542.48,674.41,545.62,674.32,548.89Z"/><path class="cls-5" d="M364.47,636.56a5.87,5.87,0,0,1,5.82,6.37,5.67,5.67,0,0,1-6.05,5.59,6,6,0,1,1,.23-12Z"/><path class="cls-5" d="M18.93,492.34c-.08-3.81,1.77-6,5.26-6.12s6.4,2.18,6.57,5.56c.16,3.08-2.86,6.25-6.06,6.39A5.69,5.69,0,0,1,18.93,492.34Z"/><path class="cls-5" d="M389.58,585.92a6.23,6.23,0,0,1-6.32,6.08c-3.36,0-5.67-2.44-5.69-6a5.71,5.71,0,0,1,5.6-6.09A6.2,6.2,0,0,1,389.58,585.92Z"/><path class="cls-5" d="M37.64,566.71a6.32,6.32,0,0,1,7-5.25,5.83,5.83,0,0,1,5,6.6,6.08,6.08,0,0,1-6.85,5.31A6.28,6.28,0,0,1,37.64,566.71Z"/><path class="cls-5" d="M573.42,636.55a5.91,5.91,0,1,1-6.09,6.1A6,6,0,0,1,573.42,636.55Z"/><path class="cls-5" d="M339.56,567.07c.06-3.56,2.25-5.73,5.79-5.73a6,6,0,0,1,6.13,5.6c.07,3.13-3.06,6.49-6,6.45A6,6,0,0,1,339.56,567.07Z"/><path class="cls-5" d="M43.85,648.7a5.93,5.93,0,0,1-6.24-6,6.49,6.49,0,0,1,6.2-6.18,5.94,5.94,0,0,1,5.88,5.86A5.7,5.7,0,0,1,43.85,648.7Z"/><path class="cls-5" d="M497.34,617.84c3.94,0,6,2,6,5.9a5.77,5.77,0,0,1-6.11,6,6.44,6.44,0,0,1-6-5.88A5.92,5.92,0,0,1,497.34,617.84Z"/><path class="cls-5" d="M706.47,629.91a6,6,0,0,1-6.17-5.59,6,6,0,0,1,6-6.28,5.71,5.71,0,0,1,6,5.59A5.77,5.77,0,0,1,706.47,629.91Z"/><path class="cls-5" d="M617.45,586.19a5.93,5.93,0,0,1-6.07,5.66,5.61,5.61,0,0,1-5.89-6.16A5.76,5.76,0,0,1,611.4,580,6.19,6.19,0,0,1,617.45,586.19Z"/><path class="cls-5" d="M611.49,523.35a6.23,6.23,0,0,1,6,6.34,6.13,6.13,0,0,1-6.13,5.65,6,6,0,0,1,.17-12Z"/><path class="cls-5" d="M125.64,623.93a5.75,5.75,0,0,1-5.57,6.07,6,6,0,1,1-.22-12A5.78,5.78,0,0,1,125.64,623.93Z"/><path class="cls-5" d="M402.32,648.72a5.72,5.72,0,0,1-6-5.58c-.08-3.14,2.88-6.41,5.91-6.5a6.34,6.34,0,0,1,6.21,6.13C408.5,646.32,406,648.73,402.32,648.72Z"/><path class="cls-5" d="M801.57,630c-3.21.08-6.19-2.48-6.35-5.46-.18-3.14,2.84-6.45,5.92-6.5a6.14,6.14,0,0,1,6.27,6A6.05,6.05,0,0,1,801.57,630Z"/><path class="cls-5" d="M750.38,623.64a6,6,0,0,1-6.18,6.1,5.65,5.65,0,0,1-5.68-5.55,5.57,5.57,0,0,1,5.37-6.23C747.57,617.76,750.25,620.11,750.38,623.64Z"/><path class="cls-5" d="M402.5,542.77a5.84,5.84,0,0,1,5.9,5.76,6.24,6.24,0,0,1-6.19,6.12,6.12,6.12,0,0,1-5.9-5.91A6,6,0,0,1,402.5,542.77Z"/><path class="cls-5" d="M320.23,623.89a6,6,0,0,1,6.29-5.93,5.68,5.68,0,0,1,5.75,5.85,6,6,0,0,1-5.64,6.06C323.52,630,320.21,626.9,320.23,623.89Z"/><path class="cls-5" d="M674.33,586.38c0,3.5-2.12,5.65-5.81,5.74a5.75,5.75,0,0,1-6.25-5.43,6.72,6.72,0,0,1,5.94-6.6C671.43,580,674.28,582.88,674.33,586.38Z"/><path class="cls-5" d="M182.64,548.66a6,6,0,0,1-6.22,6c-3-.14-5.89-3.18-5.84-6.06a6,6,0,0,1,5.89-5.82A5.71,5.71,0,0,1,182.64,548.66Z"/><path class="cls-5" d="M814.47,548.12a5.84,5.84,0,0,1,6.71-5.34,6,6,0,0,1,5.32,6.34,6.62,6.62,0,0,1-6.39,5.5A5.92,5.92,0,0,1,814.47,548.12Z"/><path class="cls-5" d="M157.87,630a5.76,5.76,0,0,1-6-5.6,5.87,5.87,0,0,1,5.79-6.35,6.32,6.32,0,0,1,6.19,6.12A6.13,6.13,0,0,1,157.87,630Z"/><path class="cls-5" d="M687.23,573.41a5.72,5.72,0,0,1-5.71-5.92,5.78,5.78,0,0,1,6-6.07c3,.07,6,3,6,5.88A6.64,6.64,0,0,1,687.23,573.41Z"/><path class="cls-5" d="M782.16,573.32a6,6,0,0,1-5.62-6.59,5.52,5.52,0,0,1,5.81-5.3c3.32,0,6.3,3.09,6.09,6.22C788.25,570.46,785,573.44,782.16,573.32Z"/><path class="cls-5" d="M636.24,566.77a6.23,6.23,0,0,1-6,6.36c-2.86,0-5.93-3.11-6-6a5.84,5.84,0,0,1,5.94-5.78C633.94,561.26,636.2,563.31,636.24,566.77Z"/><path class="cls-5" d="M106.81,624.08a6.23,6.23,0,0,1-6.22,5.66c-3.55,0-5.72-2.6-5.53-6.51.17-3.59,2.42-5.52,6.1-5.27A5.94,5.94,0,0,1,106.81,624.08Z"/><path class="cls-5" d="M769.08,624c0,3.62-2.13,6-5.54,6a6,6,0,1,1-.12-12C766.83,618,769,620.35,769.08,624Z"/><path class="cls-5" d="M415.31,604.89c.07-3.06,2.95-6.09,5.8-6.1s6.4,3.37,6.37,6.21-3.49,6.2-6.45,6A6.19,6.19,0,0,1,415.31,604.89Z"/><path class="cls-5" d="M674.24,492.08a6.26,6.26,0,0,1-5.81,6.09,6.52,6.52,0,0,1-6.13-6.35,5.81,5.81,0,0,1,6.13-5.61A5.65,5.65,0,0,1,674.24,492.08Z"/><path class="cls-5" d="M62.87,629.91A5.94,5.94,0,1,1,62.62,618c3.2-.06,6.37,3,6.32,6C68.88,627,65.83,629.89,62.87,629.91Z"/><path class="cls-5" d="M144.51,567.44a6.07,6.07,0,0,1-5.84,5.88c-2.86.06-5.94-3-6-5.88a6.28,6.28,0,0,1,6.27-6A5.69,5.69,0,0,1,144.51,567.44Z"/><path class="cls-5" d="M655.55,623.9a6.07,6.07,0,0,1-6.23,5.58c-3.6-.13-5.91-2.41-5.85-5.78.07-3.61,2.59-5.91,6.32-5.76A5.82,5.82,0,0,1,655.55,623.9Z"/><path class="cls-5" d="M383.5,504.7a5.89,5.89,0,0,1,0,11.78c-3.57,0-5.86-2.18-5.93-5.62A5.67,5.67,0,0,1,383.5,504.7Z"/><path class="cls-5" d="M807.17,510.87a5.73,5.73,0,0,1-5.85,5.89c-2.93,0-6.13-3.15-6.08-5.95s3.37-6,6.13-6A6,6,0,0,1,807.17,510.87Z"/><path class="cls-5" d="M649.56,459.55c-3.71.05-5.94-1.95-6.07-5.42-.13-3.71,2.18-6,6-5.95a5.87,5.87,0,0,1,6,5.68A5.75,5.75,0,0,1,649.56,459.55Z"/><path class="cls-5" d="M157.71,516.76a5.93,5.93,0,0,1-5.85-5.93,6.09,6.09,0,0,1,5.84-6c2.85,0,6,3.13,6,6A6.13,6.13,0,0,1,157.71,516.76Z"/><path class="cls-5" d="M214.65,599.44a5.65,5.65,0,0,1,5.83,5.76,6.05,6.05,0,0,1-5.54,5.71,6.13,6.13,0,0,1-6.09-5.69A5.69,5.69,0,0,1,214.65,599.44Z"/><path class="cls-5" d="M370.13,604.67a5.65,5.65,0,0,1-5.79,5.84c-2.88,0-5.78-2.71-5.93-5.42s2.86-6.1,5.73-6.26S370.11,601.62,370.13,604.67Z"/><path class="cls-5" d="M138.75,523.76a5.76,5.76,0,0,1,.13,11.51,6.31,6.31,0,0,1-6.12-5.7C132.71,526.6,135.61,523.79,138.75,523.76Z"/><path class="cls-5" d="M852.68,529.66a5.6,5.6,0,0,1,5.66-5.9,6,6,0,0,1,5.91,5.85c0,2.91-3,5.76-6.09,5.66A5.62,5.62,0,0,1,852.68,529.66Z"/><path class="cls-5" d="M301.64,567.15a5.65,5.65,0,0,1,5.95-5.62c3,.18,5.82,3.25,5.64,6.16a6.36,6.36,0,0,1-5.87,5.5C304.42,573.22,301.55,570.2,301.64,567.15Z"/><path class="cls-5" d="M548.81,566.65a5.5,5.5,0,0,1,6.34-5.11c2.82.36,5.36,3.38,5.12,6.09a6.05,6.05,0,0,1-6.34,5.38C550.63,572.75,548.5,570.12,548.81,566.65Z"/><path class="cls-5" d="M706.29,561.46a6.1,6.1,0,0,1,5.93,5.93,6.37,6.37,0,0,1-5.74,5.72,6.17,6.17,0,0,1-5.9-5.5A6.09,6.09,0,0,1,706.29,561.46Z"/><path class="cls-5" d="M57.07,567.51a5.75,5.75,0,0,1,5.66-6,5.83,5.83,0,0,1,0,11.65A5.68,5.68,0,0,1,57.07,567.51Z"/><path class="cls-5" d="M814.74,623.89a5.56,5.56,0,0,1,5.46-5.7c3,0,6.17,2.92,6.17,5.77,0,2.66-2.94,5.61-5.72,5.73A5.78,5.78,0,0,1,814.74,623.89Z"/><path class="cls-5" d="M220.49,529.49a5.83,5.83,0,0,1-5.93,5.8,6.06,6.06,0,0,1-5.63-5.69,5.78,5.78,0,0,1,11.56-.11Z"/><path class="cls-5" d="M256,642.8a5.27,5.27,0,0,1-5.5,5.53c-3.33-.07-5.75-2.27-5.86-5.33a6.22,6.22,0,0,1,5.61-6.23C253.29,636.65,256,639.49,256,642.8Z"/><path class="cls-5" d="M776.57,529.51a6,6,0,0,1,6.08-5.72,5.93,5.93,0,0,1,5.49,5.8,6,6,0,0,1-5.6,5.7A5.88,5.88,0,0,1,776.57,529.51Z"/><path class="cls-5" d="M649.19,561.42a6,6,0,0,1,6,5.76,5.81,5.81,0,0,1-11.57.32A5.71,5.71,0,0,1,649.19,561.42Z"/><path class="cls-5" d="M106.38,642.58a5.79,5.79,0,0,1-5.52,5.72,5.59,5.59,0,0,1-5.72-5.46c0-3.27,2.66-6.15,5.71-6.07A6,6,0,0,1,106.38,642.58Z"/><path class="cls-5" d="M541.12,624c-.08,3-2.57,5.22-5.83,5.2s-6-2.77-5.88-5.77c.15-2.68,3.13-5.35,6-5.37A5.89,5.89,0,0,1,541.12,624Z"/><path class="cls-5" d="M326.46,553.89c-3.38,0-5.81-2.09-6-5.14a6.07,6.07,0,0,1,5.78-6,5.84,5.84,0,0,1,5.89,5.78A5.42,5.42,0,0,1,326.46,553.89Z"/><path class="cls-5" d="M554.4,618.12a5.48,5.48,0,0,1,5.6,5.47c.13,3.7-1.78,5.61-5.63,5.62s-5.52-1.67-5.58-5.17A5.5,5.5,0,0,1,554.4,618.12Z"/><path class="cls-5" d="M744.39,553.87a5.55,5.55,0,0,1-5.6-5.54,5.29,5.29,0,0,1,5.47-5.57,5.73,5.73,0,0,1,6,5.67A5.94,5.94,0,0,1,744.39,553.87Z"/><path class="cls-5" d="M649.28,504.8a6.14,6.14,0,0,1,5.86,5.89,5.4,5.4,0,0,1-5.68,5.38,5.5,5.5,0,0,1-5.82-5.24A5.83,5.83,0,0,1,649.28,504.8Z"/><path class="cls-5" d="M195.46,610.58a5.17,5.17,0,0,1-5.37-5.54,5.3,5.3,0,0,1,5.85-5.58c2.91.14,5.64,2.85,5.64,5.61A5.78,5.78,0,0,1,195.46,610.58Z"/><path class="cls-5" d="M182.52,623.84a5.94,5.94,0,0,1-5.44,5.77,5.72,5.72,0,0,1-.58-11.41A5.85,5.85,0,0,1,182.52,623.84Z"/><path class="cls-5" d="M750.22,642.37c.15,2.7-2.73,5.81-5.47,5.91a6.08,6.08,0,0,1-6-5.31c-.23-2.75,2.45-6,5.12-6.2S750.06,639.53,750.22,642.37Z"/><path class="cls-5" d="M345.55,504.8c2.75.1,5.66,3,5.67,5.67a5.72,5.72,0,0,1-6,5.6,5.49,5.49,0,0,1-5.57-5.49A5.89,5.89,0,0,1,345.55,504.8Z"/><path class="cls-5" d="M586.73,605.13a5.65,5.65,0,1,1,11.29,0c0,3.11-2.92,6-5.88,5.88A5.84,5.84,0,0,1,586.73,605.13Z"/><path class="cls-5" d="M863.93,624.12c-.1,3.32-2.13,5.13-5.73,5.1s-5.53-2-5.47-5.32a5.6,5.6,0,1,1,11.2.22Z"/><path class="cls-5" d="M30.13,510.78a5.5,5.5,0,0,1-5.26,5.85,5.66,5.66,0,0,1-5.72-5.45,5.75,5.75,0,0,1,5.37-5.83A5.36,5.36,0,0,1,30.13,510.78Z"/><path class="cls-5" d="M668.59,505.35a5.92,5.92,0,0,1,5.45,5.82,5.73,5.73,0,0,1-5.76,5.46,5.58,5.58,0,0,1-5.31-5.85A5.28,5.28,0,0,1,668.59,505.35Z"/><path class="cls-5" d="M465.09,624c-.09,3.28-2.23,5.22-5.77,5.23s-5.53-1.83-5.51-5.34a5.5,5.5,0,0,1,5.89-5.7A5.63,5.63,0,0,1,465.09,624Z"/><path class="cls-5" d="M403.07,599.53A5.7,5.7,0,0,1,408,605.7a5.51,5.51,0,0,1-6.49,5,5.42,5.42,0,0,1-4.62-6.27A5.6,5.6,0,0,1,403.07,599.53Z"/><path class="cls-5" d="M839.34,599.45a5.78,5.78,0,0,1,5.79,5.93c-.09,3-2.64,5.24-5.91,5.22-3.52,0-5.33-1.94-5.27-5.55S836.06,599.42,839.34,599.45Z"/><path class="cls-5" d="M345.27,459.44a5.48,5.48,0,0,1-5.63-5.5,5.74,5.74,0,0,1,6.05-5.64c2.89.11,5.66,3,5.51,5.82A5.75,5.75,0,0,1,345.27,459.44Z"/><path class="cls-5" d="M106.37,548.75a5.64,5.64,0,0,1-6,5.12,5.5,5.5,0,0,1-5.18-6.32c.33-3.14,2.83-5.08,6.16-4.77A5.33,5.33,0,0,1,106.37,548.75Z"/><path class="cls-5" d="M426.91,624c-.05,3.35-2.2,5.29-5.72,5.15s-5.51-2.13-5.39-5.52a5.56,5.56,0,1,1,11.11.37Z"/><path class="cls-5" d="M616.69,567.14c0,3.5-1.91,5.48-5.3,5.45a5.67,5.67,0,0,1-5.76-5.34,5.83,5.83,0,0,1,5.85-5.82C614.63,561.46,616.67,563.71,616.69,567.14Z"/><path class="cls-5" d="M220.43,623.74c.1,3.1-2.23,5.37-5.61,5.47s-5.83-2.05-5.86-5.16a5.91,5.91,0,0,1,5.6-5.73A5.85,5.85,0,0,1,220.43,623.74Z"/><path class="cls-5" d="M326.28,599.45a5.77,5.77,0,0,1,5.8,5.36,5.57,5.57,0,0,1-5.81,5.74c-2.8-.07-5.76-2.92-5.77-5.56S323.48,599.46,326.28,599.45Z"/><path class="cls-5" d="M616.69,548.12c0,3.46-2,5.67-5.16,5.73a5.81,5.81,0,0,1-5.91-5.72,5.52,5.52,0,0,1,5.69-5.37C614.78,542.73,616.66,544.6,616.69,548.12Z"/><path class="cls-5" d="M858.21,610.68a5.62,5.62,0,0,1,0-11.24,5.62,5.62,0,1,1,0,11.24Z"/><path class="cls-5" d="M250.7,599.36a5.44,5.44,0,0,1,5.32,5.7,5.67,5.67,0,0,1-11.34-.15A5.65,5.65,0,0,1,250.7,599.36Z"/><path class="cls-5" d="M397,567.51a5.54,5.54,0,0,1,5.25-5.81,5.93,5.93,0,0,1,5.67,6,6,6,0,0,1-5.66,5.57C399.39,573.31,397.06,570.73,397,567.51Z"/><path class="cls-5" d="M195.46,618.41a5.3,5.3,0,0,1,5.75,5.28c.14,3.47-1.74,5.44-5.27,5.53s-5.75-1.82-5.82-5.08A5.39,5.39,0,0,1,195.46,618.41Z"/><path class="cls-5" d="M30.1,605.3a5.7,5.7,0,0,1-5.57,5.63c-2.76,0-5.42-3-5.31-5.95a5.7,5.7,0,0,1,5.37-5.33A5.62,5.62,0,0,1,30.1,605.3Z"/><path class="cls-5" d="M663.05,605.13a5.56,5.56,0,0,1,5.64-5.47,5.93,5.93,0,0,1,5.23,5.53c0,2.93-2.76,5.77-5.55,5.75A5.5,5.5,0,0,1,663.05,605.13Z"/><path class="cls-5" d="M350.85,548.76a5.42,5.42,0,0,1-6,5.1,5.66,5.66,0,0,1-5.14-6,5.56,5.56,0,0,1,6.06-5A5.33,5.33,0,0,1,350.85,548.76Z"/><path class="cls-5" d="M806.87,529.6a5.48,5.48,0,1,1-11,0,5.22,5.22,0,0,1,5.73-5.31A5.09,5.09,0,0,1,806.87,529.6Z"/><path class="cls-5" d="M157.72,524.31c3.43,0,5.39,2,5.33,5.53a5.39,5.39,0,0,1-5.17,5.45,5.78,5.78,0,0,1-5.8-5.47A5.52,5.52,0,0,1,157.72,524.31Z"/><path class="cls-5" d="M769,643.35a5.47,5.47,0,0,1-6.11,4.94,5.61,5.61,0,0,1-5.06-5.62,5.82,5.82,0,0,1,6-5.22A5.54,5.54,0,0,1,769,643.35Z"/><path class="cls-5" d="M839.11,629.21q-5.34-.12-5.08-5.6a5.16,5.16,0,0,1,5.22-5.28,5.94,5.94,0,0,1,5.86,5.86C845,627.17,842.46,629.28,839.11,629.21Z"/><path class="cls-5" d="M692.82,586.28a5.49,5.49,0,0,1-5.61,5.48,5.6,5.6,0,0,1-5.42-5.73,5.31,5.31,0,0,1,5.46-5.09A5.07,5.07,0,0,1,692.82,586.28Z"/><path class="cls-5" d="M138.61,610.51a5.44,5.44,0,0,1-5.4-5.71,5.54,5.54,0,0,1,5.39-5.28,5.84,5.84,0,0,1,5.72,6A5.6,5.6,0,0,1,138.61,610.51Z"/><path class="cls-5" d="M307.19,610.52a5.54,5.54,0,0,1-5.45-5.59,5.67,5.67,0,0,1,5.72-5.41,5.41,5.41,0,0,1,5.33,5.67A5.19,5.19,0,0,1,307.19,610.52Z"/><path class="cls-5" d="M559.9,605a5.55,5.55,0,0,1-11.08.39,5.8,5.8,0,0,1,5.87-5.85A5.55,5.55,0,0,1,559.9,605Z"/><path class="cls-5" d="M858.31,572.59a5.35,5.35,0,0,1-5.54-5.49,5.81,5.81,0,0,1,5.31-5.45,5.59,5.59,0,0,1,5.7,5.44A5.21,5.21,0,0,1,858.31,572.59Z"/><path class="cls-5" d="M787.77,605.28a5.21,5.21,0,0,1-5.33,5.23,5.5,5.5,0,1,1,0-11A5.56,5.56,0,0,1,787.77,605.28Z"/><path class="cls-5" d="M654.83,604.82a5.67,5.67,0,0,1-5.48,5.66,5.6,5.6,0,0,1-5.46-5.71,5.22,5.22,0,0,1,5.21-5.31A5.5,5.5,0,0,1,654.83,604.82Z"/><path class="cls-5" d="M119.87,648.33a5.76,5.76,0,0,1-5.78-5.4c-.12-2.79,2.64-5.47,5.66-5.48a5,5,0,0,1,5.27,5.13C125.13,645.91,123,648.24,119.87,648.33Z"/><path class="cls-5" d="M384.05,524a5.56,5.56,0,0,1,4.83,6.22c-.4,2.64-3.41,5-6,4.79-2.86-.3-5.42-3.4-5.09-6.16A5.68,5.68,0,0,1,384.05,524Z"/><path class="cls-5" d="M350.76,491.57a5.47,5.47,0,0,1-5.38,5.68,5.61,5.61,0,0,1-5.5-5.16,5.45,5.45,0,1,1,10.88-.52Z"/><path class="cls-5" d="M350.76,623.58a5.11,5.11,0,0,1-5.36,5.52,5.23,5.23,0,0,1-5.52-5.42,5.36,5.36,0,0,1,5.66-5.35A5.18,5.18,0,0,1,350.76,623.58Z"/><path class="cls-5" d="M214.71,572.59c-3.42,0-5.47-2-5.4-5.42a5.64,5.64,0,0,1,5.15-5.5,6,6,0,0,1,5.79,5.5A5.25,5.25,0,0,1,214.71,572.59Z"/><path class="cls-5" d="M176.77,572.7c-3.27.06-5.31-1.77-5.43-4.87s2.3-6,5.09-6,6,3,5.89,6C182.26,570.48,179.85,572.63,176.77,572.7Z"/><path class="cls-5" d="M43.54,580.94a5.4,5.4,0,0,1,5.75,5.28,5.49,5.49,0,0,1-11,.4A5.17,5.17,0,0,1,43.54,580.94Z"/><path class="cls-5" d="M62.77,610.51a5.61,5.61,0,0,1-5.59-5.06,5.87,5.87,0,0,1,5.33-5.9,5.71,5.71,0,0,1,5.57,5.61A5.58,5.58,0,0,1,62.77,610.51Z"/><path class="cls-5" d="M611.47,629.11c-3.29-.08-5.77-2.41-5.7-5.34a5.82,5.82,0,0,1,5.74-5.45c3.19,0,5.16,2.26,5.08,5.76S614.75,629.2,611.47,629.11Z"/><path class="cls-5" d="M825.84,567.6c0,3.06-2.1,5.06-5.34,5.1a5.3,5.3,0,0,1-5.68-5.36c.1-2.66,2.87-5.47,5.4-5.47C822.92,561.87,825.84,564.85,825.84,567.6Z"/><path class="cls-5" d="M711.46,604.92c.09,3.35-1.7,5.43-4.82,5.57a5.39,5.39,0,0,1-5.58-5.51,5.58,5.58,0,0,1,5.23-5.45A5.26,5.26,0,0,1,711.46,604.92Z"/><path class="cls-5" d="M825.67,642.68a5.55,5.55,0,0,1-5.12,5.49c-2.71,0-5.51-2.58-5.56-5.17a6,6,0,0,1,5.26-5.5A5.57,5.57,0,0,1,825.67,642.68Z"/><path class="cls-5" d="M497.33,647.71a5.46,5.46,0,0,1-5.28-5.3,5.52,5.52,0,0,1,5.55-5,5.42,5.42,0,0,1,5.24,5.33A5.21,5.21,0,0,1,497.33,647.71Z"/><path class="cls-5" d="M644.32,529.61c-.1-3.34,1.72-5.32,4.91-5.34a5.38,5.38,0,0,1,5.5,5,5.75,5.75,0,0,1-5.16,5.54A5.18,5.18,0,0,1,644.32,529.61Z"/><path class="cls-5" d="M176.73,647.82a5,5,0,0,1-5.31-5.15,5.51,5.51,0,0,1,5.5-5.16c2.59.09,5.32,3,5.18,5.63A5.13,5.13,0,0,1,176.73,647.82Z"/><path class="cls-5" d="M100.52,590.87a4.91,4.91,0,0,1-5-5,5.19,5.19,0,0,1,5.19-4.89,4.75,4.75,0,0,1,4.74,5.16C105.43,589.3,103.68,591,100.52,590.87Z"/><path class="cls-5" d="M744.61,590.88a4.74,4.74,0,0,1-5.25-4.66,4.94,4.94,0,0,1,4.73-5.25,5.23,5.23,0,0,1,5.28,4.79A4.65,4.65,0,0,1,744.61,590.88Z"/><path class="cls-5" d="M388.61,642.43c.1,2.44-2.44,5.06-5,5.16a4.9,4.9,0,1,1-.45-9.78C385.72,637.59,388.52,640,388.61,642.43Z"/><path class="cls-5" d="M782.13,638.28c2.52-.07,5.06,2,5.14,4.25s-2.61,5-5.09,5a5,5,0,0,1-4.49-4.93A4.36,4.36,0,0,1,782.13,638.28Z"/><path class="cls-5" d="M360,623.18a4.19,4.19,0,0,1,4.63-4,4.68,4.68,0,0,1,4.37,5,4.32,4.32,0,0,1-4.78,4C361.45,628,359.81,626.05,360,623.18Z"/><path class="cls-5" d="M143.48,642.75a5.3,5.3,0,0,1-4.83,4.75,4.76,4.76,0,0,1-4.5-4.93,4.26,4.26,0,0,1,4.48-4.29A4.53,4.53,0,0,1,143.48,642.75Z"/><path class="cls-5" d="M558.92,586.3a4.59,4.59,0,0,1-4.73,4.53,5,5,0,0,1-4.47-4.91,4.51,4.51,0,0,1,4.6-4.15A4.3,4.3,0,0,1,558.92,586.3Z"/><path class="cls-5" d="M858.31,553a5.07,5.07,0,0,1-4.55-4.9,4.61,4.61,0,0,1,4.73-4.15,4.24,4.24,0,0,1,4.38,4.32A4.53,4.53,0,0,1,858.31,553Z"/><path class="cls-5" d="M210.39,548.48a4.06,4.06,0,0,1,4.06-4.53,4.75,4.75,0,0,1,4.89,4.47,4.86,4.86,0,0,1-4.77,4.6A4.31,4.31,0,0,1,210.39,548.48Z"/><path class="cls-5" d="M345.11,533.71a4.31,4.31,0,0,1-4.43-4.27,4.72,4.72,0,0,1,4.76-4.55,4.47,4.47,0,0,1,4.34,4.88C349.59,532.28,347.78,533.8,345.11,533.71Z"/><path class="cls-5" d="M649.36,581.69c2.68,0,4.38,1.63,4.41,4.2a4.53,4.53,0,0,1-4.47,4.79,5.17,5.17,0,0,1-4.6-4.89A4.41,4.41,0,0,1,649.36,581.69Z"/><path class="cls-5" d="M157.82,647.34a4.9,4.9,0,0,1-4.5-4.42,4.65,4.65,0,0,1,4.2-4.15,4.27,4.27,0,0,1,4.39,4.29C161.85,645.07,159.71,647.31,157.82,647.34Z"/><path class="cls-5" d="M801.35,647.32c-1.86,0-4.13-2.15-4.28-4.09a4.58,4.58,0,0,1,4.29-4.46,4.41,4.41,0,0,1,4.25,4A4.61,4.61,0,0,1,801.35,647.32Z"/><path class="cls-5" d="M67,643a4.72,4.72,0,0,1-4.27,4.15,4.57,4.57,0,0,1-4.27-4.58,4.51,4.51,0,0,1,4.45-3.9A4.75,4.75,0,0,1,67,643Z"/><path class="cls-5" d="M706.17,638.64a4.89,4.89,0,0,1,4.59,3.86c.2,2-2.32,4.65-4.33,4.62a4.54,4.54,0,0,1-4.19-4.18A4.1,4.1,0,0,1,706.17,638.64Z"/><path class="cls-5" d="M214.84,590.17a4,4,0,0,1-.49-8.08,3.94,3.94,0,0,1,4.46,4.06A3.67,3.67,0,0,1,214.84,590.17Z"/><path class="cls-5" d="M596.64,624.25a4.21,4.21,0,0,1-4.46,3.72,4.14,4.14,0,0,1-4.07-4.12,4.06,4.06,0,0,1,4.15-4C594.61,619.94,596.78,622.11,596.64,624.25Z"/><path class="cls-5" d="M43.76,619.82A4.08,4.08,0,0,1,43.6,628a4.08,4.08,0,0,1,.16-8.15Z"/><path class="cls-5" d="M858.28,590.17c-2.63,0-3.9-1.38-3.82-4.11a3.78,3.78,0,0,1,4.11-4,4.21,4.21,0,0,1,4.08,4.21A4.11,4.11,0,0,1,858.28,590.17Z"/><path class="cls-5" d="M349.52,473a4.41,4.41,0,0,1-4.4,3.86,4.61,4.61,0,0,1-4-4.35c.09-1.93,2.39-3.88,4.48-3.8A4.19,4.19,0,0,1,349.52,473Z"/><path class="cls-5" d="M157.86,563.3a4.24,4.24,0,0,1,4,4.27,4.09,4.09,0,0,1-4.2,4,4.22,4.22,0,0,1-4-4.25A4.32,4.32,0,0,1,157.86,563.3Z"/><path class="cls-5" d="M653.53,472.56a4.45,4.45,0,0,1-3.95,4.31,4,4,0,0,1-4.22-3.88,4.09,4.09,0,0,1,8.17-.43Z"/><path class="cls-5" d="M330.39,642.85a4,4,0,0,1-4.23,3.92,4.16,4.16,0,0,1-4.06-4.17,4.53,4.53,0,0,1,4.36-4A4,4,0,0,1,330.39,642.85Z"/><path class="cls-5" d="M535.15,563.19a4.06,4.06,0,1,1,.35,8.11,4.32,4.32,0,0,1-4.3-3.88A4.27,4.27,0,0,1,535.15,563.19Z"/><path class="cls-5" d="M687.28,628a3.89,3.89,0,0,1-3.85-4.19,3.75,3.75,0,0,1,4.06-4A3.88,3.88,0,0,1,691.4,624,4,4,0,0,1,687.28,628Z"/><path class="cls-5" d="M645.42,491.67a4.08,4.08,0,0,1,3.89-4.24,4.43,4.43,0,0,1,4.2,4.06,4,4,0,0,1-4,4.13A3.91,3.91,0,0,1,645.42,491.67Z"/><path class="cls-5" d="M100.67,608.76a3.84,3.84,0,0,1-4.08-4,4.37,4.37,0,0,1,4.44-3.89,4.3,4.3,0,0,1,3.83,4A3.86,3.86,0,0,1,100.67,608.76Z"/><path class="cls-5" d="M801.22,571.54a4.12,4.12,0,1,1,.2-8.23,4.12,4.12,0,0,1-.2,8.23Z"/><path class="cls-5" d="M748.47,604.62a3.94,3.94,0,0,1-4,4.15,3.86,3.86,0,0,1-4.14-4,4,4,0,0,1,4.26-4A3.88,3.88,0,0,1,748.47,604.62Z"/><path class="cls-5" d="M816.42,605.06a3.82,3.82,0,0,1,4.24-3.81,4.06,4.06,0,0,1,4,3.7c.06,2.15-2.39,4.35-4.62,4.16A3.9,3.9,0,0,1,816.42,605.06Z"/><path class="cls-5" d="M786.3,585.91a4.11,4.11,0,0,1-3.55,4.14,3.88,3.88,0,0,1-4.25-3.35,4.15,4.15,0,0,1,3.71-4.45A4.25,4.25,0,0,1,786.3,585.91Z"/><path class="cls-5" d="M402.55,620a4.34,4.34,0,0,1,3.77,4.52,3.63,3.63,0,0,1-3.8,3.34,4,4,0,0,1-4-4.14A4.28,4.28,0,0,1,402.55,620Z"/><path class="cls-5" d="M786.29,624a4.42,4.42,0,0,1-4,3.75,4.13,4.13,0,0,1-3.74-4.42,4,4,0,0,1,4.21-3.44A4.05,4.05,0,0,1,786.29,624Z"/><path class="cls-5" d="M180.74,605.18c0,2.23-1.42,3.6-3.81,3.68a3.8,3.8,0,0,1-4.19-3.88,3.71,3.71,0,0,1,3.85-3.72A3.81,3.81,0,0,1,180.74,605.18Z"/><path class="cls-5" d="M142.5,586.14a4,4,0,0,1-4.12,3.93c-2.06-.11-3.41-1.79-3.31-4.11a3.62,3.62,0,0,1,3.74-3.71A3.86,3.86,0,0,1,142.5,586.14Z"/><path class="cls-5" d="M138.79,627.77a3.64,3.64,0,0,1-3.71-3.35,3.85,3.85,0,0,1,3.55-4.49,3.9,3.9,0,0,1,3.87,3.78A4.25,4.25,0,0,1,138.79,627.77Z"/><path class="cls-5" d="M387.08,623.89a3.75,3.75,0,1,1-3.65-4A3.87,3.87,0,0,1,387.08,623.89Z"/><path class="cls-5" d="M630.35,646.36a3.44,3.44,0,0,1-3.53-3.42,3.88,3.88,0,0,1,3.25-4.29,4.31,4.31,0,0,1,4.21,4A4,4,0,0,1,630.35,646.36Z"/><path class="cls-5" d="M595.78,642.75c-.35,2-1.36,3.1-3.44,3.09s-3.23-1.17-3.22-3.13,1.31-3.11,3.29-3.14S595.28,641.07,595.78,642.75Z"/><path class="cls-5" d="M326.12,583.87a2.23,2.23,0,0,1,2.26,2.31,1.8,1.8,0,0,1-1.9,2.05,2.07,2.07,0,0,1-2.34-2.19C324.11,584.86,324.93,584.15,326.12,583.87Z"/><path class="cls-5" d="M613.56,510.77a2.16,2.16,0,0,1-2.19,2,1.91,1.91,0,0,1-2.1-2,2.12,2.12,0,0,1,2.41-2.19C613,508.7,613.49,509.59,613.56,510.77Z"/><path class="cls-5" d="M364.33,583.7c1.42.31,2.18,1.08,2.14,2.22a2.13,2.13,0,0,1-2.42,2.1,1.92,1.92,0,0,1-1.88-2.12A2.32,2.32,0,0,1,364.33,583.7Z"/><path class="cls-5" d="M6.77,579.49a6.86,6.86,0,0,1,6.59,6.84,6.18,6.18,0,0,1-6.47,6.27C3.06,592.51.36,590,.3,586.39A6.57,6.57,0,0,1,6.77,579.49Z"/><path class="cls-5" d="M7,629.91A5.94,5.94,0,1,1,6.7,618c3.2-.06,6.37,3,6.32,6C13,627,9.91,629.89,7,629.91Z"/><path class="cls-5" d="M1.15,567.51a5.75,5.75,0,0,1,5.66-6,5.83,5.83,0,0,1,0,11.65A5.68,5.68,0,0,1,1.15,567.51Z"/><path class="cls-5" d="M6.85,610.51a5.59,5.59,0,0,1-5.58-5.06,5.85,5.85,0,0,1,5.32-5.9,5.71,5.71,0,0,1,5.57,5.61A5.57,5.57,0,0,1,6.85,610.51Z"/><path class="cls-5" d="M11.1,643a4.72,4.72,0,0,1-4.27,4.15,4.57,4.57,0,0,1-4.27-4.58A4.52,4.52,0,0,1,7,638.64,4.75,4.75,0,0,1,11.1,643Z"/><path class="cls-5" d="M876.55,649a6.19,6.19,0,0,1-6.4-6,6.4,6.4,0,1,1,12.8,0A6.35,6.35,0,0,1,876.55,649Z"/><path class="cls-5" d="M882.1,624.12c-.1,3.32-2.13,5.13-5.73,5.1s-5.52-2-5.46-5.32a5.6,5.6,0,1,1,11.19.22Z"/><path class="cls-5" d="M876.39,610.68a5.62,5.62,0,0,1,0-11.24,5.62,5.62,0,1,1,0,11.24Z"/><path class="cls-5" d="M876.45,590.17c-2.62,0-3.89-1.38-3.81-4.11a3.78,3.78,0,0,1,4.11-4,4.23,4.23,0,0,1,4.08,4.21A4.13,4.13,0,0,1,876.45,590.17Z"/></g><g class="cls-4"><path class="cls-5" d="M914,635.63a7,7,0,0,1,7.12,7.42,7.37,7.37,0,0,1-7.07,7.19c-3.57.15-7.62-3.79-7.58-7.38A7.5,7.5,0,0,1,914,635.63Z"/><path class="cls-5" d="M977.74,642.89a6.89,6.89,0,0,1-13.77.16,6.89,6.89,0,1,1,13.77-.16Z"/><path class="cls-5" d="M939.7,548.62a7,7,0,0,1-6.79,6.78,6.88,6.88,0,0,1-7-7.09,7.35,7.35,0,0,1,7.3-6.82A6.94,6.94,0,0,1,939.7,548.62Z"/><path class="cls-5" d="M1072.62,529.76a6.47,6.47,0,0,1-7.07,6.73,6.88,6.88,0,0,1-6.61-6.87,7.22,7.22,0,0,1,7.22-6.84A6.74,6.74,0,0,1,1072.62,529.76Z"/><path class="cls-5" d="M1146.57,623.8c.11,3.52-3.44,7-7.13,7.05a6.72,6.72,0,0,1-6.54-6.89c0-4,2.53-6.82,6.38-7A7.15,7.15,0,0,1,1146.57,623.8Z"/><path class="cls-5" d="M1015.93,605.26a7.15,7.15,0,0,1-6.85,6.78,6.81,6.81,0,1,1-.34-13.61A7,7,0,0,1,1015.93,605.26Z"/><path class="cls-5" d="M1085,593a6.43,6.43,0,0,1-6.89-6.44,6.93,6.93,0,0,1,6.66-7.29,7.68,7.68,0,0,1,7.17,7.09C1092,589.75,1088.71,592.87,1085,593Z"/><path class="cls-5" d="M913.92,466.15c3.62.1,7.09,3.67,7,7.23a6.88,6.88,0,0,1-7.45,6.47,6.38,6.38,0,0,1-6.37-7C907.25,469.24,910.46,466.06,913.92,466.15Z"/><path class="cls-5" d="M1047,612.06a6.83,6.83,0,0,1-6.91-6.69,6.57,6.57,0,0,1,6.51-6.94,6.88,6.88,0,0,1,7.26,6.76C1053.91,608.6,1050.5,612,1047,612.06Z"/><path class="cls-5" d="M1034.41,548.43a6.08,6.08,0,0,1-6.42,6.39c-3.91,0-6.49-2.43-6.51-6.22,0-4,2.71-6.84,6.57-6.79A6.66,6.66,0,0,1,1034.41,548.43Z"/><path class="cls-5" d="M951.86,579.49a6.87,6.87,0,0,1,6.6,6.84A6.19,6.19,0,0,1,952,592.6c-3.84-.09-6.54-2.64-6.59-6.21A6.56,6.56,0,0,1,951.86,579.49Z"/><path class="cls-5" d="M1104,649a6.17,6.17,0,0,1-6.38-6.4,6,6,0,0,1,6.19-6.06c3.5,0,6.73,3.17,6.58,6.42A6.33,6.33,0,0,1,1104,649Z"/><path class="cls-5" d="M920.19,568.16a6.45,6.45,0,0,1-7.15,5.6,6.64,6.64,0,0,1-5.43-6.92c.46-3.7,3.32-5.89,7.19-5.48A6.24,6.24,0,0,1,920.19,568.16Z"/><path class="cls-5" d="M1053.12,586.33a6.24,6.24,0,0,1-6.24,6.15c-3.68.08-5.93-2.24-6-6.12s2.23-6.34,5.75-6.41A6.15,6.15,0,0,1,1053.12,586.33Z"/><path class="cls-5" d="M989.52,573.35c-3-.06-5.93-3.3-5.81-6.54.13-3.47,2.71-5.67,6.52-5.55a5.84,5.84,0,0,1,5.87,6.25A6.6,6.6,0,0,1,989.52,573.35Z"/><path class="cls-5" d="M1041,492.17c-.11-3.52,2.08-6.08,5.38-6.29s6.6,2.49,6.75,5.62-2.87,6.55-5.84,6.68A6.09,6.09,0,0,1,1041,492.17Z"/><path class="cls-5" d="M914,592.12c-4,.07-6-1.85-6-5.81a6,6,0,0,1,5.5-6.23c3.12-.16,6.62,3.29,6.56,6.46S917.49,592.06,914,592.12Z"/><path class="cls-5" d="M913.68,554.69a5.8,5.8,0,0,1-5.65-6.44,5.94,5.94,0,0,1,5.87-5.83c3.18.07,6.27,3.2,6.18,6.26A6.59,6.59,0,0,1,913.68,554.69Z"/><path class="cls-5" d="M1041,548.56a5.9,5.9,0,0,1,5.53-6.18c3.24-.16,6.49,2.73,6.56,5.83a6.68,6.68,0,0,1-6.5,6.45C1043.38,554.6,1041,552,1041,548.56Z"/><path class="cls-5" d="M908.11,492.34c-.09-3.81,1.76-6,5.25-6.12s6.41,2.18,6.58,5.56c.15,3.08-2.86,6.25-6.06,6.39A5.69,5.69,0,0,1,908.11,492.34Z"/><path class="cls-5" d="M926.82,566.71a6.31,6.31,0,0,1,7-5.25,5.82,5.82,0,0,1,5,6.6,6.08,6.08,0,0,1-6.85,5.31A6.26,6.26,0,0,1,926.82,566.71Z"/><path class="cls-5" d="M933,648.7a5.93,5.93,0,0,1-6.25-6,6.49,6.49,0,0,1,6.2-6.18,6,6,0,0,1,5.89,5.86A5.71,5.71,0,0,1,933,648.7Z"/><path class="cls-5" d="M1014.82,623.93a5.76,5.76,0,0,1-5.58,6.07,6,6,0,1,1-.21-12A5.78,5.78,0,0,1,1014.82,623.93Z"/><path class="cls-5" d="M1071.81,548.66a6,6,0,0,1-6.21,6c-3-.14-5.89-3.18-5.84-6.06a6,6,0,0,1,5.89-5.82A5.71,5.71,0,0,1,1071.81,548.66Z"/><path class="cls-5" d="M1047,630a5.75,5.75,0,0,1-6-5.6,5.87,5.87,0,0,1,5.79-6.35,6.33,6.33,0,0,1,6.19,6.12A6.14,6.14,0,0,1,1047,630Z"/><path class="cls-5" d="M996,624.08a6.23,6.23,0,0,1-6.23,5.66c-3.55,0-5.72-2.6-5.53-6.51.18-3.59,2.42-5.52,6.11-5.27A5.94,5.94,0,0,1,996,624.08Z"/><path class="cls-5" d="M952,629.91A5.94,5.94,0,1,1,951.8,618c3.19-.06,6.37,3,6.31,6C958.06,627,955,629.89,952,629.91Z"/><path class="cls-5" d="M1033.69,567.44a6.09,6.09,0,0,1-5.84,5.88c-2.86.06-5.95-3-6-5.88a6.26,6.26,0,0,1,6.26-6A5.69,5.69,0,0,1,1033.69,567.44Z"/><path class="cls-5" d="M1046.89,516.76a6,6,0,0,1-5.86-5.93,6.11,6.11,0,0,1,5.84-6c2.85,0,6,3.13,6,6A6.12,6.12,0,0,1,1046.89,516.76Z"/><path class="cls-5" d="M1103.82,599.44a5.64,5.64,0,0,1,5.83,5.76,6,6,0,0,1-5.54,5.71,6.12,6.12,0,0,1-6.08-5.69A5.68,5.68,0,0,1,1103.82,599.44Z"/><path class="cls-5" d="M1027.92,523.76a5.76,5.76,0,0,1,.14,11.51,6.3,6.3,0,0,1-6.12-5.7C1021.88,526.6,1024.78,523.79,1027.92,523.76Z"/><path class="cls-5" d="M946.25,567.51a5.75,5.75,0,0,1,5.65-6,5.83,5.83,0,0,1,0,11.65A5.67,5.67,0,0,1,946.25,567.51Z"/><path class="cls-5" d="M1109.66,529.49a5.82,5.82,0,0,1-5.93,5.8,6.05,6.05,0,0,1-5.62-5.69,5.78,5.78,0,0,1,11.55-.11Z"/><path class="cls-5" d="M1145.2,642.8a5.26,5.26,0,0,1-5.5,5.53c-3.33-.07-5.75-2.27-5.85-5.33a6.21,6.21,0,0,1,5.6-6.23C1142.47,636.65,1145.17,639.49,1145.2,642.8Z"/><path class="cls-5" d="M995.55,642.58A5.78,5.78,0,0,1,990,648.3a5.59,5.59,0,0,1-5.72-5.46c-.05-3.27,2.66-6.15,5.71-6.07A6,6,0,0,1,995.55,642.58Z"/><path class="cls-5" d="M1084.63,610.58a5.16,5.16,0,0,1-5.36-5.54,5.3,5.3,0,0,1,5.84-5.58c2.92.14,5.65,2.85,5.64,5.61A5.77,5.77,0,0,1,1084.63,610.58Z"/><path class="cls-5" d="M1071.69,623.84a5.94,5.94,0,0,1-5.44,5.77,5.71,5.71,0,0,1-.57-11.41A5.83,5.83,0,0,1,1071.69,623.84Z"/><path class="cls-5" d="M919.31,510.78a5.52,5.52,0,0,1-5.26,5.85,5.67,5.67,0,0,1-5.73-5.45,5.76,5.76,0,0,1,5.37-5.83A5.37,5.37,0,0,1,919.31,510.78Z"/><path class="cls-5" d="M995.55,548.75a5.65,5.65,0,0,1-6,5.12,5.49,5.49,0,0,1-5.18-6.32c.33-3.14,2.83-5.08,6.15-4.77A5.34,5.34,0,0,1,995.55,548.75Z"/><path class="cls-5" d="M1109.61,623.74c.09,3.1-2.24,5.37-5.61,5.47s-5.84-2.05-5.87-5.16a5.91,5.91,0,0,1,5.61-5.73A5.85,5.85,0,0,1,1109.61,623.74Z"/><path class="cls-5" d="M1139.88,599.36a5.45,5.45,0,0,1,5.32,5.7,5.68,5.68,0,0,1-11.35-.15A5.66,5.66,0,0,1,1139.88,599.36Z"/><path class="cls-5" d="M1084.64,618.41a5.3,5.3,0,0,1,5.74,5.28c.14,3.47-1.74,5.44-5.27,5.53s-5.74-1.82-5.82-5.08A5.4,5.4,0,0,1,1084.64,618.41Z"/><path class="cls-5" d="M919.28,605.3a5.72,5.72,0,0,1-5.57,5.63c-2.76,0-5.42-3-5.32-5.95a5.7,5.7,0,0,1,5.38-5.33A5.63,5.63,0,0,1,919.28,605.3Z"/><path class="cls-5" d="M1046.89,524.31c3.44,0,5.4,2,5.34,5.53a5.4,5.4,0,0,1-5.18,5.45,5.77,5.77,0,0,1-5.79-5.47A5.51,5.51,0,0,1,1046.89,524.31Z"/><path class="cls-5" d="M1027.78,610.51a5.43,5.43,0,0,1-5.39-5.71,5.54,5.54,0,0,1,5.38-5.28,5.82,5.82,0,0,1,5.72,6A5.59,5.59,0,0,1,1027.78,610.51Z"/><path class="cls-5" d="M1009,648.33a5.75,5.75,0,0,1-5.77-5.4c-.12-2.79,2.64-5.47,5.66-5.48a5,5,0,0,1,5.27,5.13C1014.31,645.91,1012.21,648.24,1009,648.33Z"/><path class="cls-5" d="M1103.88,572.59c-3.42,0-5.46-2-5.4-5.42a5.64,5.64,0,0,1,5.16-5.5,6,6,0,0,1,5.78,5.5A5.23,5.23,0,0,1,1103.88,572.59Z"/><path class="cls-5" d="M1066,572.7c-3.27.06-5.32-1.77-5.43-4.87s2.29-6,5.08-6,6,3,5.9,6C1071.44,570.48,1069,572.63,1066,572.7Z"/><path class="cls-5" d="M932.72,580.94a5.4,5.4,0,0,1,5.74,5.28,5.49,5.49,0,0,1-11,.4A5.17,5.17,0,0,1,932.72,580.94Z"/><path class="cls-5" d="M952,610.51a5.6,5.6,0,0,1-5.59-5.06,5.85,5.85,0,0,1,5.33-5.9,5.73,5.73,0,0,1,5.57,5.61A5.58,5.58,0,0,1,952,610.51Z"/><path class="cls-5" d="M1065.9,647.82a5,5,0,0,1-5.31-5.15,5.52,5.52,0,0,1,5.51-5.16c2.58.09,5.31,3,5.17,5.63A5.13,5.13,0,0,1,1065.9,647.82Z"/><path class="cls-5" d="M989.69,590.87a4.93,4.93,0,0,1-5-5,5.21,5.21,0,0,1,5.19-4.89,4.75,4.75,0,0,1,4.75,5.16C994.61,589.3,992.85,591,989.69,590.87Z"/><path class="cls-5" d="M1032.66,642.75a5.3,5.3,0,0,1-4.84,4.75,4.78,4.78,0,0,1-4.5-4.93,4.27,4.27,0,0,1,4.49-4.29A4.54,4.54,0,0,1,1032.66,642.75Z"/><path class="cls-5" d="M1099.56,548.48c-.06-2.66,1.53-4.44,4.07-4.53a4.75,4.75,0,0,1,4.89,4.47,4.87,4.87,0,0,1-4.77,4.6A4.33,4.33,0,0,1,1099.56,548.48Z"/><path class="cls-5" d="M1047,647.34a4.9,4.9,0,0,1-4.49-4.42,4.65,4.65,0,0,1,4.2-4.15,4.28,4.28,0,0,1,4.39,4.29C1051,645.07,1048.89,647.31,1047,647.34Z"/><path class="cls-5" d="M956.19,643a4.71,4.71,0,0,1-4.27,4.15,4.57,4.57,0,0,1-4.26-4.58,4.51,4.51,0,0,1,4.44-3.9A4.75,4.75,0,0,1,956.19,643Z"/><path class="cls-5" d="M1104,590.17a4,4,0,0,1-.5-8.08,4,4,0,0,1,4.47,4.06A3.68,3.68,0,0,1,1104,590.17Z"/><path class="cls-5" d="M932.94,619.82a4.08,4.08,0,1,1-.17,8.15,4.08,4.08,0,0,1,.17-8.15Z"/><path class="cls-5" d="M1047,563.3a4.24,4.24,0,0,1,4,4.27,4.08,4.08,0,0,1-4.2,4,4.21,4.21,0,0,1-4-4.25A4.3,4.3,0,0,1,1047,563.3Z"/><path class="cls-5" d="M989.84,608.76a3.82,3.82,0,0,1-4.07-4,4.37,4.37,0,0,1,4.43-3.89,4.31,4.31,0,0,1,3.84,4A3.87,3.87,0,0,1,989.84,608.76Z"/><path class="cls-5" d="M1069.92,605.18c0,2.23-1.42,3.6-3.82,3.68a3.79,3.79,0,0,1-4.18-3.88,3.7,3.7,0,0,1,3.84-3.72A3.82,3.82,0,0,1,1069.92,605.18Z"/><path class="cls-5" d="M1031.67,586.14a4,4,0,0,1-4.12,3.93c-2-.11-3.41-1.79-3.31-4.11a3.63,3.63,0,0,1,3.75-3.71A3.85,3.85,0,0,1,1031.67,586.14Z"/><path class="cls-5" d="M1028,627.77a3.63,3.63,0,0,1-3.71-3.35,3.84,3.84,0,0,1,3.54-4.49,3.89,3.89,0,0,1,3.87,3.78A4.25,4.25,0,0,1,1028,627.77Z"/><path class="cls-5" d="M895.94,579.49a6.86,6.86,0,0,1,6.6,6.84,6.19,6.19,0,0,1-6.47,6.27c-3.84-.09-6.53-2.64-6.59-6.21A6.56,6.56,0,0,1,895.94,579.49Z"/><path class="cls-5" d="M896.12,629.91a5.94,5.94,0,1,1-.24-11.87c3.19-.06,6.37,3,6.31,6C902.14,627,899.08,629.89,896.12,629.91Z"/><path class="cls-5" d="M890.33,567.51a5.75,5.75,0,0,1,5.65-6,5.83,5.83,0,0,1,0,11.65A5.67,5.67,0,0,1,890.33,567.51Z"/><path class="cls-5" d="M896,610.51a5.6,5.6,0,0,1-5.59-5.06,5.85,5.85,0,0,1,5.33-5.9,5.72,5.72,0,0,1,5.57,5.61A5.58,5.58,0,0,1,896,610.51Z"/><path class="cls-5" d="M900.27,643a4.71,4.71,0,0,1-4.27,4.15,4.57,4.57,0,0,1-4.26-4.58,4.51,4.51,0,0,1,4.45-3.9A4.75,4.75,0,0,1,900.27,643Z"/></g></g></svg>