<svg id="Layer_1" data-name="Layer 1" xmlns="http://www.w3.org/2000/svg" xmlns:xlink="http://www.w3.org/1999/xlink" viewBox="0 0 1152 648"><defs><style>.cls-1{fill:none;}.cls-2{fill:#a1b7cb;}.cls-3{clip-path:url(#clip-path);}.cls-4{fill:#447099;}.cls-5{clip-path:url(#clip-path-2);}.cls-6{opacity:0.7;}.cls-7{fill:#2e7aa8;}.cls-8{clip-path:url(#clip-path-3);}.cls-9{clip-path:url(#clip-path-4);}</style><clipPath id="clip-path"><rect class="cls-1" x="-1210.66" width="1152" height="648"/></clipPath><clipPath id="clip-path-2"><rect class="cls-1" x="-1210.66" y="-668.44" width="1152" height="648"/></clipPath><clipPath id="clip-path-3"><rect class="cls-1" width="1152" height="648"/></clipPath><clipPath id="clip-path-4"><rect class="cls-1" y="-668.44" width="1152" height="648"/></clipPath></defs><rect class="cls-2" width="1152" height="648"/><g class="cls-3"><path class="cls-4" d="M339.66,642.61a7.1,7.1,0,0,1,7.57-7,7.22,7.22,0,0,1,7,7.2c-.07,3.85-3.79,7.57-7.46,7.44A7.5,7.5,0,0,1,339.66,642.61Z"/><path class="cls-4" d="M335,642.61a7,7,0,0,1-7.28,6.81,6.89,6.89,0,0,1,.12-13.77A7.14,7.14,0,0,1,335,642.61Z"/><path class="cls-4" d="M353.72,473c.06,4.06-2.45,6.7-6.47,6.81a7,7,0,0,1-7.4-6.62c-.07-3.24,3.44-7,6.71-7.1A7,7,0,0,1,353.72,473Z"/><path class="cls-4" d="M524.75,586.17a6.54,6.54,0,0,1-6.64,6.77,7,7,0,0,1-7.22-6.82,7.26,7.26,0,0,1,6.75-6.91A7.09,7.09,0,0,1,524.75,586.17Z"/><path class="cls-4" d="M498.85,536.48c-4.14,0-6.82-2.86-6.71-7.09a6.91,6.91,0,0,1,6.88-6.65,6.87,6.87,0,1,1-.17,13.74Z"/><path class="cls-4" d="M486.65,605.11a6.82,6.82,0,0,1-7,6.94,7.38,7.38,0,0,1-6.75-6.9,6.89,6.89,0,0,1,6.74-6.72C483.94,598.31,486.6,600.85,486.65,605.11Z"/><path class="cls-4" d="M365.8,555.39a6.72,6.72,0,0,1-6.65-6.77,6.89,6.89,0,0,1,6.84-7.13,7.43,7.43,0,0,1,6.86,6.83A7.27,7.27,0,0,1,365.8,555.39Z"/><path class="cls-4" d="M441.85,598.43c4.11,0,6.65,2.4,6.76,6.45a6.84,6.84,0,0,1-6.25,7.18c-3.74.15-7.49-3.16-7.55-6.66A7,7,0,0,1,441.85,598.43Z"/><path class="cls-4" d="M404.24,635.77c3.47.11,6.27,3.37,6.23,7.27s-2.71,6.58-6.78,6.48a6.68,6.68,0,0,1-6.76-6.77A7.49,7.49,0,0,1,404.24,635.77Z"/><path class="cls-4" d="M24.06,598.33c3.8.11,7,3.18,6.93,6.61a7.11,7.11,0,0,1-7.44,6.66c-4-.1-6.53-2.89-6.37-6.92S19.87,598.22,24.06,598.33Z"/><path class="cls-4" d="M461.16,554.82a6.69,6.69,0,0,1-6.92-6c-.24-3.39,3-6.91,6.47-7a7,7,0,0,1,6.94,6.54A6.72,6.72,0,0,1,461.16,554.82Z"/><path class="cls-4" d="M385.32,592.64c-4,.12-6.59-2.19-6.74-6-.17-4,2.5-7.08,6.21-7.09a7.43,7.43,0,0,1,6.86,6.39C391.9,589.26,388.8,592.53,385.32,592.64Z"/><path class="cls-4" d="M232.75,649.2a6.55,6.55,0,0,1-6.22-6.7,6,6,0,0,1,6.25-6c3.86,0,6.45,2.46,6.44,6.24A6.57,6.57,0,0,1,232.75,649.2Z"/><path class="cls-4" d="M289.74,611.22c-3.6-.1-5.95-2.59-5.94-6.3,0-3.95,2.59-6.55,6.33-6.37a6.84,6.84,0,0,1,6.29,6.31A6.71,6.71,0,0,1,289.74,611.22Z"/><path class="cls-4" d="M68.27,604.83a6.54,6.54,0,0,1-6.1,6.37,6.62,6.62,0,0,1-6.71-6.28,6.32,6.32,0,0,1,6.08-6.29A6.54,6.54,0,0,1,68.27,604.83Z"/><path class="cls-4" d="M68.28,548.46A6.67,6.67,0,0,1,62,554.69a6.35,6.35,0,1,1,6.29-6.23Z"/><path class="cls-4" d="M308.58,629.91a6.33,6.33,0,0,1-6-6.33c.06-3.25,3.48-6.56,6.63-6.4a7,7,0,0,1,6.13,6.46A6.7,6.7,0,0,1,308.58,629.91Z"/><path class="cls-4" d="M308.75,592a6.13,6.13,0,0,1-6.21-6.53,6.33,6.33,0,0,1,12.65.7A6,6,0,0,1,308.75,592Z"/><path class="cls-4" d="M479.79,580a6.59,6.59,0,0,1,6.47,6,6.36,6.36,0,0,1-6.3,6.57,6.27,6.27,0,1,1-.17-12.54Z"/><path class="cls-4" d="M536.88,649a6.18,6.18,0,0,1-6.39-6,6.4,6.4,0,1,1,12.8,0A6.36,6.36,0,0,1,536.88,649Z"/><path class="cls-4" d="M346.89,573.59a6.13,6.13,0,1,1,.06-12.25,6.21,6.21,0,0,1,6.36,6C353.46,570.91,350.73,573.59,346.89,573.59Z"/><path class="cls-4" d="M296.19,642.7c-.06,3.73-2.73,6.15-6.62,6s-5.84-2.29-5.79-6.2,2.5-6.21,6.48-6A5.87,5.87,0,0,1,296.19,642.7Z"/><path class="cls-4" d="M486,491.72a6.43,6.43,0,0,1-6,6.45,6.72,6.72,0,0,1-6.34-6.2,6.32,6.32,0,0,1,5.87-6.08A6,6,0,0,1,486,491.72Z"/><path class="cls-4" d="M315.07,604.9a6.44,6.44,0,0,1-6.38,6.06,6.32,6.32,0,0,1-5.93-6c0-3.23,3-6.37,6.12-6.32A6.37,6.37,0,0,1,315.07,604.9Z"/><path class="cls-4" d="M486.05,548.48a6.35,6.35,0,0,1-6.28,6.16,6.16,6.16,0,1,1,6.28-6.16Z"/><path class="cls-4" d="M428.93,567.09a6.14,6.14,0,0,1-6.06,6.28c-3.37.06-6-2.67-6-6.3s2.06-5.7,5.73-5.8S428.9,563.5,428.93,567.09Z"/><path class="cls-4" d="M219.85,585.8c.07,3.7-2.25,6.14-5.9,6.21a5.86,5.86,0,0,1-6.22-6,6.18,6.18,0,0,1,5.78-6.07A5.87,5.87,0,0,1,219.85,585.8Z"/><path class="cls-4" d="M366,636.58a6.4,6.4,0,0,1,6.12,6.25,5.82,5.82,0,0,1-5.87,5.85c-3.8.12-6.12-2.08-6.19-5.85A5.93,5.93,0,0,1,366,636.58Z"/><path class="cls-4" d="M352.83,548.89A5.87,5.87,0,0,1,347,554.7a6.14,6.14,0,1,1,0-12.28C350.09,542.48,352.93,545.62,352.83,548.89Z"/><path class="cls-4" d="M43,636.56a5.87,5.87,0,0,1,5.81,6.37,5.67,5.67,0,0,1-6,5.59,6,6,0,1,1,.24-12Z"/><path class="cls-4" d="M68.09,585.92A6.23,6.23,0,0,1,61.77,592c-3.36,0-5.67-2.44-5.69-6a5.71,5.71,0,0,1,5.6-6.09A6.2,6.2,0,0,1,68.09,585.92Z"/><path class="cls-4" d="M251.93,636.55a5.91,5.91,0,1,1-6.09,6.1A6,6,0,0,1,251.93,636.55Z"/><path class="cls-4" d="M18.07,567.07c.06-3.56,2.26-5.73,5.8-5.73a6,6,0,0,1,6.13,5.6c.07,3.13-3.07,6.49-6,6.45A6,6,0,0,1,18.07,567.07Z"/><path class="cls-4" d="M175.85,617.84c3.94,0,6,2,6,5.9a5.77,5.77,0,0,1-6.11,6,6.44,6.44,0,0,1-6-5.88A5.92,5.92,0,0,1,175.85,617.84Z"/><path class="cls-4" d="M385,629.91a6,6,0,0,1-6.18-5.59,6,6,0,0,1,6-6.28,5.94,5.94,0,1,1,.22,11.87Z"/><path class="cls-4" d="M296,586.19a5.93,5.93,0,0,1-6.07,5.66,5.61,5.61,0,0,1-5.89-6.16,5.76,5.76,0,0,1,5.91-5.74A6.19,6.19,0,0,1,296,586.19Z"/><path class="cls-4" d="M290,523.35a6.24,6.24,0,0,1,6,6.34,6.15,6.15,0,0,1-6.14,5.65,6,6,0,0,1,.17-12Z"/><path class="cls-4" d="M80.83,648.72a5.72,5.72,0,0,1-6-5.58c-.08-3.14,2.88-6.41,5.91-6.5a6.34,6.34,0,0,1,6.21,6.13C87,646.32,84.55,648.73,80.83,648.72Z"/><path class="cls-4" d="M480.08,630c-3.21.08-6.18-2.48-6.35-5.46-.18-3.14,2.84-6.45,5.92-6.5a6.16,6.16,0,0,1,6.28,6A6.07,6.07,0,0,1,480.08,630Z"/><path class="cls-4" d="M428.89,623.64a6,6,0,0,1-6.18,6.1,5.65,5.65,0,0,1-5.68-5.55A5.57,5.57,0,0,1,422.4,618C426.08,617.76,428.76,620.11,428.89,623.64Z"/><path class="cls-4" d="M81,542.77a5.84,5.84,0,0,1,5.9,5.76,6.24,6.24,0,0,1-6.19,6.12,6.13,6.13,0,0,1-5.9-5.91A6,6,0,0,1,81,542.77Z"/><path class="cls-4" d="M-1.26,623.89A6,6,0,0,1,5,618a5.68,5.68,0,0,1,5.75,5.85,6,6,0,0,1-5.64,6.06C2,630-1.28,626.9-1.26,623.89Z"/><path class="cls-4" d="M352.84,586.38c.05,3.5-2.12,5.65-5.81,5.74a5.75,5.75,0,0,1-6.25-5.43,6.72,6.72,0,0,1,5.94-6.6C349.94,580,352.79,582.88,352.84,586.38Z"/><path class="cls-4" d="M493,548.12a5.84,5.84,0,0,1,6.71-5.34,6,6,0,0,1,5.32,6.34,6.62,6.62,0,0,1-6.39,5.5A5.92,5.92,0,0,1,493,548.12Z"/><path class="cls-4" d="M365.74,573.41a5.71,5.71,0,0,1-5.7-5.92,5.77,5.77,0,0,1,6-6.07c3,.07,6,3,6,5.88A6.66,6.66,0,0,1,365.74,573.41Z"/><path class="cls-4" d="M460.67,573.32a6,6,0,0,1-5.62-6.59,5.52,5.52,0,0,1,5.81-5.3c3.33,0,6.31,3.09,6.09,6.22C466.76,570.46,463.46,573.44,460.67,573.32Z"/><path class="cls-4" d="M314.75,566.77a6.23,6.23,0,0,1-6,6.36c-2.86,0-5.93-3.11-6-6a5.84,5.84,0,0,1,5.94-5.78C312.45,561.26,314.71,563.31,314.75,566.77Z"/><path class="cls-4" d="M447.59,624c.05,3.62-2.13,6-5.54,6a6,6,0,1,1-.12-12C445.34,618,447.55,620.35,447.59,624Z"/><path class="cls-4" d="M93.83,604.89c.06-3.06,2.94-6.09,5.79-6.1S106,602.16,106,605s-3.49,6.2-6.45,6A6.19,6.19,0,0,1,93.83,604.89Z"/><path class="cls-4" d="M352.75,492.08a6.25,6.25,0,0,1-5.81,6.09,6.52,6.52,0,0,1-6.13-6.35,5.81,5.81,0,0,1,6.13-5.61A5.65,5.65,0,0,1,352.75,492.08Z"/><path class="cls-4" d="M334.06,623.9a6.07,6.07,0,0,1-6.23,5.58c-3.6-.13-5.91-2.41-5.85-5.78.07-3.61,2.59-5.91,6.33-5.76A5.81,5.81,0,0,1,334.06,623.9Z"/><path class="cls-4" d="M62,504.7a5.89,5.89,0,0,1,0,11.78c-3.57,0-5.85-2.18-5.93-5.62A5.67,5.67,0,0,1,62,504.7Z"/><path class="cls-4" d="M485.68,510.87a5.73,5.73,0,0,1-5.85,5.89c-2.93,0-6.13-3.15-6.07-5.95s3.36-6,6.13-6A6,6,0,0,1,485.68,510.87Z"/><path class="cls-4" d="M328.07,459.55c-3.7.05-5.94-1.95-6.07-5.42-.13-3.71,2.19-6,6-5.95a5.87,5.87,0,0,1,6,5.68A5.75,5.75,0,0,1,328.07,459.55Z"/><path class="cls-4" d="M48.64,604.67a5.65,5.65,0,0,1-5.79,5.84c-2.88,0-5.78-2.71-5.93-5.42s2.86-6.1,5.73-6.26S48.62,601.62,48.64,604.67Z"/><path class="cls-4" d="M531.19,529.66a5.6,5.6,0,0,1,5.66-5.9,6,6,0,0,1,5.91,5.85c0,2.91-3,5.76-6.08,5.66A5.62,5.62,0,0,1,531.19,529.66Z"/><path class="cls-4" d="M227.32,566.65a5.51,5.51,0,0,1,6.35-5.11c2.81.36,5.35,3.38,5.11,6.09a6,6,0,0,1-6.33,5.38C229.14,572.75,227,570.12,227.32,566.65Z"/><path class="cls-4" d="M384.8,561.46a6.1,6.1,0,0,1,5.93,5.93,6.37,6.37,0,0,1-5.74,5.72,6.18,6.18,0,0,1-5.9-5.5A6.09,6.09,0,0,1,384.8,561.46Z"/><path class="cls-4" d="M493.25,623.89a5.56,5.56,0,0,1,5.46-5.7c3,0,6.17,2.92,6.17,5.77,0,2.66-2.94,5.61-5.72,5.73A5.79,5.79,0,0,1,493.25,623.89Z"/><path class="cls-4" d="M455.09,529.51a6,6,0,0,1,6.07-5.72,5.93,5.93,0,0,1,5.49,5.8,6,6,0,0,1-5.6,5.7A5.87,5.87,0,0,1,455.09,529.51Z"/><path class="cls-4" d="M327.7,561.42a6,6,0,0,1,6,5.76,5.81,5.81,0,0,1-11.57.32A5.72,5.72,0,0,1,327.7,561.42Z"/><path class="cls-4" d="M219.63,624c-.07,3-2.57,5.22-5.83,5.2s-6-2.77-5.87-5.77c.15-2.68,3.12-5.35,6-5.37A5.89,5.89,0,0,1,219.63,624Z"/><path class="cls-4" d="M5,553.89c-3.38,0-5.81-2.09-5.95-5.14a6.05,6.05,0,0,1,5.77-6,5.84,5.84,0,0,1,5.89,5.78A5.42,5.42,0,0,1,5,553.89Z"/><path class="cls-4" d="M232.92,618.12a5.48,5.48,0,0,1,5.59,5.47c.14,3.7-1.78,5.61-5.63,5.62s-5.52-1.67-5.58-5.17A5.51,5.51,0,0,1,232.92,618.12Z"/><path class="cls-4" d="M422.9,553.87a5.53,5.53,0,0,1-5.59-5.54,5.28,5.28,0,0,1,5.46-5.57,5.74,5.74,0,0,1,6,5.67A5.94,5.94,0,0,1,422.9,553.87Z"/><path class="cls-4" d="M327.79,504.8a6.14,6.14,0,0,1,5.86,5.89,5.4,5.4,0,0,1-5.68,5.38,5.5,5.5,0,0,1-5.81-5.24A5.81,5.81,0,0,1,327.79,504.8Z"/><path class="cls-4" d="M428.73,642.37c.15,2.7-2.73,5.81-5.47,5.91a6.08,6.08,0,0,1-6-5.31c-.22-2.75,2.45-6,5.12-6.2S428.57,639.53,428.73,642.37Z"/><path class="cls-4" d="M24.06,504.8c2.75.1,5.66,3,5.67,5.67a5.72,5.72,0,0,1-6,5.6,5.49,5.49,0,0,1-5.57-5.49A5.89,5.89,0,0,1,24.06,504.8Z"/><path class="cls-4" d="M265.25,605.13a5.64,5.64,0,1,1,11.28,0c0,3.11-2.92,6-5.88,5.88A5.83,5.83,0,0,1,265.25,605.13Z"/><path class="cls-4" d="M542.44,624.12c-.1,3.32-2.13,5.13-5.73,5.1s-5.53-2-5.46-5.32a5.6,5.6,0,1,1,11.19.22Z"/><path class="cls-4" d="M347.1,505.35a5.92,5.92,0,0,1,5.45,5.82,5.73,5.73,0,0,1-5.76,5.46,5.58,5.58,0,0,1-5.31-5.85A5.28,5.28,0,0,1,347.1,505.35Z"/><path class="cls-4" d="M143.6,624c-.09,3.28-2.23,5.22-5.77,5.23s-5.53-1.83-5.51-5.34a5.5,5.5,0,0,1,5.89-5.7A5.63,5.63,0,0,1,143.6,624Z"/><path class="cls-4" d="M81.58,599.53a5.69,5.69,0,0,1,4.92,6.17,5.51,5.51,0,0,1-6.49,5,5.42,5.42,0,0,1-4.62-6.27A5.6,5.6,0,0,1,81.58,599.53Z"/><path class="cls-4" d="M517.85,599.45a5.79,5.79,0,0,1,5.8,5.93,5.57,5.57,0,0,1-5.92,5.22c-3.52,0-5.33-1.94-5.27-5.55S514.58,599.42,517.85,599.45Z"/><path class="cls-4" d="M23.78,459.44a5.49,5.49,0,0,1-5.63-5.5,5.74,5.74,0,0,1,6.05-5.64c2.89.11,5.66,3,5.51,5.82A5.74,5.74,0,0,1,23.78,459.44Z"/><path class="cls-4" d="M105.42,624c0,3.35-2.2,5.29-5.72,5.15s-5.51-2.13-5.39-5.52a5.56,5.56,0,1,1,11.11.37Z"/><path class="cls-4" d="M295.2,567.14c0,3.5-1.91,5.48-5.3,5.45a5.67,5.67,0,0,1-5.76-5.34,5.83,5.83,0,0,1,5.86-5.82C293.14,561.46,295.18,563.71,295.2,567.14Z"/><path class="cls-4" d="M4.79,599.45a5.77,5.77,0,0,1,5.8,5.36,5.57,5.57,0,0,1-5.81,5.74C2,610.48-1,607.63-1,605S2,599.46,4.79,599.45Z"/><path class="cls-4" d="M295.21,548.12c0,3.46-2,5.67-5.16,5.73a5.81,5.81,0,0,1-5.92-5.72,5.52,5.52,0,0,1,5.69-5.37C293.29,542.73,295.17,544.6,295.21,548.12Z"/><path class="cls-4" d="M536.72,610.68a5.62,5.62,0,0,1,0-11.24,5.62,5.62,0,1,1,0,11.24Z"/><path class="cls-4" d="M75.52,567.51a5.55,5.55,0,0,1,5.26-5.81,5.93,5.93,0,0,1,5.66,6,6,6,0,0,1-5.65,5.57C77.9,573.31,75.57,570.73,75.52,567.51Z"/><path class="cls-4" d="M341.56,605.13a5.57,5.57,0,0,1,5.64-5.47,5.92,5.92,0,0,1,5.23,5.53c0,2.93-2.76,5.77-5.55,5.75A5.5,5.5,0,0,1,341.56,605.13Z"/><path class="cls-4" d="M29.36,548.76a5.42,5.42,0,0,1-6,5.1,5.66,5.66,0,0,1-5.14-6,5.56,5.56,0,0,1,6.06-5A5.32,5.32,0,0,1,29.36,548.76Z"/><path class="cls-4" d="M485.39,529.6a5.49,5.49,0,1,1-11,0,5.22,5.22,0,0,1,5.73-5.31A5.11,5.11,0,0,1,485.39,529.6Z"/><path class="cls-4" d="M447.47,643.35a5.46,5.46,0,0,1-6.11,4.94,5.62,5.62,0,0,1-5.06-5.62,5.82,5.82,0,0,1,6-5.22A5.54,5.54,0,0,1,447.47,643.35Z"/><path class="cls-4" d="M517.62,629.21q-5.34-.12-5.08-5.6a5.16,5.16,0,0,1,5.22-5.28,5.93,5.93,0,0,1,5.86,5.86C523.49,627.17,521,629.28,517.62,629.21Z"/><path class="cls-4" d="M371.33,586.28a5.48,5.48,0,0,1-5.61,5.48A5.61,5.61,0,0,1,360.3,586a5.31,5.31,0,0,1,5.46-5.09A5.07,5.07,0,0,1,371.33,586.28Z"/><path class="cls-4" d="M238.41,605a5.55,5.55,0,0,1-11.08.39,5.8,5.8,0,0,1,5.87-5.85A5.55,5.55,0,0,1,238.41,605Z"/><path class="cls-4" d="M536.82,572.59a5.35,5.35,0,0,1-5.54-5.49,5.81,5.81,0,0,1,5.31-5.45,5.58,5.58,0,0,1,5.7,5.44A5.21,5.21,0,0,1,536.82,572.59Z"/><path class="cls-4" d="M466.28,605.28a5.21,5.21,0,0,1-5.32,5.23,5.5,5.5,0,1,1,0-11A5.56,5.56,0,0,1,466.28,605.28Z"/><path class="cls-4" d="M333.34,604.82a5.66,5.66,0,0,1-5.48,5.66,5.6,5.6,0,0,1-5.46-5.71,5.22,5.22,0,0,1,5.21-5.31A5.5,5.5,0,0,1,333.34,604.82Z"/><path class="cls-4" d="M62.57,524a5.56,5.56,0,0,1,4.82,6.22c-.4,2.64-3.41,5-6,4.79-2.86-.3-5.43-3.4-5.1-6.16A5.69,5.69,0,0,1,62.57,524Z"/><path class="cls-4" d="M29.27,491.57a5.47,5.47,0,0,1-5.38,5.68,5.61,5.61,0,0,1-5.5-5.16,5.45,5.45,0,1,1,10.88-.52Z"/><path class="cls-4" d="M29.27,623.58a5.11,5.11,0,0,1-5.36,5.52,5.23,5.23,0,0,1-5.52-5.42,5.37,5.37,0,0,1,5.66-5.35A5.18,5.18,0,0,1,29.27,623.58Z"/><path class="cls-4" d="M290,629.11c-3.28-.08-5.77-2.41-5.7-5.34a5.82,5.82,0,0,1,5.74-5.45c3.19,0,5.16,2.26,5.08,5.76S293.26,629.2,290,629.11Z"/><path class="cls-4" d="M504.35,567.6c0,3.06-2.1,5.06-5.34,5.1a5.29,5.29,0,0,1-5.67-5.36c.09-2.66,2.86-5.47,5.39-5.47C501.43,561.87,504.35,564.85,504.35,567.6Z"/><path class="cls-4" d="M390,604.92c.1,3.35-1.7,5.43-4.82,5.57a5.39,5.39,0,0,1-5.58-5.51,5.58,5.58,0,0,1,5.23-5.45A5.25,5.25,0,0,1,390,604.92Z"/><path class="cls-4" d="M504.19,642.68a5.56,5.56,0,0,1-5.13,5.49c-2.71,0-5.51-2.58-5.56-5.17a6,6,0,0,1,5.26-5.5A5.59,5.59,0,0,1,504.19,642.68Z"/><path class="cls-4" d="M175.84,647.71a5.46,5.46,0,0,1-5.28-5.3,5.52,5.52,0,0,1,5.55-5,5.43,5.43,0,0,1,5.25,5.33A5.22,5.22,0,0,1,175.84,647.71Z"/><path class="cls-4" d="M322.83,529.61c-.1-3.34,1.72-5.32,4.91-5.34a5.38,5.38,0,0,1,5.5,5,5.75,5.75,0,0,1-5.15,5.54A5.18,5.18,0,0,1,322.83,529.61Z"/><path class="cls-4" d="M423.12,590.88a4.74,4.74,0,0,1-5.25-4.66A4.94,4.94,0,0,1,422.6,581a5.23,5.23,0,0,1,5.28,4.79A4.65,4.65,0,0,1,423.12,590.88Z"/><path class="cls-4" d="M67.12,642.43c.1,2.44-2.44,5.06-5,5.16a4.9,4.9,0,1,1-.46-9.78C64.23,637.59,67,640,67.12,642.43Z"/><path class="cls-4" d="M460.64,638.28c2.52-.07,5.06,2,5.15,4.25s-2.62,5-5.09,5a5,5,0,0,1-4.5-4.93A4.37,4.37,0,0,1,460.64,638.28Z"/><path class="cls-4" d="M38.54,623.18a4.19,4.19,0,0,1,4.63-4,4.68,4.68,0,0,1,4.37,5,4.32,4.32,0,0,1-4.78,4C40,628,38.32,626.05,38.54,623.18Z"/><path class="cls-4" d="M237.43,586.3a4.59,4.59,0,0,1-4.73,4.53,5,5,0,0,1-4.47-4.91,4.51,4.51,0,0,1,4.6-4.15A4.29,4.29,0,0,1,237.43,586.3Z"/><path class="cls-4" d="M536.82,553a5.07,5.07,0,0,1-4.55-4.9A4.61,4.61,0,0,1,537,544a4.23,4.23,0,0,1,4.38,4.32A4.53,4.53,0,0,1,536.82,553Z"/><path class="cls-4" d="M23.62,533.71a4.31,4.31,0,0,1-4.43-4.27A4.72,4.72,0,0,1,24,524.89a4.46,4.46,0,0,1,4.34,4.88C28.1,532.28,26.3,533.8,23.62,533.71Z"/><path class="cls-4" d="M327.88,581.69a4.05,4.05,0,0,1,4.41,4.2,4.54,4.54,0,0,1-4.48,4.79,5.17,5.17,0,0,1-4.6-4.89A4.42,4.42,0,0,1,327.88,581.69Z"/><path class="cls-4" d="M479.87,647.32c-1.87,0-4.14-2.15-4.29-4.09a4.59,4.59,0,0,1,4.29-4.46,4.41,4.41,0,0,1,4.25,4A4.61,4.61,0,0,1,479.87,647.32Z"/><path class="cls-4" d="M384.68,638.64a4.89,4.89,0,0,1,4.59,3.86c.2,2-2.32,4.65-4.33,4.62a4.55,4.55,0,0,1-4.19-4.18A4.11,4.11,0,0,1,384.68,638.64Z"/><path class="cls-4" d="M275.15,624.25a4.21,4.21,0,0,1-4.46,3.72,4.14,4.14,0,0,1-4.07-4.12,4.06,4.06,0,0,1,4.15-4C273.12,619.94,275.29,622.11,275.15,624.25Z"/><path class="cls-4" d="M536.79,590.17c-2.63,0-3.89-1.38-3.82-4.11a3.79,3.79,0,0,1,4.12-4,4.21,4.21,0,0,1,4.07,4.21A4.11,4.11,0,0,1,536.79,590.17Z"/><path class="cls-4" d="M28,473a4.41,4.41,0,0,1-4.39,3.86,4.61,4.61,0,0,1-4-4.35c.09-1.93,2.39-3.88,4.49-3.8A4.17,4.17,0,0,1,28,473Z"/><path class="cls-4" d="M332,472.56a4.45,4.45,0,0,1-4,4.31,4,4,0,0,1-4.22-3.88,4.09,4.09,0,0,1,8.17-.43Z"/><path class="cls-4" d="M8.9,642.85a4,4,0,0,1-4.23,3.92A4.16,4.16,0,0,1,.61,642.6a4.53,4.53,0,0,1,4.36-4A4,4,0,0,1,8.9,642.85Z"/><path class="cls-4" d="M213.66,563.19a4.06,4.06,0,1,1,.35,8.11,4.33,4.33,0,0,1-4.3-3.88A4.27,4.27,0,0,1,213.66,563.19Z"/><path class="cls-4" d="M365.79,628a3.89,3.89,0,0,1-3.85-4.19,3.75,3.75,0,0,1,4.06-4,3.89,3.89,0,0,1,3.92,4.16A4,4,0,0,1,365.79,628Z"/><path class="cls-4" d="M323.93,491.67a4.09,4.09,0,0,1,3.89-4.24,4.43,4.43,0,0,1,4.2,4.06,4,4,0,0,1-4,4.13A3.91,3.91,0,0,1,323.93,491.67Z"/><path class="cls-4" d="M479.73,571.54a4.12,4.12,0,1,1,.2-8.23,4.12,4.12,0,0,1-.2,8.23Z"/><path class="cls-4" d="M427,604.62a4,4,0,0,1-4,4.15,3.84,3.84,0,0,1-4.13-4,4,4,0,0,1,4.25-4A3.9,3.9,0,0,1,427,604.62Z"/><path class="cls-4" d="M494.93,605.06a3.82,3.82,0,0,1,4.24-3.81,4,4,0,0,1,4,3.7c.06,2.15-2.39,4.35-4.62,4.16A3.91,3.91,0,0,1,494.93,605.06Z"/><path class="cls-4" d="M464.81,585.91a4.11,4.11,0,0,1-3.55,4.14A3.89,3.89,0,0,1,457,586.7a4.15,4.15,0,0,1,3.71-4.45A4.25,4.25,0,0,1,464.81,585.91Z"/><path class="cls-4" d="M81.06,620a4.34,4.34,0,0,1,3.77,4.52,3.63,3.63,0,0,1-3.8,3.34,4,4,0,0,1-4-4.14A4.28,4.28,0,0,1,81.06,620Z"/><path class="cls-4" d="M464.8,624a4.42,4.42,0,0,1-4.05,3.75,4.14,4.14,0,0,1-3.74-4.42,4,4,0,0,1,4.21-3.44A4.05,4.05,0,0,1,464.8,624Z"/><path class="cls-4" d="M65.59,623.89a3.75,3.75,0,1,1-3.65-4A3.87,3.87,0,0,1,65.59,623.89Z"/><path class="cls-4" d="M308.86,646.36a3.44,3.44,0,0,1-3.53-3.42,3.88,3.88,0,0,1,3.25-4.29,4.31,4.31,0,0,1,4.21,4A4,4,0,0,1,308.86,646.36Z"/><path class="cls-4" d="M274.3,642.75c-.36,2-1.37,3.1-3.45,3.09s-3.23-1.17-3.22-3.13,1.31-3.11,3.29-3.14S273.79,641.07,274.3,642.75Z"/><path class="cls-4" d="M4.63,583.87a2.23,2.23,0,0,1,2.26,2.31A1.8,1.8,0,0,1,5,588.23,2.07,2.07,0,0,1,2.65,586C2.62,584.86,3.44,584.15,4.63,583.87Z"/><path class="cls-4" d="M292.07,510.77a2.16,2.16,0,0,1-2.19,2,1.91,1.91,0,0,1-2.1-2,2.13,2.13,0,0,1,2.42-2.19C291.47,508.7,292,509.59,292.07,510.77Z"/><path class="cls-4" d="M42.84,583.7c1.42.31,2.18,1.08,2.14,2.22a2.13,2.13,0,0,1-2.42,2.1,1.92,1.92,0,0,1-1.88-2.12A2.32,2.32,0,0,1,42.84,583.7Z"/><path class="cls-4" d="M555.06,649a6.19,6.19,0,0,1-6.4-6,6.4,6.4,0,1,1,12.8,0A6.35,6.35,0,0,1,555.06,649Z"/><path class="cls-4" d="M560.61,624.12c-.09,3.32-2.13,5.13-5.72,5.1s-5.53-2-5.47-5.32a5.6,5.6,0,1,1,11.19.22Z"/><path class="cls-4" d="M554.9,610.68a5.62,5.62,0,0,1,0-11.24,5.62,5.62,0,1,1,0,11.24Z"/><path class="cls-4" d="M555,590.17c-2.62,0-3.89-1.38-3.81-4.11a3.78,3.78,0,0,1,4.11-4,4.22,4.22,0,0,1,4.08,4.21A4.13,4.13,0,0,1,555,590.17Z"/></g><g class="cls-5"><g class="cls-6"><path class="cls-7" d="M365.89,75.5a6.41,6.41,0,0,1-6.75-6.66A6.56,6.56,0,0,1,366,61.75a7,7,0,0,1,7,6.69A6.9,6.9,0,0,1,365.89,75.5Z"/><path class="cls-7" d="M106.84,68.41a6.76,6.76,0,0,1-7,7,7,7,0,0,1-7-7,6.92,6.92,0,0,1,7.26-6.77A6.7,6.7,0,0,1,106.84,68.41Z"/><path class="cls-7" d="M80.78.26a7.05,7.05,0,0,1-6.85-7.21,6.88,6.88,0,0,1,7-6.44,6.88,6.88,0,0,1,6.84,7.12A7,7,0,0,1,80.78.26Z"/><path class="cls-7" d="M505.85,12.11A7.13,7.13,0,0,1,499.1,19a7,7,0,0,1-7-7,6.66,6.66,0,0,1,6.69-6.71A6.85,6.85,0,0,1,505.85,12.11Z"/><path class="cls-7" d="M486.63,12.38A6.5,6.5,0,0,1,479.37,19a6.86,6.86,0,0,1-6.43-7.1,7,7,0,0,1,6.93-6.66A6.76,6.76,0,0,1,486.63,12.38Z"/><path class="cls-7" d="M308.67,61.66c4.19-.08,6.81,2.57,6.82,6.9A6.52,6.52,0,0,1,309,75.42a6.88,6.88,0,0,1-.33-13.76Z"/><path class="cls-7" d="M384.79,75.43a6.85,6.85,0,1,1,.14-13.69,6.93,6.93,0,0,1,6.81,7.2A6.63,6.63,0,0,1,384.79,75.43Z"/><path class="cls-7" d="M182.65,87.4a6.91,6.91,0,0,1-6.7,6.82c-3.75,0-7.22-3.42-7.13-7a7.52,7.52,0,0,1,6.88-6.87A7,7,0,0,1,182.65,87.4Z"/><path class="cls-7" d="M4.75,5.12a6.75,6.75,0,0,1,6.85,7.05,6.74,6.74,0,0,1-6.78,6.65,6.94,6.94,0,0,1-6.95-6.6A7,7,0,0,1,4.75,5.12Z"/><path class="cls-7" d="M31,11.9c0,3.35-3.46,6.8-6.95,6.88A6.76,6.76,0,0,1,17.19,12c-.13-4,2.45-6.81,6.46-6.89A7.18,7.18,0,0,1,31,11.9Z"/><path class="cls-7" d="M366.15,24a7.33,7.33,0,0,1,6.72,7.41,6.76,6.76,0,0,1-7.15,6.25c-4.2-.13-6.77-2.93-6.57-7.17A6.83,6.83,0,0,1,366.15,24Z"/><path class="cls-7" d="M460.7,56.25c-4-.08-6.63-2.69-6.59-6.66a7.09,7.09,0,0,1,7.06-7c3.25.13,6.71,3.75,6.71,7C467.87,53.59,464.91,56.34,460.7,56.25Z"/><path class="cls-7" d="M524.74-6.74a7.12,7.12,0,0,1-6.8,6.88c-3.55.08-7.22-3.68-7-7.23a6.87,6.87,0,0,1,7.15-6.4A6.49,6.49,0,0,1,524.74-6.74Z"/><path class="cls-7" d="M429.78,49.65A6.48,6.48,0,0,1,423,56.26c-3.68,0-7-3.11-7.05-6.54,0-3.61,3.7-7.28,7.19-7.14A7.37,7.37,0,0,1,429.78,49.65Z"/><path class="cls-7" d="M106.29,31A6.34,6.34,0,0,1,100,37.1a6.13,6.13,0,0,1-6.37-6,6,6,0,0,1,6.26-6.5A6.14,6.14,0,0,1,106.29,31Z"/><path class="cls-7" d="M536.88,56.15a6.66,6.66,0,0,1-6.39-6.61,6.4,6.4,0,0,1,12.79.09A6.42,6.42,0,0,1,536.88,56.15Z"/><path class="cls-7" d="M182.3,50a6.55,6.55,0,0,1-6.53,5.91,6.31,6.31,0,0,1-6.2-6.67c.19-3.1,3.47-6.14,6.48-6A6.84,6.84,0,0,1,182.3,50Z"/><path class="cls-7" d="M87,87.72a6.2,6.2,0,0,1-6.38,6.44,6.38,6.38,0,0,1-5.93-6.49,6.16,6.16,0,1,1,12.31,0Z"/><path class="cls-7" d="M309,24.59a6.1,6.1,0,0,1,6.29,6.46c-.11,3.39-2.79,5.78-6.47,5.76s-6.25-2.48-6.26-5.9A6.2,6.2,0,0,1,309,24.59Z"/><path class="cls-7" d="M201.21,49.65a6.28,6.28,0,1,1-12.55.18,6.47,6.47,0,0,1,6.41-6.49A6.68,6.68,0,0,1,201.21,49.65Z"/><path class="cls-7" d="M347,56.12a6.29,6.29,0,0,1-6.35-6,6.65,6.65,0,0,1,6.13-6.76,6.73,6.73,0,0,1,6.46,6A6.68,6.68,0,0,1,347,56.12Z"/><path class="cls-7" d="M68.26,30.76a6,6,0,0,1-6.15,6.06c-3.78,0-6.77-2.7-6.64-6.1a6.12,6.12,0,0,1,6.19-6.13A6.21,6.21,0,0,1,68.26,30.76Z"/><path class="cls-7" d="M138.09,81.19a6.57,6.57,0,0,1,6.19,6.66c-.14,3.26-2.93,5.57-6.66,5.5s-6.18-2.51-6.11-6A6.25,6.25,0,0,1,138.09,81.19Z"/><path class="cls-7" d="M334.21,87.29c0,3.67-2.29,6-6,6.07-4,.08-6.78-2.39-6.81-6,0-3.25,3.31-6.35,6.74-6.27A6,6,0,0,1,334.21,87.29Z"/><path class="cls-7" d="M49,68.81c-.09,3.63-2.52,5.94-6.2,5.91a5.92,5.92,0,0,1-6.18-6.45,6.15,6.15,0,0,1,6.78-5.92C47,62.56,49.08,65,49,68.81Z"/><path class="cls-7" d="M87,49.74a6.15,6.15,0,1,1-12.29.07,6.41,6.41,0,0,1,6.13-6.28A6.21,6.21,0,0,1,87,49.74Z"/><path class="cls-7" d="M460.66,18.1c-3.6-.06-5.88-2.56-5.76-6.34.1-3.46,3-6.35,6.15-6.18a6.51,6.51,0,0,1,6.11,6.79C467,15.83,464.36,18.17,460.66,18.1Z"/><path class="cls-7" d="M239.14,30.66A5.85,5.85,0,0,1,233,36.72a6,6,0,1,1-.21-12.07A6.23,6.23,0,0,1,239.14,30.66Z"/><path class="cls-7" d="M258,30.83a5.74,5.74,0,0,1-6.17,6c-3.68-.05-6.08-2.42-6.09-6,0-3.85,2.53-6.3,6.4-6.19A5.76,5.76,0,0,1,258,30.83Z"/><path class="cls-7" d="M543,31c-.12,3.55-2.72,5.91-6.4,5.8a5.87,5.87,0,0,1-6-6.26,6.4,6.4,0,0,1,6.72-5.69A6.1,6.1,0,0,1,543,31Z"/><path class="cls-7" d="M410.05,49.59a6,6,0,0,1-6.23,6.06A6.31,6.31,0,0,1,397.57,50c-.21-3.12,3.21-6.47,6.59-6.45C407.09,43.55,410,46.52,410.05,49.59Z"/><path class="cls-7" d="M257.88,11.72a5.85,5.85,0,0,1-6.06,6.16,6,6,0,0,1-6-6.29A6.57,6.57,0,0,1,251.7,5.5C254.85,5.37,257.87,8.4,257.88,11.72Z"/><path class="cls-7" d="M543.07,68.64a6,6,0,0,1-6.24,6.06,6.27,6.27,0,0,1-6.2-6.18,6.38,6.38,0,0,1,6.09-5.85A6,6,0,0,1,543.07,68.64Z"/><path class="cls-7" d="M328.05,62.54a6,6,0,0,1,6,6.26,6.27,6.27,0,0,1-6.54,5.82c-3.38-.15-5.6-2.58-5.57-6.1C322,64.76,324.29,62.49,328.05,62.54Z"/><path class="cls-7" d="M523.82,68.72a5.74,5.74,0,0,1-6.25,5.9,6.22,6.22,0,0,1-5.91-6,6.15,6.15,0,0,1,6.21-6.08A5.66,5.66,0,0,1,523.82,68.72Z"/><path class="cls-7" d="M239.14,87.27a6,6,0,0,1-6.31,6,6.21,6.21,0,0,1-6.14-6.2,6.36,6.36,0,0,1,6.08-5.85A6.5,6.5,0,0,1,239.14,87.27Z"/><path class="cls-7" d="M352.86,68.58a5.76,5.76,0,0,1-5.54,6.11,6,6,0,1,1-.68-12A5.85,5.85,0,0,1,352.86,68.58Z"/><path class="cls-7" d="M505.07,87.2a6,6,0,0,1-6.1,6.11,5.69,5.69,0,0,1-6-5.6,6.1,6.1,0,0,1,5.77-6.49A6.28,6.28,0,0,1,505.07,87.2Z"/><path class="cls-7" d="M523.74,12.1A5.54,5.54,0,0,1,518,18a6,6,0,0,1-6.27-6,6.29,6.29,0,0,1,6.37-6A5.83,5.83,0,0,1,523.74,12.1Z"/><path class="cls-7" d="M61.93,5.68C65,5.76,68.24,9,68.13,12a6.7,6.7,0,0,1-6.47,6c-3.43-.1-5.71-2.76-5.58-6.5A5.91,5.91,0,0,1,61.93,5.68Z"/><path class="cls-7" d="M403.78,93.26c-3.32-.06-6.16-2.65-6.19-5.64s3-6.05,6.37-6.12A6.43,6.43,0,0,1,410,87.82,5.85,5.85,0,0,1,403.78,93.26Z"/><path class="cls-7" d="M467.05,68.82a6.32,6.32,0,0,1-6.11,5.79,6,6,0,0,1-6-6.32,5.73,5.73,0,0,1,6-5.73A6.23,6.23,0,0,1,467.05,68.82Z"/><path class="cls-7" d="M485.92,30.64c.12,3.81-2.07,6.13-5.84,6.17-3.49,0-6.13-2.19-6.37-5.37a6.3,6.3,0,0,1,6-6.36C483.2,25.06,485.81,27.41,485.92,30.64Z"/><path class="cls-7" d="M270.8,55.35a5.77,5.77,0,0,1-6-6.1,6.56,6.56,0,0,1,5.73-5.72A6.4,6.4,0,0,1,277,49.45C277.1,53,274.58,55.37,270.8,55.35Z"/><path class="cls-7" d="M422.75,74.6a5.87,5.87,0,0,1-5.73-6,5.75,5.75,0,0,1,6.06-6.06,6,6,0,0,1-.33,12Z"/><path class="cls-7" d="M390.83,12.07A5.76,5.76,0,0,1,384.6,18a5.88,5.88,0,0,1-5.76-6,6.11,6.11,0,0,1,6.31-6A5.87,5.87,0,0,1,390.83,12.07Z"/><path class="cls-7" d="M366,93.25c-3.78,0-5.88-1.9-6-5.43s2.41-6.35,5.77-6.36a6.56,6.56,0,0,1,6.23,6.2A5.75,5.75,0,0,1,366,93.25Z"/><path class="cls-7" d="M328.13,36.71a6,6,0,0,1-.39-12,6.21,6.21,0,0,1,6.31,6A6.19,6.19,0,0,1,328.13,36.71Z"/><path class="cls-7" d="M352.84,30.85c0,3.65-2.3,5.93-6.06,6a5.75,5.75,0,0,1-6-5.6c-.11-3.21,2.82-6.38,5.93-6.4A6,6,0,0,1,352.84,30.85Z"/><path class="cls-7" d="M195,93.25A5.57,5.57,0,0,1,189,87.58a5.82,5.82,0,0,1,5.89-6.26c2.9.05,6.07,3,6.19,5.83A6,6,0,0,1,195,93.25Z"/><path class="cls-7" d="M283.92,11.62a6,6,0,0,1,5.92-5.84A6.23,6.23,0,0,1,296,12a6.48,6.48,0,0,1-6,5.87A6,6,0,0,1,283.92,11.62Z"/><path class="cls-7" d="M5,93.25a6.09,6.09,0,0,1-6.24-6c.06-2.86,3.05-5.8,6-5.92a6.11,6.11,0,0,1,6,6.16A5.66,5.66,0,0,1,5,93.25Z"/><path class="cls-7" d="M156.79,55.36c-3.63-.06-5.7-2.13-5.72-5.74s2.61-6.39,5.91-6.27a6.69,6.69,0,0,1,6,6.49A5.83,5.83,0,0,1,156.79,55.36Z"/><path class="cls-7" d="M480.12,93.25c-3.46.09-6.16-2.18-6.39-5.37s2.72-6.17,6.15-6.21a5.77,5.77,0,0,1,6,5.71A5.57,5.57,0,0,1,480.12,93.25Z"/><path class="cls-7" d="M499,25.09a6,6,0,0,1,6,6.17,5.9,5.9,0,0,1-6.14,5.53,5.7,5.7,0,0,1-5.9-6.15A5.63,5.63,0,0,1,499,25.09Z"/><path class="cls-7" d="M390.83,87.69c-.06,3.37-2.43,5.58-6,5.57a5.83,5.83,0,0,1-6.06-6.06c.14-3.19,2.72-5.33,6.31-5.24S390.89,84.19,390.83,87.69Z"/><path class="cls-7" d="M80.77,25.35c3.48,0,6,2.23,6.14,5.49.12,3.47-2.46,6-6.15,6a5.81,5.81,0,0,1-5.94-5.75C74.75,27.83,77.3,25.4,80.77,25.35Z"/><path class="cls-7" d="M518,93.23c-2.92,0-6.13-3-6.19-5.71,0-3.08,2.58-5.51,6-5.56,3.83-.06,5.9,1.83,5.92,5.4A5.75,5.75,0,0,1,518,93.23Z"/><path class="cls-7" d="M29.64,30.58a6.21,6.21,0,0,1-5.83,6.05A5.81,5.81,0,0,1,18.16,31a5.69,5.69,0,0,1,5.74-6A5.79,5.79,0,0,1,29.64,30.58Z"/><path class="cls-7" d="M48.59,31.12a5.69,5.69,0,0,1-5.81,5.34c-3-.19-6-3.35-5.77-6.1a6.24,6.24,0,0,1,6.07-5.23A5.41,5.41,0,0,1,48.59,31.12Z"/><path class="cls-7" d="M143.61,12a5.6,5.6,0,0,1-6,5.68c-3.11-.07-5.32-2.51-5.28-5.84a5.81,5.81,0,0,1,5.43-5.81A6.13,6.13,0,0,1,143.61,12Z"/><path class="cls-7" d="M360.16,12.06a5.85,5.85,0,0,1,5.43-5.8A5.63,5.63,0,0,1,371.43,12a5.6,5.6,0,0,1-5.36,5.81A5.75,5.75,0,0,1,360.16,12.06Z"/><path class="cls-7" d="M143.61,68.26a6,6,0,0,1-5.72,6.1,5.6,5.6,0,0,1-5.57-5.59c-.11-3.31,2-5.81,5.1-6A5.73,5.73,0,0,1,143.61,68.26Z"/><path class="cls-7" d="M447.49,11.92a5.47,5.47,0,0,1-5.82,5.78,5.65,5.65,0,0,1,.23-11.3A5.57,5.57,0,0,1,447.49,11.92Z"/><path class="cls-7" d="M290,82c3.37,0,5.72,2.2,5.71,5.26a6.37,6.37,0,0,1-6,5.84,5.88,5.88,0,0,1-5.54-6.14C284.26,83.63,286.29,81.91,290,82Z"/><path class="cls-7" d="M213.88,44a5.55,5.55,0,1,1-.06,11.1,5.56,5.56,0,1,1,.06-11.1Z"/><path class="cls-7" d="M194.79,36.63a5.73,5.73,0,0,1-5.66-6c.19-3.4,2.58-5.35,6.34-5.16a5.38,5.38,0,0,1,5.27,5.8A6.11,6.11,0,0,1,194.79,36.63Z"/><path class="cls-7" d="M80.72,74.61a6,6,0,0,1-5.48-5.74A5.84,5.84,0,0,1,81.06,63a6.05,6.05,0,0,1,5.49,5.76A5.81,5.81,0,0,1,80.72,74.61Z"/><path class="cls-7" d="M238.51,12c-.1,3.4-2.18,5.42-5.54,5.39-3.6,0-5.77-2.24-5.66-5.76A5.64,5.64,0,0,1,232.85,6,5.76,5.76,0,0,1,238.51,12Z"/><path class="cls-7" d="M10.59,49.9C10.5,53,8.11,55.14,4.81,55.11S-.86,52.93-.86,49.79a6,6,0,0,1,6.05-5.66A5.74,5.74,0,0,1,10.59,49.9Z"/><path class="cls-7" d="M309,55.11a5.88,5.88,0,0,1-6-5.2c-.15-3,2.81-5.85,6-5.81a5.5,5.5,0,0,1,5.62,5.49A5.33,5.33,0,0,1,309,55.11Z"/><path class="cls-7" d="M447.56,31.12A5.57,5.57,0,0,1,442,36.71a5.69,5.69,0,0,1-5.8-5.81c0-3.38,2.5-5.61,6-5.46A5.23,5.23,0,0,1,447.56,31.12Z"/><path class="cls-7" d="M295.22,30.59c0,3.27-2.17,5.71-5.21,5.74a6.14,6.14,0,0,1-5.87-5.41A5.6,5.6,0,0,1,289.8,25,5.34,5.34,0,0,1,295.22,30.59Z"/><path class="cls-7" d="M67.46,68.36a5.15,5.15,0,0,1-5.37,5.54,5.37,5.37,0,0,1-5.89-5.56,5.65,5.65,0,0,1,5.43-5.68A5.59,5.59,0,0,1,67.46,68.36Z"/><path class="cls-7" d="M238.42,68.52c-.07,3.29-2.19,5.31-5.59,5.3-3.59,0-5.7-2.23-5.5-5.81a5.55,5.55,0,0,1,11.09.51Z"/><path class="cls-7" d="M219.49,30.71a6,6,0,0,1-5.65,5.72c-2.76,0-5.77-3-5.78-5.72s2.8-5.52,5.79-5.61A5.69,5.69,0,0,1,219.49,30.71Z"/><path class="cls-7" d="M162.28,87.28A5.56,5.56,0,0,1,156.92,93a5.88,5.88,0,0,1-5.73-5.5c-.13-3,2.27-5.38,5.54-5.45C160.31,82,162.26,83.83,162.28,87.28Z"/><path class="cls-7" d="M276.49,87.24a6,6,0,0,1-5.44,5.88,5.8,5.8,0,0,1-5.75-6c.1-3.06,2.16-5,5.41-5.08C274.19,82,276.48,84,276.49,87.24Z"/><path class="cls-7" d="M276.53,68.33a5.29,5.29,0,0,1-5.47,5.48c-3.42.11-5.65-1.84-5.8-5.07a5.64,5.64,0,1,1,11.27-.41Z"/><path class="cls-7" d="M341.56,87.5a5.13,5.13,0,0,1,5.58-5.33,5.4,5.4,0,0,1,5.29,5.29A5.72,5.72,0,0,1,347,93.15,5.47,5.47,0,0,1,341.56,87.5Z"/><path class="cls-7" d="M485.39,50c0,3.13-2.39,5.34-5.69,5.25A5.09,5.09,0,0,1,474.47,50a5.46,5.46,0,1,1,10.92,0Z"/><path class="cls-7" d="M441.84,82.17a5.28,5.28,0,0,1,5.6,5.43,5.7,5.7,0,0,1-5.17,5.54,5.92,5.92,0,0,1-5.94-5.29A5.74,5.74,0,0,1,441.84,82.17Z"/><path class="cls-7" d="M176.08,17.27a5.28,5.28,0,0,1-5.66-5.39A5.71,5.71,0,0,1,176,6.27a6,6,0,0,1,5.5,5.79A5.44,5.44,0,0,1,176.08,17.27Z"/><path class="cls-7" d="M156.72,73.81a5.59,5.59,0,0,1-5.44-5.68,5.5,5.5,0,0,1,11,.28A5.17,5.17,0,0,1,156.72,73.81Z"/><path class="cls-7" d="M460.94,82.08a5.23,5.23,0,0,1,5.5,5A5.91,5.91,0,0,1,461.06,93c-2.73.08-5.84-2.85-5.85-5.51A5.52,5.52,0,0,1,460.94,82.08Z"/><path class="cls-7" d="M523.37,30.93a5.5,5.5,0,0,1-5.49,5.57,5.43,5.43,0,0,1-5.32-5.26c-.13-3.34,2-5.63,5.19-5.7A5.38,5.38,0,0,1,523.37,30.93Z"/><path class="cls-7" d="M542.29,87.52a5.46,5.46,0,0,1-5.44,5.62,5.85,5.85,0,0,1-5.56-5.67,5.54,5.54,0,0,1,5.33-5.31A5.36,5.36,0,0,1,542.29,87.52Z"/><path class="cls-7" d="M498.61,55.11a5.18,5.18,0,0,1-5.29-5.19,5.91,5.91,0,0,1,5.51-5.69,5.84,5.84,0,0,1,5.49,5.65A5.29,5.29,0,0,1,498.61,55.11Z"/><path class="cls-7" d="M417.64,87.19c.06-3.24,1.91-5.08,5.16-5.11a5.55,5.55,0,0,1,5.78,5.28,6.29,6.29,0,0,1-5.7,5.63A5.52,5.52,0,0,1,417.64,87.19Z"/><path class="cls-7" d="M105.41,11.78a5.28,5.28,0,0,1-5,5.5c-3.38.25-5.8-1.73-6-4.89a5.76,5.76,0,0,1,5.71-5.94A5.53,5.53,0,0,1,105.41,11.78Z"/><path class="cls-7" d="M200.34,68.91c-.12,3.15-2.53,5.16-5.92,5a5.37,5.37,0,0,1-5.18-5.35,6,6,0,0,1,5.82-5.42A5.59,5.59,0,0,1,200.34,68.91Z"/><path class="cls-7" d="M403.82,17.39c-3.28,0-5.33-1.85-5.46-5a5.38,5.38,0,0,1,5.57-5.49A5.44,5.44,0,0,1,409.44,12C409.52,15.22,407.27,17.36,403.82,17.39Z"/><path class="cls-7" d="M208.64,87.18c.1-3.49,2.1-5.3,5.64-5.1a5.09,5.09,0,0,1,5.08,5.39A5.48,5.48,0,0,1,214,92.74,5.09,5.09,0,0,1,208.64,87.18Z"/><path class="cls-7" d="M132.61,30.73a5.3,5.3,0,0,1,5.33-5.17,5.51,5.51,0,0,1,5.43,5.62,6,6,0,0,1-5.69,5A5.39,5.39,0,0,1,132.61,30.73Z"/><path class="cls-7" d="M18.66,49.79a5.41,5.41,0,0,1,5-5.56A5.47,5.47,0,0,1,29,49.49,5.3,5.3,0,0,1,24,55,5.07,5.07,0,0,1,18.66,49.79Z"/><path class="cls-7" d="M333.26,11.88a5.5,5.5,0,0,1-5.73,5.29,5.1,5.1,0,0,1-5-5.47,5.35,5.35,0,0,1,10.69.18Z"/><path class="cls-7" d="M48.33,11.78A5.35,5.35,0,0,1,37.64,12a5.78,5.78,0,0,1,5.24-5.48C45.47,6.41,48.31,9.15,48.33,11.78Z"/><path class="cls-7" d="M441.84,73.81a5.12,5.12,0,1,1,5.53-5A5.32,5.32,0,0,1,441.84,73.81Z"/><path class="cls-7" d="M271,16.37a4.35,4.35,0,0,1-4.68-4.1A5,5,0,0,1,271,7.42,4.81,4.81,0,0,1,275.41,12,4.41,4.41,0,0,1,271,16.37Z"/><path class="cls-7" d="M423,8.07a3.84,3.84,0,0,1,4,4.11,4.12,4.12,0,0,1-8.23-.31A3.84,3.84,0,0,1,423,8.07Z"/><path class="cls-7" d="M213.9,72.54a4.27,4.27,0,0,1-4.24-4.05,4.09,4.09,0,0,1,4.17-4.06A3.9,3.9,0,0,1,218,68.38,4.2,4.2,0,0,1,213.9,72.54Z"/><path class="cls-7" d="M251.93,72.58a4.07,4.07,0,0,1-4.12-4.08,3.87,3.87,0,0,1,4.05-4.07,4,4,0,0,1,4.16,4A4.2,4.2,0,0,1,251.93,72.58Z"/><path class="cls-7" d="M179.88,31a3.9,3.9,0,0,1-4.3,3.7,4,4,0,0,1-3.85-4.22,4.42,4.42,0,0,1,4.41-3.82A4,4,0,0,1,179.88,31Z"/><path class="cls-7" d="M389,31.06a3.87,3.87,0,0,1-4.27,3.79,3.92,3.92,0,0,1-4-4.12,4.31,4.31,0,0,1,4.27-4A4.35,4.35,0,0,1,389,31.06Z"/><path class="cls-7" d="M123.09,68.6c0,2.19-1.91,3.76-4.45,3.71a3.6,3.6,0,0,1-3.75-3.8A3.91,3.91,0,0,1,119,64.44,4.22,4.22,0,0,1,123.09,68.6Z"/><path class="cls-7" d="M408.24,68.5c.07,1.7-2.29,4.11-4.16,4.23a4.26,4.26,0,0,1-4.21-4,4.41,4.41,0,0,1,4-4.24C405.82,64.5,408.17,66.63,408.24,68.5Z"/><path class="cls-7" d="M119,91.21a3.94,3.94,0,0,1-4-4,4.11,4.11,0,0,1,3.83-3.82,4.42,4.42,0,0,1,4.11,4.08A4.05,4.05,0,0,1,119,91.21Z"/><path class="cls-7" d="M255.83,87.41a3.77,3.77,0,0,1-3.75,3.79,3.94,3.94,0,0,1-4.18-3.87,4.74,4.74,0,0,1,3.83-4A4.18,4.18,0,0,1,255.83,87.41Z"/><path class="cls-7" d="M65.88,87.25a3.88,3.88,0,0,1-4,4.13,4.07,4.07,0,0,1-.26-8.13A4.22,4.22,0,0,1,65.88,87.25Z"/><path class="cls-7" d="M327.75,53.46a3.77,3.77,0,0,1-3.87-4.11c.08-2.2,1.54-3.53,3.91-3.54a3.85,3.85,0,1,1,0,7.65Z"/><path class="cls-7" d="M252.07,45.7a3.83,3.83,0,0,1,0,7.66,4,4,0,0,1-4.09-3.58A4.14,4.14,0,0,1,252.07,45.7Z"/><path class="cls-7" d="M305.31,87.64c-.08-2.3,1.33-4.11,3.28-4.2a3.92,3.92,0,1,1,.43,7.83C306.77,91.44,305.4,90.09,305.31,87.64Z"/><path class="cls-7" d="M8.7,30.82a3.78,3.78,0,0,1-3.81,3.83,4.05,4.05,0,0,1-4-3.77A4.42,4.42,0,0,1,4.86,27,4,4,0,0,1,8.7,30.82Z"/><path class="cls-7" d="M309.06,8.1A3.9,3.9,0,0,1,312.81,12a4.13,4.13,0,0,1-3.87,3.82,3.68,3.68,0,0,1-3.63-3.92A3.62,3.62,0,0,1,309.06,8.1Z"/><path class="cls-7" d="M39.36,49.33c.15-2.41,1.59-3.67,3.91-3.41a3.92,3.92,0,0,1,3.59,4,4.06,4.06,0,0,1-4.22,3.42C40.39,53.29,39.21,51.84,39.36,49.33Z"/><path class="cls-7" d="M441.86,53.46c-2.38,0-3.76-1.44-3.67-3.73A3.81,3.81,0,0,1,442,46a3.89,3.89,0,0,1,3.68,3.93C445.71,52.16,444.25,53.5,441.86,53.46Z"/><path class="cls-7" d="M292.07,68.25a2.18,2.18,0,1,1-4.35.32,2,2,0,0,1,1.74-2.33C291,65.93,291.65,67,292.07,68.25Z"/><path class="cls-7" d="M119.11,47.18c1.29.42,2.17,1.22,1.86,2.66a2,2,0,0,1-2.34,1.66,1.85,1.85,0,0,1-1.9-2.08A2.26,2.26,0,0,1,119.11,47.18Z"/><path class="cls-7" d="M26,87.42c-.29,1.45-1,2.12-2.29,2a1.8,1.8,0,0,1-1.86-2.15c.09-1.46.89-2.35,2.41-2.13C25.59,85.37,25.72,86.59,26,87.42Z"/><path class="cls-7" d="M182.65,104.87a6.9,6.9,0,0,1-6.7,6.82c-3.75,0-7.22-3.41-7.13-7a7.51,7.51,0,0,1,6.88-6.86A7,7,0,0,1,182.65,104.87Z"/><path class="cls-7" d="M87,105.2a6.19,6.19,0,0,1-6.38,6.43,6.37,6.37,0,0,1-5.93-6.49A6.16,6.16,0,1,1,87,105.2Z"/><path class="cls-7" d="M138.09,98.66a6.58,6.58,0,0,1,6.19,6.66c-.14,3.27-2.93,5.57-6.66,5.51s-6.18-2.52-6.11-6A6.26,6.26,0,0,1,138.09,98.66Z"/><path class="cls-7" d="M334.21,104.76c0,3.67-2.29,6-6,6.07-4,.08-6.78-2.38-6.81-6,0-3.25,3.31-6.34,6.74-6.26A6,6,0,0,1,334.21,104.76Z"/><path class="cls-7" d="M239.14,104.74a6,6,0,0,1-6.31,6,6.2,6.2,0,0,1-6.14-6.19,6.37,6.37,0,0,1,6.08-5.86A6.51,6.51,0,0,1,239.14,104.74Z"/><path class="cls-7" d="M505.07,104.68a5.94,5.94,0,0,1-6.1,6.1,5.67,5.67,0,0,1-6-5.59,6.09,6.09,0,0,1,5.77-6.49A6.26,6.26,0,0,1,505.07,104.68Z"/><path class="cls-7" d="M403.78,110.74c-3.32-.07-6.16-2.65-6.19-5.65s3-6,6.37-6.12a6.43,6.43,0,0,1,6.08,6.32A5.86,5.86,0,0,1,403.78,110.74Z"/><path class="cls-7" d="M366,110.72c-3.78,0-5.88-1.89-6-5.43s2.41-6.35,5.77-6.35a6.56,6.56,0,0,1,6.23,6.2A5.74,5.74,0,0,1,366,110.72Z"/><path class="cls-7" d="M195,110.72a5.56,5.56,0,0,1-5.92-5.66,5.82,5.82,0,0,1,5.89-6.27c2.9.06,6.07,3,6.19,5.84A6,6,0,0,1,195,110.72Z"/><path class="cls-7" d="M5,110.72a6.08,6.08,0,0,1-6.24-6c.06-2.87,3.05-5.81,6-5.93a6.11,6.11,0,0,1,6,6.16A5.65,5.65,0,0,1,5,110.72Z"/><path class="cls-7" d="M480.12,110.72a5.9,5.9,0,0,1-6.39-5.37c-.23-3.18,2.72-6.16,6.15-6.21a5.77,5.77,0,0,1,6,5.71A5.57,5.57,0,0,1,480.12,110.72Z"/><path class="cls-7" d="M390.83,105.17c-.06,3.36-2.43,5.57-6,5.56a5.83,5.83,0,0,1-6.06-6.06c.14-3.18,2.72-5.33,6.31-5.24S390.89,101.66,390.83,105.17Z"/><path class="cls-7" d="M518,110.7c-2.92,0-6.13-2.94-6.19-5.7,0-3.09,2.58-5.51,6-5.57,3.83-.05,5.9,1.83,5.92,5.41A5.75,5.75,0,0,1,518,110.7Z"/><path class="cls-7" d="M290,99.43c3.37,0,5.72,2.21,5.71,5.27a6.39,6.39,0,0,1-6,5.84,5.88,5.88,0,0,1-5.54-6.15C284.26,101.11,286.29,99.39,290,99.43Z"/><path class="cls-7" d="M162.28,104.76a5.57,5.57,0,0,1-5.36,5.74,5.89,5.89,0,0,1-5.73-5.51c-.13-3,2.27-5.38,5.54-5.45C160.31,99.46,162.26,101.3,162.28,104.76Z"/><path class="cls-7" d="M276.49,104.72a6,6,0,0,1-5.44,5.88,5.81,5.81,0,0,1-5.75-6c.1-3.06,2.16-5,5.41-5.08C274.19,99.46,276.48,101.51,276.49,104.72Z"/><path class="cls-7" d="M341.56,105a5.12,5.12,0,0,1,5.58-5.33,5.38,5.38,0,0,1,5.29,5.29,5.71,5.71,0,0,1-5.48,5.68A5.46,5.46,0,0,1,341.56,105Z"/><path class="cls-7" d="M441.84,99.65a5.27,5.27,0,0,1,5.6,5.42,5.71,5.71,0,0,1-5.17,5.55,5.93,5.93,0,0,1-5.94-5.3A5.73,5.73,0,0,1,441.84,99.65Z"/><path class="cls-7" d="M460.94,99.56a5.22,5.22,0,0,1,5.5,5,5.92,5.92,0,0,1-5.38,5.88c-2.73.08-5.84-2.85-5.85-5.52A5.51,5.51,0,0,1,460.94,99.56Z"/><path class="cls-7" d="M542.29,105a5.47,5.47,0,0,1-5.44,5.62,5.86,5.86,0,0,1-5.56-5.68,5.54,5.54,0,0,1,5.33-5.3A5.35,5.35,0,0,1,542.29,105Z"/><path class="cls-7" d="M555.06,56.15a6.67,6.67,0,0,1-6.4-6.61,6.41,6.41,0,0,1,12.8.09A6.43,6.43,0,0,1,555.06,56.15Z"/><path class="cls-7" d="M561.21,31a6.21,6.21,0,0,1-12.4-.46,6.4,6.4,0,0,1,6.72-5.69A6.1,6.1,0,0,1,561.21,31Z"/><path class="cls-7" d="M561.24,68.64A6,6,0,0,1,555,74.7a6.27,6.27,0,0,1-6.2-6.18,6.39,6.39,0,0,1,6.09-5.85A6,6,0,0,1,561.24,68.64Z"/><path class="cls-7" d="M560.46,87.52A5.46,5.46,0,0,1,555,93.14a5.85,5.85,0,0,1-5.56-5.67,5.55,5.55,0,0,1,5.34-5.31A5.35,5.35,0,0,1,560.46,87.52Z"/><path class="cls-7" d="M560.46,105a5.46,5.46,0,0,1-5.44,5.62,5.86,5.86,0,0,1-5.56-5.68,5.54,5.54,0,0,1,5.34-5.3A5.34,5.34,0,0,1,560.46,105Z"/><path class="cls-7" d="M417.64,104.67c.06-3.25,1.91-5.08,5.16-5.11a5.54,5.54,0,0,1,5.78,5.27,6.31,6.31,0,0,1-5.7,5.64A5.52,5.52,0,0,1,417.64,104.67Z"/><path class="cls-7" d="M208.64,104.66c.1-3.49,2.1-5.31,5.64-5.11a5.09,5.09,0,0,1,5.08,5.4,5.49,5.49,0,0,1-5.35,5.27A5.1,5.1,0,0,1,208.64,104.66Z"/><path class="cls-7" d="M119,108.68a3.93,3.93,0,0,1-4-4,4.12,4.12,0,0,1,3.83-3.83,4.42,4.42,0,0,1,4.11,4.09A4.05,4.05,0,0,1,119,108.68Z"/><path class="cls-7" d="M255.83,104.89a3.76,3.76,0,0,1-3.75,3.78,3.94,3.94,0,0,1-4.18-3.86,4.75,4.75,0,0,1,3.83-4A4.19,4.19,0,0,1,255.83,104.89Z"/><path class="cls-7" d="M65.88,104.73a3.88,3.88,0,0,1-4,4.13,4.08,4.08,0,0,1-.26-8.14A4.23,4.23,0,0,1,65.88,104.73Z"/><path class="cls-7" d="M305.31,105.11c-.08-2.3,1.33-4.1,3.28-4.19a3.92,3.92,0,1,1,.43,7.83C306.77,108.91,305.4,107.56,305.31,105.11Z"/><path class="cls-7" d="M26,104.9c-.29,1.44-1,2.11-2.29,2a1.81,1.81,0,0,1-1.86-2.16c.09-1.45.89-2.34,2.41-2.13C25.59,102.85,25.72,104.06,26,104.9Z"/></g></g><g class="cls-8"><path class="cls-4" d="M1072.27,594.86c4.48-.05,7.92,3.69,8.19,8.56a20.48,20.48,0,0,0,1.33,6.89c1.73,4.05,5.24,6.11,9.5,6.91,4.6.86,7.31,3.7,7.46,7.83s-2.54,7.24-7,8.25c-3.18.72-6.11,1.8-8.37,4.29a11.16,11.16,0,0,0-3,8.15,11.4,11.4,0,0,1-2.77,8c-2.65,3.18-2.6,6.41-.07,9.75,3.81,5,3.81,7.46,0,12.52-2.63,3.52-2.57,6.43.32,10.11,1.77,2.26,3,4.63,2.24,7.59a8,8,0,0,1-7,6.31,7.76,7.76,0,0,1-7.83-3.66,8.08,8.08,0,0,1,.33-9.22c.38-.54.84-1,1.24-1.57a7.47,7.47,0,0,0-.13-9.64c-3.76-4.76-3.77-7.52-.06-12.3,2.68-3.47,2.67-6.56-.16-10.12-1.62-2-2.89-4.17-2.47-6.9a7.91,7.91,0,0,1,6.94-7.09c5.08-.88,9.16-3.31,10.56-8.37,1.54-5.54,1.83-11.2-2.47-16A13.87,13.87,0,0,0,1071,611c-5-1-7.66-5-6.63-9.82A8.13,8.13,0,0,1,1072.27,594.86Z"/><path class="cls-4" d="M990.9,559.22c0-4.78,3.05-8.61,7.22-8.84a9.23,9.23,0,0,1,5.46,2c3.21,2.38,5.84,2.3,8.94-.27,2.92-2.42,6.38-2.14,9.5,0,4.3,3,4.32,3,8.75-.08a7.74,7.74,0,0,1,10.2.65,8.06,8.06,0,0,1,1.12,10.22,6.86,6.86,0,0,1-8.46,3.1,26.2,26.2,0,0,1-4.56-2.27,5.08,5.08,0,0,0-6,.27c-4.94,3.46-6.93,3.42-11.84,0-2.63-1.84-4.06-1.79-7,.47s-5.91,2.7-9.16,1A7,7,0,0,1,990.9,559.22Z"/><path class="cls-4" d="M980.59,611.07c-6,.44-10-6.26-7.6-11,.3-.59.52-1.23.85-1.81a11.86,11.86,0,0,0-.13-12.86,8.09,8.09,0,0,1-.82-7.65c1.89-4.51,6.52-6.28,11.09-4.25a7.79,7.79,0,0,1,3.59,10.77c-3,5.34-2.82,10.23.18,15.52C990.59,604.81,986.41,611.06,980.59,611.07Z"/><path class="cls-4" d="M1154,603a19.74,19.74,0,0,1-1.38,4.14c-2.9,4.75-2.68,9.3,0,14.1a8.08,8.08,0,1,1-14.25.5,29.27,29.27,0,0,0,2.16-4.87c.92-3.41,0-6.55-1.76-9.58a8,8,0,0,1,1.2-10,8.09,8.09,0,0,1,9.67-1.3A8.44,8.44,0,0,1,1154,603Z"/><path class="cls-4" d="M1062.18,558.74a30.41,30.41,0,0,1-1.76,4.73c-2.54,4.51-2.3,8.8.37,13.18a7.92,7.92,0,0,1-1.61,10.3,8.31,8.31,0,0,1-10.3.26,7.5,7.5,0,0,1-2.14-10c3-5.15,3.09-10,0-15.1a7.2,7.2,0,0,1,1.16-9,8,8,0,0,1,9.15-2A8.5,8.5,0,0,1,1062.18,558.74Z"/><path class="cls-4" d="M943.66,655.6a7.38,7.38,0,0,1-7-4.21c-1.47-2.84-1.6-5.69.36-8.41l.53-.72c3.64-4.67,3.64-6.8,0-11.7a8.33,8.33,0,0,1-1.69-7.33,7.53,7.53,0,0,1,6.3-5.88c3.3-.58,6.24.31,8.16,3.3a7.81,7.81,0,0,1,.29,8.82c-.38.63-.86,1.21-1.3,1.81-2.89,4-2.91,6.58.19,10.47,2.06,2.57,3,5.29,1.82,8.48A7.7,7.7,0,0,1,943.66,655.6Z"/><path class="cls-4" d="M972,647.27c.77-1.71,1.28-3.61,2.37-5.08,3.36-4.57,3.46-6.89,0-11.55-2.15-2.85-2.76-5.93-1.07-9.16a7.68,7.68,0,0,1,7.71-4.26,8.11,8.11,0,0,1,6.6,11.93,10.7,10.7,0,0,1-.74,1.11c-3.93,5.33-3.94,7-.06,12.22a7.9,7.9,0,0,1,1.5,6.92,8.07,8.07,0,0,1-9,6.15C975.18,655,972.43,651.72,972,647.27Z"/><path class="cls-4" d="M1044,580.83a27,27,0,0,1-2.19,5c-3.83,5.49-3.9,6.7.11,12.24a8,8,0,0,1,.74,8.8c-1.5,3-4,4.23-7.25,4.24a7.34,7.34,0,0,1-7-4.25,7.68,7.68,0,0,1,.49-8.42c.63-.91,1.43-1.72,2-2.66,1.7-2.79,1.43-5.9-.8-8.69-1.52-1.91-2.71-3.88-2.67-6.43a8,8,0,0,1,8.22-7.91C1040.05,572.75,1043.51,576.22,1044,580.83Z"/><path class="cls-4" d="M1046.12,624.54c-.1-3,1.56-5,4.05-6.4s5-1.17,7.6.22a25.73,25.73,0,0,0,6.3,2.45,4.65,4.65,0,0,0,3.38-1.07c4-3.18,7.37-3.34,10.48-.22a8,8,0,0,1-10.31,12.23c-.43-.3-.81-.65-1.21-1-2.44-2-4.63-2.11-7,.08-2.83,2.67-6,2.86-9.28,1.49S1046.25,627.78,1046.12,624.54Z"/><path class="cls-4" d="M1153.65,647.64a7.74,7.74,0,0,1-4.41,6.93,7.55,7.55,0,0,1-8.22-.63c-4.43-3.2-4.43-3.21-8.91-.11a8.18,8.18,0,0,1-9.22.27,8,8,0,0,1-3.28-8.18c.71-3.2,3.4-6,6.77-6.16a12,12,0,0,1,6,1.7c3.85,2.2,5,2.31,8.57-.37a7.24,7.24,0,0,1,8.17-.63A7.82,7.82,0,0,1,1153.65,647.64Z"/><path class="cls-4" d="M1135.42,558.54a8.23,8.23,0,0,1-8,8.2,8.17,8.17,0,1,1,8-8.2Z"/><path class="cls-4" d="M1098.69,558.56a8.12,8.12,0,1,1-8-8.14A8.21,8.21,0,0,1,1098.69,558.56Z"/><path class="cls-4" d="M1100.92,558.65a8.07,8.07,0,1,1,16.13,0,8.15,8.15,0,0,1-8.07,8.12A8,8,0,0,1,1100.92,558.65Z"/><path class="cls-4" d="M962,633.38a8.23,8.23,0,0,1-8.15-8,8.07,8.07,0,0,1,8.26-8.1,8.07,8.07,0,0,1-.11,16.13Z"/><path class="cls-4" d="M962.12,566.74a8.17,8.17,0,1,1,0-16.33,8.17,8.17,0,0,1,0,16.33Z"/><path class="cls-4" d="M1098.69,580.86a8.12,8.12,0,0,1-16.23,0,8.22,8.22,0,0,1,8.26-8.17A8.13,8.13,0,0,1,1098.69,580.86Z"/><path class="cls-4" d="M1072.12,588.88a8,8,0,0,1-7.95-8.16,8.12,8.12,0,0,1,8.09-8.07,8.31,8.31,0,0,1,8.14,8.1A8.13,8.13,0,0,1,1072.12,588.88Z"/><path class="cls-4" d="M943.42,611.06a7.87,7.87,0,0,1-7.81-8.27,8.12,8.12,0,0,1,8.25-7.92,8.29,8.29,0,0,1,8,8.48A8,8,0,0,1,943.42,611.06Z"/><path class="cls-4" d="M1072.16,550.41a8.16,8.16,0,1,1-8.09,8.17A8.32,8.32,0,0,1,1072.16,550.41Z"/><path class="cls-4" d="M961.9,611.07a8.06,8.06,0,0,1-8-8.13,8.31,8.31,0,0,1,8.4-8.07,8.11,8.11,0,0,1,7.82,8.33A7.84,7.84,0,0,1,961.9,611.07Z"/><path class="cls-4" d="M1053.79,655.59a8.21,8.21,0,0,1-8.09-8.09,8.11,8.11,0,0,1,8.35-8,8,8,0,0,1,7.93,8.18A8.08,8.08,0,0,1,1053.79,655.59Z"/><path class="cls-4" d="M1090.53,655.59a8.06,8.06,0,1,1,8.21-8A8.11,8.11,0,0,1,1090.53,655.59Z"/><path class="cls-4" d="M998.81,611.07a8.06,8.06,0,0,1-8.2-8,8.36,8.36,0,0,1,8.22-8.25,8.05,8.05,0,0,1,8,8.16A7.77,7.77,0,0,1,998.81,611.07Z"/><path class="cls-4" d="M1006.81,580.91a7.94,7.94,0,0,1-8.11,8,8.11,8.11,0,1,1,.23-16.22A8,8,0,0,1,1006.81,580.91Z"/><path class="cls-4" d="M1035.57,655.59a8.06,8.06,0,1,1,0-16.12,8.06,8.06,0,0,1,0,16.12Z"/><path class="cls-4" d="M970.11,581a7.92,7.92,0,0,1-8.18,7.9,8.13,8.13,0,0,1-8-8.14,8.33,8.33,0,0,1,8.16-8.08A8.13,8.13,0,0,1,970.11,581Z"/><path class="cls-4" d="M1100.92,603.05a8.08,8.08,0,0,1,7.95-8.18,8.18,8.18,0,0,1,8.18,8.23,7.92,7.92,0,0,1-8.12,8A7.8,7.8,0,0,1,1100.92,603.05Z"/><path class="cls-4" d="M1009.12,580.76a8,8,0,0,1,8-8.1,8.17,8.17,0,0,1,8.12,8.06,8,8,0,0,1-8.19,8.17A7.87,7.87,0,0,1,1009.12,580.76Z"/><path class="cls-4" d="M998.83,655.59a8.06,8.06,0,1,1,.19-16.12,8.06,8.06,0,0,1-.19,16.12Z"/><path class="cls-4" d="M1009.12,647.41a7.84,7.84,0,0,1,8.08-7.94,8.06,8.06,0,1,1-.23,16.12A7.87,7.87,0,0,1,1009.12,647.41Z"/><path class="cls-4" d="M1082.71,603.06a7.94,7.94,0,0,1,8-8,8.09,8.09,0,0,1,7.79,8.36,7.92,7.92,0,0,1-15.84-.31Z"/><path class="cls-4" d="M990.21,402.92a52.87,52.87,0,0,1,3.12-5.68c2.34-3.25,2.61-6.46.48-9.47a4.86,4.86,0,0,0-7-1.41c-.5.32-.95.71-1.44,1.05-3.55,2.44-6.36,2.43-9.87,0-3.83-2.67-4.52-2.66-8.49.08-3.67,2.54-8.07,2.16-10.91-.94a8,8,0,0,1-.29-10.59c2.9-3.37,7.37-4.14,11-1.42,3.2,2.41,5.88,2.33,9-.06s6.37-2,9.51.2c3.5,2.5,5.4,2.69,7.55.74a7.28,7.28,0,0,0,1.23-9.35c-.46-.75-1.08-1.41-1.61-2.12a8.12,8.12,0,0,1,0-10.3c3.73-4.85,3.73-6.94,0-11.85a8.3,8.3,0,0,1-.37-10,8.19,8.19,0,0,1,9.33-2.85,7.77,7.77,0,0,1,5.27,8.37,9.85,9.85,0,0,1-2,4.54c-3.12,4-3.2,7.89.07,11.68a7.84,7.84,0,0,1,.63,9.84c-.46.68-1,1.28-1.5,1.94-2.25,3.1-2.28,5.91-.1,9.05,4.15,6,4.15,7.53,0,13.25-2.18,3-2,6.38.28,9.49a14.15,14.15,0,0,1,2.39,4.19,7.39,7.39,0,0,1-2.59,8.19,7.58,7.58,0,0,1-8.74,1.06C992.2,409.11,990.69,406.61,990.21,402.92Z"/><path class="cls-4" d="M1099,250.2a45.72,45.72,0,0,1-3.1,5.68c-2.34,3.25-2.64,6.52-.53,9.49a4.94,4.94,0,0,0,7.21,1.34c5.6-3.74,6.81-3.76,12.39,0a4.91,4.91,0,0,0,5.64.14c.77-.45,1.44-1.06,2.2-1.53a8,8,0,0,1,10.2,1.15,8.1,8.1,0,0,1,.68,10.44c-2.37,3.14-6.94,4.59-10.12,2.32-4-2.86-7.24-2.94-11.21,0-2.65,2-5.82,1.21-8.53-.75-3.37-2.44-5.4-2.61-7.56-.65a7.34,7.34,0,0,0-1.34,9c.55.95,1.32,1.78,2,2.69a8,8,0,0,1,.13,9.56c-4.22,6.12-4.23,6.7-.07,12.76a8.32,8.32,0,0,1-.13,9.78,8.22,8.22,0,0,1-9.46,2.51,7.85,7.85,0,0,1-5-8.37,10.91,10.91,0,0,1,2.24-4.69c2.75-3.48,2.89-7.56.06-11-3.24-3.94-3.27-7.41-.11-11.43s3.14-6.64.11-10.64c-3.3-4.35-3.26-7.58.16-11.85,2.82-3.52,2.71-6.87-.36-10.68-3.3-4.1-2.79-9.32,1.21-12.15a7.68,7.68,0,0,1,8.42-.63,7.6,7.6,0,0,1,4.3,7.24Z"/><path class="cls-4" d="M1016.76,169.07c-4.39,0-7.83-3.66-8-8.44a20.32,20.32,0,0,0-.67-5.48c-1.63-4.9-5.32-7.54-10.31-8.42a8.46,8.46,0,0,1-5.93-3.54,8,8,0,0,1,4-12.08c1.24-.47,2.58-.67,3.87-1a11.78,11.78,0,0,0,9-11.79,11.9,11.9,0,0,1,2.75-8c2.69-3.23,2.67-6.41.17-9.76-3.85-5.16-3.87-7.47-.14-12.51,2.76-3.71,2.63-6.46-.49-10.47s-3-7.89,0-11.11A8.09,8.09,0,0,1,1024,76a29.31,29.31,0,0,1-1.84,2.51,7.41,7.41,0,0,0,0,9.28c4.05,5.4,4.05,7.35,0,12.84-2.46,3.34-2.36,6.44.47,9.94,2.06,2.53,3.12,5.23,2,8.45a7.73,7.73,0,0,1-6.47,5.42c-5.44.89-9.52,3.63-10.88,9.15-1.09,4.44-1.26,9,1.21,13.19,2.19,3.7,5.63,5.49,9.82,6.22a7.91,7.91,0,0,1,6.73,8.61A8.19,8.19,0,0,1,1016.76,169.07Z"/><path class="cls-4" d="M1071.9,547.14c-2.22.68-3.46-.25-4.07-2.53a8.43,8.43,0,0,0-1.74-2.56c-4.1-5.35-1.67-11.94,4.94-13.36.8-.17,1.62-.28,2.4-.5a12,12,0,0,0,8.89-10.81,25.6,25.6,0,0,0-.27-7.53c-1.3-5.46-5.08-8.51-10.57-9.51-4.65-.85-7.35-3.89-7.31-8.15s2.8-7.31,7.17-8.07c4.71-.82,9,3.41,9.07,8.91.06,6.74,3.39,11.44,9.31,13,1,.27,2,.38,3,.66a8,8,0,0,1,6,7,7.9,7.9,0,0,1-4.4,7.86c-1,.52-2.27.69-3.37,1.12a31.34,31.34,0,0,0-5.48,2.33,10.45,10.45,0,0,0-5,9.4,11.85,11.85,0,0,1-3.06,8.79,2.79,2.79,0,0,0-.83,1.3C1076.13,547.39,1074.22,547.54,1071.9,547.14Z"/><path class="cls-4" d="M990.9,447.91a8.63,8.63,0,0,1,7.35-8.5,3.52,3.52,0,0,1,1.91.36c1.79.89,3.57,1.83,5.28,2.86a4.5,4.5,0,0,0,5.38-.19c5.52-3.79,7.15-3.77,12.6-.05,2.39,1.63,3.84,1.5,6.64-.6,3.5-2.63,6.93-2.83,10-.58a8,8,0,0,1,2.33,10.34c-1.91,3.63-5.45,5-9.43,3.49a23.28,23.28,0,0,1-3.73-2,5.23,5.23,0,0,0-6.4.27c-4.49,3.3-7,3.25-11.48,0-2.76-2-4.1-2-7,.15-2.39,1.79-4.91,2.73-7.9,1.84A7.55,7.55,0,0,1,990.9,447.91Z"/><path class="cls-4" d="M1098.25,205.35a8.35,8.35,0,0,1-7.2,8.33,3.83,3.83,0,0,1-2.12-.3,54.16,54.16,0,0,1-5.07-2.78,4.51,4.51,0,0,0-5.55.16c-5.36,3.79-7.11,3.74-12.58,0-2.48-1.69-3.67-1.62-6.6.63s-6,3-9.3,1.06a8,8,0,0,1-3.28-10.42c1.85-4,5.6-5.49,9.85-3.81a28.89,28.89,0,0,1,3.91,2.1,4.84,4.84,0,0,0,5.63-.24c5.35-3.64,6.84-3.61,12.22,0,2.39,1.62,3.76,1.38,6.53-.26a13.8,13.8,0,0,1,5.86-2.19C1095,197.38,1098.25,200.9,1098.25,205.35Z"/><path class="cls-4" d="M1127.11,324.65a7.85,7.85,0,0,1-7.07-11.76c2.87-5.13,3-9.84-.08-14.89a7.63,7.63,0,0,1,2.09-10,8.11,8.11,0,0,1,10.28.09,7.92,7.92,0,0,1,1.9,10.07c-3,4.89-2.94,9.49-.08,14.45A8,8,0,0,1,1127.11,324.65Z"/><path class="cls-4" d="M1027.13,403.3a37.4,37.4,0,0,1,1.56-4.58c2.31-4.68,2.92-9.13-.23-13.85-1.92-2.88-1.54-6.2.76-8.92a7.79,7.79,0,0,1,8.41-2.68,7.56,7.56,0,0,1,6,6.7,9.3,9.3,0,0,1-1.28,5.25c-2.78,4.8-2.69,9.34.16,14.07a7.86,7.86,0,0,1-.9,9.33,8.05,8.05,0,0,1-8.91,2.31A8.86,8.86,0,0,1,1027.13,403.3Z"/><path class="cls-4" d="M988.43,470.58a17.56,17.56,0,0,1-1.23,3.67,13,13,0,0,0,.17,13.92,7.61,7.61,0,0,1-.88,9.47,7.93,7.93,0,0,1-9.12,2.15,8.11,8.11,0,0,1-5.14-7.65,9.51,9.51,0,0,1,1.39-4.18c2.74-4.7,2.65-9.22-.17-13.87a7.83,7.83,0,0,1,1.22-9.84,8.09,8.09,0,0,1,9.46-1.45C987.11,464.19,988.26,466.69,988.43,470.58Z"/><path class="cls-4" d="M1137.34,514.26a15.52,15.52,0,0,1,1.19-3.52c3.07-4.91,3-9.67.07-14.66a7.74,7.74,0,0,1,1.87-10.05,8.16,8.16,0,0,1,10.27-.15c2.9,2.24,4.15,6.56,2.19,9.81-3.2,5.3-3.06,10.24,0,15.48,1.68,2.83.75,6.72-1.54,9.06a8,8,0,0,1-8.82,1.79A8.7,8.7,0,0,1,1137.34,514.26Z"/><path class="cls-4" d="M943.5,169c-6.12,0-10.21-6.29-7.18-11.63s3-10,0-15.13a7.8,7.8,0,0,1,2.24-10,8.14,8.14,0,0,1,10.11.16,7.81,7.81,0,0,1,1.94,10.07c-3,5-2.87,9.63,0,14.69A7.91,7.91,0,0,1,943.5,169Z"/><path class="cls-4" d="M1054.61,280.13c-6.69,0-10.9-5.43-8.42-10.43,3-6,3.41-11.31,0-17.21-1.76-3-.16-7,2.65-9.11a8.07,8.07,0,0,1,12.67,8.5,32.67,32.67,0,0,1-1.79,4.54,10.89,10.89,0,0,0,.71,11.19,7.73,7.73,0,0,1,.58,8.05A7.52,7.52,0,0,1,1054.61,280.13Z"/><path class="cls-4" d="M1135.67,380.93a25.08,25.08,0,0,1-1.54,4.34,12.74,12.74,0,0,0,.09,13.89,7.55,7.55,0,0,1-.39,9c-2,2.73-4.87,3.59-8.27,3.15-3.74-.49-8.11-6.77-5.87-10.45.38-.63.54-1.39.9-2,2.64-4.53,2.54-8.92-.14-13.46a8.06,8.06,0,0,1,5.84-12.35A8.42,8.42,0,0,1,1135.67,380.93Z"/><path class="cls-4" d="M962,328.5c5-.12,10.82,5.37,7.21,11.71-3,5.21-3,10,.08,15.09a7.54,7.54,0,0,1-1.73,9.52,8.11,8.11,0,0,1-13.1-8.75,10.25,10.25,0,0,1,.88-1.79,11.73,11.73,0,0,0,0-13,8.43,8.43,0,0,1-.92-7.46A8.05,8.05,0,0,1,962,328.5Z"/><path class="cls-4" d="M1108.58,152.86c6.26-.31,9.93,6.45,7.59,11-.3.6-.52,1.24-.85,1.81-2.45,4.32-2.32,8.52.07,12.91a10.85,10.85,0,0,1,1.28,5.89,7.26,7.26,0,0,1-5.83,6.55,7.87,7.87,0,0,1-8.28-2.56,7.48,7.48,0,0,1-1-8.78c3.06-5.35,2.83-10.23-.18-15.53C1098.59,159.18,1102.81,152.84,1108.58,152.86Z"/><path class="cls-4" d="M1027,205.49a31.19,31.19,0,0,1,1.75-5,12.14,12.14,0,0,0-.31-13.17,7.89,7.89,0,0,1,1.72-10.45,8.36,8.36,0,0,1,10.13-.2,7.61,7.61,0,0,1,2.11,10.16c-2.94,5.08-3,9.84.07,14.88a7.4,7.4,0,0,1-1.07,9.08,8.31,8.31,0,0,1-9,2.16A8.55,8.55,0,0,1,1027,205.49Z"/><path class="cls-4" d="M943.8,324.65c-6.38,0-10.41-6.24-7.35-11.84,2.71-5,3-9.53,0-14.48a7.87,7.87,0,0,1,1.89-10.26,8.11,8.11,0,0,1,12,10.65c-2.74,4.62-2.6,9,.06,13.67C953.57,317.93,949.88,324.65,943.8,324.65Z"/><path class="cls-4" d="M953.46,272.76c.49-1.71.59-3.14,1.26-4.22,3.12-5.08,3-10,0-15.09a7.68,7.68,0,0,1,2.14-10,7.8,7.8,0,0,1,10.06.09c2.56,2.29,4.57,6,1.84,10.54-1.43,2.4-2.55,5-2,7.8a29.23,29.23,0,0,0,2.3,6.41,8.25,8.25,0,0,1-2.78,10.62,8.06,8.06,0,0,1-10.63-1.69A22,22,0,0,1,953.46,272.76Z"/><path class="cls-4" d="M1049.72,459c-1-2.6-1.94-5.09-3-7.47-1.7-3.67-1-7.44,1.93-9.88a8.19,8.19,0,0,1,10.46-.09,8,8,0,0,1,2.48,8.67,10.26,10.26,0,0,1-1.06,2.45c-2.72,4.46-2.37,8.81.29,13.17a7.61,7.61,0,0,1-.11,8.61,8.09,8.09,0,0,1-11,2.56c-3.71-2.17-4.86-6.52-3-10.68C1047.78,464,1048.66,461.55,1049.72,459Z"/><path class="cls-4" d="M1145.5,328.59c6.3.05,10.27,6.17,7.24,11.7-2.75,5.06-3,9.67,0,14.69a7.85,7.85,0,0,1-2,10.22,8,8,0,0,1-10.27-.17,7.94,7.94,0,0,1-1.64-10.48c2.77-4.7,2.62-9.17-.07-13.86A7.89,7.89,0,0,1,1145.5,328.59Z"/><path class="cls-4" d="M943.68,544.81a7.44,7.44,0,0,1-7.07-4.2c-1.48-2.83-1.61-5.69.36-8.41.39-.55.82-1.05,1.24-1.58,2.6-3.32,2.59-6.34.19-9.8a17.24,17.24,0,0,1-2.48-4.65,7.55,7.55,0,0,1,3.53-8.62,8.11,8.11,0,0,1,11.69,10.14,13.53,13.53,0,0,1-1.42,2.25c-3.4,4.56-3.43,6.93,0,11.36a8.14,8.14,0,0,1,1.87,7.05A7.82,7.82,0,0,1,943.68,544.81Z"/><path class="cls-4" d="M1126.89,63.92c3.32.06,5.81,1.25,7.31,4.12s1.65,6-.49,8.59c-4,4.85-4.2,7.73,0,13a7.73,7.73,0,0,1-1.76,11.07,8.07,8.07,0,0,1-10.43-.57c-2.8-2.6-3.63-7.43-1.1-10.36,4.06-4.69,3.88-8.83,0-13.43-2.12-2.49-1.81-5.54-.27-8.39A7.48,7.48,0,0,1,1126.89,63.92Z"/><path class="cls-4" d="M1145.81,146.78c-6.76-.22-10.89-7.23-7.22-12.06,3.86-5.1,4.21-9.26,0-14.23-2.53-3-1.34-7.77,1.77-10.38a8.13,8.13,0,0,1,12,10.65c-.2.32-.43.61-.65.9-3.66,4.66-3.67,6.86-.12,11.67,2.09,2.85,2.75,5.92,1.05,9.17A7.52,7.52,0,0,1,1145.81,146.78Z"/><path class="cls-4" d="M1108.85,19.41a7.65,7.65,0,0,1,7.05,4.29,7.93,7.93,0,0,1-.52,8.45c-.61.93-1.36,1.77-1.93,2.73-1.73,2.89-1.45,5.51.41,8.32,1.26,1.89,2.71,3.94,3.08,6.08.71,4.1-3.34,8.36-7.61,8.56a7.75,7.75,0,0,1-7.27-3.51,8,8,0,0,1-.44-8.47,9.16,9.16,0,0,1,.85-1.31c3.85-5.28,3.86-6.68-.09-12a7.72,7.72,0,0,1-.87-8.58A7.79,7.79,0,0,1,1108.85,19.41Z"/><path class="cls-4" d="M1109.7,146.76c-4.07,0-6.43-1.33-7.93-4a7.78,7.78,0,0,1,.14-8.44c.16-.25.33-.49.51-.73,3.87-5.13,3.88-7,0-12a8.11,8.11,0,0,1,11.91-11,8.35,8.35,0,0,1,.54,11.15c-3.55,4.54-3.59,6.93-.14,11.5,2.15,2.84,2.8,5.89,1.16,9.16A7.33,7.33,0,0,1,1109.7,146.76Z"/><path class="cls-4" d="M1035.49,461.94a7.67,7.67,0,0,1,7.08,4.12c1.49,2.67,1.73,5.75-.2,8-4.15,4.84-4.22,9.09,0,14,2.6,3.07,1.4,8.09-1.75,10.58A8.16,8.16,0,0,1,1029,487.4a18.22,18.22,0,0,0,2.86-5.62c.6-2.45-.86-4.52-2.42-6.43a7.8,7.8,0,0,1-1.14-9A7.68,7.68,0,0,1,1035.49,461.94Z"/><path class="cls-4" d="M972,536.47c.77-1.71,1.27-3.62,2.37-5.09,3.34-4.48,3.43-7,0-11.54-2.34-3.05-2.65-6.52-.85-9.56a8,8,0,0,1,8.17-3.79,8.11,8.11,0,0,1,5.79,12.08,14,14,0,0,1-.91,1.27c-3.52,4.61-3.54,7,0,11.52a8.16,8.16,0,0,1-6.85,13.47C975.18,544.21,972.41,541.08,972,536.47Z"/><path class="cls-4" d="M1045.16,182.9a32.59,32.59,0,0,1,2.47-5.07c3.45-4.8,3.55-6.8-.08-11.53a8.15,8.15,0,0,1-.93-9.37c1.58-3.05,4.3-4.17,7.6-4a8,8,0,0,1,6.47,12.1,21.26,21.26,0,0,1-1.49,1.94c-2.67,3.32-2.52,6.6,0,10.19a13.45,13.45,0,0,1,2.48,6c.41,4.55-3.47,8.2-8.07,8.17S1045.56,187.62,1045.16,182.9Z"/><path class="cls-4" d="M1027.33,27.34a8,8,0,0,1,11.37-7.19,10.69,10.69,0,0,1,1.34.79c4.39,3,4.33,2.94,9,0a10,10,0,0,1,5-1.49,7.49,7.49,0,0,1,7.27,5.52c1,3.63,0,7-2.74,9A7.91,7.91,0,0,1,1049,34l-.19-.13c-4.2-3-4.49-3-8.58-.06a7.77,7.77,0,0,1-6.94,1.39A7.92,7.92,0,0,1,1027.33,27.34Z"/><path class="cls-4" d="M1043.06,139.23c.15,3-1.38,5.06-3.87,6.49a6.85,6.85,0,0,1-7.77-.18c-2.07-1.42-4.17-2.67-6.75-2.44a5.8,5.8,0,0,0-3,1.11c-4,3.19-7.34,3.32-10.44.21a8,8,0,0,1,10.7-11.93c.29.22.56.48.85.72,2.41,2,4.64,2,6.94-.13a7.82,7.82,0,0,1,6.73-2.13C1040.77,131.48,1042.93,134.21,1043.06,139.23Z"/><path class="cls-4" d="M1046.14,514.67c0-6.52,6.33-10.1,11.23-7.29a26.6,26.6,0,0,0,3.65,2.09c2.42.91,4.75,1.29,7-.86,2.82-2.69,5.85-2.84,8.71-.9a8.24,8.24,0,0,1,3.1,9.63c-1.21,3.27-4.44,5.56-7.81,5a13.44,13.44,0,0,1-5.4-2.27c-2.69-1.91-4.84-2.19-7.17,0-2.82,2.67-6,2.81-9.28,1.46S1046.28,517,1046.14,514.67Z"/><path class="cls-4" d="M1153.65,536.74a7.66,7.66,0,0,1-4.34,7,7.56,7.56,0,0,1-8.39-.64c-4.08-3-4.58-3-8.75-.07a8.13,8.13,0,0,1-10.58-.79,7.93,7.93,0,0,1,10-12.13c.58.34,1.11.75,1.68,1.1,2.88,1.77,4.64,1.64,7.25-.57a7.31,7.31,0,0,1,8.31-1.09A7.86,7.86,0,0,1,1153.65,536.74Z"/><path class="cls-4" d="M943.76,108.15a24.94,24.94,0,0,1,4.54,2.07c4,2.85,4.54,2.92,8.6,0a7.91,7.91,0,0,1,9-.61,7.83,7.83,0,0,1,3.79,7.76,8,8,0,0,1-6.05,6.71c-2.39.73-4.51,0-6.53-1.31-4.27-2.74-5-2.72-9.07.22A8,8,0,0,1,936,114,8.84,8.84,0,0,1,943.76,108.15Z"/><path class="cls-4" d="M1072.17,462a8.07,8.07,0,1,1,0,16.13,8.07,8.07,0,0,1,0-16.13Z"/><path class="cls-4" d="M962.33,484.09a8.09,8.09,0,0,1,7.78,8.37,8,8,0,0,1-8.24,7.86,8.14,8.14,0,0,1-8-8.21A8.31,8.31,0,0,1,962.33,484.09Z"/><path class="cls-4" d="M1137.33,50.05a8.42,8.42,0,0,1,8-8.52,8.2,8.2,0,0,1,8.22,8,8.06,8.06,0,0,1-7.61,8.31A8.22,8.22,0,0,1,1137.33,50.05Z"/><path class="cls-4" d="M988.23,49.64a8,8,0,0,1-7.86,8.26,8.23,8.23,0,0,1-8.27-8.18,8.33,8.33,0,0,1,8.07-8.19A8.08,8.08,0,0,1,988.23,49.64Z"/><path class="cls-4" d="M1027.41,536.68a8,8,0,0,1,8.09-8,7.88,7.88,0,0,1,8,8,8.06,8.06,0,0,1-8.16,8.21A8.23,8.23,0,0,1,1027.41,536.68Z"/><path class="cls-4" d="M961.82,506.42a8,8,0,0,1,8.29,7.83,8.16,8.16,0,0,1-7.74,8.43,8.38,8.38,0,0,1-8.48-8A8.15,8.15,0,0,1,961.82,506.42Z"/><path class="cls-4" d="M951.82,380.93a8.09,8.09,0,0,1-8,8.2,8,8,0,0,1-8.27-8.07,8.11,8.11,0,0,1,16.22-.13Z"/><path class="cls-4" d="M1090.61,367a8.12,8.12,0,0,1-.15-16.23,8,8,0,0,1,8.23,8.12A8.16,8.16,0,0,1,1090.61,367Z"/><path class="cls-4" d="M1053.94,367a8.28,8.28,0,0,1-8.23-8,8.16,8.16,0,0,1,8.19-8.23,8.07,8.07,0,0,1,8.08,8.08A8.16,8.16,0,0,1,1053.94,367Z"/><path class="cls-4" d="M1090.62,462a8.07,8.07,0,0,1,.05,16.13,8.07,8.07,0,1,1-.05-16.13Z"/><path class="cls-4" d="M1017,213.52a8.12,8.12,0,1,1-.1-16.23,8.12,8.12,0,0,1,.1,16.23Z"/><path class="cls-4" d="M1017,302.43a8.1,8.1,0,1,1,8.07-8.1A8.05,8.05,0,0,1,1017,302.43Z"/><path class="cls-4" d="M1082.46,536.8a8.14,8.14,0,0,1,16.28-.24,8.14,8.14,0,1,1-16.28.24Z"/><path class="cls-4" d="M998.47,35.57a8,8,0,0,1-8-8.12,8.27,8.27,0,0,1,8.12-8.11,8.15,8.15,0,0,1,8.11,8.31A8,8,0,0,1,998.47,35.57Z"/><path class="cls-4" d="M1127.18,35.57a8,8,0,0,1-8.14-8,8.14,8.14,0,0,1,8.14-8.26,8.32,8.32,0,0,1,8.09,8.16A8.08,8.08,0,0,1,1127.18,35.57Z"/><path class="cls-4" d="M998.58,175.16a7.9,7.9,0,0,1,8.11,8.19,8.12,8.12,0,0,1-16.24-.23A7.94,7.94,0,0,1,998.58,175.16Z"/><path class="cls-4" d="M998.68,197.29a8.12,8.12,0,0,1-.09,16.23,8.12,8.12,0,1,1,.09-16.23Z"/><path class="cls-4" d="M943.36,367a8.12,8.12,0,1,1,8.46-8A8.21,8.21,0,0,1,943.36,367Z"/><path class="cls-4" d="M1072.24,439.74a8.09,8.09,0,0,1,8.16,8,8.17,8.17,0,0,1-16.33,0A8.06,8.06,0,0,1,1072.24,439.74Z"/><path class="cls-4" d="M1135.42,359.1a8.15,8.15,0,0,1-8.3,7.86,8,8,0,0,1-7.83-8.5,7.9,7.9,0,0,1,8.14-7.73A8.06,8.06,0,0,1,1135.42,359.1Z"/><path class="cls-4" d="M1145.59,258a8.23,8.23,0,0,1-8.26-7.94,8.34,8.34,0,0,1,8.12-8.35,8.2,8.2,0,0,1,8.1,8.1A8,8,0,0,1,1145.59,258Z"/><path class="cls-4" d="M1006.81,536.75a8.16,8.16,0,0,1-8,8.15,8.36,8.36,0,0,1-8.19-8.07,8.25,8.25,0,0,1,8.24-8.21A8,8,0,0,1,1006.81,536.75Z"/><path class="cls-4" d="M998.83,500.32a8.15,8.15,0,0,1-8.23-8.18,8.35,8.35,0,0,1,8.2-8.05,8.05,8.05,0,0,1,8,8.14A7.82,7.82,0,0,1,998.83,500.32Z"/><path class="cls-4" d="M998.55,302.43a8,8,0,0,1-8.1-8.05,8.12,8.12,0,1,1,16.24,0A8.06,8.06,0,0,1,998.55,302.43Z"/><path class="cls-4" d="M1153.55,72.07a8.21,8.21,0,0,1-8.12,8.08,8.33,8.33,0,0,1-8.1-8.36,8.05,8.05,0,0,1,8.28-7.86A7.86,7.86,0,0,1,1153.55,72.07Z"/><path class="cls-4" d="M998.44,124.47a8,8,0,0,1-8-8.11,8.15,8.15,0,0,1,8.16-8,8.26,8.26,0,0,1,8.14,8.07A8.05,8.05,0,0,1,998.44,124.47Z"/><path class="cls-4" d="M1064,249.82a8,8,0,0,1,8-8,8.12,8.12,0,1,1-8,8Z"/><path class="cls-4" d="M1127.15,57.9a8.13,8.13,0,0,1-8.1-8.1,8.24,8.24,0,0,1,8-8.28,8.4,8.4,0,0,1,8.27,8.25A8.3,8.3,0,0,1,1127.15,57.9Z"/><path class="cls-4" d="M1127.19,146.68a7.83,7.83,0,0,1-8.14-7.91,8,8,0,0,1,8.14-8.21,8.23,8.23,0,0,1,8.08,8.11A8,8,0,0,1,1127.19,146.68Z"/><path class="cls-4" d="M1017,191.29a8.31,8.31,0,0,1-8.25-8.22,8.06,8.06,0,0,1,8.23-7.91,8,8,0,0,1,8.11,8A8.22,8.22,0,0,1,1017,191.29Z"/><path class="cls-4" d="M1153.55,94.25a8,8,0,0,1-8.06,8.08,8.12,8.12,0,1,1,.06-16.23A8,8,0,0,1,1153.55,94.25Z"/><path class="cls-4" d="M962,395.14a8.11,8.11,0,0,1,8.1,8.07,8,8,0,0,1-7.93,8.2,8.24,8.24,0,0,1-8.3-8.14A8.33,8.33,0,0,1,962,395.14Z"/><path class="cls-4" d="M951.82,403.31a8.11,8.11,0,0,1-16.22.08,8.15,8.15,0,0,1,8.17-8.25A8.27,8.27,0,0,1,951.82,403.31Z"/><path class="cls-4" d="M1153.7,381a7.84,7.84,0,0,1-7.93,8.12,8,8,0,0,1-8.19-7.92,8.2,8.2,0,0,1,8.11-8.31A8,8,0,0,1,1153.7,381Z"/><path class="cls-4" d="M943.65,484.09a8.28,8.28,0,0,1,8.17,8.05,8.09,8.09,0,0,1-8.2,8.18,8,8,0,0,1-8-8.1A8.15,8.15,0,0,1,943.65,484.09Z"/><path class="cls-4" d="M1127.37-2.81a8.09,8.09,0,0,1,7.9,8.25,8.19,8.19,0,0,1-8.5,7.92A8,8,0,0,1,1119,5.2,8,8,0,0,1,1127.37-2.81Z"/><path class="cls-4" d="M1127,258a8.12,8.12,0,0,1,.06-16.23A8.12,8.12,0,1,1,1127,258Z"/><path class="cls-4" d="M1127.2,152.91a8,8,0,0,1,8.07,8.05,8.26,8.26,0,0,1-8.33,8.11,8.08,8.08,0,0,1-7.9-8.25A7.84,7.84,0,0,1,1127.2,152.91Z"/><path class="cls-4" d="M951.57,49.77a8.07,8.07,0,0,1-8.05,8.09,8,8,0,0,1-8.07-8,8.14,8.14,0,0,1,7.91-8.29A8.27,8.27,0,0,1,951.57,49.77Z"/><path class="cls-4" d="M988.23,205.42a7.93,7.93,0,0,1-8,8.1,8.12,8.12,0,1,1,0-16.23A7.89,7.89,0,0,1,988.23,205.42Z"/><path class="cls-4" d="M1064,49.67a8.08,8.08,0,1,1,16.15,0,8.08,8.08,0,1,1-16.15,0Z"/><path class="cls-4" d="M1090.68,439.74a7.93,7.93,0,0,1,8,8.06,8.11,8.11,0,1,1-8-8.06Z"/><path class="cls-4" d="M1064,94.28a8.06,8.06,0,1,1,8.06,8A8,8,0,0,1,1064,94.28Z"/><path class="cls-4" d="M1043.45,94.33a8.2,8.2,0,0,1-8.2,8,8.12,8.12,0,1,1,8.2-8Z"/><path class="cls-4" d="M1108.81,13.38a8.15,8.15,0,0,1-8.19-8.21,8.06,8.06,0,0,1,8.16-8,7.86,7.86,0,0,1,8,8.06A8,8,0,0,1,1108.81,13.38Z"/><path class="cls-4" d="M1100.92,492.05a8,8,0,0,1,8.16-8,8.18,8.18,0,0,1,8,8.45,8,8,0,0,1-8.33,7.78A7.91,7.91,0,0,1,1100.92,492.05Z"/><path class="cls-4" d="M962.09,433.66a8.24,8.24,0,0,1-8.21-8,8.09,8.09,0,0,1,8.22-8.15,7.83,7.83,0,0,1,8,7.82A8,8,0,0,1,962.09,433.66Z"/><path class="cls-4" d="M1064.17,358.87a8,8,0,0,1,8-8.14,8.21,8.21,0,0,1,8.26,8.17,8.31,8.31,0,0,1-8.18,8.06A8.05,8.05,0,0,1,1064.17,358.87Z"/><path class="cls-4" d="M1100.62,94.18a8.15,8.15,0,0,1,8.1-8.08,8.12,8.12,0,0,1,.15,16.23A8.16,8.16,0,0,1,1100.62,94.18Z"/><path class="cls-4" d="M953.73,49.81a8.4,8.4,0,0,1,8.21-8.28,8.09,8.09,0,0,1,7.92,8.25,7.94,7.94,0,0,1-8,8.08A8.13,8.13,0,0,1,953.73,49.81Z"/><path class="cls-4" d="M969.86,205.53a7.93,7.93,0,0,1-8.1,8,8.12,8.12,0,1,1,.25-16.23A7.91,7.91,0,0,1,969.86,205.53Z"/><path class="cls-4" d="M953.73,72a8,8,0,0,1,8.07-8,7.75,7.75,0,0,1,8.06,8A8,8,0,0,1,962,80.15,8.26,8.26,0,0,1,953.73,72Z"/><path class="cls-4" d="M1145.43,152.94a7.79,7.79,0,0,1,8.12,7.91,8.08,8.08,0,0,1-7.92,8.22,8.27,8.27,0,0,1-8.3-8.14A7.94,7.94,0,0,1,1145.43,152.94Z"/><path class="cls-4" d="M1127.05,191.29a8.13,8.13,0,0,1-8-8.15,7.88,7.88,0,0,1,8.29-8,8,8,0,0,1,7.94,8.16A8.22,8.22,0,0,1,1127.05,191.29Z"/><path class="cls-4" d="M962,462a8.07,8.07,0,0,1,.1,16.13A8.07,8.07,0,1,1,962,462Z"/><path class="cls-4" d="M962,439.74a8.07,8.07,0,0,1,.27,16.13,8.07,8.07,0,1,1-.27-16.13Z"/><path class="cls-4" d="M1064,72a8.06,8.06,0,0,1,16.12-.14A8.06,8.06,0,1,1,1064,72Z"/><path class="cls-4" d="M1145.54,264a8,8,0,0,1,8,8.12,8.12,8.12,0,0,1-8,8.14,8.31,8.31,0,0,1-8.19-8A8.2,8.2,0,0,1,1145.54,264Z"/><path class="cls-4" d="M1045.7,536.76a8.27,8.27,0,0,1,8.08-8.15,8.11,8.11,0,0,1,8.2,8,8.25,8.25,0,0,1-8.15,8.31A8.39,8.39,0,0,1,1045.7,536.76Z"/><path class="cls-4" d="M1127.13,197.29a8.12,8.12,0,1,1-.11,16.23,8.09,8.09,0,0,1-8-8.18A8,8,0,0,1,1127.13,197.29Z"/><path class="cls-4" d="M980.23,35.56a8,8,0,0,1-8.13-8,8.23,8.23,0,0,1,8-8.23,8,8,0,0,1,8.15,8.19A7.8,7.8,0,0,1,980.23,35.56Z"/><path class="cls-4" d="M1153.55,227.75a7.89,7.89,0,0,1-8.14,7.92,8.09,8.09,0,0,1-8.08-8.07,8.33,8.33,0,0,1,8.32-8.12A8.13,8.13,0,0,1,1153.55,227.75Z"/><path class="cls-4" d="M1090.26,13.38a8,8,0,0,1-7.92-8.19,7.89,7.89,0,0,1,8.09-8,8.13,8.13,0,0,1,8.13,8.05A8.24,8.24,0,0,1,1090.26,13.38Z"/><path class="cls-4" d="M1090.32,152.91a8,8,0,0,1,8.24,7.88,8.31,8.31,0,0,1-8.17,8.28,8.06,8.06,0,0,1-8.05-8.1A7.8,7.8,0,0,1,1090.32,152.91Z"/><path class="cls-4" d="M1145.48,13.39a8.26,8.26,0,0,1-8.15-8.06,8.1,8.1,0,0,1,8.24-8.14,8,8,0,0,1,8,8.13A8,8,0,0,1,1145.48,13.39Z"/><path class="cls-4" d="M1009.12,536.64a7.78,7.78,0,0,1,8.06-7.95,8,8,0,0,1,8.06,8,8.21,8.21,0,0,1-8,8.18A8.08,8.08,0,0,1,1009.12,536.64Z"/><path class="cls-4" d="M1064,27.4a8.06,8.06,0,1,1,16.12.3,8.06,8.06,0,0,1-16.12-.3Z"/><path class="cls-4" d="M1145.58,302.43a8.12,8.12,0,0,1-8.25-8.14,8.25,8.25,0,0,1,8.14-8.06,8,8,0,0,1,8.08,8A8,8,0,0,1,1145.58,302.43Z"/><path class="cls-4" d="M1145.64,308.61a7.77,7.77,0,0,1,7.91,8.09,8,8,0,0,1-8.14,7.95,8.07,8.07,0,0,1-8.08-8.06A7.93,7.93,0,0,1,1145.64,308.61Z"/><path class="cls-4" d="M1090.18,124.47a7.9,7.9,0,0,1-7.84-8.2,8,8,0,0,1,8-7.93,8.23,8.23,0,0,1,8.26,8.15A8.05,8.05,0,0,1,1090.18,124.47Z"/><path class="cls-4" d="M953.73,94.18a8.13,8.13,0,0,1,8.08-8.08,8.12,8.12,0,0,1-.06,16.23A8.16,8.16,0,0,1,953.73,94.18Z"/><path class="cls-4" d="M1090.28,35.56a7.87,7.87,0,0,1-7.94-8.13,8.13,8.13,0,0,1,8.08-8.09,8.33,8.33,0,0,1,8.13,8.1A8.13,8.13,0,0,1,1090.28,35.56Z"/><path class="cls-4" d="M1035.21,124.47a7.9,7.9,0,0,1-8-8.06,8.12,8.12,0,0,1,8.1-8.07,8.21,8.21,0,0,1,8.16,8.25A8,8,0,0,1,1035.21,124.47Z"/><path class="cls-4" d="M1108.88,308.56a7.81,7.81,0,0,1,7.93,8.11,7.91,7.91,0,0,1-8.1,8,8,8,0,1,1,.17-16.09Z"/><path class="cls-4" d="M1135.42,447.83a8,8,0,0,1-8.3,8,8.07,8.07,0,1,1,8.3-8Z"/><path class="cls-4" d="M969.86,294.42a7.84,7.84,0,0,1-8,8,8.07,8.07,0,0,1-8.09-8.05,8.16,8.16,0,0,1,8-8.15A7.9,7.9,0,0,1,969.86,294.42Z"/><path class="cls-4" d="M951.57,272.09a8.18,8.18,0,0,1-8,8.17,8.13,8.13,0,1,1,8-8.17Z"/><path class="cls-4" d="M943.64,433.57a8,8,0,1,1,0-16.06,8,8,0,1,1,0,16.06Z"/><path class="cls-4" d="M1035.32,13.38a8.12,8.12,0,0,1-8.12-8,8,8,0,0,1,8-8.14,8.13,8.13,0,0,1,8.26,8.13A8.17,8.17,0,0,1,1035.32,13.38Z"/><path class="cls-4" d="M1045.61,71.91a7.83,7.83,0,0,1,8.08-8,8,8,0,0,1,8.1,8,8.25,8.25,0,0,1-8.25,8.19A8.13,8.13,0,0,1,1045.61,71.91Z"/><path class="cls-4" d="M943.7,328.59a7.89,7.89,0,0,1,8.12,7.94,8.1,8.1,0,0,1-8.23,8.13,8,8,0,1,1,.11-16.07Z"/><path class="cls-4" d="M1035.41,308.55a8.05,8.05,0,1,1-8.22,7.9A8,8,0,0,1,1035.41,308.55Z"/><path class="cls-4" d="M1061.74,227.67a7.94,7.94,0,0,1-8.06,8,7.86,7.86,0,0,1-8.07-8,8.07,8.07,0,1,1,16.13,0Z"/><path class="cls-4" d="M962.11-2.81a7.88,7.88,0,0,1,7.75,8.3,7.93,7.93,0,0,1-8.18,7.89,8.19,8.19,0,0,1-7.95-8.45A8.08,8.08,0,0,1,962.11-2.81Z"/><path class="cls-4" d="M1009.12,403.22a8,8,0,0,1,8-8.08,8.17,8.17,0,0,1,8.08,8.11,8.08,8.08,0,0,1-8.22,8.16A7.91,7.91,0,0,1,1009.12,403.22Z"/><path class="cls-4" d="M1053.85,328.59a7.87,7.87,0,0,1,8.13,7.94,8,8,0,0,1-8.23,8.13,8.14,8.14,0,0,1-8-8.12A8,8,0,0,1,1053.85,328.59Z"/><path class="cls-4" d="M1053.69,124.47a7.82,7.82,0,0,1-8.08-8,8,8,0,0,1,7.93-8.17,8.12,8.12,0,0,1,8.25,8.13A8,8,0,0,1,1053.69,124.47Z"/><path class="cls-4" d="M1061.74,5.24a8.07,8.07,0,0,1-8,8.14,8,8,0,0,1-8.14-8.19,8.06,8.06,0,0,1,16.12,0Z"/><path class="cls-4" d="M1035.4,302.43a8.05,8.05,0,0,1-8.21-7.94,8.13,8.13,0,1,1,8.21,7.94Z"/><path class="cls-4" d="M1090.29,191.29a8.06,8.06,0,0,1-8-8.19,7.82,7.82,0,0,1,8.3-7.94,8,8,0,0,1,7.91,8A8.25,8.25,0,0,1,1090.29,191.29Z"/><path class="cls-4" d="M943.56,13.38a8,8,0,0,1-8.11-8,7.89,7.89,0,0,1,8.1-8.19,8,8,0,0,1,8,8.06A8.09,8.09,0,0,1,943.56,13.38Z"/><path class="cls-4" d="M1127,235.68a7.92,7.92,0,0,1-7.9-8.18,8.15,8.15,0,0,1,8.15-8,8.32,8.32,0,0,1,8.07,8.38A8.09,8.09,0,0,1,1127,235.68Z"/><path class="cls-4" d="M1100.62,227.61a8.24,8.24,0,0,1,8.29-8.14,8.12,8.12,0,0,1,7.89,8.28,7.84,7.84,0,0,1-8.12,7.93A8,8,0,0,1,1100.62,227.61Z"/><path class="cls-4" d="M972.46,425.36a7.66,7.66,0,0,1,8.09-7.85,8,8,0,1,1-.35,16.07C975.65,433.52,972.42,430.09,972.46,425.36Z"/><path class="cls-4" d="M1009.12,470.07A7.84,7.84,0,0,1,1017,462a8.07,8.07,0,1,1,.11,16.13A7.85,7.85,0,0,1,1009.12,470.07Z"/><path class="cls-4" d="M998.85,462a8.07,8.07,0,1,1-.28,16.13,8.07,8.07,0,1,1,.28-16.13Z"/><path class="cls-4" d="M1100.92,447.8a7.84,7.84,0,0,1,8-8.06,7.93,7.93,0,0,1,8.17,8.13,8,8,0,0,1-8.12,8A7.93,7.93,0,0,1,1100.92,447.8Z"/><path class="cls-4" d="M980.22,152.92a7.7,7.7,0,0,1,8,8,8,8,0,0,1-7.91,8.18,8.18,8.18,0,0,1-8.22-8.19A7.92,7.92,0,0,1,980.22,152.92Z"/><path class="cls-4" d="M972.46,336.63c0-4.75,3.23-8,7.9-8a8,8,0,0,1,8.22,8.09,8.1,8.1,0,0,1-8.17,8A7.75,7.75,0,0,1,972.46,336.63Z"/><path class="cls-4" d="M1064,183.22a8.06,8.06,0,1,1,16.12,0,8.06,8.06,0,1,1-16.12,0Z"/><path class="cls-4" d="M1043.53,425.42a7.82,7.82,0,0,1-7.86,8.15,8,8,0,1,1-.23-16.06A7.77,7.77,0,0,1,1043.53,425.42Z"/><path class="cls-4" d="M1072,124.47a7.83,7.83,0,0,1-8-8,8.06,8.06,0,1,1,16.12,0A7.86,7.86,0,0,1,1072,124.47Z"/><path class="cls-4" d="M1082.71,492.34a7.88,7.88,0,0,1,8-8.08,8,8,0,0,1,7.86,8.26,7.92,7.92,0,0,1-15.84-.18Z"/><path class="cls-4" d="M998.55,153a7.73,7.73,0,0,1,7.93,7.86,8,8,0,0,1-8,8.11,8.13,8.13,0,0,1-7.83-8.35A7.68,7.68,0,0,1,998.55,153Z"/></g><g class="cls-9"><path class="cls-2" d="M297.16,21.48a49.45,49.45,0,0,1-5.69-3.1C288.23,16,285,15.73,282,17.84a4.94,4.94,0,0,0-1.34,7.21c3.74,5.6,3.76,6.81,0,12.39a4.89,4.89,0,0,0-.14,5.64c.45.77,1.06,1.44,1.53,2.2a8,8,0,0,1-1.15,10.2,8.1,8.1,0,0,1-10.44.68c-3.15-2.37-4.59-6.94-2.32-10.12,2.85-4,2.94-7.24,0-11.21-2-2.65-1.2-5.82.76-8.53,2.44-3.37,2.61-5.4.65-7.56a7.34,7.34,0,0,0-9-1.34,31.93,31.93,0,0,0-2.69,2,8,8,0,0,1-9.57.13c-6.12-4.22-6.69-4.23-12.75-.07a8.32,8.32,0,0,1-9.78-.13,8.22,8.22,0,0,1-2.51-9.46,7.85,7.85,0,0,1,8.37-5,10.91,10.91,0,0,1,4.69,2.24c3.48,2.75,7.56,2.89,11,.06,3.95-3.24,7.42-3.27,11.44-.11s6.64,3.14,10.63.11c4.36-3.3,7.59-3.26,11.85.16,3.52,2.82,6.88,2.71,10.69-.36,4.1-3.3,9.32-2.79,12.14,1.21a7.69,7.69,0,0,1,.64,8.42,7.61,7.61,0,0,1-7.24,4.3Z"/><path class="cls-2" d="M728.13-5.22c.06,4.48-3.69,7.92-8.55,8.19a20.78,20.78,0,0,0-6.9,1.33c-4,1.73-6.11,5.24-6.91,9.5-.86,4.6-3.7,7.31-7.82,7.46s-7.25-2.54-8.25-7c-.72-3.18-1.81-6.11-4.3-8.37a11.13,11.13,0,0,0-8.15-3,11.44,11.44,0,0,1-8-2.77c-3.17-2.65-6.4-2.6-9.75-.07-5,3.81-7.46,3.81-12.51,0-3.52-2.63-6.44-2.57-10.12.32-2.25,1.77-4.62,3-7.59,2.24a8,8,0,0,1-6.31-7,7.77,7.77,0,0,1,3.67-7.83,8.06,8.06,0,0,1,9.21.33c.55.38,1,.84,1.58,1.24a7.46,7.46,0,0,0,9.63-.13c4.77-3.76,7.52-3.77,12.31-.06,3.46,2.68,6.56,2.67,10.12-.16,2-1.62,4.17-2.89,6.9-2.47a7.91,7.91,0,0,1,7.08,6.94c.89,5.08,3.32,9.16,8.38,10.56,5.53,1.54,11.2,1.83,16-2.47A13.86,13.86,0,0,0,712-6.49c1-5,5-7.66,9.83-6.63A8.12,8.12,0,0,1,728.13-5.22Z"/><path class="cls-2" d="M.22-5.59C-.46-7.81.47-9,2.75-9.66A8.55,8.55,0,0,0,5.31-11.4c5.35-4.1,11.94-1.67,13.36,4.94.17.8.27,1.62.5,2.4A12,12,0,0,0,30,4.83a25.66,25.66,0,0,0,7.54-.27C43,3.26,46-.52,47-6c.85-4.65,3.89-7.35,8.15-7.31s7.31,2.8,8.07,7.17c.81,4.71-3.42,9-8.91,9.07-6.75.06-11.44,3.39-13,9.31-.27,1-.39,2-.66,3a8,8,0,0,1-7,5.94,7.9,7.9,0,0,1-7.86-4.4c-.52-1.05-.69-2.27-1.12-3.37A31.34,31.34,0,0,0,22.29,8a10.45,10.45,0,0,0-9.4-5A11.83,11.83,0,0,1,4.1-.11,3,3,0,0,0,2.8-.94C0-1.36-.19-3.27.22-5.59Z"/><path class="cls-2" d="M342,20.76a8.37,8.37,0,0,1-8.34-7.2,3.83,3.83,0,0,1,.31-2.12,54.16,54.16,0,0,1,2.78-5.07A4.51,4.51,0,0,0,336.6.82c-3.79-5.36-3.74-7.11,0-12.58,1.7-2.47,1.63-3.67-.62-6.6s-3-6-1.06-9.3a8,8,0,0,1,10.41-3.28c4,1.85,5.5,5.6,3.82,9.85a28.89,28.89,0,0,1-2.1,3.91,4.84,4.84,0,0,0,.24,5.63c3.64,5.35,3.61,6.84,0,12.22-1.62,2.39-1.38,3.76.26,6.53a13.8,13.8,0,0,1,2.19,5.86C350,17.5,346.46,20.76,342,20.76Z"/><path class="cls-2" d="M222.71,49.62a7.85,7.85,0,0,1,11.76-7.07c5.13,2.87,9.84,3,14.89-.08a7.63,7.63,0,0,1,10,2.09,8.12,8.12,0,0,1-.09,10.28,7.93,7.93,0,0,1-10.08,1.9c-4.88-3-9.48-2.94-14.44-.08A8,8,0,0,1,222.71,49.62Z"/><path class="cls-2" d="M33.1,59.85A15.52,15.52,0,0,1,36.62,61c4.91,3.07,9.66,3,14.65.07A7.75,7.75,0,0,1,61.33,63a8.17,8.17,0,0,1,.15,10.27c-2.24,2.9-6.57,4.15-9.82,2.19-5.29-3.2-10.23-3.06-15.47,0-2.83,1.68-6.72.75-9.06-1.54a8,8,0,0,1-1.79-8.82A8.7,8.7,0,0,1,33.1,59.85Z"/><path class="cls-2" d="M166.43,58.18a25.08,25.08,0,0,1-4.34-1.54,12.74,12.74,0,0,0-13.89.09,7.55,7.55,0,0,1-9-.39c-2.73-2.05-3.59-4.87-3.15-8.27.49-3.74,6.77-8.11,10.45-5.87.62.38,1.39.54,2,.91,4.53,2.63,8.92,2.53,13.46-.15a8.07,8.07,0,0,1,12.35,5.85A8.42,8.42,0,0,1,166.43,58.18Z"/><path class="cls-2" d="M394.5,31.09c.31,6.26-6.45,9.93-11,7.59-.59-.3-1.23-.52-1.81-.85-4.32-2.45-8.51-2.32-12.9.07a10.85,10.85,0,0,1-5.89,1.28,7.26,7.26,0,0,1-6.55-5.83,7.87,7.87,0,0,1,2.56-8.28,7.48,7.48,0,0,1,8.78-1c5.35,3.06,10.23,2.83,15.53-.18C388.18,21.1,394.51,25.32,394.5,31.09Z"/><path class="cls-2" d="M720,76.51a20,20,0,0,1-4.15-1.38c-4.75-2.9-9.29-2.68-14.1,0a8.08,8.08,0,1,1-.5-14.25,30,30,0,0,0,4.87,2.16c3.41.92,6.56,0,9.59-1.76a7.94,7.94,0,0,1,10,1.2A8.08,8.08,0,0,1,727,72.16,8.46,8.46,0,0,1,720,76.51Z"/><path class="cls-2" d="M218.76,68c0,6.3-6.16,10.27-11.7,7.24-5.05-2.75-9.66-3-14.69,0a7.85,7.85,0,0,1-10.22-2A8.05,8.05,0,0,1,182.33,63a7.93,7.93,0,0,1,10.47-1.64c4.71,2.77,9.18,2.62,13.87-.07A7.88,7.88,0,0,1,218.76,68Z"/><path class="cls-2" d="M483.43,49.4c-.05,3.32-1.25,5.81-4.11,7.31s-6,1.65-8.59-.49c-4.85-4-7.74-4.2-13,0a7.72,7.72,0,0,1-11.06-1.76A8.05,8.05,0,0,1,447.24,44c2.59-2.8,7.43-3.63,10.36-1.1,4.68,4.06,8.83,3.88,13.43,0,2.48-2.12,5.53-1.81,8.39-.27A7.46,7.46,0,0,1,483.43,49.4Z"/><path class="cls-2" d="M400.58,68.32c.22-6.76,7.23-10.88,12.06-7.22,5.1,3.86,9.26,4.21,14.23,0,3-2.53,7.77-1.34,10.38,1.77a8.13,8.13,0,0,1-10.66,12c-.31-.2-.6-.43-.9-.65-4.65-3.66-6.85-3.67-11.67-.12-2.84,2.09-5.91,2.75-9.17,1A7.52,7.52,0,0,1,400.58,68.32Z"/><path class="cls-2" d="M528,31.37a7.65,7.65,0,0,1-4.29,7,8,8,0,0,1-8.46-.52c-.92-.61-1.77-1.36-2.72-1.93-2.89-1.73-5.51-1.45-8.32.41-1.89,1.26-3.94,2.71-6.09,3.08-4.09.71-8.35-3.34-8.55-7.61A7.75,7.75,0,0,1,493,24.57a8,8,0,0,1,8.47-.44,9.16,9.16,0,0,1,1.31.85c5.27,3.85,6.68,3.86,12-.09A8.14,8.14,0,0,1,528,31.37Z"/><path class="cls-2" d="M400.6,32.21c0-4.07,1.32-6.43,4-7.93a7.78,7.78,0,0,1,8.44.14c.25.16.49.33.73.51,5.13,3.87,7,3.88,12,.05a8.11,8.11,0,0,1,11,11.91,8.35,8.35,0,0,1-11.15.54c-4.54-3.55-6.94-3.59-11.5-.14-2.85,2.15-5.9,2.8-9.17,1.16A7.34,7.34,0,0,1,400.6,32.21Z"/><path class="cls-2" d="M698.45-31.37c3.06-.1,5,1.56,6.4,4.05s1.17,5-.21,7.6a25.73,25.73,0,0,0-2.45,6.3A4.65,4.65,0,0,0,703.26-10c3.18,4,3.33,7.37.22,10.48A8.13,8.13,0,0,1,692.55,1a8.13,8.13,0,0,1-1.3-10.87c.29-.43.65-.81,1-1.21,2-2.44,2.1-4.63-.09-7-2.66-2.83-2.85-6-1.48-9.28S695.21-31.24,698.45-31.37Z"/><path class="cls-2" d="M32.69-31.35c6.52,0,10.09,6.33,7.29,11.23a25.61,25.61,0,0,0-2.09,3.65c-.92,2.42-1.29,4.75.86,7,2.69,2.82,2.84,5.85.9,8.71A8.24,8.24,0,0,1,30,2.34c-3.28-1.21-5.56-4.44-5-7.81a13.44,13.44,0,0,1,2.27-5.4c1.91-2.69,2.19-4.84,0-7.17-2.68-2.82-2.81-6-1.46-9.28S30.4-31.21,32.69-31.35Z"/><path class="cls-2" d="M10.62,76.16a7.65,7.65,0,0,1-7-4.34,7.56,7.56,0,0,1,.64-8.39c3-4.08,3-4.58.07-8.75A8.13,8.13,0,0,1,5.14,44.1a7.93,7.93,0,0,1,12.13,10c-.34.58-.75,1.11-1.1,1.68-1.77,2.88-1.65,4.64.56,7.25a7.27,7.27,0,0,1,1.09,8.31A7.84,7.84,0,0,1,10.62,76.16Z"/><path class="cls-2" d="M675.35,76.16a7.75,7.75,0,0,1-6.93-4.41,7.57,7.57,0,0,1,.63-8.22c3.21-4.43,3.21-4.43.11-8.91a8.2,8.2,0,0,1-.27-9.22,8,8,0,0,1,8.19-3.28c3.2.71,6,3.4,6.15,6.77a11.8,11.8,0,0,1-1.7,6c-2.2,3.85-2.3,5,.38,8.57a7.28,7.28,0,0,1,.63,8.17A7.83,7.83,0,0,1,675.35,76.16Z"/><path class="cls-2" d="M85.4-5.32a8.09,8.09,0,0,1-7.92,8.23,8.13,8.13,0,0,1-8.21-8.19,7.94,7.94,0,0,1,8.06-8A7.9,7.9,0,0,1,85.4-5.32Z"/><path class="cls-2" d="M608.75,76.21a8.07,8.07,0,0,1-8.18-8,8.26,8.26,0,0,1,8.33-8.13,8.15,8.15,0,0,1,8,8.17A8,8,0,0,1,608.75,76.21Z"/><path class="cls-2" d="M608.78,57.93a8.27,8.27,0,0,1-8.21-8,8.13,8.13,0,0,1,8.3-8.11,8,8,0,0,1,8,7.87A8.14,8.14,0,0,1,608.78,57.93Z"/><path class="cls-2" d="M497.31,59.84a8.42,8.42,0,0,1,8.52,8,8.2,8.2,0,0,1-8,8.22,8.08,8.08,0,0,1-8.32-7.61A8.24,8.24,0,0,1,497.31,59.84Z"/><path class="cls-2" d="M764.46,57.93a8.22,8.22,0,0,1-8.2-8,8.16,8.16,0,1,1,8.2,8Z"/><path class="cls-2" d="M764.44,21.21a8.21,8.21,0,0,1-8.18-8,8.16,8.16,0,1,1,16.32,0A8.21,8.21,0,0,1,764.44,21.21Z"/><path class="cls-2" d="M764.35,23.43a8,8,0,0,1,8.22,7.91,8.15,8.15,0,0,1-16.3.15A8,8,0,0,1,764.35,23.43Z"/><path class="cls-2" d="M608.91,23.43a8.06,8.06,0,0,1,8,8.13,8.15,8.15,0,0,1-8.41,8,8.31,8.31,0,0,1-7.94-8.07A8.09,8.09,0,0,1,608.91,23.43Z"/><path class="cls-2" d="M180.4,13.12A8.12,8.12,0,0,1,196.63,13a8,8,0,0,1-8.13,8.23A8.16,8.16,0,0,1,180.4,13.12Z"/><path class="cls-2" d="M85.4,13.13a8.07,8.07,0,0,1-16.13,0,8.07,8.07,0,1,1,16.13,0Z"/><path class="cls-2" d="M10.56,5a8.14,8.14,0,0,1,.24,16.28,8.33,8.33,0,0,1-8.34-8.14A8.32,8.32,0,0,1,10.56,5Z"/><path class="cls-2" d="M511.79,49.69a8,8,0,0,1,8-8.14A8.14,8.14,0,0,1,528,49.7a8.32,8.32,0,0,1-8.16,8.08A8.08,8.08,0,0,1,511.79,49.69Z"/><path class="cls-2" d="M107.62-5.25a8.09,8.09,0,0,1-8,8.16,8.18,8.18,0,0,1-8.13-8.29,8.11,8.11,0,0,1,8.15-8A8.06,8.06,0,0,1,107.62-5.25Z"/><path class="cls-2" d="M188.26,57.93a8.14,8.14,0,0,1-7.86-8.3,8.12,8.12,0,1,1,7.86,8.3Z"/><path class="cls-2" d="M289.36,68.1a8.23,8.23,0,0,1,7.94-8.26A8.34,8.34,0,0,1,305.65,68a8.2,8.2,0,0,1-8.1,8.1A8,8,0,0,1,289.36,68.1Z"/><path class="cls-2" d="M475.29,76.06A8.2,8.2,0,0,1,467.21,68a8.33,8.33,0,0,1,8.36-8.11,8,8,0,0,1,7.85,8.28A7.84,7.84,0,0,1,475.29,76.06Z"/><path class="cls-2" d="M297.54-13.51a8,8,0,0,1,8,8,8,8,0,0,1-8.06,8.08,8.05,8.05,0,0,1-8.17-8A8,8,0,0,1,297.54-13.51Z"/><path class="cls-2" d="M489.46,49.66a8.13,8.13,0,0,1,8.09-8.1,8.24,8.24,0,0,1,8.29,7.95,8.42,8.42,0,0,1-8.26,8.27A8.29,8.29,0,0,1,489.46,49.66Z"/><path class="cls-2" d="M400.67,49.7a7.84,7.84,0,0,1,7.92-8.14,8,8,0,0,1,8.21,8.14,8.24,8.24,0,0,1-8.12,8.08A8,8,0,0,1,400.67,49.7Z"/><path class="cls-2" d="M453.11,76.06A8,8,0,0,1,445,68a8.12,8.12,0,1,1,16.23.06A8,8,0,0,1,453.11,76.06Z"/><path class="cls-2" d="M594.62,13.08a8,8,0,0,1-8,8.12,8.11,8.11,0,1,1,8-8.12Z"/><path class="cls-2" d="M166.34,76.21a7.86,7.86,0,0,1-8.12-7.93,8.05,8.05,0,0,1,7.93-8.19,8.2,8.2,0,0,1,8.3,8.11A8,8,0,0,1,166.34,76.21Z"/><path class="cls-2" d="M631.06,57.93a7.86,7.86,0,0,1-8.07-8,7.76,7.76,0,0,1,8.11-8.14,8.11,8.11,0,0,1,8.11,8.06A8.27,8.27,0,0,1,631.06,57.93Z"/><path class="cls-2" d="M550.16,49.88a8.08,8.08,0,0,1-8.24,7.9A8.2,8.2,0,0,1,534,49.29a8.09,8.09,0,0,1,16.17.59Z"/><path class="cls-2" d="M289.36,49.55a8.12,8.12,0,0,1,16.23.06,8.12,8.12,0,1,1-16.23-.06Z"/><path class="cls-2" d="M394.45,49.71a8,8,0,0,1-8.05,8.07,8.26,8.26,0,0,1-8.11-8.33,8.06,8.06,0,0,1,8.25-7.89A7.82,7.82,0,0,1,394.45,49.71Z"/><path class="cls-2" d="M497.69-13.54a8.3,8.3,0,0,1,8.14,8.1,8.26,8.26,0,0,1-8.18,8.05A8,8,0,0,1,489.5-5.6,8,8,0,0,1,497.69-13.54Z"/><path class="cls-2" d="M107.62,13.19a7.94,7.94,0,0,1-8.07,8A8.11,8.11,0,1,1,99.71,5,8,8,0,0,1,107.62,13.19Z"/><path class="cls-2" d="M453.07-13.51a8,8,0,0,1,8.19,7.92,8,8,0,0,1-7.93,8.2A8,8,0,0,1,445-5.45,8,8,0,0,1,453.07-13.51Z"/><path class="cls-2" d="M534,31.32a8.17,8.17,0,0,1,8.22-8.19,8.06,8.06,0,0,1,8,8.17,7.86,7.86,0,0,1-8.06,8A8,8,0,0,1,534,31.32Z"/><path class="cls-2" d="M55.31,23.43a8,8,0,0,1,8,8.16,8.18,8.18,0,0,1-8.45,8A8,8,0,0,1,47,31.23,7.9,7.9,0,0,1,55.31,23.43Z"/><path class="cls-2" d="M742.14,21.2a8.12,8.12,0,0,1,0-16.23,8.21,8.21,0,0,1,8.16,8.26A8.12,8.12,0,0,1,742.14,21.2Z"/><path class="cls-2" d="M188.49-13.32a8,8,0,0,1,8.14,8,8.21,8.21,0,0,1-8.17,8.26,8.3,8.3,0,0,1-8.06-8.18A8,8,0,0,1,188.49-13.32Z"/><path class="cls-2" d="M734.12-5.37a8,8,0,0,1,8.16-7.95,8.1,8.1,0,0,1,8.06,8.09,8.3,8.3,0,0,1-8.1,8.14A8.13,8.13,0,0,1,734.12-5.37Z"/><path class="cls-2" d="M453.18,23.13a8.15,8.15,0,0,1,8.08,8.1,8.12,8.12,0,0,1-16.23.15A8.16,8.16,0,0,1,453.18,23.13Z"/><path class="cls-2" d="M394.42,67.94a7.79,7.79,0,0,1-7.91,8.12,8.08,8.08,0,0,1-8.22-7.92,8.28,8.28,0,0,1,8.14-8.3A7.94,7.94,0,0,1,394.42,67.94Z"/><path class="cls-2" d="M772.58-5.33a8.32,8.32,0,0,1-8,8.24,8.35,8.35,0,0,1-8.29-8,8.32,8.32,0,0,1,8.14-8.36A8.28,8.28,0,0,1,772.58-5.33Z"/><path class="cls-2" d="M356.07,49.56a8.13,8.13,0,0,1,8.15-8,7.88,7.88,0,0,1,8,8.29A8,8,0,0,1,364,57.78,8.22,8.22,0,0,1,356.07,49.56Z"/><path class="cls-2" d="M475.35-13.51a7.88,7.88,0,0,1,8.07,8,7.92,7.92,0,0,1-7.93,8.15,8.2,8.2,0,0,1-8.29-7.89A8.13,8.13,0,0,1,475.35-13.51Z"/><path class="cls-2" d="M586.55,23.43a7.92,7.92,0,0,1,8.07,8,8,8,0,0,1-8,8.12,8.14,8.14,0,0,1-8.23-8.17A8,8,0,0,1,586.55,23.43Z"/><path class="cls-2" d="M283.35,68.05a8,8,0,0,1-8.12,8,8.12,8.12,0,0,1-8.14-8,8.31,8.31,0,0,1,8.05-8.19A8.21,8.21,0,0,1,283.35,68.05Z"/><path class="cls-2" d="M350.07,49.64a8.12,8.12,0,1,1-16.23-.11,8.08,8.08,0,0,1,8.18-8A8,8,0,0,1,350.07,49.64Z"/><path class="cls-2" d="M319.61,76.06a7.89,7.89,0,0,1-7.92-8.14,8.09,8.09,0,0,1,8.07-8.08,8.34,8.34,0,0,1,8.12,8.32A8.13,8.13,0,0,1,319.61,76.06Z"/><path class="cls-2" d="M534,12.77a8,8,0,0,1,8.2-7.92,7.9,7.9,0,0,1,8,8.09,8.13,8.13,0,0,1-8,8.13A8.25,8.25,0,0,1,534,12.77Z"/><path class="cls-2" d="M667.4,13a8.07,8.07,0,1,1,8,8.21A8.12,8.12,0,0,1,667.4,13Z"/><path class="cls-2" d="M394.45,12.83a8,8,0,0,1-7.88,8.24,8.31,8.31,0,0,1-8.28-8.17,8.06,8.06,0,0,1,8.09-8A7.8,7.8,0,0,1,394.45,12.83Z"/><path class="cls-2" d="M534,68A8.25,8.25,0,0,1,542,59.84a8.11,8.11,0,0,1,8.14,8.24,8,8,0,0,1-8.13,8A8,8,0,0,1,534,68Z"/><path class="cls-2" d="M520-13.51A8.12,8.12,0,0,1,528-5.42a8.12,8.12,0,0,1-8.36,8,7.92,7.92,0,0,1-7.86-8.22A7.89,7.89,0,0,1,520-13.51Z"/><path class="cls-2" d="M244.93,68.09a8.11,8.11,0,0,1,8.13-8.25A8.26,8.26,0,0,1,261.13,68a8,8,0,0,1-8,8.08A8,8,0,0,1,244.93,68.09Z"/><path class="cls-2" d="M238.75,68.15a7.77,7.77,0,0,1-8.09,7.91,8,8,0,0,1-7.95-8.14,8.07,8.07,0,0,1,8.06-8.08A7.93,7.93,0,0,1,238.75,68.15Z"/><path class="cls-2" d="M422.89,12.7a7.9,7.9,0,0,1,8.2-7.85,8,8,0,0,1,7.93,8,8.25,8.25,0,0,1-8.15,8.26A8,8,0,0,1,422.89,12.7Z"/><path class="cls-2" d="M511.8,12.79a7.87,7.87,0,0,1,8.13-7.94A8.13,8.13,0,0,1,528,12.93a8.33,8.33,0,0,1-8.11,8.13A8.13,8.13,0,0,1,511.8,12.79Z"/><path class="cls-2" d="M238.8,31.39a7.81,7.81,0,0,1-8.11,7.93,7.9,7.9,0,0,1-8-8.1,8,8,0,1,1,16.09.17Z"/><path class="cls-2" d="M99.53,57.93a8,8,0,0,1-8-8.3,8.07,8.07,0,1,1,8,8.3Z"/><path class="cls-2" d="M719.94,23.43a8.09,8.09,0,0,1,8.19,8,8.19,8.19,0,0,1-8.24,8.18,7.92,7.92,0,0,1-8-8.12A7.78,7.78,0,0,1,719.94,23.43Z"/><path class="cls-2" d="M356.07,12.8a8.05,8.05,0,0,1,8.18-8,7.83,7.83,0,0,1,7.95,8.3,8,8,0,0,1-8,7.91A8.24,8.24,0,0,1,356.07,12.8Z"/><path class="cls-2" d="M556.26,68.16a7.94,7.94,0,0,1,8-8.07,8.06,8.06,0,0,1,8.13,8.22,7.93,7.93,0,0,1-8.17,7.9A7.77,7.77,0,0,1,556.26,68.16Z"/><path class="cls-2" d="M311.68,49.46a7.91,7.91,0,0,1,8.17-7.9,8.15,8.15,0,0,1,8,8.15,8.31,8.31,0,0,1-8.38,8.07A8.09,8.09,0,0,1,311.68,49.46Z"/><path class="cls-2" d="M319.75,23.13a8.24,8.24,0,0,1,8.14,8.29,8.12,8.12,0,0,1-8.28,7.89,7.84,7.84,0,0,1-7.93-8.12A8,8,0,0,1,319.75,23.13Z"/><path class="cls-2" d="M653.24,57.93a8,8,0,0,1-8.07-8,7.85,7.85,0,0,1,8.19-8.09,8,8,0,0,1,8,8.09A8.19,8.19,0,0,1,653.24,57.93Z"/><path class="cls-2" d="M556.25,49.74a8.07,8.07,0,0,1,16.14.1,8.09,8.09,0,0,1-8.26,8.09A8,8,0,0,1,556.25,49.74Z"/><path class="cls-2" d="M99.55,23.43a7.84,7.84,0,0,1,8.07,8,7.93,7.93,0,0,1-8.13,8.16,8,8,0,0,1-8-8.12A7.93,7.93,0,0,1,99.55,23.43Z"/><path class="cls-2" d="M364.14-13.51a7.79,7.79,0,0,1,8.06,8,7.82,7.82,0,0,1-8.08,8.17,8.06,8.06,0,0,1-8.05-8.08A8,8,0,0,1,364.14-13.51Z"/><path class="cls-2" d="M422.89-5.48a7.83,7.83,0,0,1,8-8,8,8,0,0,1,8.13,8,8,8,0,0,1-8.18,8.16A7.86,7.86,0,0,1,422.89-5.48Z"/><path class="cls-2" d="M719.94,5.22a7.94,7.94,0,0,1,8,8.05,8.1,8.1,0,0,1-8.37,7.79,7.73,7.73,0,0,1-7.61-8A7.76,7.76,0,0,1,719.94,5.22Z"/><path class="cls-2" d="M55,5.22a7.89,7.89,0,0,1,8.08,8,8,8,0,0,1-8.26,7.86,7.74,7.74,0,0,1-7.67-7.9A7.74,7.74,0,0,1,55,5.22Z"/><path class="cls-2" d="M1072.79,21.48a50.16,50.16,0,0,1-5.68-3.1c-3.24-2.35-6.52-2.65-9.49-.54a4.94,4.94,0,0,0-1.33,7.21c3.73,5.6,3.76,6.81,0,12.39a4.89,4.89,0,0,0-.13,5.64c.44.77,1.06,1.44,1.53,2.2a8,8,0,0,1-1.16,10.2,8.09,8.09,0,0,1-10.43.68c-3.15-2.37-4.59-6.94-2.33-10.12,2.86-4,3-7.24,0-11.21-2-2.65-1.21-5.82.75-8.53,2.44-3.37,2.61-5.4.66-7.56a7.34,7.34,0,0,0-9-1.34,31.93,31.93,0,0,0-2.69,2,8,8,0,0,1-9.57.13c-6.12-4.22-6.69-4.23-12.75-.07a8.34,8.34,0,0,1-9.79-.13,8.23,8.23,0,0,1-2.5-9.46,7.83,7.83,0,0,1,8.37-5,10.87,10.87,0,0,1,4.68,2.24c3.49,2.75,7.57,2.89,11,.06,4-3.24,7.41-3.27,11.43-.11s6.65,3.14,10.64.11c4.36-3.3,7.58-3.26,11.85.16,3.52,2.82,6.88,2.71,10.68-.36,4.1-3.3,9.32-2.79,12.15,1.21a7.67,7.67,0,0,1,.63,8.42,7.58,7.58,0,0,1-7.23,4.3Z"/><path class="cls-2" d="M775.86-5.59c-.69-2.22.25-3.46,2.53-4.07a8.39,8.39,0,0,0,2.55-1.74c5.36-4.1,11.95-1.67,13.36,4.94.17.8.28,1.62.51,2.4a12,12,0,0,0,10.8,8.89,25.6,25.6,0,0,0,7.53-.27c5.46-1.3,8.52-5.08,9.52-10.57.85-4.65,3.88-7.35,8.15-7.31s7.3,2.8,8.06,7.17c.82,4.71-3.41,9-8.9,9.07-6.75.06-11.44,3.39-13.05,9.31-.27,1-.38,2-.65,3a8,8,0,0,1-7,5.94,7.92,7.92,0,0,1-7.86-4.4c-.51-1.05-.69-2.27-1.11-3.37A31.37,31.37,0,0,0,797.92,8a10.44,10.44,0,0,0-9.39-5,11.82,11.82,0,0,1-8.79-3.06,3.07,3.07,0,0,0-1.3-.83C775.61-1.36,775.45-3.27,775.86-5.59Z"/><path class="cls-2" d="M1117.64,20.76a8.35,8.35,0,0,1-8.33-7.2,3.83,3.83,0,0,1,.31-2.12,52,52,0,0,1,2.78-5.07,4.51,4.51,0,0,0-.16-5.55c-3.79-5.36-3.75-7.11,0-12.58,1.69-2.47,1.63-3.67-.62-6.6s-2.95-6-1.06-9.3A8,8,0,0,1,1121-30.94c4,1.85,5.5,5.6,3.82,9.85a30.05,30.05,0,0,1-2.1,3.91,4.84,4.84,0,0,0,.24,5.63c3.63,5.35,3.61,6.84,0,12.22-1.62,2.39-1.39,3.76.26,6.53a13.93,13.93,0,0,1,2.19,5.86C1125.62,17.5,1122.09,20.76,1117.64,20.76Z"/><path class="cls-2" d="M998.34,49.62a7.86,7.86,0,0,1,11.77-7.07c5.13,2.87,9.84,3,14.88-.08a7.64,7.64,0,0,1,10,2.09,8.12,8.12,0,0,1-.09,10.28,7.93,7.93,0,0,1-10.08,1.9c-4.89-3-9.48-2.94-14.45-.08A8,8,0,0,1,998.34,49.62Z"/><path class="cls-2" d="M808.74,59.85A15.52,15.52,0,0,1,812.26,61c4.91,3.07,9.66,3,14.65.07A7.73,7.73,0,0,1,837,63a8.17,8.17,0,0,1,.16,10.27c-2.24,2.9-6.57,4.15-9.82,2.19-5.3-3.2-10.23-3.06-15.48,0-2.82,1.68-6.71.75-9.06-1.54A8,8,0,0,1,801,65.13,8.71,8.71,0,0,1,808.74,59.85Z"/><path class="cls-2" d="M942.07,58.18a24.79,24.79,0,0,1-4.34-1.54,12.74,12.74,0,0,0-13.89.09,7.55,7.55,0,0,1-9-.39c-2.73-2.05-3.59-4.87-3.15-8.27.48-3.74,6.77-8.11,10.45-5.87.62.38,1.38.54,2,.91,4.52,2.63,8.91,2.53,13.46-.15A8.06,8.06,0,0,1,950,48.81,8.41,8.41,0,0,1,942.07,58.18Z"/><path class="cls-2" d="M1170.14,31.09c.31,6.26-6.45,9.93-11,7.59-.59-.3-1.23-.52-1.81-.85-4.32-2.45-8.51-2.32-12.9.07a10.88,10.88,0,0,1-5.89,1.28,7.26,7.26,0,0,1-6.55-5.83,7.87,7.87,0,0,1,2.55-8.28,7.5,7.5,0,0,1,8.79-1c5.34,3.06,10.23,2.83,15.53-.18C1163.82,21.1,1170.15,25.32,1170.14,31.09Z"/><path class="cls-2" d="M994.4,68c0,6.3-6.16,10.27-11.7,7.24-5.05-2.75-9.66-3-14.69,0a7.85,7.85,0,0,1-10.22-2A8.05,8.05,0,0,1,958,63a7.93,7.93,0,0,1,10.47-1.64c4.7,2.77,9.18,2.62,13.87-.07A7.88,7.88,0,0,1,994.4,68Z"/><path class="cls-2" d="M808.33-31.35c6.51,0,10.09,6.33,7.28,11.23a27.68,27.68,0,0,0-2.09,3.65c-.91,2.42-1.28,4.75.87,7,2.69,2.82,2.83,5.85.89,8.71a8.23,8.23,0,0,1-9.63,3.1c-3.27-1.21-5.55-4.44-5-7.81a13.42,13.42,0,0,1,2.26-5.4c1.91-2.69,2.2-4.84,0-7.17-2.67-2.82-2.8-6-1.45-9.28S806-31.21,808.33-31.35Z"/><path class="cls-2" d="M786.25,76.16a8,8,0,0,1-6.33-12.73c3-4.08,3-4.58.07-8.75a8.14,8.14,0,0,1,.78-10.58,7.93,7.93,0,0,1,12.13,10c-.33.58-.74,1.11-1.09,1.68-1.78,2.88-1.65,4.64.56,7.25a7.27,7.27,0,0,1,1.09,8.31A7.85,7.85,0,0,1,786.25,76.16Z"/><path class="cls-2" d="M861-5.32a8.1,8.1,0,0,1-7.92,8.23,8.13,8.13,0,0,1-8.21-8.19,7.93,7.93,0,0,1,8.06-8A7.9,7.9,0,0,1,861-5.32Z"/><path class="cls-2" d="M956,13.12A8.12,8.12,0,0,1,972.27,13a8,8,0,0,1-8.13,8.23A8.15,8.15,0,0,1,956,13.12Z"/><path class="cls-2" d="M861,13.13a8.07,8.07,0,0,1-16.13,0,8.07,8.07,0,1,1,16.13,0Z"/><path class="cls-2" d="M786.19,5a8.14,8.14,0,0,1,.25,16.28,8.34,8.34,0,0,1-8.35-8.14A8.33,8.33,0,0,1,786.19,5Z"/><path class="cls-2" d="M883.25-5.25a8.08,8.08,0,0,1-8,8.16,8.18,8.18,0,0,1-8.13-8.29,8.11,8.11,0,0,1,8.15-8A8.05,8.05,0,0,1,883.25-5.25Z"/><path class="cls-2" d="M963.9,57.93a8.15,8.15,0,0,1-7.87-8.3,8,8,0,0,1,8.51-7.83,7.9,7.9,0,0,1,7.72,8.14A8,8,0,0,1,963.9,57.93Z"/><path class="cls-2" d="M1065,68.1a8.22,8.22,0,0,1,7.94-8.26,8.33,8.33,0,0,1,8.34,8.12,8.19,8.19,0,0,1-8.1,8.1A8,8,0,0,1,1065,68.1Z"/><path class="cls-2" d="M1073.17-13.51a8,8,0,0,1,8.06,8,8,8,0,0,1-8.06,8.08,8.05,8.05,0,0,1-8.17-8A8,8,0,0,1,1073.17-13.51Z"/><path class="cls-2" d="M942,76.21a7.84,7.84,0,0,1-8.12-7.93,8.05,8.05,0,0,1,7.93-8.19,8.2,8.2,0,0,1,8.3,8.11A8,8,0,0,1,942,76.21Z"/><path class="cls-2" d="M1065,49.55a8.12,8.12,0,0,1,16.24.06,8.12,8.12,0,1,1-16.24-.06Z"/><path class="cls-2" d="M883.25,13.19a7.93,7.93,0,0,1-8.06,8A8.11,8.11,0,1,1,875.35,5,8,8,0,0,1,883.25,13.19Z"/><path class="cls-2" d="M830.94,23.43a8,8,0,0,1,8,8.16,8.17,8.17,0,0,1-8.44,8,8,8,0,0,1-7.79-8.33A7.91,7.91,0,0,1,830.94,23.43Z"/><path class="cls-2" d="M964.12-13.32a8,8,0,0,1,8.15,8,8.21,8.21,0,0,1-8.18,8.26A8.31,8.31,0,0,1,956-5.27,8.05,8.05,0,0,1,964.12-13.32Z"/><path class="cls-2" d="M1131.71,49.56a8.12,8.12,0,0,1,8.15-8,7.88,7.88,0,0,1,8,8.29,8,8,0,0,1-8.16,7.94A8.22,8.22,0,0,1,1131.71,49.56Z"/><path class="cls-2" d="M1059,68.05a8,8,0,0,1-8.12,8,8.13,8.13,0,0,1-8.14-8,8.32,8.32,0,0,1,8-8.19A8.2,8.2,0,0,1,1059,68.05Z"/><path class="cls-2" d="M1125.7,49.64a8.12,8.12,0,1,1-16.23-.11,8.09,8.09,0,0,1,8.19-8A8,8,0,0,1,1125.7,49.64Z"/><path class="cls-2" d="M1095.25,76.06a7.9,7.9,0,0,1-7.93-8.14,8.09,8.09,0,0,1,8.08-8.08,8.34,8.34,0,0,1,8.12,8.32A8.14,8.14,0,0,1,1095.25,76.06Z"/><path class="cls-2" d="M1020.57,68.09a8.11,8.11,0,0,1,8.13-8.25,8.26,8.26,0,0,1,8.07,8.14,8,8,0,0,1-8.06,8.08A7.94,7.94,0,0,1,1020.57,68.09Z"/><path class="cls-2" d="M1014.39,68.15a7.77,7.77,0,0,1-8.09,7.91,8,8,0,0,1-8-8.14,8.08,8.08,0,0,1,8.06-8.08A8,8,0,0,1,1014.39,68.15Z"/><path class="cls-2" d="M1014.43,31.39a7.79,7.79,0,0,1-8.11,7.93,7.91,7.91,0,0,1-8-8.1,8,8,0,1,1,16.09.17Z"/><path class="cls-2" d="M875.17,57.93a8,8,0,0,1-8-8.3,8.07,8.07,0,1,1,8,8.3Z"/><path class="cls-2" d="M1131.71,12.8a8.05,8.05,0,0,1,8.18-8,7.83,7.83,0,0,1,7.95,8.3,8,8,0,0,1-8,7.91A8.24,8.24,0,0,1,1131.71,12.8Z"/><path class="cls-2" d="M1087.32,49.46a7.9,7.9,0,0,1,8.17-7.9,8.14,8.14,0,0,1,8,8.15,8.3,8.3,0,0,1-8.37,8.07A8.09,8.09,0,0,1,1087.32,49.46Z"/><path class="cls-2" d="M1095.39,23.13a8.23,8.23,0,0,1,8.13,8.29,8.12,8.12,0,0,1-8.27,7.89,7.84,7.84,0,0,1-7.93-8.12A8,8,0,0,1,1095.39,23.13Z"/><path class="cls-2" d="M875.19,23.43a7.83,7.83,0,0,1,8.06,8,7.92,7.92,0,0,1-8.13,8.16,8,8,0,0,1-8-8.12A7.93,7.93,0,0,1,875.19,23.43Z"/><path class="cls-2" d="M1139.77-13.51a7.81,7.81,0,0,1,8.07,8,7.83,7.83,0,0,1-8.08,8.17,8.06,8.06,0,0,1-8-8.08A8,8,0,0,1,1139.77-13.51Z"/><path class="cls-2" d="M830.66,5.22a7.88,7.88,0,0,1,8.07,8,8,8,0,0,1-8.25,7.86,7.74,7.74,0,0,1-7.67-7.9A7.72,7.72,0,0,1,830.66,5.22Z"/></g></svg>